v -95 220 35
v -93.75 220 35
v -93.75 220 35.625
v -93.75 220 36.25
v -95 220 36.25
v -95 220 35.625
v -93.75 221.25 35
v -93.75 221.25 35.625
v -93.75 221.25 36.25
v -95 221.25 36.25
v -95 220.625 36.25
v -94.375 221.25 36.25
v -95 220.625 35.625
v -95 221.25 35.625
v -94.375 221.25 35.625
v -94.375 221.25 35
v -95 221.25 35
l 1 2
l 2 3
l 3 4
l 4 5
l 5 6
l 6 1
l 4 3
l 3 2
l 2 7
l 7 8
l 8 9
l 9 4
l 10 11
l 11 5
l 5 4
l 4 9
l 9 12
l 12 10
l 5 11
l 11 13
l 13 6
l 6 5
l 10 14
l 14 13
l 13 11
l 11 10
l 9 8
l 8 15
l 15 12
l 12 9
l 7 16
l 16 15
l 15 8
l 8 7
l 10 12
l 12 15
l 15 14
l 14 10
l 1 17
l 17 16
l 16 7
l 7 2
l 2 1
l 17 1
l 1 6
l 6 13
l 13 14
l 14 17
l 17 14
l 14 15
l 15 16
l 16 17
