# Blender v2.76 (sub 0) OBJ File: ''
# www.blender.org
mtllib blenderEdgeMesh.mtl
o regionSTL.001_regionSTL.004
v -0.047341 0.538138 -0.099292
v -0.045530 0.538138 -0.100135
v -0.049136 0.538138 -0.098416
v -0.050915 0.538138 -0.097507
v -0.052678 0.538138 -0.096566
v -0.038143 0.538138 -0.103175
v -0.040010 0.538138 -0.102466
v -0.036263 0.538138 -0.103851
v -0.034372 0.538138 -0.104492
v -0.041864 0.538138 -0.101722
v -0.043705 0.538138 -0.100945
v -0.012954 0.538138 -0.109235
v -0.014935 0.538138 -0.108981
v -0.010968 0.538138 -0.109452
v -0.008979 0.538138 -0.109633
v -0.006987 0.538138 -0.109778
v -0.022805 0.538138 -0.107610
v -0.020847 0.538138 -0.108006
v -0.016912 0.538138 -0.108692
v -0.018883 0.538138 -0.108367
v -0.024755 0.538138 -0.107178
v -0.026698 0.538138 -0.106711
v -0.028631 0.538138 -0.106209
v -0.030555 0.538138 -0.105671
v -0.032469 0.538138 -0.105099
v 0.010968 0.538138 -0.109452
v 0.008979 0.538138 -0.109633
v 0.012954 0.538138 -0.109235
v 0.014935 0.538138 -0.108981
v 0.022805 0.538138 -0.107610
v 0.020847 0.538138 -0.108006
v 0.018883 0.538138 -0.108367
v 0.016912 0.538138 -0.108692
v 0.036263 0.538138 -0.103851
v 0.038143 0.538138 -0.103175
v 0.040010 0.538138 -0.102466
v 0.041864 0.538138 -0.101722
v 0.049136 0.538138 -0.098416
v 0.047341 0.538138 -0.099292
v 0.052678 0.538138 -0.096566
v 0.050915 0.538138 -0.097507
v 0.054422 0.538138 -0.095594
v 0.043705 0.538138 -0.100945
v 0.045530 0.538138 -0.100135
v 0.034372 0.538138 -0.104492
v 0.032469 0.538138 -0.105099
v 0.026698 0.538138 -0.106711
v 0.024755 0.538138 -0.107178
v 0.028631 0.538138 -0.106209
v 0.030555 0.538138 -0.105671
v 0.006987 0.538138 -0.109778
v -0.004992 0.538138 -0.109887
v -0.002996 0.538138 -0.109959
v -0.000999 0.538138 -0.109996
v 0.000999 0.538138 -0.109996
v 0.002996 0.538138 -0.109959
v 0.004992 0.538138 -0.109887
v -0.095096 0.538138 -0.055288
v -0.096084 0.538138 -0.053552
v -0.097041 0.538138 -0.051799
v -0.099717 0.538138 -0.046438
v -0.098858 0.538138 -0.048241
v -0.100544 0.538138 -0.044619
v -0.097965 0.538138 -0.050028
v -0.109547 0.538138 -0.009974
v -0.109710 0.538138 -0.007983
v -0.109837 0.538138 -0.005990
v -0.109982 0.538138 -0.001997
v -0.110000 0.538138 -0.000000
v -0.109982 0.538138 0.001997
v -0.109927 0.538138 0.003994
v -0.109837 0.538138 0.005990
v -0.109710 0.538138 0.007983
v -0.109927 0.538138 -0.003994
v -0.109348 0.538138 -0.011962
v -0.108841 0.538138 -0.015924
v -0.109113 0.538138 -0.013945
v -0.108191 0.538138 -0.019866
v -0.108534 0.538138 -0.017898
v -0.107813 0.538138 -0.021827
v -0.106949 0.538138 -0.025728
v -0.107399 0.538138 -0.023781
v -0.105389 0.538138 -0.031513
v -0.105944 0.538138 -0.029594
v -0.106464 0.538138 -0.027665
v -0.101338 0.538138 -0.042786
v -0.102098 0.538138 -0.040939
v -0.102825 0.538138 -0.039078
v -0.103517 0.538138 -0.037205
v -0.104800 0.538138 -0.033421
v -0.104176 0.538138 -0.035319
v -0.089691 0.538138 0.063683
v -0.090833 0.538138 0.062044
v -0.091944 0.538138 0.060384
v -0.088520 0.538138 0.065301
v -0.087320 0.538138 0.066898
v -0.086090 0.538138 0.068472
v -0.084833 0.538138 0.070024
v -0.083547 0.538138 0.071553
v -0.050915 0.538138 0.097507
v -0.049136 0.538138 0.098415
v -0.052678 0.538138 0.096566
v -0.047341 0.538138 0.099292
v -0.036263 0.538138 0.103851
v -0.034372 0.538138 0.104492
v -0.038143 0.538138 0.103175
v -0.040010 0.538138 0.102465
v -0.041864 0.538138 0.101722
v -0.043705 0.538138 0.100945
v -0.045530 0.538138 0.100135
v -0.028631 0.538138 0.106209
v -0.026698 0.538138 0.106711
v -0.016912 0.538138 0.108692
v -0.018883 0.538138 0.108367
v -0.020847 0.538138 0.108006
v -0.024755 0.538138 0.107178
v -0.022805 0.538138 0.107610
v -0.014935 0.538138 0.108981
v -0.012954 0.538138 0.109235
v -0.010968 0.538138 0.109452
v -0.008979 0.538138 0.109633
v -0.006987 0.538138 0.109778
v -0.004992 0.538138 0.109887
v -0.002996 0.538138 0.109959
v -0.000999 0.538138 0.109995
v -0.030555 0.538138 0.105671
v -0.032469 0.538138 0.105099
v -0.054422 0.538138 0.095594
v -0.062866 0.538138 0.090266
v -0.064495 0.538138 0.089109
v -0.067688 0.538138 0.086708
v -0.066102 0.538138 0.087923
v -0.069251 0.538138 0.085465
v -0.061216 0.538138 0.091392
v -0.059547 0.538138 0.092489
v -0.056149 0.538138 0.094590
v -0.057858 0.538138 0.093555
v -0.073802 0.538138 0.081567
v -0.076715 0.538138 0.078834
v -0.075271 0.538138 0.080214
v -0.078134 0.538138 0.077428
v -0.079527 0.538138 0.075996
v -0.082234 0.538138 0.073058
v -0.080894 0.538138 0.074540
v -0.072309 0.538138 0.082894
v -0.070792 0.538138 0.084193
v -0.093026 0.538138 0.058705
v -0.103517 0.538138 0.037205
v -0.104800 0.538138 0.033421
v -0.104176 0.538138 0.035319
v -0.105389 0.538138 0.031513
v -0.105944 0.538138 0.029594
v -0.106464 0.538138 0.027665
v -0.106949 0.538138 0.025728
v -0.107399 0.538138 0.023781
v -0.108191 0.538138 0.019866
v -0.107813 0.538138 0.021827
v -0.109348 0.538138 0.011962
v -0.109113 0.538138 0.013945
v -0.109547 0.538138 0.009974
v -0.108841 0.538138 0.015924
v -0.108534 0.538138 0.017898
v -0.102825 0.538138 0.039078
v -0.102098 0.538138 0.040939
v -0.101338 0.538138 0.042786
v -0.100544 0.538138 0.044619
v -0.099717 0.538138 0.046438
v -0.098858 0.538138 0.048241
v -0.097965 0.538138 0.050028
v -0.096084 0.538138 0.053552
v -0.097041 0.538138 0.051799
v -0.094076 0.538138 0.057006
v -0.095096 0.538138 0.055288
v 0.096084 0.538138 -0.053552
v 0.097041 0.538138 -0.051799
v 0.097965 0.538138 -0.050028
v 0.100544 0.538138 -0.044619
v 0.099717 0.538138 -0.046438
v 0.098858 0.538138 -0.048241
v 0.109710 0.538138 -0.007983
v 0.109547 0.538138 -0.009974
v 0.109348 0.538138 -0.011962
v 0.109927 0.538138 -0.003994
v 0.109837 0.538138 -0.005990
v 0.109982 0.538138 0.001997
v 0.110000 0.538138 -0.000000
v 0.109837 0.538138 0.005990
v 0.109927 0.538138 0.003994
v 0.109710 0.538138 0.007983
v 0.109982 0.538138 -0.001997
v 0.109113 0.538138 -0.013945
v 0.108534 0.538138 -0.017898
v 0.108841 0.538138 -0.015924
v 0.107813 0.538138 -0.021827
v 0.107399 0.538138 -0.023781
v 0.105944 0.538138 -0.029594
v 0.106464 0.538138 -0.027665
v 0.106949 0.538138 -0.025728
v 0.102098 0.538138 -0.040939
v 0.101338 0.538138 -0.042786
v 0.102825 0.538138 -0.039078
v 0.103517 0.538138 -0.037205
v 0.105389 0.538138 -0.031513
v 0.104800 0.538138 -0.033421
v 0.104176 0.538138 -0.035319
v 0.108191 0.538138 -0.019866
v 0.002996 0.538138 0.109959
v 0.004992 0.538138 0.109887
v 0.000999 0.538138 0.109995
v 0.006987 0.538138 0.109778
v 0.008979 0.538138 0.109633
v 0.010968 0.538138 0.109452
v 0.012954 0.538138 0.109235
v 0.014935 0.538138 0.108981
v 0.016912 0.538138 0.108692
v 0.018883 0.538138 0.108367
v 0.020847 0.538138 0.108006
v 0.024755 0.538138 0.107178
v 0.026698 0.538138 0.106711
v 0.022805 0.538138 0.107610
v 0.047341 0.538138 0.099292
v 0.049136 0.538138 0.098415
v 0.050915 0.538138 0.097507
v 0.036263 0.538138 0.103851
v 0.032469 0.538138 0.105099
v 0.034372 0.538138 0.104492
v 0.038143 0.538138 0.103175
v 0.040010 0.538138 0.102465
v 0.045530 0.538138 0.100135
v 0.043705 0.538138 0.100945
v 0.041864 0.538138 0.101722
v 0.030555 0.538138 0.105671
v 0.028631 0.538138 0.106209
v 0.089691 0.538138 0.063683
v 0.090833 0.538138 0.062044
v 0.091944 0.538138 0.060384
v 0.088520 0.538138 0.065301
v 0.087320 0.538138 0.066898
v 0.086090 0.538138 0.068472
v 0.084833 0.538138 0.070024
v 0.082234 0.538138 0.073058
v 0.083547 0.538138 0.071553
v 0.062866 0.538138 0.090266
v 0.061216 0.538138 0.091392
v 0.067688 0.538138 0.086708
v 0.066102 0.538138 0.087923
v 0.064495 0.538138 0.089109
v 0.052678 0.538138 0.096566
v 0.054422 0.538138 0.095594
v 0.056149 0.538138 0.094590
v 0.059547 0.538138 0.092489
v 0.057858 0.538138 0.093555
v 0.073802 0.538138 0.081567
v 0.072309 0.538138 0.082894
v 0.075271 0.538138 0.080214
v 0.078134 0.538138 0.077428
v 0.079527 0.538138 0.075996
v 0.080894 0.538138 0.074540
v 0.076715 0.538138 0.078834
v 0.069251 0.538138 0.085465
v 0.070792 0.538138 0.084193
v 0.103517 0.538138 0.037205
v 0.104176 0.538138 0.035319
v 0.104800 0.538138 0.033421
v 0.105389 0.538138 0.031513
v 0.105944 0.538138 0.029594
v 0.106464 0.538138 0.027665
v 0.107399 0.538138 0.023781
v 0.107813 0.538138 0.021827
v 0.106949 0.538138 0.025728
v 0.109113 0.538138 0.013945
v 0.109348 0.538138 0.011962
v 0.109547 0.538138 0.009974
v 0.108841 0.538138 0.015924
v 0.108534 0.538138 0.017898
v 0.108191 0.538138 0.019866
v 0.102098 0.538138 0.040939
v 0.102825 0.538138 0.039078
v 0.101338 0.538138 0.042786
v 0.100544 0.538138 0.044619
v 0.099717 0.538138 0.046438
v 0.098858 0.538138 0.048241
v 0.097965 0.538138 0.050028
v 0.096084 0.538138 0.053552
v 0.097041 0.538138 0.051799
v 0.094076 0.538138 0.057006
v 0.095096 0.538138 0.055288
v 0.093026 0.538138 0.058705
v 0.095096 0.538138 -0.055288
v 0.094076 0.538138 -0.057006
v 0.087320 0.538138 -0.066898
v 0.084833 0.538138 -0.070024
v 0.086090 0.538138 -0.068472
v 0.088520 0.538138 -0.065301
v 0.089691 0.538138 -0.063683
v 0.090833 0.538138 -0.062044
v 0.091944 0.538138 -0.060384
v 0.093026 0.538138 -0.058705
v 0.073802 0.538138 -0.081568
v 0.072309 0.538138 -0.082894
v 0.075271 0.538138 -0.080214
v 0.076715 0.538138 -0.078834
v 0.078134 0.538138 -0.077428
v 0.079527 0.538138 -0.075996
v 0.066102 0.538138 -0.087923
v 0.064495 0.538138 -0.089109
v 0.067688 0.538138 -0.086709
v 0.069251 0.538138 -0.085465
v 0.070792 0.538138 -0.084194
v 0.083547 0.538138 -0.071553
v 0.082234 0.538138 -0.073058
v 0.080894 0.538138 -0.074540
v 0.059547 0.538138 -0.092489
v 0.057858 0.538138 -0.093555
v 0.056149 0.538138 -0.094590
v 0.061216 0.538138 -0.091392
v 0.062866 0.538138 -0.090266
v -0.054422 0.538138 -0.095594
v -0.056149 0.538138 -0.094590
v -0.057858 0.538138 -0.093555
v -0.094076 0.538138 -0.057006
v -0.084833 0.538138 -0.070024
v -0.086090 0.538138 -0.068472
v -0.087320 0.538138 -0.066898
v -0.088520 0.538138 -0.065301
v -0.089691 0.538138 -0.063683
v -0.093026 0.538138 -0.058705
v -0.091944 0.538138 -0.060384
v -0.090833 0.538138 -0.062044
v -0.072309 0.538138 -0.082894
v -0.073802 0.538138 -0.081568
v -0.075271 0.538138 -0.080214
v -0.076715 0.538138 -0.078834
v -0.078134 0.538138 -0.077428
v -0.069251 0.538138 -0.085465
v -0.066102 0.538138 -0.087923
v -0.064495 0.538138 -0.089109
v -0.067688 0.538138 -0.086709
v -0.062866 0.538138 -0.090266
v -0.070792 0.538138 -0.084194
v -0.079527 0.538138 -0.075996
v -0.083547 0.538138 -0.071553
v -0.082234 0.538138 -0.073058
v -0.080894 0.538138 -0.074540
v -0.059547 0.538138 -0.092489
v -0.061216 0.538138 -0.091392
v -0.064495 0.477138 -0.089109
v -0.066102 0.477138 -0.087923
v -0.067688 0.477138 -0.086709
v -0.069251 0.477138 -0.085465
v -0.057858 0.477138 -0.093555
v -0.056149 0.477138 -0.094590
v -0.054422 0.477138 -0.095594
v -0.052678 0.477138 -0.096566
v -0.059547 0.477138 -0.092489
v -0.062866 0.477138 -0.090266
v -0.061216 0.477138 -0.091392
v -0.034372 0.477138 -0.104492
v -0.032469 0.477138 -0.105099
v -0.030555 0.477138 -0.105671
v -0.028631 0.477138 -0.106209
v -0.026698 0.477138 -0.106711
v -0.041864 0.477138 -0.101722
v -0.040010 0.477138 -0.102466
v -0.036263 0.477138 -0.103851
v -0.038143 0.477138 -0.103175
v -0.043705 0.477138 -0.100945
v -0.045530 0.477138 -0.100135
v -0.047341 0.477138 -0.099292
v -0.049136 0.477138 -0.098416
v -0.050915 0.477138 -0.097507
v -0.008979 0.477138 -0.109633
v -0.010968 0.477138 -0.109452
v -0.006987 0.477138 -0.109778
v -0.004992 0.477138 -0.109887
v 0.002996 0.477138 -0.109959
v 0.000999 0.477138 -0.109996
v -0.000999 0.477138 -0.109996
v -0.002996 0.477138 -0.109959
v 0.016912 0.477138 -0.108692
v 0.018883 0.477138 -0.108367
v 0.020847 0.477138 -0.108006
v 0.022805 0.477138 -0.107610
v 0.032469 0.477138 -0.105099
v 0.034372 0.477138 -0.104492
v 0.030555 0.477138 -0.105671
v 0.028631 0.477138 -0.106209
v 0.036263 0.477138 -0.103851
v 0.024755 0.477138 -0.107178
v 0.026698 0.477138 -0.106711
v 0.014935 0.477138 -0.108981
v 0.012954 0.477138 -0.109235
v 0.006987 0.477138 -0.109778
v 0.004992 0.477138 -0.109887
v 0.008979 0.477138 -0.109633
v 0.010968 0.477138 -0.109452
v -0.012954 0.477138 -0.109235
v -0.024755 0.477138 -0.107178
v -0.022805 0.477138 -0.107610
v -0.020847 0.477138 -0.108006
v -0.016912 0.477138 -0.108692
v -0.018883 0.477138 -0.108367
v -0.014935 0.477138 -0.108981
v -0.104800 0.477138 -0.033421
v -0.103517 0.477138 -0.037205
v -0.104176 0.477138 -0.035319
v -0.106464 0.477138 -0.027665
v -0.105944 0.477138 -0.029594
v -0.106949 0.477138 -0.025728
v -0.105389 0.477138 -0.031513
v -0.109348 0.477138 0.011962
v -0.109547 0.477138 0.009974
v -0.109113 0.477138 0.013945
v -0.107813 0.477138 0.021827
v -0.107399 0.477138 0.023781
v -0.106464 0.477138 0.027665
v -0.106949 0.477138 0.025728
v -0.108191 0.477138 0.019866
v -0.108841 0.477138 0.015924
v -0.108534 0.477138 0.017898
v -0.109710 0.477138 0.007983
v -0.109927 0.477138 0.003994
v -0.109837 0.477138 0.005990
v -0.109982 0.477138 0.001997
v -0.109982 0.477138 -0.001997
v -0.109837 0.477138 -0.005990
v -0.109927 0.477138 -0.003994
v -0.109348 0.477138 -0.011962
v -0.109547 0.477138 -0.009974
v -0.109710 0.477138 -0.007983
v -0.108191 0.477138 -0.019866
v -0.107813 0.477138 -0.021827
v -0.107399 0.477138 -0.023781
v -0.108534 0.477138 -0.017898
v -0.109113 0.477138 -0.013945
v -0.108841 0.477138 -0.015924
v -0.110000 0.477138 -0.000000
v -0.078134 0.477138 0.077428
v -0.076715 0.477138 0.078834
v -0.079527 0.477138 0.075996
v -0.075271 0.477138 0.080214
v -0.073802 0.477138 0.081567
v -0.072309 0.477138 0.082894
v -0.070792 0.477138 0.084193
v -0.069251 0.477138 0.085465
v -0.032469 0.477138 0.105099
v -0.030555 0.477138 0.105671
v -0.028631 0.477138 0.106209
v -0.014935 0.477138 0.108981
v -0.016912 0.477138 0.108692
v -0.018883 0.477138 0.108367
v -0.020847 0.477138 0.108006
v -0.022805 0.477138 0.107610
v -0.024755 0.477138 0.107178
v -0.026698 0.477138 0.106711
v -0.008979 0.477138 0.109633
v -0.006987 0.477138 0.109778
v -0.000999 0.477138 0.109995
v 0.000999 0.477138 0.109995
v 0.002996 0.477138 0.109959
v -0.004992 0.477138 0.109887
v -0.002996 0.477138 0.109959
v 0.006987 0.477138 0.109778
v 0.010968 0.477138 0.109452
v 0.008979 0.477138 0.109633
v 0.012954 0.477138 0.109235
v 0.014935 0.477138 0.108981
v 0.018883 0.477138 0.108367
v 0.016912 0.477138 0.108692
v 0.004992 0.477138 0.109887
v -0.010968 0.477138 0.109452
v -0.012954 0.477138 0.109235
v -0.034372 0.477138 0.104492
v -0.036263 0.477138 0.103851
v -0.045530 0.477138 0.100135
v -0.047341 0.477138 0.099292
v -0.049136 0.477138 0.098415
v -0.050915 0.477138 0.097507
v -0.052678 0.477138 0.096566
v -0.043705 0.477138 0.100945
v -0.041864 0.477138 0.101722
v -0.038143 0.477138 0.103175
v -0.040010 0.477138 0.102465
v -0.061216 0.477138 0.091392
v -0.059547 0.477138 0.092489
v -0.057858 0.477138 0.093555
v -0.062866 0.477138 0.090266
v -0.064495 0.477138 0.089109
v -0.067688 0.477138 0.086708
v -0.066102 0.477138 0.087923
v -0.056149 0.477138 0.094590
v -0.054422 0.477138 0.095594
v -0.080894 0.477138 0.074540
v -0.095096 0.477138 0.055288
v -0.097041 0.477138 0.051799
v -0.096084 0.477138 0.053552
v -0.097965 0.477138 0.050028
v -0.098858 0.477138 0.048241
v -0.099717 0.477138 0.046438
v -0.101338 0.477138 0.042786
v -0.102825 0.477138 0.039078
v -0.102098 0.477138 0.040939
v -0.100544 0.477138 0.044619
v -0.105389 0.477138 0.031513
v -0.104800 0.477138 0.033421
v -0.105944 0.477138 0.029594
v -0.103517 0.477138 0.037205
v -0.104176 0.477138 0.035319
v -0.094076 0.477138 0.057006
v -0.093026 0.477138 0.058705
v -0.091944 0.477138 0.060384
v -0.090833 0.477138 0.062044
v -0.088520 0.477138 0.065301
v -0.089691 0.477138 0.063683
v -0.087320 0.477138 0.066898
v -0.086090 0.477138 0.068472
v -0.084833 0.477138 0.070024
v -0.082234 0.477138 0.073058
v -0.083547 0.477138 0.071553
v 0.084833 0.477138 -0.070024
v 0.086090 0.477138 -0.068472
v 0.087320 0.477138 -0.066898
v 0.089691 0.477138 -0.063683
v 0.090833 0.477138 -0.062044
v 0.091944 0.477138 -0.060384
v 0.088520 0.477138 -0.065301
v 0.105944 0.477138 -0.029594
v 0.107399 0.477138 -0.023781
v 0.106949 0.477138 -0.025728
v 0.106464 0.477138 -0.027665
v 0.108191 0.477138 -0.019866
v 0.108534 0.477138 -0.017898
v 0.108841 0.477138 -0.015924
v 0.109113 0.477138 -0.013945
v 0.109348 0.477138 -0.011962
v 0.107813 0.477138 -0.021827
v 0.105389 0.477138 -0.031513
v 0.104800 0.477138 -0.033421
v 0.103517 0.477138 -0.037205
v 0.104176 0.477138 -0.035319
v 0.102098 0.477138 -0.040939
v 0.101338 0.477138 -0.042786
v 0.098858 0.477138 -0.048241
v 0.099717 0.477138 -0.046438
v 0.097965 0.477138 -0.050028
v 0.100544 0.477138 -0.044619
v 0.093026 0.477138 -0.058705
v 0.094076 0.477138 -0.057006
v 0.095096 0.477138 -0.055288
v 0.097041 0.477138 -0.051799
v 0.096084 0.477138 -0.053552
v 0.102825 0.477138 -0.039078
v 0.024755 0.477138 0.107178
v 0.022805 0.477138 0.107610
v 0.032469 0.477138 0.105099
v 0.030555 0.477138 0.105671
v 0.028631 0.477138 0.106209
v 0.026698 0.477138 0.106711
v 0.036263 0.477138 0.103851
v 0.038143 0.477138 0.103175
v 0.040010 0.477138 0.102465
v 0.043705 0.477138 0.100945
v 0.045530 0.477138 0.100135
v 0.041864 0.477138 0.101722
v 0.034372 0.477138 0.104492
v 0.066102 0.477138 0.087923
v 0.064495 0.477138 0.089109
v 0.067688 0.477138 0.086708
v 0.056149 0.477138 0.094590
v 0.057858 0.477138 0.093555
v 0.054422 0.477138 0.095594
v 0.052678 0.477138 0.096566
v 0.062866 0.477138 0.090266
v 0.061216 0.477138 0.091392
v 0.059547 0.477138 0.092489
v 0.049136 0.477138 0.098415
v 0.047341 0.477138 0.099292
v 0.050915 0.477138 0.097507
v 0.099717 0.477138 0.046438
v 0.101338 0.477138 0.042786
v 0.100544 0.477138 0.044619
v 0.098858 0.477138 0.048241
v 0.097965 0.477138 0.050028
v 0.097041 0.477138 0.051799
v 0.096084 0.477138 0.053552
v 0.094076 0.477138 0.057006
v 0.095096 0.477138 0.055288
v 0.078134 0.477138 0.077428
v 0.079527 0.477138 0.075996
v 0.076715 0.477138 0.078834
v 0.082234 0.477138 0.073058
v 0.080894 0.477138 0.074540
v 0.069251 0.477138 0.085465
v 0.070792 0.477138 0.084193
v 0.075271 0.477138 0.080214
v 0.072309 0.477138 0.082894
v 0.073802 0.477138 0.081567
v 0.088520 0.477138 0.065301
v 0.087320 0.477138 0.066898
v 0.086090 0.477138 0.068472
v 0.090833 0.477138 0.062044
v 0.091944 0.477138 0.060384
v 0.093026 0.477138 0.058705
v 0.089691 0.477138 0.063683
v 0.083547 0.477138 0.071553
v 0.084833 0.477138 0.070024
v 0.108841 0.477138 0.015924
v 0.108534 0.477138 0.017898
v 0.109113 0.477138 0.013945
v 0.109348 0.477138 0.011962
v 0.109547 0.477138 0.009974
v 0.109710 0.477138 0.007983
v 0.109837 0.477138 0.005990
v 0.109927 0.477138 0.003994
v 0.109982 0.477138 0.001997
v 0.109837 0.477138 -0.005990
v 0.109710 0.477138 -0.007983
v 0.109547 0.477138 -0.009974
v 0.109927 0.477138 -0.003994
v 0.109982 0.477138 -0.001997
v 0.110000 0.477138 -0.000000
v 0.108191 0.477138 0.019866
v 0.107813 0.477138 0.021827
v 0.107399 0.477138 0.023781
v 0.106949 0.477138 0.025728
v 0.106464 0.477138 0.027665
v 0.105944 0.477138 0.029594
v 0.105389 0.477138 0.031513
v 0.104800 0.477138 0.033421
v 0.104176 0.477138 0.035319
v 0.103517 0.477138 0.037205
v 0.102098 0.477138 0.040939
v 0.102825 0.477138 0.039078
v 0.020847 0.477138 0.108006
v 0.083547 0.477138 -0.071553
v 0.082234 0.477138 -0.073058
v 0.073802 0.477138 -0.081568
v 0.072309 0.477138 -0.082894
v 0.070792 0.477138 -0.084194
v 0.075271 0.477138 -0.080214
v 0.076715 0.477138 -0.078834
v 0.078134 0.477138 -0.077428
v 0.080894 0.477138 -0.074540
v 0.079527 0.477138 -0.075996
v 0.064495 0.477138 -0.089109
v 0.062866 0.477138 -0.090266
v 0.057858 0.477138 -0.093555
v 0.056149 0.477138 -0.094590
v 0.059547 0.477138 -0.092489
v 0.061216 0.477138 -0.091392
v 0.050915 0.477138 -0.097507
v 0.052678 0.477138 -0.096566
v 0.047341 0.477138 -0.099292
v 0.049136 0.477138 -0.098416
v 0.054422 0.477138 -0.095594
v 0.067688 0.477138 -0.086709
v 0.069251 0.477138 -0.085465
v 0.066102 0.477138 -0.087923
v 0.041864 0.477138 -0.101722
v 0.040010 0.477138 -0.102466
v 0.038143 0.477138 -0.103175
v 0.045530 0.477138 -0.100135
v 0.043705 0.477138 -0.100945
v -0.070792 0.477138 -0.084194
v -0.072309 0.477138 -0.082894
v -0.073802 0.477138 -0.081568
v -0.097041 0.477138 -0.051799
v -0.096084 0.477138 -0.053552
v -0.097965 0.477138 -0.050028
v -0.098858 0.477138 -0.048241
v -0.099717 0.477138 -0.046438
v -0.102825 0.477138 -0.039078
v -0.102098 0.477138 -0.040939
v -0.101338 0.477138 -0.042786
v -0.100544 0.477138 -0.044619
v -0.087320 0.477138 -0.066898
v -0.086090 0.477138 -0.068472
v -0.088520 0.477138 -0.065301
v -0.089691 0.477138 -0.063683
v -0.090833 0.477138 -0.062044
v -0.083547 0.477138 -0.071553
v -0.080894 0.477138 -0.074540
v -0.079527 0.477138 -0.075996
v -0.082234 0.477138 -0.073058
v -0.078134 0.477138 -0.077428
v -0.084833 0.477138 -0.070024
v -0.095096 0.477138 -0.055288
v -0.091944 0.477138 -0.060384
v -0.094076 0.477138 -0.057006
v -0.093026 0.477138 -0.058705
v -0.075271 0.477138 -0.080214
v -0.076715 0.477138 -0.078834
v -0.086795 0.338138 0.001998
v -0.086818 0.338138 -0.000000
v -0.077782 0.338138 0.038567
v -0.078649 0.338138 0.036766
v -0.079474 0.338138 0.034947
v -0.080257 0.338138 0.033108
v -0.080998 0.338138 0.031253
v -0.081696 0.338138 0.029380
v -0.083528 0.338138 0.023674
v -0.082350 0.338138 0.027492
v -0.082961 0.338138 0.025590
v -0.084051 0.338138 0.021746
v -0.084529 0.338138 0.019805
v -0.084962 0.338138 0.017855
v -0.085351 0.338138 0.015895
v -0.085694 0.338138 0.013927
v -0.086244 0.338138 0.009969
v -0.085992 0.338138 0.011951
v -0.086450 0.338138 0.007981
v -0.086611 0.338138 0.005990
v -0.086726 0.338138 0.003995
v 0.030786 0.338138 0.081176
v 0.028910 0.338138 0.081863
v 0.064984 0.338138 0.057571
v 0.063642 0.338138 0.059051
v 0.062266 0.338138 0.060500
v 0.060858 0.338138 0.061917
v 0.057944 0.338138 0.064652
v 0.059416 0.338138 0.063301
v 0.056441 0.338138 0.065968
v 0.054908 0.338138 0.067250
v 0.053345 0.338138 0.068495
v 0.051755 0.338138 0.069705
v 0.050137 0.338138 0.070878
v 0.048493 0.338138 0.072013
v 0.045128 0.338138 0.074168
v 0.046823 0.338138 0.073110
v 0.043409 0.338138 0.075187
v 0.041667 0.338138 0.076166
v 0.039903 0.338138 0.077104
v 0.038118 0.338138 0.078002
v 0.036313 0.338138 0.078859
v 0.034489 0.338138 0.079674
v 0.032646 0.338138 0.080446
v 0.027018 0.338138 0.082507
v 0.025112 0.338138 0.083107
v 0.019319 0.338138 0.084641
v 0.023193 0.338138 0.083663
v 0.021262 0.338138 0.084174
v 0.017366 0.338138 0.085063
v 0.015404 0.338138 0.085441
v 0.011456 0.338138 0.086059
v 0.013433 0.338138 0.085772
v 0.009472 0.338138 0.086300
v 0.005491 0.338138 0.086644
v 0.007484 0.338138 0.086495
v 0.003496 0.338138 0.086748
v 0.001499 0.338138 0.086805
v -0.000500 0.338138 0.086817
v -0.004494 0.338138 0.086702
v -0.002497 0.338138 0.086782
v -0.006488 0.338138 0.086575
v -0.010465 0.338138 0.086185
v -0.008479 0.338138 0.086403
v -0.050950 0.338138 0.070296
v -0.052554 0.338138 0.069105
v -0.054130 0.338138 0.067877
v -0.057196 0.338138 0.065314
v -0.055678 0.338138 0.066613
v -0.058684 0.338138 0.063981
v -0.061566 0.338138 0.061213
v -0.060141 0.338138 0.062613
v -0.062958 0.338138 0.059780
v -0.064317 0.338138 0.058315
v -0.065642 0.338138 0.056819
v -0.068187 0.338138 0.053739
v -0.066933 0.338138 0.055294
v -0.069406 0.338138 0.052155
v -0.071732 0.338138 0.048906
v -0.070588 0.338138 0.050544
v -0.073907 0.338138 0.045554
v -0.072839 0.338138 0.047243
v -0.074936 0.338138 0.043841
v -0.076874 0.338138 0.040346
v -0.075925 0.338138 0.042105
v -0.012445 0.338138 0.085921
v -0.014419 0.338138 0.085612
v -0.016386 0.338138 0.085258
v -0.018344 0.338138 0.084858
v -0.020292 0.338138 0.084413
v -0.022229 0.338138 0.083924
v -0.024154 0.338138 0.083390
v -0.026067 0.338138 0.082812
v -0.027966 0.338138 0.082191
v -0.029850 0.338138 0.081525
v -0.031718 0.338138 0.080817
v -0.037218 0.338138 0.078436
v -0.033570 0.338138 0.080065
v -0.035403 0.338138 0.079272
v -0.039013 0.338138 0.077558
v -0.040788 0.338138 0.076640
v -0.042541 0.338138 0.075681
v -0.044271 0.338138 0.074682
v -0.045978 0.338138 0.073643
v -0.049318 0.338138 0.071450
v -0.047661 0.338138 0.072566
v 0.064984 0.338138 -0.057571
v 0.066292 0.338138 -0.056060
v 0.030786 0.338138 -0.081176
v 0.032646 0.338138 -0.080446
v 0.034489 0.338138 -0.079674
v 0.036313 0.338138 -0.078859
v 0.038118 0.338138 -0.078002
v 0.039903 0.338138 -0.077104
v 0.041667 0.338138 -0.076166
v 0.043409 0.338138 -0.075187
v 0.045128 0.338138 -0.074168
v 0.046823 0.338138 -0.073110
v 0.048493 0.338138 -0.072013
v 0.050137 0.338138 -0.070878
v 0.051755 0.338138 -0.069705
v 0.053345 0.338138 -0.068496
v 0.057944 0.338138 -0.064652
v 0.054908 0.338138 -0.067250
v 0.056441 0.338138 -0.065968
v 0.059416 0.338138 -0.063301
v 0.060858 0.338138 -0.061917
v 0.062266 0.338138 -0.060500
v 0.063642 0.338138 -0.059051
v -0.076874 0.338138 -0.040346
v -0.077782 0.338138 -0.038567
v -0.086611 0.338138 -0.005990
v -0.086795 0.338138 -0.001998
v -0.086726 0.338138 -0.003995
v -0.086244 0.338138 -0.009969
v -0.086450 0.338138 -0.007981
v -0.085992 0.338138 -0.011951
v -0.085694 0.338138 -0.013927
v -0.085351 0.338138 -0.015895
v -0.084962 0.338138 -0.017855
v -0.084529 0.338138 -0.019806
v -0.083528 0.338138 -0.023674
v -0.084051 0.338138 -0.021746
v -0.082961 0.338138 -0.025590
v -0.082350 0.338138 -0.027493
v -0.081696 0.338138 -0.029380
v -0.080998 0.338138 -0.031253
v -0.080257 0.338138 -0.033108
v -0.079474 0.338138 -0.034947
v -0.078649 0.338138 -0.036766
v -0.075925 0.338138 -0.042105
v -0.074936 0.338138 -0.043841
v -0.072839 0.338138 -0.047243
v -0.073907 0.338138 -0.045554
v -0.071732 0.338138 -0.048906
v -0.070588 0.338138 -0.050544
v -0.069406 0.338138 -0.052155
v -0.066933 0.338138 -0.055294
v -0.068187 0.338138 -0.053739
v -0.065642 0.338138 -0.056819
v -0.061566 0.338138 -0.061213
v -0.064317 0.338138 -0.058315
v -0.062958 0.338138 -0.059780
v -0.060141 0.338138 -0.062613
v -0.058684 0.338138 -0.063981
v -0.055678 0.338138 -0.066613
v -0.057196 0.338138 -0.065314
v -0.054130 0.338138 -0.067877
v -0.050950 0.338138 -0.070296
v -0.052554 0.338138 -0.069105
v -0.010465 0.338138 -0.086185
v -0.008479 0.338138 -0.086403
v -0.006488 0.338138 -0.086575
v -0.002497 0.338138 -0.086782
v -0.004494 0.338138 -0.086702
v -0.000500 0.338138 -0.086817
v 0.005491 0.338138 -0.086644
v 0.001499 0.338138 -0.086805
v 0.003496 0.338138 -0.086748
v 0.007484 0.338138 -0.086495
v 0.009472 0.338138 -0.086300
v 0.013433 0.338138 -0.085773
v 0.011456 0.338138 -0.086059
v 0.015404 0.338138 -0.085441
v 0.019319 0.338138 -0.084641
v 0.017366 0.338138 -0.085064
v 0.021262 0.338138 -0.084174
v 0.023193 0.338138 -0.083663
v 0.025112 0.338138 -0.083107
v 0.027018 0.338138 -0.082507
v 0.028910 0.338138 -0.081863
v -0.049318 0.338138 -0.071450
v -0.047661 0.338138 -0.072566
v -0.045978 0.338138 -0.073644
v -0.044271 0.338138 -0.074682
v -0.042541 0.338138 -0.075681
v -0.040788 0.338138 -0.076640
v -0.037218 0.338138 -0.078436
v -0.039013 0.338138 -0.077559
v -0.035403 0.338138 -0.079272
v -0.033570 0.338138 -0.080065
v -0.031718 0.338138 -0.080817
v -0.029850 0.338138 -0.081525
v -0.027966 0.338138 -0.082191
v -0.026067 0.338138 -0.082812
v -0.022229 0.338138 -0.083924
v -0.024154 0.338138 -0.083390
v -0.020292 0.338138 -0.084413
v -0.018344 0.338138 -0.084858
v -0.016386 0.338138 -0.085258
v -0.012445 0.338138 -0.085921
v -0.014419 0.338138 -0.085612
v 0.067565 0.338138 -0.054520
v 0.068801 0.338138 -0.052951
v 0.070002 0.338138 -0.051353
v 0.071165 0.338138 -0.049729
v 0.073378 0.338138 -0.046401
v 0.072290 0.338138 -0.048078
v 0.074426 0.338138 -0.044700
v 0.076404 0.338138 -0.041228
v 0.075435 0.338138 -0.042976
v 0.077333 0.338138 -0.039459
v 0.078220 0.338138 -0.037669
v 0.079067 0.338138 -0.035859
v 0.080633 0.338138 -0.032183
v 0.079871 0.338138 -0.034030
v 0.081352 0.338138 -0.030319
v 0.082028 0.338138 -0.028438
v 0.082661 0.338138 -0.026543
v 0.083795 0.338138 -0.022711
v 0.083250 0.338138 -0.024634
v 0.084295 0.338138 -0.020777
v 0.083250 0.338138 0.024634
v 0.083795 0.338138 0.022711
v 0.082661 0.338138 0.026543
v 0.081352 0.338138 0.030318
v 0.082028 0.338138 0.028438
v 0.079871 0.338138 0.034030
v 0.080633 0.338138 0.032183
v 0.079067 0.338138 0.035859
v 0.076404 0.338138 0.041228
v 0.078220 0.338138 0.037669
v 0.077333 0.338138 0.039459
v 0.075435 0.338138 0.042976
v 0.074426 0.338138 0.044700
v 0.072290 0.338138 0.048078
v 0.073378 0.338138 0.046401
v 0.071165 0.338138 0.049729
v 0.067565 0.338138 0.054520
v 0.070002 0.338138 0.051353
v 0.068801 0.338138 0.052950
v 0.066292 0.338138 0.056060
v 0.084295 0.338138 0.020777
v 0.084751 0.338138 -0.018832
v 0.085528 0.338138 -0.014912
v 0.085162 0.338138 -0.016876
v 0.085848 0.338138 -0.012940
v 0.086123 0.338138 -0.010961
v 0.086353 0.338138 -0.008976
v 0.086537 0.338138 -0.006986
v 0.086674 0.338138 -0.004993
v 0.086812 0.338138 0.000999
v 0.086766 0.338138 -0.002997
v 0.086812 0.338138 -0.000999
v 0.086766 0.338138 0.002997
v 0.086674 0.338138 0.004993
v 0.086537 0.338138 0.006986
v 0.086353 0.338138 0.008976
v 0.086123 0.338138 0.010960
v 0.085528 0.338138 0.014912
v 0.085848 0.338138 0.012940
v 0.085162 0.338138 0.016876
v 0.084751 0.338138 0.018831
v -0.350000 0.529561 0.302457
v -0.350000 0.485716 0.212582
v -0.350000 0.529561 0.212582
v -0.350000 0.485716 0.302457
v -0.340278 0.529799 0.212093
v -0.320833 0.530276 0.303922
v -0.311111 0.530514 0.304410
v -0.301389 0.530752 0.304899
v -0.291667 0.530991 0.305387
v -0.252778 0.531944 0.307341
v -0.262500 0.531705 0.306852
v -0.281944 0.531229 0.305876
v -0.272222 0.531467 0.306364
v -0.311111 0.530514 0.210628
v -0.320833 0.530276 0.211116
v -0.291667 0.530991 0.209651
v -0.301389 0.530752 0.210140
v -0.281944 0.531229 0.209163
v -0.252778 0.531944 0.207698
v -0.233333 0.532420 0.206721
v -0.243056 0.532182 0.207209
v -0.223611 0.532659 0.206233
v -0.262500 0.531705 0.208186
v -0.272222 0.531467 0.208675
v -0.330556 0.530038 0.211605
v -0.330556 0.530038 0.303434
v -0.340278 0.529799 0.302945
v -0.155556 0.534326 0.202814
v -0.165278 0.534088 0.203302
v -0.204167 0.533135 0.205256
v -0.213889 0.532897 0.205744
v -0.194444 0.533373 0.204768
v -0.184722 0.533611 0.204279
v -0.175000 0.533850 0.203791
v -0.145833 0.534565 0.312713
v -0.155556 0.534326 0.312224
v -0.175000 0.533850 0.311248
v -0.165278 0.534088 0.311736
v -0.204167 0.533135 0.309783
v -0.223611 0.532659 0.308806
v -0.213889 0.532897 0.309294
v -0.184722 0.533611 0.310759
v -0.194444 0.533373 0.310271
v -0.340278 0.485477 0.302945
v -0.311111 0.484763 0.304410
v -0.301389 0.484524 0.304899
v -0.291667 0.484286 0.305387
v -0.330556 0.485239 0.303434
v -0.320833 0.485001 0.303922
v -0.213889 0.482380 0.309294
v -0.204167 0.482142 0.309783
v -0.194444 0.481904 0.310271
v -0.223611 0.482618 0.308806
v -0.233333 0.482857 0.308317
v -0.243056 0.483095 0.307829
v -0.272222 0.483810 0.306364
v -0.281944 0.484048 0.305876
v -0.262500 0.483571 0.306852
v -0.252778 0.483333 0.307341
v -0.184722 0.481665 0.310759
v -0.320833 0.485001 0.211116
v -0.311111 0.484763 0.210628
v -0.301389 0.484524 0.210140
v -0.291667 0.484286 0.209651
v -0.243056 0.483095 0.207209
v -0.252778 0.483333 0.207698
v -0.233333 0.482857 0.206721
v -0.262500 0.483571 0.208186
v -0.281944 0.484048 0.209163
v -0.272222 0.483810 0.208675
v -0.330556 0.485239 0.211605
v -0.340278 0.485477 0.212093
v -0.223611 0.482618 0.206233
v -0.243056 0.532182 0.307829
v -0.233333 0.532420 0.308317
v -0.184722 0.481665 0.204279
v -0.194444 0.481904 0.204768
v -0.213889 0.482380 0.205744
v -0.204167 0.482142 0.205256
v -0.175000 0.481427 0.203791
v -0.165278 0.481189 0.203302
v -0.155556 0.480951 0.202814
v -0.145833 0.480712 0.202326
v -0.155556 0.480951 0.312224
v -0.145833 0.480712 0.312713
v -0.165278 0.481189 0.311736
v -0.175000 0.481427 0.311248
v -0.136111 0.480474 0.313201
v -0.350000 0.492739 0.305248
v -0.350000 0.500103 0.306948
v -0.350000 0.507638 0.307519
v -0.350000 0.515174 0.306948
v -0.350000 0.522538 0.305248
v -0.350000 0.461064 0.275707
v -0.350000 0.465235 0.284013
v -0.350000 0.458502 0.266773
v -0.350000 0.457638 0.257519
v -0.350000 0.470871 0.223635
v -0.350000 0.465235 0.231025
v -0.350000 0.477777 0.217415
v -0.350000 0.494190 0.209362
v -0.350000 0.503106 0.207725
v -0.350000 0.461064 0.239331
v -0.350000 0.458502 0.248265
v -0.350000 0.556775 0.266773
v -0.350000 0.554213 0.275707
v -0.350000 0.557638 0.257519
v -0.350000 0.556775 0.248265
v -0.350000 0.550042 0.231025
v -0.350000 0.544406 0.223635
v -0.350000 0.521087 0.209362
v -0.350000 0.512171 0.207725
v -0.350000 0.537499 0.217415
v -0.350000 0.554213 0.239331
v -0.350000 0.550042 0.284013
v -0.350000 0.537499 0.297623
v -0.350000 0.544406 0.291404
v -0.350000 0.470871 0.291404
v -0.350000 0.477777 0.297623
v 0.012356 0.475738 -0.021733
v -0.024995 0.475738 -0.000497
v -0.024877 0.475738 -0.002481
v -0.024758 0.475738 0.003468
v -0.024956 0.475738 0.001490
v -0.024601 0.475738 -0.004450
v -0.024169 0.475738 -0.006390
v -0.022431 0.475738 0.011039
v -0.021483 0.475738 0.012786
v -0.019187 0.475738 0.016027
v -0.017853 0.475738 0.017501
v -0.020399 0.475738 0.014452
v -0.005909 0.475738 0.024292
v -0.007820 0.475738 0.023745
v -0.009682 0.475738 0.023049
v -0.011482 0.475738 0.022207
v -0.016406 0.475738 0.018864
v -0.014855 0.475738 0.020108
v -0.013210 0.475738 0.021225
v -0.023896 0.475738 0.007346
v -0.023237 0.475738 0.009222
v -0.024404 0.475738 0.005424
v 0.024601 0.475738 -0.004450
v 0.024169 0.475738 -0.006390
v -0.023585 0.475738 -0.008291
v 0.024956 0.475738 0.001490
v 0.024995 0.475738 -0.000497
v 0.024877 0.475738 -0.002481
v 0.023237 0.475738 0.009222
v 0.022431 0.475738 0.011039
v 0.017853 0.475738 0.017501
v 0.016406 0.475738 0.018864
v 0.019187 0.475738 0.016027
v 0.021483 0.475738 0.012786
v 0.020399 0.475738 0.014452
v 0.005909 0.475738 0.024292
v 0.007820 0.475738 0.023745
v 0.009682 0.475738 0.023049
v 0.014855 0.475738 0.020108
v 0.013210 0.475738 0.021225
v 0.011482 0.475738 0.022207
v 0.023896 0.475738 0.007346
v 0.024404 0.475738 0.005424
v 0.024758 0.475738 0.003468
v 0.003960 0.475738 0.024684
v -0.003960 0.475738 0.024684
v -0.001986 0.475738 0.024921
v 0.000000 0.475738 0.025000
v 0.001986 0.475738 0.024921
v 0.022852 0.475738 -0.010138
v 0.023585 0.475738 -0.008291
v 0.014044 0.475738 -0.020683
v 0.021974 0.475738 -0.011922
v 0.002975 0.475738 -0.024822
v 0.004938 0.475738 -0.024507
v 0.006870 0.475738 -0.024038
v -0.002975 0.475738 -0.024822
v -0.000994 0.475738 -0.024980
v 0.000994 0.475738 -0.024980
v 0.010590 0.475738 -0.022646
v 0.008758 0.475738 -0.023416
v 0.020958 0.475738 -0.013630
v 0.019809 0.475738 -0.015252
v 0.017143 0.475738 -0.018197
v 0.018534 0.475738 -0.016777
v 0.015643 0.475738 -0.019501
v -0.020958 0.475738 -0.013630
v -0.021974 0.475738 -0.011922
v -0.022852 0.475738 -0.010138
v -0.004938 0.475738 -0.024507
v -0.012356 0.475738 -0.021733
v -0.014044 0.475738 -0.020683
v -0.010590 0.475738 -0.022646
v -0.006870 0.475738 -0.024038
v -0.008758 0.475738 -0.023416
v -0.019809 0.475738 -0.015252
v -0.018534 0.475738 -0.016777
v -0.015643 0.475738 -0.019501
v -0.017143 0.475738 -0.018197
v 0.000000 0.538138 0.025000
v 0.001995 0.538138 0.024920
v 0.003977 0.538138 0.024682
v 0.007852 0.538138 0.023735
v 0.009721 0.538138 0.023033
v 0.005933 0.538138 0.024286
v 0.011527 0.538138 0.022184
v 0.013261 0.538138 0.021193
v 0.014909 0.538138 0.020068
v 0.016463 0.538138 0.018814
v 0.017911 0.538138 0.017441
v 0.019246 0.538138 0.015956
v 0.020458 0.538138 0.014370
v 0.021539 0.538138 0.012692
v 0.023283 0.538138 0.009104
v 0.023936 0.538138 0.007217
v 0.022483 0.538138 0.010933
v 0.024435 0.538138 0.005285
v 0.024779 0.538138 0.003318
v 0.024965 0.538138 0.001331
v 0.024991 0.538138 -0.000666
v 0.024858 0.538138 -0.002657
v 0.024567 0.538138 -0.004632
v 0.024119 0.538138 -0.006578
v 0.023518 0.538138 -0.008481
v 0.021869 0.538138 -0.012114
v 0.020833 0.538138 -0.013820
v 0.019664 0.538138 -0.015438
v 0.018369 0.538138 -0.016958
v 0.015438 0.538138 -0.019664
v 0.016958 0.538138 -0.018369
v 0.013820 0.538138 -0.020833
v 0.012114 0.538138 -0.021869
v 0.010330 0.538138 -0.022766
v 0.008481 0.538138 -0.023518
v 0.006578 0.538138 -0.024119
v 0.004632 0.538138 -0.024567
v 0.002657 0.538138 -0.024858
v 0.022766 0.538138 -0.010330
v 0.000666 0.538138 -0.024991
v -0.001331 0.538138 -0.024965
v -0.003318 0.538138 -0.024779
v -0.005285 0.538138 -0.024435
v -0.009104 0.538138 -0.023283
v -0.007217 0.538138 -0.023936
v -0.010933 0.538138 -0.022483
v -0.012692 0.538138 -0.021539
v -0.014370 0.538138 -0.020458
v -0.015956 0.538138 -0.019246
v -0.017441 0.538138 -0.017911
v -0.018814 0.538138 -0.016463
v -0.020068 0.538138 -0.014909
v -0.021193 0.538138 -0.013261
v -0.022184 0.538138 -0.011527
v -0.023735 0.538138 -0.007852
v -0.023033 0.538138 -0.009721
v -0.024286 0.538138 -0.005933
v -0.024682 0.538138 -0.003977
v -0.024920 0.538138 -0.001995
v -0.025000 0.538138 -0.000000
v -0.024814 0.538138 0.003047
v -0.024581 0.538138 0.004556
v -0.024953 0.538138 0.001526
v -0.024158 0.538138 0.006435
v -0.022883 0.538138 0.010069
v -0.023590 0.538138 0.008277
v -0.022039 0.538138 0.011801
v -0.021065 0.538138 0.013463
v -0.019966 0.538138 0.015045
v -0.018748 0.538138 0.016538
v -0.017419 0.538138 0.017933
v -0.015986 0.538138 0.019221
v -0.014458 0.538138 0.020395
v -0.012845 0.538138 0.021448
v -0.011155 0.538138 0.022373
v -0.009399 0.538138 0.023166
v -0.007587 0.538138 0.023821
v -0.005730 0.538138 0.024334
v -0.001925 0.538138 0.024926
v -0.003839 0.538138 0.024703
v -0.183065 -0.239540 0.676081
v -0.192960 -0.239540 0.676081
v -0.192960 -0.229627 0.676059
v -0.192960 -0.209800 0.676015
v -0.192960 -0.219713 0.676037
v -0.192960 -0.199886 0.675993
v -0.192960 -0.189973 0.675971
v -0.192960 -0.180060 0.675949
v -0.192960 -0.170146 0.675928
v -0.143483 -0.239540 0.676081
v -0.153379 -0.239540 0.676081
v -0.123692 -0.239540 0.676081
v -0.133588 -0.239540 0.676081
v -0.103901 -0.239540 0.676081
v -0.113797 -0.239540 0.676081
v -0.163274 -0.239540 0.676081
v -0.173169 -0.239540 0.676081
v -0.192960 -0.071011 0.675709
v -0.192960 -0.061098 0.675687
v -0.192960 -0.051184 0.675665
v -0.192960 -0.041271 0.675644
v -0.192960 -0.031357 0.675622
v -0.192960 -0.021444 0.675600
v -0.192960 -0.011530 0.675578
v -0.183065 -0.001617 0.675556
v -0.192960 -0.001617 0.675556
v -0.153379 -0.001617 0.675556
v -0.163274 -0.001617 0.675556
v -0.123692 -0.001617 0.675556
v -0.133588 -0.001617 0.675556
v -0.113797 -0.001617 0.675556
v -0.143483 -0.001617 0.675556
v -0.173169 -0.001617 0.675556
v 0.192960 -0.199886 0.675993
v -0.192960 -0.110665 0.675797
v -0.192960 -0.080925 0.675731
v -0.192960 -0.150319 0.675884
v -0.192960 -0.160233 0.675906
v -0.192960 -0.140406 0.675862
v -0.192960 -0.130492 0.675840
v -0.192960 -0.120579 0.675818
v -0.192960 -0.100752 0.675775
v -0.192960 -0.090838 0.675753
v -0.004948 -0.239540 0.676081
v 0.004948 -0.239540 0.676081
v 0.014843 -0.239540 0.676081
v 0.034634 -0.239540 0.676081
v 0.024738 -0.239540 0.676081
v 0.044529 -0.239540 0.676081
v 0.054425 -0.239540 0.676081
v 0.113797 -0.239540 0.676081
v 0.103901 -0.239540 0.676081
v 0.123692 -0.239540 0.676081
v 0.133588 -0.239540 0.676081
v 0.163274 -0.239540 0.676081
v 0.153379 -0.239540 0.676081
v 0.192960 -0.239540 0.676081
v 0.183065 -0.239540 0.676081
v 0.173169 -0.239540 0.676081
v 0.192960 -0.229627 0.676059
v 0.192960 -0.219713 0.676037
v 0.192960 -0.209800 0.676015
v 0.192960 -0.180060 0.675949
v 0.192960 -0.189973 0.675971
v 0.192960 -0.160233 0.675906
v 0.192960 -0.150319 0.675884
v 0.192960 -0.140406 0.675862
v 0.192960 -0.130492 0.675840
v 0.192960 -0.170146 0.675928
v 0.143483 -0.239540 0.676081
v 0.094006 -0.239540 0.676081
v 0.084111 -0.239540 0.676081
v 0.074215 -0.239540 0.676081
v 0.064320 -0.239540 0.676081
v 0.004948 -0.001617 0.675556
v -0.004948 -0.001617 0.675556
v 0.024738 -0.001617 0.675556
v 0.044529 -0.001617 0.675556
v 0.034634 -0.001617 0.675556
v 0.014843 -0.001617 0.675556
v 0.103901 -0.001617 0.675556
v 0.113797 -0.001617 0.675556
v 0.123692 -0.001617 0.675556
v 0.192960 -0.090838 0.675753
v 0.192960 -0.100752 0.675775
v 0.192960 -0.110665 0.675797
v 0.192960 -0.071011 0.675709
v 0.192960 -0.061098 0.675687
v 0.192960 -0.051184 0.675665
v 0.192960 -0.041271 0.675644
v 0.192960 -0.080925 0.675731
v 0.153379 -0.001617 0.675556
v 0.163274 -0.001617 0.675556
v 0.183065 -0.001617 0.675556
v 0.192960 -0.001617 0.675556
v 0.192960 -0.011530 0.675578
v 0.192960 -0.021444 0.675600
v 0.173169 -0.001617 0.675556
v 0.192960 -0.031357 0.675622
v 0.143483 -0.001617 0.675556
v 0.133588 -0.001617 0.675556
v 0.084111 -0.001617 0.675556
v 0.094006 -0.001617 0.675556
v 0.064320 -0.001617 0.675556
v 0.074215 -0.001617 0.675556
v 0.054425 -0.001617 0.675556
v 0.192960 -0.120579 0.675818
v -0.014843 -0.001617 0.675556
v -0.024738 -0.001617 0.675556
v -0.034634 -0.001617 0.675556
v -0.054425 -0.001617 0.675556
v -0.064320 -0.001617 0.675556
v -0.074215 -0.001617 0.675556
v -0.094006 -0.001617 0.675556
v -0.084111 -0.001617 0.675556
v -0.103901 -0.001617 0.675556
v -0.044529 -0.001617 0.675556
v -0.024738 -0.239540 0.676081
v -0.014843 -0.239540 0.676081
v -0.064320 -0.239540 0.676081
v -0.054425 -0.239540 0.676081
v -0.084111 -0.239540 0.676081
v -0.094006 -0.239540 0.676081
v -0.074215 -0.239540 0.676081
v -0.044529 -0.239540 0.676081
v -0.034634 -0.239540 0.676081
v 0.086700 0.477138 0.016069
v 0.087874 0.477138 0.007173
v 0.088002 0.477138 0.005382
v 0.087710 0.477138 0.008961
v 0.087509 0.477138 0.010745
v 0.086999 0.477138 0.014298
v 0.087272 0.477138 0.012524
v 0.086336 0.477138 -0.017869
v 0.085909 0.477138 -0.019822
v 0.085437 0.477138 -0.021765
v 0.083760 0.477138 -0.027522
v 0.084363 0.477138 -0.025616
v 0.083115 0.477138 -0.029414
v 0.084922 0.477138 -0.023696
v 0.086719 0.477138 -0.015907
v 0.087058 0.477138 -0.013936
v 0.087351 0.477138 -0.011959
v 0.088093 0.477138 0.003589
v 0.088148 0.477138 0.001795
v 0.088143 0.477138 -0.001999
v 0.088176 0.477138 -0.000000
v 0.087600 0.477138 -0.009975
v 0.087804 0.477138 -0.007986
v 0.088075 0.477138 -0.003997
v 0.087962 0.477138 -0.005993
v 0.072151 0.477138 -0.050671
v 0.070983 0.477138 -0.052294
v 0.069779 0.477138 -0.053890
v 0.065955 0.477138 -0.058508
v 0.067264 0.477138 -0.056998
v 0.064611 0.477138 -0.059989
v 0.068539 0.477138 -0.055458
v 0.044395 0.477138 -0.076173
v 0.046111 0.477138 -0.075147
v 0.042656 0.477138 -0.077160
v 0.035492 0.477138 -0.080707
v 0.037312 0.477138 -0.079881
v 0.039114 0.477138 -0.079015
v 0.040896 0.477138 -0.078108
v 0.051112 0.477138 -0.071839
v 0.049470 0.477138 -0.072979
v 0.047803 0.477138 -0.074082
v 0.060384 0.477138 -0.064242
v 0.063234 0.477138 -0.061438
v 0.061825 0.477138 -0.062856
v 0.058912 0.477138 -0.065595
v 0.057409 0.477138 -0.066914
v 0.052728 0.477138 -0.070661
v 0.054316 0.477138 -0.069448
v 0.055877 0.477138 -0.068198
v 0.073281 0.477138 -0.049022
v 0.074374 0.477138 -0.047348
v 0.075428 0.477138 -0.045649
v 0.081696 0.477138 -0.033152
v 0.080923 0.477138 -0.034996
v 0.082426 0.477138 -0.031291
v 0.080109 0.477138 -0.036822
v 0.079253 0.477138 -0.038629
v 0.076444 0.477138 -0.043927
v 0.077420 0.477138 -0.042182
v 0.078357 0.477138 -0.040416
v 0.010512 0.477138 -0.087537
v 0.012494 0.477138 -0.087276
v 0.008524 0.477138 -0.087753
v 0.002539 0.477138 -0.088130
v 0.000541 0.477138 -0.088164
v -0.001459 0.477138 -0.088154
v 0.004537 0.477138 -0.088049
v 0.006532 0.477138 -0.087924
v -0.025098 0.477138 -0.084518
v -0.023175 0.477138 -0.085066
v -0.027008 0.477138 -0.083927
v -0.034499 0.477138 -0.081136
v -0.032651 0.477138 -0.081897
v -0.036330 0.477138 -0.080333
v -0.028904 0.477138 -0.083294
v -0.030785 0.477138 -0.082617
v -0.021241 0.477138 -0.085569
v -0.019295 0.477138 -0.086029
v -0.003457 0.477138 -0.088098
v -0.005454 0.477138 -0.087997
v -0.007448 0.477138 -0.087851
v -0.009438 0.477138 -0.087660
v -0.015375 0.477138 -0.086815
v -0.017339 0.477138 -0.086444
v -0.013402 0.477138 -0.087141
v -0.011423 0.477138 -0.087423
v -0.058103 0.477138 -0.066312
v -0.056584 0.477138 -0.067613
v -0.055037 0.477138 -0.068878
v -0.063871 0.477138 -0.060777
v -0.062476 0.477138 -0.062209
v -0.065232 0.477138 -0.059313
v -0.059592 0.477138 -0.064978
v -0.061050 0.477138 -0.063610
v -0.078774 0.477138 -0.039598
v -0.079651 0.477138 -0.037801
v -0.080488 0.477138 -0.035986
v -0.082748 0.477138 -0.030431
v -0.082037 0.477138 -0.032300
v -0.083417 0.477138 -0.028547
v -0.081283 0.477138 -0.034151
v -0.077855 0.477138 -0.041374
v -0.076897 0.477138 -0.043128
v -0.075900 0.477138 -0.044861
v -0.067854 0.477138 -0.056294
v -0.069113 0.477138 -0.054741
v -0.066560 0.477138 -0.057818
v -0.070337 0.477138 -0.053160
v -0.071524 0.477138 -0.051552
v -0.074863 0.477138 -0.046570
v -0.073788 0.477138 -0.048256
v -0.072675 0.477138 -0.049917
v -0.053461 0.477138 -0.070108
v -0.051857 0.477138 -0.071303
v -0.038142 0.477138 -0.079489
v -0.039935 0.477138 -0.078603
v -0.043457 0.477138 -0.076712
v -0.041707 0.477138 -0.077678
v -0.050227 0.477138 -0.072460
v -0.048571 0.477138 -0.073580
v -0.045186 0.477138 -0.075707
v -0.046891 0.477138 -0.074663
v 0.016438 0.477138 -0.086620
v 0.014470 0.477138 -0.086971
v 0.033652 0.477138 -0.081491
v 0.031796 0.477138 -0.082233
v 0.029923 0.477138 -0.082933
v 0.028035 0.477138 -0.083590
v 0.026133 0.477138 -0.084204
v 0.018398 0.477138 -0.086225
v 0.020348 0.477138 -0.085786
v 0.022288 0.477138 -0.085302
v 0.024217 0.477138 -0.084775
v -0.088112 0.477138 -0.003080
v -0.088020 0.477138 -0.005077
v -0.088159 0.477138 -0.001081
v -0.087895 0.477138 0.006909
v -0.088029 0.477138 0.004914
v -0.088118 0.477138 0.002917
v -0.088161 0.477138 0.000918
v -0.082096 0.477138 0.032148
v -0.082804 0.477138 0.030278
v -0.081346 0.477138 0.034001
v -0.078847 0.477138 0.039452
v -0.077932 0.477138 0.041230
v -0.076977 0.477138 0.042986
v -0.079721 0.477138 0.037654
v -0.080554 0.477138 0.035837
v -0.084671 0.477138 0.024579
v -0.084091 0.477138 0.026493
v -0.083469 0.477138 0.028393
v -0.087716 0.477138 0.008900
v -0.087491 0.477138 0.010887
v -0.087222 0.477138 0.012868
v -0.086908 0.477138 0.014842
v -0.086549 0.477138 0.016809
v -0.085206 0.477138 0.022653
v -0.085698 0.477138 0.020715
v -0.086146 0.477138 0.018767
v -0.062591 0.477138 0.062094
v -0.063983 0.477138 0.060658
v -0.061167 0.477138 0.063497
v -0.056709 0.477138 0.067508
v -0.055164 0.477138 0.068776
v -0.053590 0.477138 0.070009
v -0.059712 0.477138 0.064867
v -0.058225 0.477138 0.066205
v -0.030938 0.477138 0.082560
v -0.032802 0.477138 0.081837
v -0.034649 0.477138 0.081072
v -0.023332 0.477138 0.085023
v -0.025254 0.477138 0.084472
v -0.021399 0.477138 0.085530
v -0.029058 0.477138 0.083240
v -0.027163 0.477138 0.083877
v -0.036478 0.477138 0.080266
v -0.038289 0.477138 0.079418
v -0.051989 0.477138 0.071207
v -0.050361 0.477138 0.072367
v -0.048707 0.477138 0.073490
v -0.047028 0.477138 0.074576
v -0.040080 0.477138 0.078529
v -0.041850 0.477138 0.077600
v -0.045325 0.477138 0.075623
v -0.043599 0.477138 0.076631
v -0.065342 0.477138 0.059192
v -0.066667 0.477138 0.057695
v -0.075982 0.477138 0.044721
v -0.074949 0.477138 0.046432
v -0.073877 0.477138 0.048119
v -0.072767 0.477138 0.049782
v -0.069214 0.477138 0.054613
v -0.067958 0.477138 0.056169
v -0.070435 0.477138 0.053030
v -0.071619 0.477138 0.051419
v 0.002377 0.477138 0.088134
v 0.004374 0.477138 0.088057
v 0.006370 0.477138 0.087936
v 0.012333 0.477138 0.087299
v 0.010350 0.477138 0.087556
v 0.014309 0.477138 0.086997
v 0.008362 0.477138 0.087769
v 0.038968 0.477138 0.079087
v 0.037165 0.477138 0.079950
v 0.040751 0.477138 0.078183
v 0.045972 0.477138 0.075232
v 0.044254 0.477138 0.076255
v 0.047666 0.477138 0.074170
v 0.042514 0.477138 0.077239
v 0.031644 0.477138 0.082292
v 0.033502 0.477138 0.081553
v 0.035342 0.477138 0.080772
v 0.018239 0.477138 0.086259
v 0.020190 0.477138 0.085823
v 0.016278 0.477138 0.086650
v 0.022131 0.477138 0.085343
v 0.024060 0.477138 0.084820
v 0.029770 0.477138 0.082988
v 0.027881 0.477138 0.083642
v 0.025977 0.477138 0.084252
v 0.067159 0.477138 0.057122
v 0.068437 0.477138 0.055585
v 0.072057 0.477138 0.050804
v 0.073190 0.477138 0.049157
v 0.074286 0.477138 0.047485
v 0.070887 0.477138 0.052425
v 0.069680 0.477138 0.054018
v 0.084315 0.477138 0.025772
v 0.083709 0.477138 0.027677
v 0.084878 0.477138 0.023853
v 0.086303 0.477138 0.018028
v 0.085872 0.477138 0.019981
v 0.085397 0.477138 0.021923
v 0.082368 0.477138 0.031443
v 0.083060 0.477138 0.029568
v 0.075344 0.477138 0.045788
v 0.076363 0.477138 0.044068
v 0.077342 0.477138 0.042325
v 0.078282 0.477138 0.040561
v 0.081634 0.477138 0.033303
v 0.080858 0.477138 0.035145
v 0.080041 0.477138 0.036970
v 0.079182 0.477138 0.038775
v 0.061709 0.477138 0.062970
v 0.063121 0.477138 0.061555
v 0.064500 0.477138 0.060108
v 0.065847 0.477138 0.058630
v 0.052597 0.477138 0.070759
v 0.049335 0.477138 0.073070
v 0.050979 0.477138 0.071933
v 0.054188 0.477138 0.069548
v 0.055751 0.477138 0.068301
v 0.060265 0.477138 0.064354
v 0.058790 0.477138 0.065703
v 0.057285 0.477138 0.067020
v 0.000378 0.477138 0.088165
v -0.001622 0.477138 0.088151
v -0.003620 0.477138 0.088092
v -0.017499 0.477138 0.086412
v -0.015535 0.477138 0.086787
v -0.019454 0.477138 0.085993
v -0.013563 0.477138 0.087117
v -0.011584 0.477138 0.087402
v -0.005616 0.477138 0.087987
v -0.007610 0.477138 0.087837
v -0.009600 0.477138 0.087642
v -0.087471 0.477138 -0.011048
v -0.087699 0.477138 -0.009062
v -0.087882 0.477138 -0.007071
v -0.084625 0.477138 -0.024736
v -0.085164 0.477138 -0.022811
v -0.084042 0.477138 -0.026648
v -0.085659 0.477138 -0.020874
v -0.086111 0.477138 -0.018926
v -0.087198 0.477138 -0.013029
v -0.086880 0.477138 -0.015003
v -0.086518 0.477138 -0.016969
v -0.215852 0.477138 -0.009865
v -0.215000 0.477138 0.000039
v -0.215000 0.538138 0.000039
v -0.215852 0.538138 -0.009865
v -0.216239 0.538138 -0.019797
v -0.216163 0.538138 -0.029737
v -0.208974 0.477138 -0.078811
v -0.206218 0.477138 -0.088361
v -0.215626 0.538138 -0.039663
v -0.211301 0.538138 -0.069147
v -0.213189 0.538138 -0.059388
v -0.214633 0.538138 -0.049553
v -0.206218 0.538138 -0.088361
v -0.203039 0.538138 -0.097779
v -0.199446 0.538138 -0.107048
v -0.195448 0.538138 -0.116148
v -0.208974 0.538138 -0.078811
v -0.211301 0.477138 -0.069147
v -0.214633 0.477138 -0.049553
v -0.213189 0.477138 -0.059388
v -0.216163 0.477138 -0.029737
v -0.216239 0.477138 -0.019797
v -0.215626 0.477138 -0.039663
v -0.169693 0.477138 -0.158542
v -0.127576 0.538138 -0.200545
v -0.175582 0.538138 -0.150534
v -0.181111 0.538138 -0.142274
v -0.186272 0.538138 -0.133778
v -0.163455 0.538138 -0.166282
v -0.156881 0.538138 -0.173738
v -0.149989 0.538138 -0.180900
v -0.142796 0.538138 -0.187761
v -0.169693 0.538138 -0.158542
v -0.102912 0.477138 -0.217277
v -0.094264 0.477138 -0.222178
v -0.135319 0.538138 -0.194311
v -0.111357 0.538138 -0.212034
v -0.119584 0.538138 -0.206455
v -0.094264 0.538138 -0.222178
v -0.085426 0.538138 -0.226728
v -0.076414 0.538138 -0.230923
v -0.067243 0.538138 -0.234755
v -0.102912 0.538138 -0.217277
v -0.111357 0.477138 -0.212034
v -0.127576 0.477138 -0.200545
v -0.119584 0.477138 -0.206455
v -0.142796 0.477138 -0.187761
v -0.149989 0.477138 -0.180900
v -0.135319 0.477138 -0.194311
v -0.163455 0.477138 -0.166282
v -0.156881 0.477138 -0.173738
v -0.191054 0.538138 -0.125064
v 0.169660 0.538138 -0.204980
v -0.175582 0.477138 -0.150534
v -0.186272 0.477138 -0.133778
v -0.181111 0.477138 -0.142274
v -0.195448 0.477138 -0.116148
v -0.199446 0.477138 -0.107048
v -0.203039 0.477138 -0.097779
v -0.191054 0.477138 -0.125064
v -0.019485 0.477138 -0.248218
v -0.009658 0.477138 -0.249716
v -0.029240 0.538138 -0.246311
v -0.038909 0.538138 -0.244003
v -0.048475 0.538138 -0.241303
v -0.009658 0.538138 -0.249716
v 0.010142 0.538138 -0.251454
v 0.020079 0.538138 -0.251695
v 0.000223 0.538138 -0.250796
v -0.019485 0.538138 -0.248218
v 0.079190 0.477138 -0.244820
v 0.069473 0.477138 -0.246915
v 0.088822 0.538138 -0.242364
v 0.049835 0.538138 -0.249990
v 0.059684 0.538138 -0.248641
v 0.069473 0.538138 -0.246915
v 0.039942 0.538138 -0.250954
v 0.079190 0.538138 -0.244820
v 0.098357 0.538138 -0.239553
v 0.107782 0.538138 -0.236394
v 0.030018 0.538138 -0.251525
v 0.059684 0.477138 -0.248641
v 0.049835 0.477138 -0.249990
v 0.039942 0.477138 -0.250954
v 0.030018 0.477138 -0.251525
v 0.020079 0.477138 -0.251695
v 0.010142 0.477138 -0.251454
v 0.000223 0.477138 -0.250796
v 0.161348 0.477138 -0.210432
v 0.152838 0.477138 -0.215570
v 0.135279 0.538138 -0.224885
v 0.144144 0.538138 -0.220389
v 0.152838 0.538138 -0.215570
v 0.126255 0.538138 -0.229054
v 0.161348 0.538138 -0.210432
v 0.177759 0.538138 -0.199216
v 0.185629 0.538138 -0.193145
v 0.207721 0.538138 -0.173137
v 0.214540 0.538138 -0.165904
v 0.221071 0.538138 -0.158411
v 0.200623 0.538138 -0.180096
v 0.193255 0.538138 -0.186769
v 0.221071 0.477138 -0.158411
v 0.214540 0.477138 -0.165904
v 0.207721 0.477138 -0.173137
v 0.200623 0.477138 -0.180096
v 0.193255 0.477138 -0.186769
v 0.185629 0.477138 -0.193145
v 0.169660 0.477138 -0.204980
v 0.177759 0.477138 -0.199216
v 0.117085 0.538138 -0.232892
v 0.144144 0.477138 -0.220389
v 0.135279 0.477138 -0.224885
v 0.126255 0.477138 -0.229054
v 0.117085 0.477138 -0.232892
v 0.107782 0.477138 -0.236394
v 0.098357 0.477138 -0.239553
v 0.088822 0.477138 -0.242364
v -0.057925 0.538138 -0.238218
v -0.029240 0.477138 -0.246311
v -0.038909 0.477138 -0.244003
v -0.048475 0.477138 -0.241303
v -0.067243 0.477138 -0.234755
v -0.076414 0.477138 -0.230923
v -0.085426 0.477138 -0.226728
v -0.057925 0.477138 -0.238218
v -0.087500 0.535994 0.315643
v -0.077778 0.536232 0.316132
v -0.068056 0.536471 0.316620
v -0.058333 0.536709 0.317108
v -0.009722 0.537900 0.319550
v -0.019444 0.537662 0.319062
v 0.000000 0.538138 0.320039
v -0.029167 0.537424 0.318573
v -0.038889 0.537185 0.318085
v -0.048611 0.536947 0.317597
v -0.087500 0.535994 0.199395
v -0.077778 0.536232 0.198907
v -0.068056 0.536471 0.198419
v -0.058333 0.536709 0.197930
v -0.048611 0.536947 0.197442
v -0.009722 0.537900 0.195488
v 0.000000 0.538138 0.195000
v -0.029167 0.537424 0.196465
v -0.019444 0.537662 0.195977
v -0.038889 0.537185 0.196953
v -0.116667 0.535279 0.200861
v -0.097222 0.535756 0.199884
v -0.106944 0.535518 0.200372
v -0.097222 0.535756 0.315155
v -0.106944 0.535518 0.314666
v -0.145833 0.534565 0.202326
v -0.126389 0.535041 0.201349
v -0.136111 0.534803 0.201837
v -0.136111 0.534803 0.313201
v -0.126389 0.535041 0.313690
v -0.116667 0.535279 0.314178
v 0.227447 0.538138 -0.150730
v 0.233490 0.538138 -0.142785
v 0.239198 0.538138 -0.134596
v 0.244576 0.538138 -0.126186
v 0.227447 0.477138 -0.150730
v 0.233490 0.477138 -0.142785
v 0.239198 0.477138 -0.134596
v 0.244576 0.477138 -0.126186
v 0.249630 0.477138 -0.117578
v 0.258778 0.477138 -0.099836
v 0.254363 0.477138 -0.108789
v 0.276097 0.538138 -0.053086
v 0.278599 0.538138 -0.043422
v 0.282610 0.538138 -0.023867
v 0.284105 0.538138 -0.013998
v 0.285249 0.538138 -0.004081
v 0.280772 0.538138 -0.033679
v 0.270123 0.477138 -0.072133
v 0.266657 0.477138 -0.081495
v 0.262876 0.477138 -0.090733
v 0.273270 0.477138 -0.062660
v 0.276097 0.477138 -0.053086
v 0.278599 0.477139 -0.043422
v 0.282610 0.477138 -0.023867
v 0.280772 0.477138 -0.033679
v 0.284105 0.477138 -0.013998
v 0.285249 0.477138 -0.004081
v 0.286032 0.477138 0.005870
v 0.286452 0.477138 0.015844
v 0.286509 0.477138 0.025826
v 0.273270 0.538138 -0.062660
v 0.270123 0.538138 -0.072133
v 0.249630 0.538138 -0.117578
v 0.254363 0.538138 -0.108789
v 0.258778 0.538138 -0.099836
v 0.266657 0.538138 -0.081495
v 0.262876 0.538138 -0.090733
v 0.281558 0.538138 0.075433
v 0.279579 0.538138 0.085217
v 0.274726 0.538138 0.104581
v 0.271876 0.538138 0.114148
v 0.268755 0.538138 0.123631
v 0.277298 0.538138 0.094936
v 0.284556 0.477138 0.055697
v 0.285555 0.477138 0.045765
v 0.286208 0.477138 0.035804
v 0.283220 0.477138 0.065590
v 0.281558 0.477138 0.075433
v 0.279579 0.477138 0.085217
v 0.274726 0.477138 0.104581
v 0.271876 0.477138 0.114148
v 0.268755 0.477138 0.123631
v 0.265369 0.477138 0.133021
v 0.257816 0.477138 0.151500
v 0.261722 0.477138 0.142314
v 0.277298 0.477138 0.094936
v 0.234276 0.538138 0.195458
v 0.228705 0.538138 0.203742
v 0.216565 0.538138 0.219584
v 0.222810 0.538138 0.211797
v 0.249218 0.477138 0.169517
v 0.244519 0.477138 0.178324
v 0.253649 0.477138 0.160572
v 0.239542 0.477138 0.186978
v 0.234276 0.477138 0.195458
v 0.228705 0.477138 0.203742
v 0.216565 0.477138 0.219584
v 0.222810 0.477138 0.211797
v 0.244519 0.538138 0.178324
v 0.239542 0.538138 0.186978
v 0.265369 0.538138 0.133021
v 0.261722 0.538138 0.142314
v 0.257816 0.538138 0.151500
v 0.249218 0.538138 0.169517
v 0.253649 0.538138 0.160572
v 0.283220 0.538138 0.065590
v 0.284556 0.538138 0.055697
v 0.286032 0.538138 0.005870
v 0.286452 0.538138 0.015844
v 0.286509 0.538138 0.025826
v 0.285555 0.538138 0.045765
v 0.286208 0.538138 0.035804
v 0.000000 0.477138 0.180052
v 0.000000 0.485853 0.180052
v 0.000000 0.503281 0.180052
v 0.000000 0.494567 0.180052
v 0.000000 0.485853 0.195000
v 0.000000 0.494567 0.195000
v 0.000000 0.503281 0.195000
v 0.000000 0.477138 0.195000
v 0.000000 0.477138 0.187526
v 0.000000 0.529424 0.195000
v 0.000000 0.529424 0.180052
v 0.000000 0.538138 0.180052
v 0.000000 0.520710 0.195000
v 0.000000 0.538138 0.187526
v 0.000000 0.520710 0.180052
v 0.000000 0.511995 0.195000
v 0.000000 0.511995 0.180052
v -0.009722 0.477377 0.319550
v -0.019444 0.477615 0.319062
v -0.000000 0.477138 0.320039
v -0.029167 0.477853 0.318573
v -0.038889 0.478091 0.318085
v -0.077778 0.479044 0.316132
v -0.068056 0.478806 0.316620
v -0.087500 0.479283 0.315643
v -0.058333 0.478568 0.317108
v -0.048611 0.478330 0.317597
v -0.116667 0.479998 0.314178
v -0.106944 0.479759 0.314666
v -0.097222 0.479521 0.315155
v -0.126389 0.480236 0.313690
v -0.213720 0.477138 0.009709
v -0.211998 0.477138 0.019310
v -0.213720 0.538138 0.009709
v -0.211998 0.538138 0.019310
v -0.207280 0.538138 0.038236
v -0.204306 0.538138 0.047526
v -0.209847 0.538138 0.028825
v -0.178279 0.477138 0.099764
v -0.183573 0.477138 0.091571
v -0.172605 0.477138 0.107699
v -0.197171 0.538138 0.065679
v -0.200934 0.538138 0.056680
v -0.183573 0.538138 0.091571
v -0.188488 0.538138 0.083145
v -0.193021 0.538138 0.074507
v -0.172605 0.538138 0.107699
v -0.166550 0.538138 0.115346
v -0.178279 0.538138 0.099764
v -0.153297 0.538138 0.129653
v -0.160114 0.538138 0.122676
v -0.193021 0.477138 0.074507
v -0.197171 0.477138 0.065679
v -0.188488 0.477138 0.083145
v -0.207280 0.477138 0.038236
v -0.204306 0.477138 0.047526
v -0.209847 0.477138 0.028825
v -0.200934 0.477138 0.056680
v -0.113770 0.477138 0.157916
v -0.104954 0.477138 0.162091
v -0.095921 0.477138 0.165772
v -0.086706 0.477138 0.168973
v -0.138529 0.538138 0.142387
v -0.146101 0.538138 0.136238
v -0.130595 0.538138 0.148060
v -0.113770 0.538138 0.157916
v -0.122329 0.538138 0.153240
v -0.095921 0.538138 0.165772
v -0.086706 0.538138 0.168973
v -0.067866 0.538138 0.174018
v -0.077345 0.538138 0.171714
v -0.104954 0.538138 0.162091
v -0.009755 0.477138 0.180098
v -0.038971 0.538138 0.178563
v -0.058297 0.538138 0.175910
v -0.048659 0.538138 0.177416
v -0.019508 0.538138 0.179880
v -0.029250 0.538138 0.179376
v -0.009755 0.538138 0.180098
v -0.038971 0.477138 0.178563
v -0.029250 0.477138 0.179376
v -0.019508 0.477138 0.179880
v -0.058297 0.477138 0.175910
v -0.067866 0.477138 0.174018
v -0.077345 0.477138 0.171714
v -0.048659 0.477138 0.177416
v -0.130595 0.477138 0.148060
v -0.122329 0.477138 0.153240
v -0.146101 0.477138 0.136238
v -0.153297 0.477138 0.129653
v -0.166550 0.477138 0.115346
v -0.160114 0.477138 0.122676
v -0.138529 0.477138 0.142387
v 0.009908 0.538138 0.319899
v 0.019809 0.538138 0.319484
v 0.029693 0.538138 0.318783
v 0.088051 0.477138 0.307950
v 0.078502 0.477138 0.310594
v 0.049374 0.538138 0.316476
v 0.068862 0.538138 0.312890
v 0.078502 0.538138 0.310594
v 0.059149 0.538138 0.314848
v 0.106821 0.538138 0.301601
v 0.116008 0.538138 0.297887
v 0.097497 0.538138 0.304954
v 0.088051 0.538138 0.307950
v 0.039552 0.538138 0.317784
v 0.068862 0.477138 0.312890
v 0.059149 0.477138 0.314848
v 0.049374 0.477138 0.316476
v 0.039552 0.477138 0.317784
v 0.029693 0.477138 0.318783
v 0.019809 0.477138 0.319484
v 0.009908 0.477138 0.319899
v 0.159315 0.477138 0.273989
v 0.151054 0.538138 0.279461
v 0.142579 0.538138 0.284595
v 0.133903 0.538138 0.289381
v 0.167348 0.538138 0.268188
v 0.182693 0.538138 0.255652
v 0.175144 0.538138 0.262071
v 0.159315 0.538138 0.273989
v 0.189989 0.538138 0.248947
v 0.197026 0.538138 0.241971
v 0.203802 0.538138 0.234741
v 0.210315 0.538138 0.227273
v 0.210315 0.477138 0.227273
v 0.203802 0.477138 0.234741
v 0.197026 0.477138 0.241971
v 0.189989 0.477138 0.248947
v 0.182693 0.477138 0.255652
v 0.175144 0.477138 0.262071
v 0.167348 0.477138 0.268188
v 0.125040 0.538138 0.293814
v 0.151054 0.477138 0.279461
v 0.142579 0.477138 0.284595
v 0.133903 0.477138 0.289381
v 0.116008 0.477138 0.297887
v 0.106821 0.477138 0.301601
v 0.097497 0.477138 0.304954
v 0.125040 0.477138 0.293814
v -0.087500 0.479283 0.199395
v -0.077778 0.479044 0.198907
v -0.068056 0.478806 0.198419
v -0.058333 0.478568 0.197930
v -0.009722 0.477377 0.195488
v -0.019444 0.477615 0.195977
v -0.029167 0.477853 0.196465
v -0.038889 0.478091 0.196953
v -0.048611 0.478330 0.197442
v -0.097222 0.479521 0.199884
v -0.106944 0.479759 0.200372
v -0.136111 0.480474 0.201837
v -0.126389 0.480236 0.201349
v -0.116667 0.479998 0.200861
v -0.170604 -0.024786 0.308278
v -0.170000 -0.025412 0.298352
v -0.171208 -0.024160 0.318205
v -0.171813 -0.023533 0.328131
v -0.173021 -0.022281 0.347984
v -0.172417 -0.022907 0.338058
v -0.173625 -0.021655 0.357911
v -0.174230 -0.021029 0.367837
v -0.174834 -0.020403 0.377763
v -0.175438 -0.019776 0.387690
v -0.176042 -0.019150 0.397616
v -0.176646 -0.018524 0.407543
v -0.177251 -0.017898 0.417469
v -0.177855 -0.017272 0.427396
v -0.179063 -0.016019 0.447248
v -0.179667 -0.015393 0.457175
v -0.178459 -0.016645 0.437322
v -0.180272 -0.014767 0.467101
v -0.180876 -0.014141 0.477028
v -0.182084 -0.012888 0.496881
v -0.182688 -0.012262 0.506807
v -0.183897 -0.011010 0.526660
v -0.184501 -0.010384 0.536586
v -0.183293 -0.011636 0.516733
v -0.186918 -0.007879 0.576292
v -0.187522 -0.007253 0.586218
v -0.185710 -0.009131 0.556439
v -0.186314 -0.008505 0.566366
v -0.185105 -0.009757 0.546513
v -0.188730 -0.006000 0.606071
v -0.189335 -0.005374 0.615998
v -0.190543 -0.004122 0.635851
v -0.189939 -0.004748 0.625924
v -0.192356 -0.002243 0.665630
v -0.191752 -0.002869 0.655703
v -0.191147 -0.003496 0.645777
v -0.188126 -0.006626 0.596145
v -0.181480 -0.013515 0.486954
v 0.170000 -0.025412 0.298352
v 0.170604 -0.024786 0.308278
v 0.173021 -0.022281 0.347984
v 0.174230 -0.021029 0.367837
v 0.173625 -0.021655 0.357911
v 0.172417 -0.022907 0.338058
v 0.171813 -0.023533 0.328131
v 0.171208 -0.024160 0.318205
v 0.176042 -0.019150 0.397616
v 0.175438 -0.019776 0.387690
v 0.177251 -0.017898 0.417469
v 0.176646 -0.018524 0.407543
v 0.179667 -0.015393 0.457175
v 0.179063 -0.016019 0.447248
v 0.180272 -0.014767 0.467101
v 0.177855 -0.017272 0.427396
v 0.178459 -0.016645 0.437322
v 0.174834 -0.020403 0.377763
v 0.183293 -0.011636 0.516733
v 0.183897 -0.011010 0.526660
v 0.182688 -0.012262 0.506807
v 0.182084 -0.012888 0.496881
v 0.185710 -0.009131 0.556439
v 0.185105 -0.009757 0.546513
v 0.186918 -0.007879 0.576292
v 0.187522 -0.007253 0.586218
v 0.186314 -0.008505 0.566366
v 0.184501 -0.010384 0.536586
v 0.188126 -0.006626 0.596145
v 0.188730 -0.006000 0.606071
v 0.190543 -0.004122 0.635851
v 0.189939 -0.004748 0.625924
v 0.189335 -0.005374 0.615998
v 0.191752 -0.002869 0.655703
v 0.192356 -0.002243 0.665630
v 0.191147 -0.003496 0.645777
v 0.181480 -0.013515 0.486954
v 0.180876 -0.014141 0.477028
v 0.170000 -0.217412 0.298775
v -0.170000 -0.217412 0.298775
v -0.166756 -0.025289 0.288900
v -0.157026 -0.024838 0.260545
v -0.192356 -0.238958 0.666151
v -0.191752 -0.238376 0.656222
v -0.190543 -0.237211 0.636364
v -0.188730 -0.235464 0.606577
v -0.189335 -0.236046 0.616506
v -0.189939 -0.236629 0.626435
v -0.191147 -0.237793 0.646293
v -0.186918 -0.233717 0.576789
v -0.185710 -0.232552 0.556931
v -0.186314 -0.233135 0.566860
v -0.185105 -0.231970 0.547002
v -0.183897 -0.230805 0.527144
v -0.183293 -0.230223 0.517215
v -0.182688 -0.229641 0.507286
v -0.182084 -0.229058 0.497357
v -0.184501 -0.231388 0.537073
v -0.187522 -0.234299 0.586719
v -0.188126 -0.234882 0.596648
v -0.180876 -0.227894 0.477499
v -0.180272 -0.227311 0.467570
v -0.178459 -0.225564 0.437782
v -0.179063 -0.226147 0.447711
v -0.179667 -0.226729 0.457641
v -0.177855 -0.224982 0.427853
v -0.177251 -0.224400 0.417924
v -0.176646 -0.223817 0.407995
v -0.175438 -0.222653 0.388137
v -0.174834 -0.222070 0.378208
v -0.176042 -0.223235 0.398066
v -0.173625 -0.220906 0.358350
v -0.173021 -0.220323 0.348421
v -0.174230 -0.221488 0.368279
v -0.172417 -0.219741 0.338491
v -0.171813 -0.219159 0.328562
v -0.171208 -0.218576 0.318633
v -0.170604 -0.217994 0.308704
v -0.181480 -0.228476 0.487428
v 0.192356 -0.238958 0.666151
v 0.191752 -0.238376 0.656222
v 0.190543 -0.237211 0.636364
v 0.188730 -0.235464 0.606577
v 0.189335 -0.236046 0.616506
v 0.189939 -0.236629 0.626435
v 0.191147 -0.237793 0.646293
v 0.186918 -0.233717 0.576789
v 0.187522 -0.234299 0.586719
v 0.185710 -0.232552 0.556931
v 0.186314 -0.233135 0.566860
v 0.183897 -0.230805 0.527144
v 0.184501 -0.231388 0.537073
v 0.182688 -0.229641 0.507286
v 0.182084 -0.229058 0.497357
v 0.183293 -0.230223 0.517215
v 0.185105 -0.231970 0.547002
v 0.188126 -0.234882 0.596648
v 0.180272 -0.227311 0.467570
v 0.179667 -0.226729 0.457641
v 0.179063 -0.226147 0.447711
v 0.180876 -0.227894 0.477499
v 0.177251 -0.224400 0.417924
v 0.176646 -0.223817 0.407995
v 0.177855 -0.224982 0.427853
v 0.176042 -0.223235 0.398066
v 0.178459 -0.225564 0.437782
v 0.174230 -0.221488 0.368279
v 0.173625 -0.220906 0.358350
v 0.173021 -0.220323 0.348421
v 0.171208 -0.218576 0.318633
v 0.170604 -0.217994 0.308704
v 0.172417 -0.219741 0.338491
v 0.171813 -0.219159 0.328562
v 0.175438 -0.222653 0.388137
v 0.174834 -0.222070 0.378208
v 0.181480 -0.228476 0.487428
l 239 240
l 240 242
l 243 247
l 243 244
l 241 242
l 230 231
l 238 239
l 232 233
l 255 259
l 256 259
l 237 238
l 235 236
l 234 237
l 234 235
l 253 255
l 253 254
l 256 257
l 257 258
l 262 278
l 216 217
l 215 216
l 213 214
l 211 212
l 210 211
l 207 208
l 207 209
l 212 213
l 214 215
l 208 210
l 251 252
l 248 249
l 260 261
l 246 247
l 245 246
l 250 252
l 249 250
l 244 251
l 241 258
l 262 263
l 269 276
l 263 264
l 274 275
l 275 276
l 223 248
l 219 233
l 218 219
l 217 220
l 218 220
l 271 272
l 271 274
l 272 273
l 268 270
l 268 269
l 266 267
l 264 265
l 221 229
l 265 266
l 225 232
l 228 231
l 229 230
l 267 270
l 227 228
l 225 226
l 224 227
l 224 226
l 222 223
l 221 222
l 158 160
l 158 159
l 151 152
l 153 154
l 156 157
l 155 157
l 152 153
l 280 281
l 279 280
l 277 278
l 277 279
l 286 288
l 286 287
l 281 282
l 283 285
l 284 287
l 282 283
l 284 285
l 154 155
l 337 339
l 343 344
l 342 343
l 335 338
l 335 340
l 341 344
l 336 338
l 336 337
l 339 346
l 345 346
l 328 329
l 323 324
l 322 323
l 327 328
l 325 326
l 324 325
l 330 340
l 333 334
l 334 341
l 326 329
l 149 151
l 332 333
l 331 332
l 330 331
l 322 342
l 143 144
l 141 142
l 142 144
l 321 327
l 138 140
l 139 140
l 139 141
l 148 150
l 149 150
l 318 319
l 319 320
l 138 145
l 174 289
l 320 345
l 145 146
l 105 127
l 100 101
l 103 110
l 100 102
l 104 105
l 107 108
l 106 107
l 104 106
l 236 288
l 101 103
l 115 117
l 114 115
l 111 112
l 116 117
l 112 116
l 113 114
l 113 118
l 133 146
l 108 109
l 111 126
l 109 110
l 120 121
l 124 125
l 122 123
l 119 120
l 118 119
l 123 124
l 121 122
l 102 128
l 134 135
l 136 137
l 135 137
l 131 132
l 131 133
l 129 130
l 130 132
l 129 134
l 126 127
l 245 260
l 254 261
l 128 136
l 69 70
l 68 69
l 70 71
l 72 73
l 71 72
l 316 317
l 66 67
l 65 66
l 42 315
l 94 147
l 300 309
l 304 312
l 301 302
l 297 298
l 30 31
l 28 29
l 299 300
l 299 301
l 34 45
l 311 312
l 310 311
l 292 293
l 294 295
l 36 37
l 34 35
l 35 36
l 295 296
l 296 297
l 29 33
l 292 310
l 30 48
l 99 143
l 32 33
l 31 32
l 60 64
l 62 64
l 307 308
l 308 309
l 305 306
l 305 307
l 302 303
l 303 304
l 75 77
l 76 77
l 76 79
l 61 63
l 61 62
l 59 60
l 83 90
l 81 82
l 80 82
l 56 57
l 58 59
l 55 56
l 78 79
l 83 84
l 52 53
l 51 57
l 78 80
l 53 54
l 84 85
l 54 55
l 81 85
l 38 41
l 39 44
l 37 43
l 38 39
l 289 290
l 45 46
l 47 49
l 46 50
l 47 48
l 49 50
l 291 293
l 291 294
l 89 91
l 87 88
l 86 87
l 90 91
l 40 42
l 40 41
l 43 44
l 290 298
l 88 89
l 125 209
l 306 317
l 16 52
l 97 98
l 95 96
l 93 94
l 96 97
l 92 95
l 92 93
l 9 25
l 98 99
l 17 21
l 27 51
l 189 273
l 26 27
l 23 24
l 21 22
l 22 23
l 26 28
l 24 25
l 19 20
l 147 172
l 148 163
l 313 316
l 18 20
l 4 5
l 13 19
l 3 4
l 1 2
l 1 3
l 10 11
l 314 315
l 313 314
l 17 18
l 12 13
l 12 14
l 15 16
l 14 15
l 6 8
l 7 10
l 6 7
l 8 9
l 2 11
l 5 318
l 73 160
l 156 162
l 159 161
l 177 200
l 161 162
l 169 171
l 176 179
l 170 171
l 170 173
l 172 173
l 175 176
l 174 175
l 166 167
l 167 168
l 168 169
l 165 166
l 164 165
l 163 164
l 177 178
l 178 179
l 203 204
l 204 205
l 202 205
l 197 198
l 201 202
l 199 200
l 199 201
l 192 206
l 196 203
l 63 86
l 194 206
l 195 198
l 196 197
l 194 195
l 192 193
l 191 193
l 181 182
l 183 184
l 180 181
l 180 184
l 65 75
l 182 191
l 58 321
l 183 190
l 186 190
l 185 188
l 185 186
l 67 74
l 187 188
l 187 189
l 68 74
l 468 634
l 380 391
l 377 378
l 378 379
l 380 381
l 381 382
l 382 383
l 376 394
l 412 421
l 404 406
l 405 406
l 408 410
l 404 410
l 407 408
l 407 409
l 376 377
l 413 419
l 373 397
l 409 433
l 411 413
l 375 379
l 411 412
l 365 366
l 368 369
l 370 371
l 367 368
l 369 370
l 372 373
l 372 374
l 374 375
l 520 635
l 399 400
l 398 399
l 401 403
l 400 402
l 401 402
l 397 403
l 395 396
l 392 396
l 393 395
l 393 394
l 384 385
l 383 389
l 385 388
l 384 386
l 386 387
l 387 390
l 389 390
l 391 392
l 535 618
l 605 606
l 586 603
l 554 634
l 576 577
l 362 398
l 574 575
l 576 578
l 566 567
l 566 568
l 572 578
l 600 606
l 569 570
l 573 574
l 569 571
l 590 595
l 570 575
l 571 572
l 354 371
l 594 596
l 567 573
l 598 604
l 599 600
l 591 605
l 598 599
l 596 597
l 595 597
l 358 365
l 363 367
l 568 593
l 364 366
l 601 602
l 602 603
l 601 604
l 353 354
l 352 353
l 351 355
l 351 352
l 356 357
l 349 350
l 347 348
l 348 349
l 358 359
l 359 360
l 361 362
l 360 361
l 363 364
l 593 594
l 591 592
l 589 592
l 347 356
l 579 582
l 579 581
l 588 589
l 588 590
l 355 357
l 586 587
l 585 587
l 580 581
l 582 583
l 584 585
l 583 584
l 534 535
l 542 546
l 545 550
l 541 542
l 528 529
l 529 530
l 541 552
l 580 632
l 543 544
l 543 545
l 544 546
l 539 552
l 549 551
l 548 549
l 528 536
l 547 548
l 531 536
l 533 534
l 550 551
l 531 532
l 532 533
l 521 522
l 520 521
l 522 526
l 553 558
l 557 558
l 523 524
l 523 526
l 524 525
l 555 565
l 562 564
l 559 560
l 560 561
l 561 564
l 562 563
l 559 565
l 539 540
l 538 540
l 510 511
l 509 510
l 537 538
l 515 516
l 516 517
l 517 519
l 518 519
l 563 577
l 512 514
l 511 512
l 513 515
l 513 514
l 498 499
l 497 498
l 500 502
l 500 503
l 501 502
l 501 507
l 495 497
l 505 508
l 504 505
l 504 506
l 495 496
l 494 496
l 556 557
l 555 556
l 507 508
l 553 554
l 494 509
l 499 503
l 607 608
l 611 612
l 609 610
l 610 611
l 615 621
l 614 615
l 616 617
l 612 613
l 616 619
l 613 614
l 607 609
l 608 622
l 444 445
l 439 441
l 438 439
l 438 440
l 441 442
l 443 444
l 442 443
l 636 643
l 620 621
l 639 657
l 617 618
l 637 640
l 640 641
l 619 620
l 641 642
l 642 644
l 428 435
l 422 423
l 422 424
l 421 423
l 426 430
l 425 427
l 426 427
l 638 639
l 637 638
l 431 434
l 432 433
l 434 436
l 435 436
l 416 417
l 415 417
l 414 415
l 635 636
l 431 432
l 414 418
l 428 429
l 424 437
l 429 430
l 425 437
l 628 629
l 629 630
l 630 631
l 624 625
l 622 623
l 527 537
l 623 624
l 632 633
l 631 633
l 418 420
l 627 628
l 625 626
l 626 627
l 525 547
l 527 530
l 419 420
l 666 691
l 440 493
l 664 665
l 662 663
l 665 666
l 647 649
l 645 646
l 647 648
l 648 655
l 646 650
l 651 654
l 643 644
l 652 655
l 651 652
l 656 657
l 656 658
l 653 654
l 660 661
l 659 660
l 682 683
l 682 684
l 683 685
l 681 686
l 681 684
l 678 679
l 446 473
l 649 650
l 679 680
l 645 658
l 680 688
l 685 692
l 688 690
l 687 689
l 691 692
l 689 690
l 448 455
l 416 506
l 653 662
l 449 472
l 445 489
l 447 448
l 446 447
l 677 686
l 676 678
l 676 677
l 667 668
l 667 669
l 454 455
l 659 663
l 451 452
l 450 451
l 453 454
l 449 450
l 669 670
l 452 453
l 668 687
l 674 675
l 672 673
l 405 672
l 670 671
l 673 674
l 671 675
l 474 482
l 486 491
l 471 472
l 473 474
l 493 518
l 459 460
l 458 462
l 463 470
l 458 459
l 457 461
l 456 457
l 481 483
l 480 481
l 478 479
l 388 661
l 461 462
l 482 483
l 475 480
l 476 477
l 456 471
l 460 470
l 468 469
l 467 469
l 477 478
l 466 467
l 464 465
l 464 466
l 475 476
l 463 465
l 491 492
l 484 487
l 487 488
l 485 486
l 350 664
l 484 485
l 479 492
l 488 490
l 489 490
l 802 803
l 822 843
l 790 791
l 793 794
l 792 793
l 797 798
l 794 795
l 796 798
l 795 796
l 801 802
l 799 800
l 806 807
l 811 812
l 807 808
l 810 811
l 809 810
l 808 809
l 814 816
l 816 817
l 815 817
l 815 818
l 813 814
l 812 813
l 819 820
l 818 819
l 820 821
l 773 775
l 773 774
l 768 770
l 768 769
l 775 777
l 776 777
l 759 761
l 758 759
l 771 774
l 770 772
l 760 761
l 760 762
l 771 772
l 757 758
l 799 821
l 752 753
l 752 754
l 754 756
l 755 756
l 804 805
l 803 804
l 805 806
l 755 778
l 762 764
l 763 764
l 763 765
l 765 766
l 766 767
l 767 769
l 746 748
l 751 753
l 747 748
l 747 749
l 749 750
l 750 751
l 743 745
l 744 746
l 744 745
l 742 743
l 737 738
l 739 742
l 738 740
l 739 741
l 740 741
l 695 776
l 955 956
l 951 952
l 954 956
l 952 953
l 953 955
l 954 957
l 957 958
l 960 961
l 959 960
l 958 959
l 961 963
l 964 965
l 962 964
l 962 963
l 801 883
l 863 903
l 861 884
l 716 944
l 694 825
l 714 715
l 860 862
l 858 860
l 858 859
l 861 862
l 717 718
l 864 865
l 863 864
l 857 859
l 854 855
l 853 856
l 853 855
l 856 857
l 714 736
l 716 717
l 852 854
l 849 851
l 845 846
l 844 846
l 845 847
l 848 849
l 843 844
l 850 851
l 850 852
l 847 848
l 897 899
l 895 896
l 896 897
l 898 900
l 898 899
l 902 904
l 903 904
l 890 891
l 890 892
l 893 894
l 892 893
l 894 895
l 698 699
l 699 700
l 705 706
l 700 702
l 702 703
l 701 704
l 701 703
l 901 902
l 900 901
l 704 705
l 706 707
l 707 708
l 709 710
l 709 711
l 708 710
l 712 713
l 711 712
l 693 694
l 800 905
l 877 878
l 874 875
l 876 878
l 877 879
l 872 873
l 874 876
l 869 871
l 869 872
l 870 871
l 866 867
l 865 867
l 866 868
l 697 698
l 882 883
l 868 870
l 881 882
l 880 881
l 696 697
l 879 880
l 885 886
l 888 889
l 886 887
l 887 888
l 873 875
l 889 891
l 884 885
l 695 696
l 693 713
l 715 737
l 950 951
l 947 949
l 947 948
l 949 950
l 928 929
l 927 929
l 925 927
l 925 926
l 919 920
l 917 919
l 916 918
l 917 918
l 822 823
l 914 915
l 915 916
l 920 921
l 922 924
l 922 923
l 921 923
l 827 829
l 946 948
l 827 828
l 824 826
l 824 828
l 945 965
l 825 826
l 926 945
l 924 946
l 928 931
l 930 932
l 932 934
l 930 931
l 934 935
l 823 842
l 933 935
l 933 936
l 942 943
l 941 944
l 941 943
l 936 937
l 940 942
l 937 939
l 938 940
l 938 939
l 757 797
l 724 725
l 725 726
l 722 723
l 723 724
l 726 727
l 727 729
l 730 731
l 728 729
l 734 735
l 732 733
l 728 730
l 735 736
l 731 732
l 733 734
l 719 721
l 720 721
l 720 722
l 718 719
l 829 830
l 832 833
l 831 832
l 778 779
l 830 831
l 833 835
l 838 839
l 839 840
l 841 842
l 840 841
l 836 837
l 837 838
l 834 836
l 834 835
l 912 914
l 911 913
l 912 913
l 909 911
l 909 910
l 908 910
l 905 906
l 906 907
l 907 908
l 789 792
l 789 791
l 784 785
l 787 788
l 785 786
l 786 787
l 788 790
l 783 784
l 782 783
l 779 780
l 781 782
l 780 781
l 1010 1011
l 1011 1012
l 1010 1014
l 1009 1013
l 1012 1022
l 1013 1014
l 1023 1024
l 1021 1022
l 1021 1023
l 967 1037
l 1036 1037
l 1027 1028
l 1026 1027
l 1028 1029
l 1029 1034
l 1033 1035
l 1034 1035
l 1026 1036
l 971 991
l 979 982
l 981 983
l 981 982
l 983 989
l 973 974
l 979 980
l 977 978
l 976 978
l 980 990
l 972 973
l 971 972
l 970 990
l 974 977
l 975 976
l 988 989
l 991 992
l 968 970
l 966 992
l 969 1009
l 1016 1017
l 1015 1016
l 1017 1025
l 1015 1018
l 1018 1019
l 1020 1024
l 1019 1020
l 994 999
l 993 994
l 998 999
l 1052 1025
l 1002 1003
l 1002 1007
l 1001 1003
l 1000 1001
l 1007 1008
l 995 996
l 995 997
l 987 996
l 997 998
l 1004 1008
l 1004 1006
l 1005 1006
l 1040 1005
l 1032 1038
l 1030 1032
l 1038 1043
l 1030 1031
l 1031 1033
l 985 987
l 1039 975
l 1039 1040
l 1041 1042
l 1045 1041
l 1044 1042
l 985 986
l 984 986
l 984 988
l 1044 1043
l 1045 1046
l 1047 1046
l 1048 1047
l 1049 1050
l 1051 1049
l 1050 1053
l 1052 1051
l 2039 2040
l 1774 1797
l 1650 1920
l 1809 1810
l 1810 1811
l 1338 1339
l 1352 1353
l 2002 2003
l 1201 1203
l 1267 1269
l 1173 1174
l 2011 2012
l 2001 2021
l 2021 2022
l 1134 1137
l 1140 1145
l 1844 1847
l 2014 2015
l 1137 1146
l 1138 1143
l 1087 1090
l 1984 1994
l 1090 1091
l 1982 1993
l 2039 1048
l 1845 1846
l 1985 1993
l 1515 1516
l 1245 1246
l 1877 1879
l 1975 1979
l 1983 2026
l 1969 1972
l 1960 1964
l 1966 1967
l 1991 1992
l 2023 2027
l 1969 1970
l 1956 1961
l 1844 1845
l 1141 1154
l 1876 1877
l 1745 1746
l 1739 1740
l 1740 1742
l 1743 1744
l 1257 1366
l 1747 1805
l 2028 2037
l 1956 1957
l 1945 1974
l 1688 1689
l 1676 1680
l 1677 1678
l 1709 1735
l 1894 1895
l 1734 1735
l 1738 1739
l 1802 1000
l 1676 1677
l 1799 993
l 1887 1895
l 1790 1900
l 1959 1968
l 1684 1685
l 2037 2038
l 1091 1109
l 1843 1847
l 1700 1742
l 1700 1743
l 1861 1874
l 1141 1142
l 1595 1606
l 1687 1688
l 2186 2194
l 1086 1087
l 1519 1527
l 1083 1084
l 1684 1690
l 1686 1690
l 1594 1595
l 1878 1879
l 1686 1687
l 1875 1876
l 1554 1555
l 1580 1588
l 1558 1559
l 1556 1557
l 1552 1553
l 2180 2195
l 1548 1549
l 1906 2000
l 1811 1812
l 1967 1968
l 1973 1979
l 1963 1964
l 1517 1518
l 1863 1864
l 1514 1517
l 1514 1515
l 1513 1518
l 1987 1992
l 1985 1988
l 1986 1988
l 1986 1987
l 1511 1513
l 969 1084
l 1511 1512
l 1963 1965
l 1981 1982
l 1980 1981
l 1520 1521
l 1519 1520
l 1361 1362
l 2173 2195
l 1512 1521
l 1898 1900
l 1640 1642
l 968 1078
l 2042 2043
l 1780 1980
l 1646 1647
l 2043 2120
l 1300 1303
l 1300 2159
l 1649 1918
l 1357 1359
l 968 1076
l 1054 969
l 1861 1862
l 966 1081
l 967 1066
l 1058 966
l 1139 1140
l 1750 1809
l 1138 1139
l 1370 1601
l 1973 1974
l 1065 967
l 1252 1281
l 2013 2014
l 2024 2027
l 2025 2026
l 2024 2025
l 2009 2010
l 2010 2011
l 1998 1999
l 1999 2000
l 1997 1998
l 1261 1262
l 1995 1996
l 1994 1995
l 1996 1997
l 1263 1264
l 1262 1263
l 1264 1265
l 1265 1266
l 1266 1267
l 2002 2008
l 2006 2009
l 2005 2007
l 2005 2008
l 2006 2007
l 1261 1279
l 1246 1248
l 1247 1249
l 1247 1248
l 1251 1252
l 1249 1250
l 1250 1251
l 1188 1202
l 1744 1749
l 1179 1181
l 1745 1748
l 1746 1747
l 1748 1749
l 1181 1182
l 1184 1185
l 1182 1183
l 1183 1184
l 1187 1188
l 1186 1187
l 1185 1186
l 1330 1334
l 1328 1329
l 1332 1333
l 1333 1342
l 1331 1332
l 1330 1331
l 1327 1334
l 1339 1340
l 1327 1328
l 1340 1342
l 1178 1180
l 1178 1179
l 1174 1175
l 1176 1177
l 1175 1176
l 1329 1350
l 1177 1180
l 1280 1281
l 1280 1282
l 1285 1286
l 1283 1284
l 1279 1286
l 1282 1283
l 1782 1783
l 1781 1782
l 1776 1777
l 1779 1781
l 1778 1779
l 1778 1780
l 1777 1783
l 1277 1307
l 1278 1285
l 1278 1284
l 1277 1305
l 1311 1350
l 1198 1199
l 1196 1197
l 1195 1196
l 1197 1198
l 1199 1200
l 1200 1201
l 1189 1190
l 1191 1192
l 1190 1191
l 1193 1194
l 1192 1194
l 1308 1309
l 1309 1310
l 1308 1312
l 1310 1311
l 1306 1307
l 1306 1312
l 1775 1776
l 1774 1775
l 1193 1195
l 1304 1305
l 1189 1202
l 1303 1304
l 1245 2122
l 2105 2108
l 2100 2101
l 2098 2099
l 2102 2103
l 2102 2106
l 2098 2100
l 2104 2106
l 2103 2107
l 2104 2105
l 2099 2107
l 2085 2086
l 2086 2087
l 2082 2084
l 2082 2085
l 2083 2084
l 2116 2117
l 2081 2087
l 2080 2081
l 2133 2137
l 2132 2137
l 2130 2132
l 2130 2131
l 1361 1369
l 2140 2158
l 2076 2077
l 2134 2135
l 2141 2144
l 2126 2127
l 2073 2074
l 2136 2158
l 2133 2134
l 2129 2138
l 2142 2145
l 2073 2077
l 2143 2144
l 2122 2123
l 2075 2076
l 2146 2147
l 2129 2131
l 2147 2150
l 1354 1355
l 2145 2146
l 1357 1358
l 1355 1356
l 1356 1358
l 2059 2060
l 1353 1360
l 2062 2065
l 2156 2157
l 2123 2128
l 2154 2155
l 2155 2156
l 2056 2057
l 2063 2065
l 2063 2064
l 2148 2149
l 2148 2150
l 2125 2139
l 2052 2053
l 2054 2055
l 2149 2153
l 2051 2052
l 2053 2054
l 1354 1360
l 2061 2062
l 2151 2153
l 2151 2152
l 2152 2154
l 2125 2126
l 2055 2058
l 2056 2058
l 2124 2127
l 2124 2128
l 2057 2059
l 2042 2044
l 2045 2047
l 2044 2045
l 2048 2049
l 2050 2051
l 2049 2050
l 1368 1369
l 2046 2048
l 2046 2047
l 1363 1364
l 1363 1367
l 1338 2114
l 1364 1368
l 2142 2143
l 1365 1366
l 1365 1367
l 1643 1644
l 1641 1643
l 2140 2141
l 1644 1647
l 1640 1641
l 2138 2139
l 2135 2136
l 2111 2112
l 2110 2111
l 2108 2109
l 2109 2112
l 2060 2079
l 2110 2115
l 2061 2079
l 2113 2115
l 2113 2114
l 2101 2116
l 2064 2070
l 2067 2078
l 2071 2078
l 2066 2067
l 2066 2069
l 2068 2070
l 2068 2069
l 2072 2074
l 2071 2072
l 1569 1570
l 1569 1571
l 1570 1572
l 1560 1561
l 1562 1563
l 1568 1572
l 1564 1565
l 1566 1567
l 1557 1563
l 1559 1560
l 1567 1568
l 1561 1565
l 1562 1564
l 1553 1555
l 1587 1590
l 1588 1589
l 1589 1590
l 1571 1585
l 2094 2117
l 1615 1616
l 1614 1615
l 1622 1625
l 1614 1623
l 1621 1622
l 1600 1603
l 1602 1603
l 1623 1624
l 1624 1625
l 1601 1602
l 1538 1544
l 1538 1539
l 1542 1545
l 1539 1540
l 1541 1543
l 1541 1542
l 1946 1947
l 1945 1946
l 1938 1939
l 1938 1940
l 1544 1545
l 1939 1944
l 1942 1944
l 1941 1943
l 1941 1942
l 1921 1924
l 1920 1921
l 1918 1919
l 1922 1923
l 1922 1924
l 1925 1926
l 1923 1929
l 1934 1937
l 1933 1934
l 1933 1935
l 1930 1931
l 1931 1932
l 1930 1935
l 1928 1932
l 1926 1940
l 1928 1929
l 1919 1943
l 1914 1915
l 1912 1913
l 1908 1913
l 1904 1905
l 1907 1908
l 1269 2075
l 1905 1907
l 1909 1911
l 1910 1912
l 2083 2097
l 1909 1910
l 2093 2096
l 2088 2089
l 2088 2091
l 2090 2091
l 2092 2094
l 2090 2095
l 2092 2093
l 2089 2097
l 2095 2096
l 1898 1965
l 1911 1916
l 1914 1917
l 1915 1916
l 1583 1585
l 1586 1587
l 1583 1584
l 1584 1586
l 1241 1243
l 1240 1241
l 1054 1055
l 1055 1056
l 1056 1057
l 1827 1829
l 1826 1827
l 1828 1829
l 1062 1069
l 1061 1062
l 1068 1069
l 1822 1825
l 1822 1823
l 1825 1826
l 1380 1382
l 1380 1381
l 1382 1425
l 1057 1058
l 1059 1061
l 1059 1060
l 1505 1639
l 1504 1505
l 1638 1639
l 1067 1077
l 1066 1067
l 1076 1077
l 1381 1383
l 1060 1083
l 1071 1080
l 1070 1071
l 1080 1082
l 1819 1820
l 1818 1819
l 1820 1882
l 1818 1821
l 1816 1817
l 1816 1835
l 1817 1821
l 1073 1079
l 1072 1073
l 1074 1079
l 1830 1831
l 1828 1830
l 1831 1832
l 1823 1824
l 1846 1875
l 1814 1824
l 1832 1833
l 1378 1379
l 1377 1378
l 1379 1383
l 1377 1384
l 1833 1834
l 1834 1850
l 1400 1413
l 1398 1400
l 1413 1414
l 1070 1072
l 1063 1064
l 1063 1065
l 1064 1068
l 1375 1376
l 1370 1375
l 1374 1376
l 1807 1808
l 1806 1807
l 1808 1837
l 1081 1082
l 1842 1880
l 1842 1843
l 1880 1881
l 1384 1385
l 1385 1386
l 1386 1391
l 1805 1806
l 1389 1393
l 1389 1390
l 1393 1394
l 1388 1390
l 1387 1388
l 1372 1387
l 1403 1411
l 1402 1403
l 1410 1411
l 1391 1392
l 1392 1394
l 1396 1397
l 1395 1396
l 1397 1401
l 1395 1420
l 1835 1836
l 1848 1851
l 1848 1849
l 1851 1852
l 1074 1075
l 1849 1850
l 1075 1078
l 1852 1853
l 1853 1860
l 1444 1485
l 1442 1444
l 1485 1486
l 1854 1860
l 1862 1864
l 1854 1855
l 1855 1856
l 1402 1404
l 1404 1408
l 1856 1857
l 1857 1859
l 1436 1449
l 1435 1436
l 1449 1450
l 1858 1859
l 1858 1867
l 1837 1838
l 1085 1144
l 1085 1136
l 1144 1145
l 1420 1421
l 1399 1401
l 1398 1399
l 1136 1150
l 1797 1798
l 1798 1804
l 1865 1867
l 1814 1815
l 1373 1374
l 1371 1373
l 1371 1372
l 1871 1872
l 1870 1872
l 1869 1870
l 1813 1815
l 1812 1813
l 1868 1869
l 1866 1868
l 1865 1866
l 1873 1874
l 1795 1796
l 1784 1795
l 1794 1796
l 1794 1800
l 1097 1130
l 1097 1098
l 1130 1131
l 1225 1227
l 1224 1225
l 1227 1229
l 1427 1430
l 1426 1427
l 1429 1430
l 1421 1422
l 1422 1428
l 1423 1424
l 1423 1425
l 1424 1426
l 1428 1429
l 1433 1438
l 1431 1433
l 1437 1438
l 1092 1105
l 1092 1093
l 1104 1105
l 2118 2190
l 2189 2190
l 1224 1226
l 1223 1226
l 1222 1223
l 1221 1222
l 1434 1437
l 1434 1435
l 1220 1221
l 1218 1220
l 1891 1892
l 1891 1894
l 1892 1893
l 1417 1418
l 1409 1417
l 1418 1419
l 1416 1419
l 1889 1890
l 1889 1903
l 1888 1890
l 1415 1416
l 1412 1415
l 1887 1888
l 1803 1804
l 1800 1801
l 1218 1219
l 1217 1219
l 1884 1886
l 1883 1884
l 1885 1886
l 1086 1089
l 1088 1089
l 1882 1883
l 1409 1410
l 1881 1885
l 1412 1414
l 1459 1483
l 1458 1459
l 1483 1484
l 1927 1977
l 1977 1978
l 1088 1106
l 1431 1432
l 1432 1494
l 1098 1099
l 1216 1217
l 1215 1216
l 1099 1100
l 1100 1103
l 1873 1878
l 1214 1215
l 1213 1214
l 1211 1212
l 1210 1211
l 1212 1213
l 1093 1096
l 1102 1103
l 1407 1408
l 1406 1407
l 1095 1101
l 1094 1095
l 1101 1102
l 1799 1801
l 1109 1153
l 1094 1096
l 1405 1406
l 1104 1106
l 1405 1495
l 1209 1210
l 1802 1803
l 1207 1209
l 1206 1208
l 1205 1206
l 1207 1208
l 1901 1903
l 1738 1741
l 1741 1758
l 1204 1205
l 1203 1204
l 1894 2032
l 1893 1902
l 1897 1901
l 1897 1898
l 1896 1899
l 1790 1896
l 1899 1902
l 1936 1950
l 1949 1950
l 1726 1727
l 1720 1726
l 1727 1758
l 1160 1161
l 1151 1160
l 1161 1163
l 1722 1723
l 1721 1722
l 1723 1725
l 1721 1724
l 1724 1728
l 1732 1733
l 1731 1732
l 1733 1734
l 1162 1163
l 1156 1162
l 1720 1725
l 1948 1971
l 1970 1971
l 1736 1737
l 1736 1756
l 1737 1759
l 1714 1715
l 1714 1716
l 1715 1728
l 1151 1152
l 1152 1153
l 1516 1558
l 1711 1712
l 1710 1711
l 1712 1766
l 1710 1717
l 1148 1150
l 1148 1149
l 1146 1147
l 1147 1149
l 1708 1709
l 1708 1767
l 1142 1143
l 1730 1731
l 1729 1730
l 1719 1729
l 1713 1717
l 1484 1489
l 1681 1682
l 1681 1691
l 1682 1772
l 1170 1171
l 1168 1170
l 1171 1172
l 1487 1491
l 1487 1488
l 1491 1492
l 1486 1488
l 1155 1156
l 1155 1157
l 1713 1716
l 1167 1168
l 1489 1490
l 1490 1492
l 1718 1719
l 1154 1158
l 1158 1159
l 1157 1159
l 1678 1679
l 1172 1173
l 1673 1680
l 1679 1683
l 1718 1765
l 1507 1522
l 1507 1508
l 1522 1523
l 1673 1674
l 1120 1121
l 1120 1129
l 1121 1122
l 1674 1675
l 1675 1699
l 1167 1169
l 1166 1169
l 1122 1125
l 1495 1496
l 1496 1497
l 1497 1498
l 1113 1114
l 1113 1126
l 1114 1118
l 1499 1503
l 1498 1499
l 1502 1503
l 1506 1510
l 1504 1506
l 1509 1510
l 1501 1502
l 1500 1501
l 1165 1166
l 1117 1119
l 1115 1117
l 1118 1119
l 1493 1500
l 1493 1494
l 1672 1683
l 1672 1685
l 1691 1693
l 1164 1165
l 1164 1242
l 1110 1111
l 1110 1128
l 1111 1112
l 1107 1112
l 1508 1509
l 1531 1556
l 1530 1531
l 1663 1699
l 1115 1116
l 1116 1123
l 1952 1953
l 1952 1958
l 1951 1953
l 1949 1951
l 1954 1958
l 1689 1766
l 1695 1698
l 1694 1695
l 1697 1698
l 1671 1697
l 1694 1696
l 1692 1696
l 1704 1705
l 1704 1707
l 1705 1706
l 1702 1707
l 1954 1955
l 1955 1957
l 1702 1703
l 1701 1703
l 1692 1693
l 1655 1706
l 1671 1701
l 1107 1108
l 1108 1135
l 1961 1962
l 1966 1972
l 1654 1655
l 1527 1528
l 1134 1135
l 1532 1536
l 1530 1532
l 1536 1537
l 1526 1529
l 1525 1526
l 1528 1529
l 1975 1976
l 1976 1978
l 2189 2192
l 1960 1962
l 1990 2020
l 1989 1990
l 2004 2020
l 1533 1537
l 1533 1534
l 1534 1535
l 2191 2192
l 1983 1984
l 2188 2191
l 2187 2188
l 2186 2187
l 1989 1991
l 1662 1663
l 1524 1525
l 1127 1128
l 1523 1524
l 1470 1642
l 1468 1470
l 1123 1124
l 1126 1127
l 1666 1670
l 1666 1667
l 1668 1670
l 1124 1125
l 1665 1667
l 2184 2193
l 2182 2184
l 1654 1665
l 1668 1669
l 1648 1669
l 1660 1664
l 1660 1661
l 1657 1664
l 1661 1662
l 1129 1133
l 2177 2180
l 2177 2178
l 1650 1651
l 1651 1652
l 2178 2179
l 2179 2185
l 2183 2185
l 2181 2183
l 1648 1649
l 2181 2182
l 1838 1839
l 1839 1841
l 1840 1841
l 1131 1132
l 1132 1133
l 1836 1840
l 1652 1653
l 1653 1656
l 1657 1658
l 1656 1659
l 1658 1659
l 2031 2036
l 2030 2031
l 2035 2036
l 2029 2030
l 1287 1362
l 1287 1288
l 1274 1359
l 1272 1274
l 2038 2041
l 2040 2041
l 2028 2029
l 1244 1260
l 1244 1245
l 1259 1260
l 2015 2016
l 2016 2017
l 2017 2018
l 2022 2023
l 1254 1259
l 2018 2019
l 2001 2019
l 1268 1269
l 1268 1276
l 1271 1276
l 1270 1271
l 1270 1275
l 1273 1275
l 2032 2033
l 2033 2034
l 2034 2035
l 2003 2004
l 1319 1351
l 1318 1319
l 1351 1352
l 1771 1772
l 1789 1790
l 1253 1254
l 1767 1768
l 1764 1765
l 1257 1258
l 1255 1258
l 1255 1256
l 1253 1256
l 1481 1482
l 1480 1481
l 1479 1482
l 1474 1480
l 1478 1479
l 1472 1473
l 1465 1472
l 1473 1474
l 1476 1478
l 1475 1476
l 1475 1477
l 1462 1477
l 1759 1760
l 1756 1757
l 1468 1469
l 1469 1471
l 1467 1471
l 1466 1467
l 1465 1466
l 1755 1757
l 1463 1464
l 1457 1463
l 1461 1464
l 1754 1755
l 1750 1751
l 1751 1752
l 1760 1761
l 1761 1762
l 1752 1753
l 1753 1754
l 1769 1773
l 1768 1769
l 1770 1773
l 1460 1461
l 1460 1462
l 1447 1448
l 1440 1447
l 1448 1454
l 1453 1454
l 1452 1456
l 1451 1452
l 1455 1456
l 1457 1458
l 1450 1451
l 1453 1455
l 1763 1764
l 1762 1763
l 1335 1336
l 1335 1343
l 1336 1341
l 1337 1341
l 1337 1338
l 1343 1344
l 1326 1344
l 1770 1771
l 1325 1326
l 1324 1325
l 1324 1346
l 1345 1348
l 1345 1346
l 1347 1348
l 1347 1349
l 1321 1349
l 2160 2165
l 2159 2160
l 2161 2165
l 1786 1787
l 1785 1786
l 1787 1788
l 1788 1793
l 1288 1289
l 1784 1785
l 1789 1792
l 1791 1792
l 1292 1293
l 1290 1292
l 1293 1317
l 1290 1291
l 1289 1291
l 1299 1313
l 1298 1299
l 1297 1313
l 1272 1273
l 2162 2163
l 2162 2176
l 2163 2164
l 2161 2164
l 1321 1322
l 1294 1296
l 1294 1295
l 1296 1297
l 1791 1793
l 1295 1314
l 1439 1440
l 2168 2175
l 2168 2169
l 2171 2175
l 2166 2169
l 2166 2167
l 2167 2176
l 1441 1445
l 1439 1441
l 1445 1446
l 1314 1315
l 1315 1316
l 1316 1317
l 1443 1446
l 1442 1443
l 1320 1322
l 2170 2174
l 2170 2171
l 2172 2174
l 2172 2173
l 1320 1323
l 1318 1323
l 1301 1302
l 1300 1301
l 1298 1302
l 1637 1638
l 1637 1645
l 1645 1646
l 1591 1617
l 1591 1592
l 1574 1582
l 1573 1574
l 1549 1550
l 1550 1551
l 1551 1554
l 1546 1547
l 1547 1552
l 1576 1578
l 1576 1577
l 1578 1619
l 1577 1579
l 1575 1579
l 1573 1575
l 1592 1597
l 1596 1597
l 1593 1596
l 1593 1594
l 1606 1607
l 1609 1613
l 1608 1609
l 1612 1613
l 1604 1610
l 1604 1605
l 1610 1611
l 1611 1612
l 1599 1605
l 1618 1620
l 1619 1620
l 1627 1628
l 1626 1627
l 1628 1634
l 1632 1633
l 1630 1632
l 1598 1599
l 1634 1635
l 1629 1630
l 1629 1631
l 1607 1608
l 1228 1229
l 1228 1230
l 1230 1231
l 1232 1233
l 1231 1232
l 1233 1234
l 1234 1235
l 1237 1238
l 1236 1237
l 1238 1239
l 1235 1236
l 2193 2194
l 1616 1617
l 1618 1621
l 1540 1546
l 1633 1636
l 1535 1548
l 1598 1600
l 1635 1636
l 1947 1948
l 2119 2157
l 1936 1937
l 1543 1631
l 1925 1927
l 1871 2013
l 1863 2012
l 1904 1906
l 1887 1959
l 1242 1243
l 1580 1581
l 1581 1582
l 1239 1240
l 1917 1053
l 1566 1626
