# Wavefront OBJ file
# Regions:
#     0    patch0
#
# points    : 72
# triangles : 140
#
v 0.2808 7.273 1.392
v 0.2966 7.2572 1.392
v 0.3189 7.2572 1.392
v 0.2808 7.2953 1.392
v 0.3347 7.273 1.392
v 0.2966 7.3111 1.392
v 0.3347 7.2953 1.392
v 0.2859 7.337 1.3835
v 0.2549 7.306 1.3835
v 0.2859 7.2313 1.3835
v 0.3297 7.2313 1.3835
v 0.3607 7.2622 1.3835
v 0.3607 7.306 1.3835
v 0.2859 7.337 1.1072
v 0.3297 7.337 1.1072
v 0.3189 7.3111 1.0987
v 0.365 7.4223 1.2454
v 0.2505 7.4223 1.2454
v 0.2549 7.4118 1.3026
v 0.3607 7.4118 1.1881
v 0.2549 7.4118 1.1881
v 0.2549 7.1565 1.3026
v 0.2673 7.1864 1.3511
v 0.2101 7.2437 1.3511
v 0.2549 7.2622 1.3835
v 0.3297 7.2313 1.1072
v 0.3607 7.2622 1.1072
v 0.4055 7.2437 1.1396
v 0.3482 7.1864 1.1396
v 0.4354 7.2313 1.1881
v 0.3189 7.3111 1.392
v 0.3297 7.337 1.3835
v 0.3607 7.1565 1.1881
v 0.4459 7.2269 1.2454
v 0.4354 7.2313 1.3026
v 0.3607 7.1565 1.3026
v 0.365 7.146 1.2454
v 0.2101 7.3246 1.3511
v 0.1801 7.337 1.3026
v 0.1801 7.2313 1.3026
v 0.3482 7.3818 1.1396
v 0.2673 7.3818 1.1396
v 0.3607 7.306 1.1072
v 0.3347 7.2953 1.0987
v 0.4055 7.2437 1.3511
v 0.3482 7.1864 1.3511
v 0.1696 7.3414 1.2454
v 0.1696 7.2269 1.2454
v 0.1801 7.337 1.1881
v 0.4055 7.3246 1.1396
v 0.4354 7.337 1.1881
v 0.2549 7.306 1.1072
v 0.2966 7.3111 1.0987
v 0.1801 7.2313 1.1881
v 0.2101 7.3246 1.1396
v 0.2101 7.2437 1.1396
v 0.4459 7.3414 1.2454
v 0.3607 7.4118 1.3026
v 0.4354 7.337 1.3026
v 0.2549 7.2622 1.1072
v 0.2808 7.2953 1.0987
v 0.2505 7.146 1.2454
v 0.2549 7.1565 1.1881
v 0.3482 7.3818 1.3511
v 0.4055 7.3246 1.3511
v 0.2859 7.2313 1.1072
v 0.2808 7.273 1.0987
v 0.2966 7.2572 1.0987
v 0.3189 7.2572 1.0987
v 0.3347 7.273 1.0987
v 0.2673 7.3818 1.3511
v 0.2673 7.1864 1.1396
g patch0
f 1 2 3
f 4 1 5
f 6 4 7
f 4 6 8
f 1 4 9
f 10 2 1
f 11 3 2
f 12 5 3
f 13 7 5
f 14 15 16
f 17 18 19
f 20 21 18
f 22 23 24
f 23 10 25
f 26 27 28
f 29 28 30
f 6 31 32
f 31 7 13
f 33 30 34
f 35 36 37
f 9 38 24
f 38 39 40
f 41 42 21
f 15 14 42
f 15 43 44
f 45 46 36
f 46 45 12
f 40 39 47
f 48 47 49
f 41 50 43
f 20 51 50
f 52 14 53
f 23 46 11
f 46 23 22
f 54 49 55
f 56 55 52
f 17 57 51
f 17 58 59
f 60 52 61
f 36 22 62
f 63 33 37
f 14 52 55
f 42 55 49
f 58 64 65
f 64 32 13
f 66 60 67
f 26 66 68
f 27 26 69
f 43 27 70
f 61 53 16
f 61 44 70
f 69 68 67
f 65 13 12
f 59 65 45
f 59 35 34
f 30 51 57
f 28 50 51
f 43 50 28
f 21 49 47
f 18 47 39
f 19 39 38
f 71 38 9
f 72 29 33
f 66 26 29
f 64 71 8
f 72 56 60
f 63 54 56
f 58 19 71
f 62 48 54
f 22 40 48
f 1 3 5
f 4 5 7
f 6 7 31
f 4 8 9
f 1 9 25
f 10 1 25
f 11 2 10
f 12 3 11
f 13 5 12
f 14 16 53
f 17 19 58
f 20 18 17
f 22 24 40
f 23 25 24
f 26 28 29
f 29 30 33
f 6 32 8
f 31 13 32
f 33 34 37
f 35 37 34
f 9 24 25
f 38 40 24
f 41 21 20
f 15 42 41
f 15 44 16
f 45 36 35
f 46 12 11
f 40 47 48
f 48 49 54
f 41 43 15
f 20 50 41
f 52 53 61
f 23 11 10
f 46 22 36
f 54 55 56
f 56 52 60
f 17 51 20
f 17 59 57
f 60 61 67
f 36 62 37
f 63 37 62
f 14 55 42
f 42 49 21
f 58 65 59
f 64 13 65
f 66 67 68
f 26 68 69
f 27 69 70
f 43 70 44
f 61 16 44
f 61 70 67
f 69 67 70
f 65 12 45
f 59 45 35
f 59 34 57
f 30 57 34
f 28 51 30
f 43 28 27
f 21 47 18
f 18 39 19
f 19 38 71
f 71 9 8
f 72 33 63
f 66 29 72
f 64 8 32
f 72 60 66
f 63 56 72
f 58 71 64
f 62 54 63
f 22 48 62
