# Wavefront OBJ file
# Regions:
#     0    patch0
#
# points    : 72
# triangles : 140
#
v -0.2808 7.273 1.392
v -0.3347 7.273 1.392
v -0.3189 7.2572 1.392
v -0.2808 7.2953 1.392
v -0.3347 7.2953 1.392
v -0.2966 7.3111 1.392
v -0.3189 7.3111 1.392
v -0.2549 7.306 1.3835
v -0.2859 7.337 1.3835
v -0.2549 7.2622 1.3835
v -0.2859 7.2313 1.3835
v -0.3297 7.2313 1.3835
v -0.2966 7.2572 1.392
v -0.3607 7.2622 1.3835
v -0.3607 7.306 1.3835
v -0.2859 7.337 1.1072
v -0.2966 7.3111 1.0987
v -0.3189 7.3111 1.0987
v -0.365 7.4223 1.2454
v -0.3607 7.4118 1.3026
v -0.2549 7.4118 1.3026
v -0.3607 7.4118 1.1881
v -0.2505 7.4223 1.2454
v -0.2549 7.1565 1.3026
v -0.1801 7.2313 1.3026
v -0.2101 7.2437 1.3511
v -0.2673 7.1864 1.3511
v -0.3297 7.2313 1.1072
v -0.3482 7.1864 1.1396
v -0.4055 7.2437 1.1396
v -0.3607 7.1565 1.1881
v -0.4354 7.2313 1.1881
v -0.3297 7.337 1.3835
v -0.365 7.146 1.2454
v -0.4459 7.2269 1.2454
v -0.4354 7.2313 1.3026
v -0.2101 7.3246 1.3511
v -0.3482 7.3818 1.1396
v -0.2549 7.4118 1.1881
v -0.3297 7.337 1.1072
v -0.2673 7.3818 1.1396
v -0.3347 7.2953 1.0987
v -0.4055 7.2437 1.3511
v -0.3607 7.1565 1.3026
v -0.3482 7.1864 1.3511
v -0.1696 7.2269 1.2454
v -0.1696 7.3414 1.2454
v -0.1801 7.2313 1.1881
v -0.1801 7.337 1.1881
v -0.3607 7.306 1.1072
v -0.4055 7.3246 1.1396
v -0.2549 7.306 1.1072
v -0.2808 7.2953 1.0987
v -0.2101 7.2437 1.1396
v -0.2101 7.3246 1.1396
v -0.2549 7.2622 1.1072
v -0.4354 7.337 1.1881
v -0.4459 7.3414 1.2454
v -0.4354 7.337 1.3026
v -0.2808 7.273 1.0987
v -0.2505 7.146 1.2454
v -0.2549 7.1565 1.1881
v -0.4055 7.3246 1.3511
v -0.3482 7.3818 1.3511
v -0.2859 7.2313 1.1072
v -0.2966 7.2572 1.0987
v -0.3189 7.2572 1.0987
v -0.3607 7.2622 1.1072
v -0.3347 7.273 1.0987
v -0.1801 7.337 1.3026
v -0.2673 7.3818 1.3511
v -0.2673 7.1864 1.1396
g patch0
f 1 2 3
f 4 5 2
f 6 7 5
f 4 8 9
f 1 10 8
f 11 10 1
f 12 11 13
f 14 12 3
f 15 14 2
f 16 17 18
f 19 20 21
f 22 19 23
f 24 25 26
f 27 26 10
f 28 29 30
f 29 31 32
f 6 9 33
f 7 33 15
f 31 34 35
f 36 35 34
f 8 10 26
f 37 26 25
f 38 22 39
f 40 38 41
f 40 18 42
f 43 36 44
f 45 12 14
f 25 46 47
f 46 48 49
f 38 40 50
f 22 38 51
f 52 53 17
f 27 11 12
f 45 44 24
f 48 54 55
f 54 56 52
f 19 22 57
f 19 58 59
f 56 60 53
f 44 34 61
f 62 61 34
f 16 41 55
f 41 39 49
f 20 59 63
f 64 63 15
f 65 66 60
f 28 67 66
f 68 69 67
f 50 42 69
f 53 42 18
f 53 60 69
f 67 69 60
f 63 43 14
f 59 36 43
f 59 58 35
f 32 35 58
f 30 32 57
f 50 68 30
f 39 23 47
f 23 21 70
f 21 71 37
f 71 9 8
f 72 62 31
f 65 72 29
f 64 33 9
f 72 65 56
f 62 72 54
f 20 64 71
f 61 62 48
f 24 61 46
f 1 3 13
f 4 2 1
f 6 5 4
f 4 9 6
f 1 8 4
f 11 1 13
f 12 13 3
f 14 3 2
f 15 2 5
f 16 18 40
f 19 21 23
f 22 23 39
f 24 26 27
f 27 10 11
f 28 30 68
f 29 32 30
f 6 33 7
f 7 15 5
f 31 35 32
f 36 34 44
f 8 26 37
f 37 25 70
f 38 39 41
f 40 41 16
f 40 42 50
f 43 44 45
f 45 14 43
f 25 47 70
f 46 49 47
f 38 50 51
f 22 51 57
f 52 17 16
f 27 12 45
f 45 24 27
f 48 55 49
f 54 52 55
f 19 57 58
f 19 59 20
f 56 53 52
f 44 61 24
f 62 34 31
f 16 55 52
f 41 49 55
f 20 63 64
f 64 15 33
f 65 60 56
f 28 66 65
f 68 67 28
f 50 69 68
f 53 18 17
f 53 69 42
f 67 60 66
f 63 14 15
f 59 43 63
f 59 35 36
f 32 58 57
f 30 57 51
f 50 30 51
f 39 47 49
f 23 70 47
f 21 37 70
f 71 8 37
f 72 31 29
f 65 29 28
f 64 9 71
f 72 56 54
f 62 54 48
f 20 71 21
f 61 48 46
f 24 46 25
