# Wavefront OBJ file
# Regions:
#     0    patch0
#
# points    : 68
# triangles : 96
#
v 0.0922 6.5193 1.4451
v 0.0969 6.4284 1.4242
v 0.1902 6.4499 1.3765
v 0.183 6.5376 1.3959
v 0.2354 6.4751 1.3107
v 0.2289 6.5591 1.3256
v 0.2645 6.5021 1.228
v 0.2603 6.5821 1.2436
v 0.287 6.5317 1.1409
v 0.2857 6.6054 1.1555
v 0.2923 6.5494 1.0742
v 0.2923 6.6186 1.0876
v 0.3058 6.5708 1.0121
v 0.3058 6.6365 1.0237
v 0.3105 6.5941 0.9415
v 0 6.5123 1.4477
v 0.0906 6.596 1.4617
v 0.222 6.6307 1.3401
v 0 6.4192 1.4266
v 0.2922 6.6798 1.101
v 0.2844 6.6649 1.1691
v 0.1773 6.612 1.4131
v 0.3057 6.6942 1.0351
v 0.3103 6.6538 0.9512
v 0.2564 6.6488 1.2575
v 0.1841 6.5551 1.172
v 0.31 6.7134 0.9609
v 0.196 6.6094 0.9736
v 0.1653 6.5377 1.2315
v 0.1956 6.5886 1.0458
v 0 6.5929 1.4669
v 0.049 6.4875 1.3686
v 0.1466 6.5199 1.2836
v 0.1934 6.5721 1.1082
v 0.1012 6.5014 1.3383
v -0.0922 6.5193 1.4451
v -0.183 6.5376 1.3959
v -0.1902 6.4499 1.3765
v -0.2289 6.5591 1.3256
v -0.2354 6.4751 1.3107
v -0.2603 6.5821 1.2436
v -0.2645 6.5021 1.228
v -0.2857 6.6054 1.1555
v -0.287 6.5317 1.1409
v -0.2923 6.6186 1.0876
v -0.2923 6.5494 1.0742
v -0.3058 6.6365 1.0237
v -0.3058 6.5708 1.0121
v -0.3103 6.6538 0.9512
v -0.3105 6.5941 0.9415
v -0.0906 6.596 1.4617
v -0.222 6.6307 1.3401
v -0.2564 6.6488 1.2575
v 0 6.4853 1.3705
v -0.049 6.4875 1.3686
v -0.1773 6.612 1.4131
v -0.2922 6.6798 1.101
v -0.3057 6.6942 1.0351
v -0.2844 6.6649 1.1691
v -0.31 6.7134 0.9609
v -0.1653 6.5377 1.2315
v -0.1841 6.5551 1.172
v -0.1956 6.5886 1.0458
v -0.196 6.6094 0.9736
v -0.1466 6.5199 1.2836
v -0.1934 6.5721 1.1082
v -0.1012 6.5014 1.3383
v -0.0969 6.4284 1.4242
g patch0
f 1 2 3
f 4 3 5
f 6 5 7
f 8 7 9
f 10 9 11
f 12 11 13
f 14 13 15
f 16 1 17
f 18 6 8
f 17 1 4
f 19 2 1
f 20 12 14
f 21 10 12
f 22 4 6
f 23 14 24
f 25 8 10
f 25 21 26
f 23 27 28
f 18 25 29
f 20 23 30
f 31 17 32
f 22 18 33
f 21 20 34
f 17 22 35
f 36 37 38
f 37 39 40
f 39 41 42
f 41 43 44
f 43 45 46
f 45 47 48
f 47 49 50
f 16 31 51
f 52 53 41
f 31 54 55
f 51 56 37
f 57 58 47
f 59 57 45
f 56 52 39
f 58 60 49
f 53 59 43
f 19 16 36
f 53 61 62
f 58 63 64
f 52 65 61
f 57 66 63
f 56 67 65
f 59 62 66
f 51 55 67
f 1 3 4
f 4 5 6
f 6 7 8
f 8 9 10
f 10 11 12
f 12 13 14
f 14 15 24
f 16 17 31
f 18 8 25
f 17 4 22
f 19 1 16
f 20 14 23
f 21 12 20
f 22 6 18
f 23 24 27
f 25 10 21
f 25 26 29
f 23 28 30
f 18 29 33
f 20 30 34
f 31 32 54
f 22 33 35
f 21 34 26
f 17 35 32
f 36 38 68
f 37 40 38
f 39 42 40
f 41 44 42
f 43 46 44
f 45 48 46
f 47 50 48
f 16 51 36
f 52 41 39
f 31 55 51
f 51 37 36
f 57 47 45
f 59 45 43
f 56 39 37
f 58 49 47
f 53 43 41
f 19 36 68
f 53 62 59
f 58 64 60
f 52 61 53
f 57 63 58
f 56 65 52
f 59 66 57
f 51 67 56
