# Wavefront OBJ file
# Regions:
#     0    patch0
#
# points    : 32
# triangles : 30
#
v 0.0031 8.4809 0.3479
v 0.223 8.4521 0.0589
v 0.0052 8.4497 0.0523
v 0.258 8.3051 -0.1735
v 0.008 8.3192 -0.2022
v 0.2927 8.0635 -0.349
v 0.0069 8.0662 -0.3688
v 0.2915 7.7605 -0.4587
v 0.0069 7.7616 -0.4628
v 0.2999 7.3674 -0.4852
v 0.0098 7.349 -0.4885
v 0.2988 6.853 -0.5207
v 0.0101 6.8245 -0.5239
v 0.2918 6.4959 -0.5326
v 0.0084 6.4695 -0.5233
v 0.3039 6.0579 -0.5352
v 0.0038 6.0434 -0.5344
v 0.3115 5.5644 -0.5647
v 0.007 5.5474 -0.5491
v 0.2804 5.0383 -0.6014
v 0.0039 5.0322 -0.5654
v 0.2758 4.49 -0.5839
v 0.0054 4.4703 -0.5732
v 0.2754 3.7569 -0.597
v 0.0166 3.7538 -0.5975
v 0.2552 3.157 -0.605
v 0.0185 3.1542 -0.6059
v 0.2709 2.6306 -0.597
v 0.0186 2.5985 -0.598
v 0.295 2.0126 -0.605
v 0.0035 8.4616 0.2689
v 0.0122 2.0286 -0.6057
g patch0
f 1 2 3
f 3 2 4
f 5 4 6
f 7 6 8
f 9 8 10
f 11 10 12
f 13 12 14
f 15 14 16
f 17 16 18
f 19 18 20
f 21 20 22
f 23 22 24
f 25 24 26
f 27 26 28
f 29 28 30
f 1 3 31
f 3 4 5
f 5 6 7
f 7 8 9
f 9 10 11
f 11 12 13
f 13 14 15
f 15 16 17
f 17 18 19
f 19 20 21
f 21 22 23
f 23 24 25
f 25 26 27
f 27 28 29
f 29 30 32
