# Wavefront OBJ file
# Regions:
#     0    patch0
#
# points    : 65
# triangles : 96
#
v -0.3525 7.3292 1.383
v -0.318 7.3296 1.39
v -0.3106 7.3287 1.4077
v -0.4372 7.2938 1.3672
v -0.4586 7.3023 1.3895
v -0.4673 7.2873 1.3827
v -0.2766 7.3228 1.388
v -0.2718 7.3215 1.4045
v -0.4296 7.2985 1.3306
v -0.4308 7.2997 1.3724
v -0.2006 7.2858 1.3788
v -0.1977 7.2854 1.3887
v -0.2132 7.2947 1.3916
v -0.4336 7.2929 1.3351
v -0.4391 7.2877 1.3628
v -0.347 7.3272 1.4049
v -0.3794 7.3216 1.3973
v -0.2374 7.3094 1.3777
v -0.2371 7.3088 1.3974
v -0.3792 7.3365 1.4193
v -0.406 7.3303 1.4113
v -0.3878 7.322 1.3684
v -0.405 7.3144 1.3868
v -0.1841 7.2785 1.3786
v -0.1868 7.2797 1.3865
v -0.1951 7.2878 1.3982
v -0.2102 7.2998 1.4031
v -0.4267 7.3227 1.4036
v -0.4121 7.3136 1.3469
v -0.4216 7.3074 1.3785
v -0.2166 7.2934 1.3721
v -0.4243 7.3062 1.3365
v -0.234 7.3158 1.4102
v -0.3461 7.3408 1.4249
v -0.4442 7.3134 1.3968
v -0.2681 7.3309 1.4198
v -0.185 7.281 1.3953
v -0.3086 7.3402 1.426
v -0.193 7.2919 1.4047
v -0.1829 7.2833 1.4015
v -0.1823 7.2862 1.406
v -0.4547 7.3266 1.4064
v -0.4632 7.337 1.4127
v -0.4879 7.3191 1.404
v -0.346 7.3528 1.4347
v -0.3458 7.3624 1.4413
v -0.3806 7.362 1.4363
v -0.4751 7.3117 1.3982
v -0.5048 7.2964 1.3973
v -0.3077 7.3503 1.4352
v -0.3069 7.3577 1.4413
v -0.4326 7.3373 1.4138
v -0.4378 7.3492 1.4206
v -0.38 7.3506 1.4295
v -0.411 7.3576 1.4287
v -0.2086 7.3059 1.4099
v -0.2077 7.3109 1.4153
v -0.2313 7.3279 1.4235
v -0.4087 7.3453 1.4217
v -0.2664 7.3389 1.4285
v -0.2657 7.345 1.4346
v -0.1915 7.2958 1.4097
v -0.2321 7.3225 1.4176
v -0.4896 7.2924 1.3915
v -0.4354 7.2879 1.3368
g patch0
f 1 2 3
f 4 5 6
f 7 8 3
f 9 10 4
f 11 12 13
f 14 4 15
f 1 16 17
f 18 19 8
f 17 20 21
f 22 17 23
f 11 24 25
f 12 26 27
f 23 21 28
f 29 23 30
f 31 13 19
f 32 30 10
f 13 27 33
f 16 34 20
f 10 35 5
f 19 33 36
f 12 25 37
f 16 3 38
f 30 28 35
f 8 36 38
f 39 40 41
f 42 43 44
f 45 46 47
f 48 44 49
f 45 50 51
f 52 53 43
f 54 47 55
f 56 57 58
f 59 55 53
f 60 61 51
f 39 62 57
f 63 58 61
f 26 39 56
f 36 60 50
f 21 59 52
f 27 56 63
f 20 54 59
f 28 52 42
f 34 38 50
f 5 48 64
f 34 45 54
f 35 42 48
f 26 37 40
f 33 63 60
f 1 3 16
f 4 6 15
f 7 3 2
f 9 4 14
f 11 13 31
f 14 15 65
f 1 17 22
f 18 8 7
f 17 21 23
f 22 23 29
f 11 25 12
f 12 27 13
f 23 28 30
f 29 30 32
f 31 19 18
f 32 10 9
f 13 33 19
f 16 20 17
f 10 5 4
f 19 36 8
f 12 37 26
f 16 38 34
f 30 35 10
f 8 38 3
f 39 41 62
f 42 44 48
f 45 47 54
f 48 49 64
f 45 51 46
f 52 43 42
f 54 55 59
f 56 58 63
f 59 53 52
f 60 51 50
f 39 57 56
f 63 61 60
f 26 56 27
f 36 50 38
f 21 52 28
f 27 63 33
f 20 59 21
f 28 42 35
f 34 50 45
f 5 64 6
f 34 54 20
f 35 48 5
f 26 40 39
f 33 60 36
