# Wavefront OBJ file
# Regions:
#     0    patch0
#
# points    : 68
# triangles : 96
#
v 0 6.6984 1.4898
v 0.0828 6.7011 1.487
v 0.0781 6.792 1.5079
v 0.0891 6.6041 1.4643
v 0.174 6.6195 1.4119
v 0.1685 6.7131 1.4347
v 0.2213 6.6396 1.342
v 0.216 6.7272 1.3553
v 0.2541 6.6571 1.2598
v 0.2521 6.7421 1.2748
v 0.2836 6.6765 1.1728
v 0.2831 6.7529 1.1846
v 0.2971 6.688 1.1041
v 0.292 6.7587 1.1162
v 0.3108 6.7041 1.0387
v 0.3058 6.7679 1.0467
v 0.3092 6.7205 0.9671
v 0 6.6 1.4677
v 0.1613 6.8008 1.4541
v 0.2479 6.8221 1.2904
v 0.2923 6.8261 1.1278
v 0.2096 6.8112 1.3701
v 0.2818 6.8267 1.1992
v 0.3058 6.8337 1.0582
v 0.3098 6.773 0.9706
v 0 6.7039 1.4134
v 0.1443 6.7306 1.3269
v 0.1944 6.777 1.081
v 0.1007 6.7169 1.3769
v 0.1656 6.743 1.2704
v 0.1838 6.7566 1.2087
v 0.1922 6.7653 1.1459
v 0.0484 6.7066 1.409
v -0.0828 6.7011 1.487
v -0.1685 6.7131 1.4347
v -0.174 6.6195 1.4119
v -0.216 6.7272 1.3553
v -0.2213 6.6396 1.342
v -0.2521 6.7421 1.2748
v -0.2541 6.6571 1.2598
v -0.2831 6.7529 1.1846
v -0.2836 6.6765 1.1728
v -0.292 6.7587 1.1162
v -0.2971 6.688 1.1041
v -0.3058 6.7679 1.0467
v -0.3108 6.7041 1.0387
v -0.3098 6.773 0.9706
v -0.3092 6.7205 0.9671
v -0.1613 6.8008 1.4541
v -0.2096 6.8112 1.3701
v -0.2479 6.8221 1.2904
v -0.2818 6.8267 1.1992
v -0.0781 6.792 1.5079
v -0.2923 6.8261 1.1278
v -0.3058 6.8337 1.0582
v -0.3096 6.8327 0.9803
v -0.1656 6.743 1.2704
v -0.1443 6.7306 1.3269
v -0.1954 6.7891 1.0071
v -0.1944 6.777 1.081
v -0.1007 6.7169 1.3769
v -0.1838 6.7566 1.2087
v -0.1922 6.7653 1.1459
v -0.0484 6.7066 1.409
v -0.0891 6.6041 1.4643
v 0 6.7914 1.5108
v 0.3096 6.8327 0.9803
v 0.1954 6.7891 1.0071
g patch0
f 1 2 3
f 2 4 5
f 6 5 7
f 8 7 9
f 10 9 11
f 12 11 13
f 14 13 15
f 16 15 17
f 18 4 2
f 19 6 8
f 20 10 12
f 3 2 6
f 21 14 16
f 22 8 10
f 23 12 14
f 24 16 25
f 4 18 26
f 9 7 27
f 17 15 28
f 7 5 29
f 11 9 30
f 13 11 31
f 15 13 32
f 5 4 33
f 34 35 36
f 35 37 38
f 37 39 40
f 39 41 42
f 41 43 44
f 43 45 46
f 45 47 48
f 49 50 37
f 51 52 41
f 53 49 35
f 54 55 45
f 50 51 39
f 52 54 43
f 55 56 47
f 40 57 58
f 48 59 60
f 38 58 61
f 42 62 57
f 44 63 62
f 46 60 63
f 36 61 64
f 65 64 26
f 18 1 34
f 1 66 53
f 1 3 66
f 2 5 6
f 6 7 8
f 8 9 10
f 10 11 12
f 12 13 14
f 14 15 16
f 16 17 25
f 18 2 1
f 19 8 22
f 20 12 23
f 3 6 19
f 21 16 24
f 22 10 20
f 23 14 21
f 24 25 67
f 4 26 33
f 9 27 30
f 17 28 68
f 7 29 27
f 11 30 31
f 13 31 32
f 15 32 28
f 5 33 29
f 34 36 65
f 35 38 36
f 37 40 38
f 39 42 40
f 41 44 42
f 43 46 44
f 45 48 46
f 49 37 35
f 51 41 39
f 53 35 34
f 54 45 43
f 50 39 37
f 52 43 41
f 55 47 45
f 40 58 38
f 48 60 46
f 38 61 36
f 42 57 40
f 44 62 42
f 46 63 44
f 36 64 65
f 65 26 18
f 18 34 65
f 1 53 34
