# Wavefront OBJ file
# Regions:
#     0    patch0
#
# points    : 32
# triangles : 30
#
v -0.0118 8.4218 0.9573
v -0.0214 8.4829 0.7795
v -0.5031 8.3648 0.7328
v -0.6645 8.1781 0.6139
v -0.6423 8.1459 1.0049
v -0.7826 7.9454 0.564
v -0.7647 7.9625 0.9841
v -0.8429 7.7121 0.5313
v -0.7972 7.724 0.9489
v -0.9065 7.2814 0.4892
v -0.8154 7.3448 0.8916
v -0.8894 6.7639 0.5116
v -0.7756 6.896 0.8765
v -0.85 6.4319 0.5626
v -0.7404 6.5176 0.9225
v -0.8159 6.057 0.6312
v -0.6522 6.0628 0.9372
v -0.8308 5.6454 0.8474
v -0.5226 5.6324 0.9973
v -0.7262 5.1102 1.0792
v -0.418 5.0731 1.1519
v -0.6642 4.6614 1.3034
v -0.2812 4.6163 1.3356
v -0.6198 4.1691 1.5377
v -0.1572 4.1895 1.5993
v -0.6339 3.7652 1.6895
v -0.1527 3.779 1.712
v -0.6139 3.27 1.7147
v -0.1528 3.2884 1.7046
v -0.5876 2.8027 1.7027
v -0.1325 2.7991 1.7415
v -0.481 8.3341 0.9982
g patch0
f 1 2 3
f 3 4 5
f 4 6 7
f 6 8 9
f 8 10 11
f 10 12 13
f 12 14 15
f 14 16 17
f 16 18 19
f 18 20 21
f 20 22 23
f 22 24 25
f 24 26 27
f 26 28 29
f 28 30 31
f 1 3 32
f 3 5 32
f 4 7 5
f 6 9 7
f 8 11 9
f 10 13 11
f 12 15 13
f 14 17 15
f 16 19 17
f 18 21 19
f 20 23 21
f 22 25 23
f 24 27 25
f 26 29 27
f 28 31 29
