# Wavefront OBJ file
# Regions:
#     0    patch0
#
# points    : 200
# triangles : 364
#
v -0.2133 -0.137 1.0688
v -0.2052 -0.2014 1.0259
v -0.1802 -0.2125 1.0197
v -0.0365 -0.3708 0.7178
v -0.0272 -0.4124 0.61
v 0 -0.4162 0.6118
v -0.1442 -0.3695 0.6713
v -0.1771 -0.3661 0.679
v -0.1589 -0.3894 0.5933
v -0.1888 -0.2633 0.9183
v -0.2332 -0.2495 0.9307
v -0.2129 -0.2903 0.8631
v 0.2133 -0.137 1.0688
v 0.174 -0.1459 1.0728
v 0.1802 -0.2125 1.0197
v 0.0365 -0.3708 0.7178
v 0 -0.3911 0.7481
v 0.1442 -0.3695 0.6713
v 0.127 -0.3896 0.5964
v 0.1589 -0.3894 0.5933
v 0.1888 -0.2633 0.9183
v 0.1756 -0.2961 0.8636
v 0.2129 -0.2903 0.8631
v -0.0816 -0.1059 1.1219
v -0.1036 -0.172 1.0773
v 0 -0.145 1.1108
v -0.1326 -0.1014 1.1194
v -0.1446 -0.1538 1.0766
v -0.155 -0.2222 1.016
v -0.1393 -0.234 1.0133
v -0.2198 -0.0783 1.1183
v -0.174 -0.1459 1.0728
v -0.264 -0.0587 1.1108
v -0.261 -0.1222 1.0673
v -0.2536 -0.185 1.03
v 0.042 -0.5002 0.9229
v 0.0321 -0.3261 0.8948
v 0 -0.3421 0.9007
v 0.0832 -0.3222 0.8786
v -0.0764 -0.3682 0.6876
v -0.072 -0.4062 0.6041
v -0.1241 -0.3772 0.679
v -0.127 -0.3896 0.5964
v -0.1539 -0.3428 0.774
v -0.1656 -0.3334 0.7727
v -0.2006 -0.3326 0.7844
v -0.1597 -0.2726 0.9177
v -0.1756 -0.2961 0.8636
v -0.1286 -0.2842 0.923
v -0.0949 -0.2983 0.9323
v -0.0832 -0.3222 0.8786
v -0.0321 -0.3261 0.8948
v 0 -0.3292 0.9125
v 0.1446 -0.1538 1.0766
v 0.1036 -0.172 1.0773
v 0.1393 -0.234 1.0133
v 0.1326 -0.1014 1.1194
v 0.0816 -0.1059 1.1219
v 0 -0.1051 1.1291
v 0.261 -0.1222 1.0673
v 0.2052 -0.2014 1.0259
v 0.264 -0.0587 1.1108
v 0.2198 -0.0783 1.1183
v 0.1722 -0.0905 1.116
v 0.0764 -0.3682 0.6876
v 0.0272 -0.4124 0.61
v 0.1241 -0.3772 0.679
v 0.1998 -0.5463 0.6803
v -0.042 -0.5002 0.9229
v 0 -0.5002 0.9229
v 0.1656 -0.3334 0.7727
v 0.1771 -0.3661 0.679
v 0.1539 -0.3428 0.774
v 0.1029 -0.3991 0.6017
v 0.2332 -0.2495 0.9307
v 0.1597 -0.2726 0.9177
v 0.1519 -0.3051 0.8661
v 0.0949 -0.2983 0.9323
v 0.1286 -0.2842 0.923
v 0.155 -0.2222 1.016
v -0.0443 -0.5743 0.734
v 0.1385 -0.5895 0.9862
v 0.0359 -0.6398 0.9272
v 0.0716 -0.8028 0.9548
v -0.1998 -0.5463 0.6803
v 0.1889 -0.4429 0.9062
v 0 -0.5775 0.7344
v 0 -0.8149 0.7588
v 0 -0.8491 0.8702
v -0.0258 -0.8648 0.8637
v -0.1519 -0.3051 0.8661
v -0.1889 -0.4429 0.9062
v 0.1394 -0.7861 0.6757
v 0.2266 -0.7675 0.6937
v 0.1852 -0.9036 0.7756
v -0.1394 -0.7861 0.6757
v -0.0504 -0.826 0.7585
v -0.1041 -0.9168 0.7849
v -0.1385 -0.5895 0.9862
v -0.2285 -0.5844 0.9407
v -0.2518 -0.7157 0.9577
v 0.0504 -0.826 0.7585
v 0.2926 -0.5992 0.7974
v 0.2285 -0.5844 0.9407
v 0.2518 -0.7157 0.9577
v -0.1141 -0.6835 0.6676
v -0.0452 -0.6911 0.7437
v 0.1141 -0.6835 0.6676
v 0.2132 -0.6569 0.687
v -0.2926 -0.5992 0.7974
v -0.2132 -0.6569 0.687
v -0.2266 -0.7675 0.6937
v -0.1559 -0.9129 0.8482
v -0.1461 -0.9124 0.7646
v 0.1559 -0.9129 0.8482
v 0.0809 -0.9048 0.8518
v 0.1041 -0.9168 0.7849
v -0.3098 -0.7319 0.8138
v -0.1852 -0.9036 0.7756
v 0.1505 -0.7325 1.0011
v 0.1073 -0.872 0.9213
v 0.0258 -0.8648 0.8637
v -0.1505 -0.7325 1.0011
v -0.229 -0.8516 0.9136
v -0.0716 -0.8028 0.9548
v -0.1073 -0.872 0.9213
v 0.3098 -0.7319 0.8138
v 0.229 -0.8516 0.9136
v 0.1139 -0.4468 0.9451
v 0.072 -0.4062 0.6041
v 0.1075 -0.5831 0.6614
v 0.1461 -0.9124 0.7646
v 0.0452 -0.6911 0.7437
v 0.2507 -0.8868 0.8382
v 0.1654 -0.8502 0.9455
v -0.1075 -0.5831 0.6614
v 0 -0.765 0.9443
v -0.1654 -0.8502 0.9455
v -0.0809 -0.9048 0.8518
v -0.1139 -0.4468 0.9451
v -0.2507 -0.8868 0.8382
v -0.0359 -0.6398 0.9272
v 0 -0.699 0.7473
v -0.1029 -0.3991 0.6017
v -0.2292 -0.4854 0.7816
v -0.1722 -0.0905 1.116
v 0 -0.6481 0.9361
v 0.0443 -0.5743 0.734
v 0.2006 -0.3326 0.7844
v 0.2292 -0.4854 0.7816
v 0.0949 -0.4185 1.0361
v 0.1036 -0.2964 1.1847
v 0.1393 -0.3566 1.1189
v 0 -0.2704 1.2189
v -0.0949 -0.4185 1.0361
v -0.1036 -0.2964 1.1847
v 0 -0.4488 1.0154
v -0.1393 -0.3566 1.1189
v 0 -0.4106 1.3409
v -0.1393 -0.4828 1.2113
v 0.1036 -0.4392 1.2825
v 0.1393 -0.4828 1.2113
v -0.1036 -0.4392 1.2825
v 0 -0.5639 1.0942
v 0.0949 -0.5339 1.128
v -0.0949 -0.5339 1.128
v 0.0949 -0.6535 1.1891
v -0.0949 -0.6535 1.1891
v 0 -0.5789 1.4122
v -0.1393 -0.6177 1.2798
v 0.1036 -0.5912 1.371
v 0.1393 -0.6177 1.2798
v -0.1036 -0.5912 1.371
v 0 -0.6798 1.154
v 0.0823 -0.7918 1.2516
v 0.1213 -0.769 1.3378
v 0.1393 -0.8207 1.357
v 0 -0.7356 1.4479
v -0.0908 -0.7447 1.4114
v -0.1036 -0.7913 1.4412
v -0.0823 -0.7918 1.2516
v 0 -0.8114 1.2243
v 0 -0.8647 1.2256
v 0.0949 -0.8449 1.2565
v -0.1213 -0.769 1.3378
v -0.0949 -0.8449 1.2565
v 0.0908 -0.7447 1.4114
v 0 -0.7809 1.4829
v -0.1393 -0.8207 1.357
v 0.1036 -0.7913 1.4412
v -0.0467 -0.9618 1.3969
v 0.0347 -0.9525 1.4252
v 0.0467 -0.9618 1.3969
v -0.0347 -0.9525 1.4252
v 0 -0.9756 1.3525
v 0.0318 -0.9692 1.363
v -0.0318 -0.9692 1.363
v 0 -0.9493 1.4393
v 0 -0.9823 1.4034
v 0.2536 -0.185 1.03
g patch0
f 1 2 3
f 4 5 6
f 7 8 9
f 10 11 12
f 13 14 15
f 16 17 6
f 18 19 20
f 21 22 23
f 24 25 26
f 27 28 25
f 28 29 30
f 31 1 32
f 33 34 1
f 34 35 2
f 36 37 38
f 39 37 36
f 40 41 5
f 42 7 43
f 44 45 7
f 45 46 8
f 47 10 48
f 3 2 10
f 2 35 11
f 49 50 30
f 51 52 50
f 52 38 53
f 54 55 56
f 57 58 55
f 58 59 26
f 60 13 61
f 62 63 13
f 63 64 14
f 65 16 66
f 65 67 68
f 52 69 70
f 71 18 72
f 73 67 18
f 67 74 19
f 61 21 75
f 15 76 21
f 76 77 22
f 37 78 53
f 39 79 78
f 79 80 56
f 81 4 17
f 82 83 84
f 44 42 85
f 73 77 86
f 87 17 16
f 88 89 90
f 51 91 92
f 40 4 81
f 93 94 95
f 96 97 98
f 99 100 101
f 89 88 102
f 103 104 105
f 106 107 97
f 108 109 94
f 110 111 112
f 113 114 98
f 115 116 117
f 118 112 119
f 120 84 121
f 122 102 117
f 123 101 124
f 90 125 126
f 127 105 128
f 77 39 129
f 14 54 80
f 64 57 54
f 67 65 130
f 16 65 131
f 77 76 79
f 76 15 80
f 104 82 120
f 102 93 132
f 133 108 93
f 134 115 132
f 105 120 135
f 111 106 96
f 42 40 136
f 91 48 45
f 48 12 46
f 100 110 118
f 84 122 116
f 90 89 137
f 138 113 139
f 112 96 114
f 52 51 140
f 125 123 138
f 91 51 49
f 141 119 114
f 124 141 113
f 142 99 123
f 47 49 29
f 32 3 29
f 89 122 84
f 128 135 115
f 143 88 97
f 97 90 139
f 42 144 41
f 91 44 145
f 146 32 28
f 83 147 137
f 147 142 125
f 143 87 148
f 77 73 71
f 101 118 141
f 135 121 116
f 22 71 149
f 94 127 134
f 67 73 150
f 109 103 127
f 53 78 151
f 56 55 152
f 78 56 153
f 55 26 154
f 30 50 155
f 26 25 156
f 50 53 157
f 25 30 158
f 152 154 159
f 156 158 160
f 153 152 161
f 151 153 162
f 154 156 163
f 155 157 164
f 157 151 165
f 158 155 166
f 164 165 167
f 160 166 168
f 161 159 169
f 163 160 170
f 162 161 171
f 165 162 172
f 159 163 173
f 166 164 174
f 175 176 177
f 178 179 180
f 181 182 183
f 182 175 184
f 185 181 186
f 187 178 188
f 179 185 189
f 176 187 190
f 180 189 191
f 177 190 192
f 184 177 193
f 188 180 194
f 186 183 195
f 183 184 196
f 189 186 197
f 190 188 198
f 129 36 83
f 140 92 100
f 150 86 104
f 136 81 107
f 131 68 109
f 145 85 111
f 86 129 82
f 148 131 108
f 85 136 106
f 92 145 110
f 69 140 99
f 87 143 107
f 36 70 147
f 70 69 142
f 88 143 133
f 68 150 103
f 192 198 199
f 194 191 199
f 196 193 199
f 197 195 199
f 167 172 176
f 169 173 179
f 168 174 182
f 174 167 175
f 170 168 181
f 171 169 178
f 173 170 185
f 172 171 187
f 1 3 32
f 4 6 17
f 7 9 43
f 10 12 48
f 13 15 61
f 16 6 66
f 18 20 72
f 21 23 75
f 24 26 59
f 27 25 24
f 28 30 25
f 31 32 146
f 33 1 31
f 34 2 1
f 36 38 70
f 39 36 129
f 40 5 4
f 42 43 144
f 44 7 42
f 45 8 7
f 47 48 91
f 3 10 47
f 2 11 10
f 49 30 29
f 51 50 49
f 52 53 50
f 54 56 80
f 57 55 54
f 58 26 55
f 60 61 200
f 62 13 60
f 63 14 13
f 65 66 130
f 65 68 131
f 52 70 38
f 71 72 149
f 73 18 71
f 67 19 18
f 61 75 200
f 15 21 61
f 76 22 21
f 37 53 38
f 39 78 37
f 79 56 78
f 81 17 87
f 82 84 120
f 44 85 145
f 73 86 150
f 87 16 148
f 88 90 97
f 51 92 140
f 40 81 136
f 93 95 132
f 96 98 114
f 99 101 123
f 89 102 122
f 103 105 127
f 106 97 96
f 108 94 93
f 110 112 118
f 113 98 139
f 115 117 132
f 118 119 141
f 120 121 135
f 122 117 116
f 123 124 138
f 90 126 139
f 127 128 134
f 77 129 86
f 14 80 15
f 64 54 14
f 67 130 74
f 16 131 148
f 77 79 39
f 76 80 79
f 104 120 105
f 102 132 117
f 133 93 102
f 134 132 95
f 105 135 128
f 111 96 112
f 42 136 85
f 91 45 44
f 48 46 45
f 100 118 101
f 84 116 121
f 90 137 125
f 138 139 126
f 112 114 119
f 52 140 69
f 125 138 126
f 91 49 47
f 141 114 113
f 124 113 138
f 142 123 125
f 47 29 3
f 32 29 28
f 89 84 137
f 128 115 134
f 143 97 107
f 97 139 98
f 42 41 40
f 91 145 92
f 146 28 27
f 83 137 84
f 147 125 137
f 143 148 133
f 77 71 22
f 101 141 124
f 135 116 115
f 22 149 23
f 94 134 95
f 67 150 68
f 109 127 94
f 53 151 157
f 56 152 153
f 78 153 151
f 55 154 152
f 30 155 158
f 26 156 154
f 50 157 155
f 25 158 156
f 152 159 161
f 156 160 163
f 153 161 162
f 151 162 165
f 154 163 159
f 155 164 166
f 157 165 164
f 158 166 160
f 164 167 174
f 160 168 170
f 161 169 171
f 163 170 173
f 162 171 172
f 165 172 167
f 159 173 169
f 166 174 168
f 175 177 184
f 178 180 188
f 181 183 186
f 182 184 183
f 185 186 189
f 187 188 190
f 179 189 180
f 176 190 177
f 180 191 194
f 177 192 193
f 184 193 196
f 188 194 198
f 186 195 197
f 183 196 195
f 189 197 191
f 190 198 192
f 129 83 82
f 140 100 99
f 150 104 103
f 136 107 106
f 131 109 108
f 145 111 110
f 86 82 104
f 148 108 133
f 85 106 111
f 92 110 100
f 69 99 142
f 87 107 81
f 36 147 83
f 70 142 147
f 88 133 102
f 68 103 109
f 192 199 193
f 194 199 198
f 196 199 195
f 197 199 191
f 167 176 175
f 169 179 178
f 168 182 181
f 174 175 182
f 170 181 185
f 171 178 187
f 173 185 179
f 172 187 176
