# Wavefront OBJ file
# Regions:
#     0    patch0
#
# points    : 226
# triangles : 448
#
v -0.2015 6.5862 1.1129
v -0.1825 6.5993 1.1859
v -0.2032 6.6302 1.1873
v -0.2276 6.6267 1.1111
v -0.2031 6.6717 1.1825
v -0.2303 6.6802 1.106
v -0.182 6.6995 1.1737
v -0.2397 6.683 1.0053
v -0.2171 6.7182 1.0086
v -0.2057 6.7116 1.1011
v -0.0986 6.7051 1.1565
v -0.2162 6.5473 1.0263
v -0.0519 6.5841 1.1769
v -0.0923 6.5854 1.1745
v -0.1048 6.574 1.1073
v -0.056 6.5015 1.0416
v -0.1094 6.5394 1.0242
v -0.1153 6.4744 0.9056
v -0.0586 6.5586 1.1084
v -0.0551 6.7027 1.1546
v -0.0537 6.691 1.2089
v 0 6.6895 1.2056
v -0.1723 6.6867 1.2281
v -0.0959 6.6925 1.2121
v -0.1055 6.7149 1.0825
v -0.087 6.5853 1.2311
v -0.1769 6.5976 1.2414
v -0.1962 6.6243 1.2418
v -0.1944 6.6611 1.2367
v -0.0493 6.5838 1.23
v -0.0493 6.6775 1.2552
v 0 6.6771 1.2542
v -0.162 6.6714 1.27
v -0.087 6.678 1.2562
v -0.2254 6.4942 0.8984
v -0.0829 6.5776 1.2753
v -0.1674 6.5878 1.2813
v -0.1858 6.6127 1.2803
v -0.184 6.6469 1.2762
v -0.0473 6.5768 1.275
v -0.0434 6.663 1.2968
v 0 6.663 1.2962
v -0.0393 6.6464 1.3306
v -0.0352 6.6276 1.3592
v 0 6.6279 1.36
v -0.0445 6.5653 1.3092
v -0.0417 6.5526 1.3369
v -0.0718 6.5535 1.3383
v -0.1261 6.6378 1.3366
v -0.1089 6.6216 1.3646
v -0.0589 6.6272 1.3584
v -0.0636 6.5435 1.359
v -0.1105 6.5522 1.3598
v -0.1293 6.5624 1.3382
v -0.1215 6.5735 1.3617
v -0.1446 6.5855 1.3378
v -0.1213 6.6013 1.3637
v -0.1438 6.6157 1.3373
v -0.0376 6.5429 1.3588
v -0.0314 6.6074 1.3848
v 0 6.6068 1.3845
v -0.0959 6.6083 1.3831
v -0.0511 6.608 1.3852
v -0.0533 6.5432 1.3777
v -0.0962 6.548 1.3744
v -0.1656 6.6312 1.3085
v -0.1444 6.6546 1.3052
v -0.0986 6.5642 1.3802
v -0.0987 6.5896 1.3841
v -0.0325 6.5431 1.3773
v -0.0415 6.5842 1.3938
v -0.0266 6.5829 1.3929
v -0.0423 6.5573 1.3894
v -0.027 6.5576 1.39
v -0.0751 6.6631 1.2973
v -0.167 6.599 1.3109
v -0.067 6.646 1.3302
v -0.1493 6.575 1.3123
v -0.0773 6.5659 1.3096
v 0 6.6469 1.3311
v -0.0586 6.7083 1.0803
v 0 6.7004 1.1526
v -0.0612 6.7013 0.9885
v 0 6.7016 1.0781
v -0.0645 6.6581 0.8621
v 0 6.6867 0.9868
v -0.06 6.5821 0.7471
v 0 6.6461 0.8628
v -0.0615 6.4426 0.9188
v -0.0612 6.4009 0.8255
v 0 6.3567 0.8593
v 0 6.5409 1.1217
v -0.2364 6.4127 0.6914
v -0.2104 6.3558 0.7376
v -0.2181 6.4336 0.804
v -0.2447 6.5516 0.7572
v -0.2158 6.5738 0.7489
v -0.2055 6.5112 0.6423
v -0.2454 6.485 0.7851
v -0.2343 6.4826 0.647
v -0.1085 6.5945 0.7438
v -0.1008 6.5092 0.6337
v -0.1108 6.4234 0.8148
v -0.2265 6.6549 0.8654
v -0.1174 6.6701 0.8615
v -0.2555 6.5447 0.8902
v -0.2558 6.618 0.8791
v -0.239 6.6053 1.0141
v -0.1107 6.716 0.9902
v 0 6.5726 1.1775
v 0 6.5823 1.2288
v 0 6.5761 1.2747
v 0 6.5647 1.3088
v 0 6.5517 1.3355
v 0 6.5423 1.3585
v 0 6.5429 1.377
v 0 6.5816 1.3921
v 0 6.5579 1.3906
v -0.1068 6.3464 0.7411
v -0.0669 6.3142 0.7654
v -0.0562 6.5059 0.6314
v 0 6.5696 0.7504
v 0 6.2921 0.7908
v 0 6.4599 1.0628
v 0.2015 6.5862 1.1129
v 0.2276 6.6267 1.1111
v 0.2032 6.6302 1.1873
v 0.2303 6.6802 1.106
v 0.2031 6.6717 1.1825
v 0.2057 6.7116 1.1011
v 0.182 6.6995 1.1737
v 0.239 6.6053 1.0141
v 0.2397 6.683 1.0053
v 0.2171 6.7182 1.0086
v 0.1055 6.7149 1.0825
v 0.0986 6.7051 1.1565
v 0.2162 6.5473 1.0263
v 0.0519 6.5841 1.1769
v 0.0586 6.5586 1.1084
v 0.1048 6.574 1.1073
v 0.056 6.5015 1.0416
v 0.0615 6.4426 0.9188
v 0.1153 6.4744 0.9056
v 0.1094 6.5394 1.0242
v 0.0551 6.7027 1.1546
v 0.0959 6.6925 1.2121
v 0.1107 6.716 0.9902
v 0.1825 6.5993 1.1859
v 0.0923 6.5854 1.1745
v 0.1769 6.5976 1.2414
v 0.1962 6.6243 1.2418
v 0.1944 6.6611 1.2367
v 0.1723 6.6867 1.2281
v 0.087 6.5853 1.2311
v 0.0537 6.691 1.2089
v 0.087 6.678 1.2562
v 0.2254 6.4942 0.8984
v 0.1674 6.5878 1.2813
v 0.1858 6.6127 1.2803
v 0.184 6.6469 1.2762
v 0.162 6.6714 1.27
v 0.0493 6.5838 1.23
v 0.0829 6.5776 1.2753
v 0.0493 6.6775 1.2552
v 0.0393 6.6464 1.3306
v 0.0445 6.5653 1.3092
v 0.0773 6.5659 1.3096
v 0.0718 6.5535 1.3383
v 0.1261 6.6378 1.3366
v 0.067 6.646 1.3302
v 0.0589 6.6272 1.3584
v 0.1293 6.5624 1.3382
v 0.1105 6.5522 1.3598
v 0.1446 6.5855 1.3378
v 0.1215 6.5735 1.3617
v 0.1438 6.6157 1.3373
v 0.1213 6.6013 1.3637
v 0.1089 6.6216 1.3646
v 0.0417 6.5526 1.3369
v 0.0636 6.5435 1.359
v 0.0325 6.5431 1.3773
v 0.0511 6.608 1.3852
v 0.0962 6.548 1.3744
v 0.1444 6.6546 1.3052
v 0.0986 6.5642 1.3802
v 0.0987 6.5896 1.3841
v 0.0959 6.6083 1.3831
v 0.0376 6.5429 1.3588
v 0.0533 6.5432 1.3777
v 0.0314 6.6074 1.3848
v 0.0266 6.5829 1.3929
v 0.0415 6.5842 1.3938
v 0.027 6.5576 1.39
v 0.0423 6.5573 1.3894
v 0.0751 6.6631 1.2973
v 0.1656 6.6312 1.3085
v 0.1493 6.575 1.3123
v 0.167 6.599 1.3109
v 0.0434 6.663 1.2968
v 0.0473 6.5768 1.275
v 0.0612 6.7013 0.9885
v 0.0645 6.6581 0.8621
v 0.06 6.5821 0.7471
v 0 6.3932 0.9374
v 0.2364 6.4127 0.6914
v 0.2454 6.485 0.7851
v 0.2181 6.4336 0.804
v 0.2447 6.5516 0.7572
v 0.2343 6.4826 0.647
v 0.2055 6.5112 0.6423
v 0.2158 6.5738 0.7489
v 0.1008 6.5092 0.6337
v 0.1108 6.4234 0.8148
v 0.1068 6.3464 0.7411
v 0.2104 6.3558 0.7376
v 0.2265 6.6549 0.8654
v 0.1085 6.5945 0.7438
v 0.2555 6.5447 0.8902
v 0.2558 6.618 0.8791
v 0.1174 6.6701 0.8615
v 0.0352 6.6276 1.3592
v 0.0586 6.7083 1.0803
v 0.0612 6.4009 0.8255
v 0.0669 6.3142 0.7654
v 0.0562 6.5059 0.6314
v 0 6.5026 0.629
g patch0
f 1 2 3
f 4 3 5
f 6 5 7
f 4 6 8
f 9 8 6
f 10 7 11
f 12 1 4
f 13 14 15
f 16 17 18
f 19 15 17
f 20 21 22
f 7 23 24
f 9 10 25
f 2 1 15
f 14 26 27
f 2 27 28
f 3 28 29
f 5 29 23
f 13 30 26
f 21 31 32
f 23 33 34
f 35 18 17
f 26 36 37
f 17 15 1
f 27 37 38
f 28 38 39
f 29 39 33
f 30 40 36
f 31 41 42
f 43 44 45
f 46 47 48
f 49 50 51
f 48 52 53
f 54 53 55
f 56 55 57
f 58 57 50
f 47 59 52
f 44 60 61
f 50 62 63
f 52 64 65
f 39 66 67
f 53 65 68
f 55 68 69
f 57 69 62
f 59 70 64
f 60 63 71
f 72 71 73
f 74 73 64
f 63 62 69
f 68 73 71
f 65 64 73
f 33 67 75
f 38 76 66
f 67 49 77
f 66 58 49
f 78 54 56
f 37 78 76
f 79 48 54
f 41 43 80
f 76 56 58
f 36 79 78
f 40 46 79
f 81 20 82
f 83 81 84
f 85 83 86
f 87 85 88
f 89 90 91
f 92 19 16
f 93 94 95
f 96 97 98
f 99 96 100
f 97 101 102
f 103 95 94
f 18 35 95
f 104 105 101
f 106 107 96
f 107 104 97
f 35 106 99
f 12 108 106
f 8 9 104
f 108 8 107
f 9 109 105
f 110 13 19
f 11 24 21
f 110 111 30
f 24 34 31
f 111 112 40
f 34 75 41
f 77 51 44
f 113 114 47
f 114 115 59
f 51 63 60
f 115 116 70
f 61 60 72
f 117 72 74
f 118 74 70
f 75 77 43
f 112 113 46
f 25 11 20
f 109 25 81
f 105 109 83
f 101 105 85
f 18 103 90
f 103 119 120
f 102 101 87
f 121 87 122
f 90 120 123
f 124 16 89
f 125 126 127
f 126 128 129
f 128 130 131
f 126 132 133
f 134 130 128
f 130 135 136
f 137 132 126
f 138 139 140
f 141 142 143
f 139 141 144
f 145 82 22
f 131 136 146
f 134 147 135
f 148 149 140
f 149 148 150
f 148 127 151
f 127 129 152
f 129 131 153
f 138 149 154
f 155 22 32
f 153 146 156
f 157 137 144
f 154 150 158
f 144 137 125
f 150 151 159
f 151 152 160
f 152 153 161
f 162 154 163
f 164 32 42
f 165 80 45
f 166 167 168
f 169 170 171
f 168 172 173
f 172 174 175
f 174 176 177
f 176 169 178
f 179 168 180
f 118 116 181
f 178 171 182
f 180 173 183
f 160 161 184
f 173 175 185
f 175 177 186
f 177 178 187
f 188 180 189
f 190 191 192
f 191 193 194
f 193 181 189
f 182 192 186
f 185 186 192
f 183 185 194
f 161 156 195
f 159 160 196
f 184 195 170
f 196 184 169
f 197 198 174
f 158 159 198
f 167 197 172
f 199 42 80
f 198 196 176
f 163 158 197
f 200 163 167
f 201 86 84
f 202 88 86
f 203 122 88
f 142 204 91
f 92 124 141
f 205 206 207
f 208 209 210
f 206 205 209
f 211 210 212
f 213 214 215
f 143 213 207
f 216 211 217
f 218 206 208
f 219 208 211
f 157 207 206
f 137 157 218
f 133 219 216
f 132 218 219
f 134 216 220
f 110 92 139
f 136 145 155
f 110 138 162
f 146 155 164
f 111 162 200
f 156 164 199
f 170 165 221
f 113 166 179
f 114 179 188
f 171 221 190
f 61 117 191
f 117 118 193
f 221 45 61
f 195 199 165
f 112 200 166
f 135 222 145
f 147 201 222
f 220 202 201
f 217 203 202
f 143 142 223
f 213 223 224
f 212 225 203
f 225 226 122
f 223 91 123
f 124 204 142
f 222 84 82
f 115 188 181
f 205 215 210
f 214 212 210
f 224 225 212
f 225 224 123
f 120 121 226
f 121 120 119
f 102 119 94
f 94 93 100
f 1 3 4
f 4 5 6
f 6 7 10
f 4 8 108
f 9 6 10
f 10 11 25
f 12 4 108
f 13 15 19
f 16 18 89
f 19 17 16
f 20 22 82
f 7 24 11
f 9 25 109
f 2 15 14
f 14 27 2
f 2 28 3
f 3 29 5
f 5 23 7
f 13 26 14
f 21 32 22
f 23 34 24
f 35 17 12
f 26 37 27
f 17 1 12
f 27 38 28
f 28 39 29
f 29 33 23
f 30 36 26
f 31 42 32
f 43 45 80
f 46 48 79
f 49 51 77
f 48 53 54
f 54 55 56
f 56 57 58
f 58 50 49
f 47 52 48
f 44 61 45
f 50 63 51
f 52 65 53
f 39 67 33
f 53 68 55
f 55 69 57
f 57 62 50
f 59 64 52
f 60 71 72
f 72 73 74
f 74 64 70
f 63 69 71
f 68 71 69
f 65 73 68
f 33 75 34
f 38 66 39
f 67 77 75
f 66 49 67
f 78 56 76
f 37 76 38
f 79 54 78
f 41 80 42
f 76 58 66
f 36 78 37
f 40 79 36
f 81 82 84
f 83 84 86
f 85 86 88
f 87 88 122
f 89 91 204
f 92 16 124
f 93 95 99
f 96 98 100
f 99 100 93
f 97 102 98
f 103 94 119
f 18 95 103
f 104 101 97
f 106 96 99
f 107 97 96
f 35 99 95
f 12 106 35
f 8 104 107
f 108 107 106
f 9 105 104
f 110 19 92
f 11 21 20
f 110 30 13
f 24 31 21
f 111 40 30
f 34 41 31
f 77 44 43
f 113 47 46
f 114 59 47
f 51 60 44
f 115 70 59
f 61 72 117
f 117 74 118
f 118 70 116
f 75 43 41
f 112 46 40
f 25 20 81
f 109 81 83
f 105 83 85
f 101 85 87
f 18 90 89
f 103 120 90
f 102 87 121
f 121 122 226
f 90 123 91
f 124 89 204
f 125 127 148
f 126 129 127
f 128 131 129
f 126 133 128
f 134 128 133
f 130 136 131
f 137 126 125
f 138 140 149
f 141 143 144
f 139 144 140
f 145 22 155
f 131 146 153
f 134 135 130
f 148 140 125
f 149 150 154
f 148 151 150
f 127 152 151
f 129 153 152
f 138 154 162
f 155 32 164
f 153 156 161
f 157 144 143
f 154 158 163
f 144 125 140
f 150 159 158
f 151 160 159
f 152 161 160
f 162 163 200
f 164 42 199
f 165 45 221
f 166 168 179
f 169 171 178
f 168 173 180
f 172 175 173
f 174 177 175
f 176 178 177
f 179 180 188
f 118 181 193
f 178 182 187
f 180 183 189
f 160 184 196
f 173 185 183
f 175 186 185
f 177 187 186
f 188 189 181
f 190 192 182
f 191 194 192
f 193 189 194
f 182 186 187
f 185 192 194
f 183 194 189
f 161 195 184
f 159 196 198
f 184 170 169
f 196 169 176
f 197 174 172
f 158 198 197
f 167 172 168
f 199 80 165
f 198 176 174
f 163 197 167
f 200 167 166
f 201 84 222
f 202 86 201
f 203 88 202
f 142 91 223
f 92 141 139
f 205 207 215
f 208 210 211
f 206 209 208
f 211 212 217
f 213 215 207
f 143 207 157
f 216 217 220
f 218 208 219
f 219 211 216
f 157 206 218
f 137 218 132
f 133 216 134
f 132 219 133
f 134 220 147
f 110 139 138
f 136 155 146
f 110 162 111
f 146 164 156
f 111 200 112
f 156 199 195
f 170 221 171
f 113 179 114
f 114 188 115
f 171 190 182
f 61 191 190
f 117 193 191
f 221 61 190
f 195 165 170
f 112 166 113
f 135 145 136
f 147 222 135
f 220 201 147
f 217 202 220
f 143 223 213
f 213 224 214
f 212 203 217
f 225 122 203
f 223 123 224
f 124 142 141
f 222 82 145
f 115 181 116
f 205 210 209
f 214 210 215
f 224 212 214
f 225 123 226
f 120 226 123
f 121 119 102
f 102 94 98
f 94 100 98
