# Wavefront OBJ file
# Regions:
#     0    patch0
#
# points    : 32
# triangles : 30
#
v 0.0176 8.4914 0.7657
v 0.5217 8.3626 0.7146
v 0.5408 8.4136 0.4433
v 0.6457 8.1696 0.6004
v 0.6728 8.2106 0.2923
v 0.7487 7.9505 0.5568
v 0.7661 8.0133 0.2166
v 0.8265 7.7134 0.5213
v 0.7858 7.7321 0.158
v 0.894 7.2827 0.478
v 0.8228 7.3442 0.0688
v 0.8733 6.7803 0.5047
v 0.9588 6.9006 0.035
v 0.8451 6.4434 0.5336
v 1.0352 6.453 0.0823
v 0.8446 6.0571 0.6116
v 1.1018 6.0687 0.2101
v 0.8616 5.6606 0.8717
v 1.2091 5.6904 0.6574
v 0.7552 5.1868 1.1826
v 1.2437 5.2091 1.0717
v 0.702 4.6948 1.3699
v 1.2343 4.6833 1.2753
v 0.6815 4.1569 1.619
v 1.254 4.1359 1.5183
v 0.6777 3.7103 1.657
v 1.2151 3.6527 1.5594
v 0.644 3.226 1.661
v 1.1724 3.1365 1.5107
v 0.6158 2.7905 1.6491
v 0.0137 8.4967 0.6309
v 1.1198 2.7785 1.4672
g patch0
f 1 2 3
f 3 2 4
f 5 4 6
f 7 6 8
f 9 8 10
f 11 10 12
f 13 12 14
f 15 14 16
f 17 16 18
f 19 18 20
f 21 20 22
f 23 22 24
f 25 24 26
f 27 26 28
f 29 28 30
f 1 3 31
f 3 4 5
f 5 6 7
f 7 8 9
f 9 10 11
f 11 12 13
f 13 14 15
f 15 16 17
f 17 18 19
f 19 20 21
f 21 22 23
f 23 24 25
f 25 26 27
f 27 28 29
f 29 30 32
