# Wavefront OBJ file
# Regions:
#     0    patch0
#
# points    : 60
# triangles : 88
#
v 0.1994 7.2652 1.3689
v 0.1913 7.2572 1.3855
v 0.2073 7.2557 1.3869
v 0.4041 7.2588 1.3584
v 0.3841 7.2515 1.3724
v 0.3822 7.2464 1.3958
v 0.2265 7.2544 1.3682
v 0.2233 7.2515 1.3908
v 0.2446 7.2468 1.3986
v 0.3489 7.2433 1.3863
v 0.3485 7.2397 1.4078
v 0.3118 7.242 1.3905
v 0.2793 7.2442 1.3877
v 0.2752 7.2427 1.4066
v 0.3098 7.2384 1.4113
v 0.2465 7.2495 1.3779
v 0.2141 7.2595 1.3623
v 0.4195 7.2672 1.3411
v 0.4049 7.2576 1.3839
v 0.4261 7.2708 1.3334
v 0.4189 7.2652 1.3727
v 0.4269 7.272 1.3672
v 0.432 7.2751 1.3619
v 0.2022 7.2428 1.3984
v 0.3482 7.2254 1.4167
v 0.3808 7.231 1.4061
v 0.2436 7.2321 1.4097
v 0.2208 7.2367 1.4028
v 0.2742 7.2272 1.4163
v 0.4379 7.259 1.3796
v 0.4476 7.2679 1.3753
v 0.4048 7.2392 1.3952
v 0.4227 7.2482 1.3855
v 0.1853 7.2505 1.3955
v 0.3099 7.2244 1.4202
v 0.3103 7.2128 1.4233
v 0.2742 7.2159 1.4197
v 0.2744 7.2075 1.4218
v 0.2199 7.2283 1.4067
v 0.2193 7.2222 1.4091
v 0.2435 7.2147 1.4155
v 0.4056 7.2237 1.3985
v 0.3808 7.2166 1.4096
v 0.381 7.2053 1.4117
v 0.4462 7.2464 1.3825
v 0.4546 7.2358 1.3843
v 0.4736 7.2571 1.3803
v 0.4267 7.2334 1.3889
v 0.433 7.2206 1.3909
v 0.4064 7.2112 1.4007
v 0.1829 7.2465 1.3995
v 0.1835 7.2426 1.4017
v 0.1991 7.2323 1.4043
v 0.2005 7.2365 1.402
v 0.3107 7.2038 1.425
v 0.3493 7.2029 1.4214
v 0.2432 7.2223 1.4133
v 0.3489 7.2128 1.4197
v 0.4595 7.2627 1.3786
v 0.4312 7.275 1.328
g patch0
f 1 2 3
f 4 5 6
f 7 8 9
f 10 11 6
f 12 13 14
f 12 15 11
f 13 16 9
f 7 17 3
f 18 4 19
f 20 18 21
f 20 22 23
f 8 3 24
f 11 25 26
f 14 9 27
f 8 28 27
f 15 14 29
f 22 30 31
f 19 6 26
f 21 19 32
f 22 21 33
f 2 34 24
f 15 35 25
f 36 37 38
f 39 40 41
f 42 43 44
f 45 46 47
f 45 48 49
f 48 42 50
f 51 52 53
f 39 54 53
f 36 55 56
f 37 57 41
f 58 56 44
f 30 33 48
f 35 29 37
f 30 45 59
f 35 36 58
f 32 26 43
f 28 39 57
f 34 51 54
f 29 27 57
f 28 24 54
f 33 32 42
f 25 58 43
f 1 3 17
f 4 6 19
f 7 9 16
f 10 6 5
f 12 14 15
f 12 11 10
f 13 9 14
f 7 3 8
f 18 19 21
f 20 21 22
f 20 23 60
f 8 24 28
f 11 26 6
f 14 27 29
f 8 27 9
f 15 29 35
f 22 31 23
f 19 26 32
f 21 32 33
f 22 33 30
f 2 24 3
f 15 25 11
f 36 38 55
f 39 41 57
f 42 44 50
f 45 47 59
f 45 49 46
f 48 50 49
f 51 53 54
f 39 53 40
f 36 56 58
f 37 41 38
f 58 44 43
f 30 48 45
f 35 37 36
f 30 59 31
f 35 58 25
f 32 43 42
f 28 57 27
f 34 54 24
f 29 57 37
f 28 54 39
f 33 42 48
f 25 43 26
