# Wavefront OBJ file
# Regions:
#     0    patch0
#
# points    : 18
# triangles : 16
#
v 0.0153 8.3434 1.1418
v 0.1617 8.2265 1.2611
v 0.3207 8.2412 1.1853
v 0.2408 8.0912 1.3344
v 0.4956 8.0961 1.1959
v 0.3112 7.9414 1.3873
v 0.65 7.954 1.2271
v 0.39 7.7408 1.4313
v 0.7192 7.7179 1.2341
v 0.4287 7.4383 1.4477
v 0.749 7.391 1.2484
v 0.4315 7.0754 1.4393
v 0.7509 6.9724 1.2451
v 0.4001 6.6719 1.4272
v 0.6403 6.5565 1.2432
v 0.3627 6.1871 1.3767
v 0.0236 8.3604 1.0873
v 0.6139 6.1586 1.287
g patch0
f 1 2 3
f 3 2 4
f 5 4 6
f 7 6 8
f 9 8 10
f 11 10 12
f 13 12 14
f 15 14 16
f 1 3 17
f 3 4 5
f 5 6 7
f 7 8 9
f 9 10 11
f 11 12 13
f 13 14 15
f 15 16 18
