# Wavefront OBJ file
# Regions:
#     0    patch0
#
# points    : 65
# triangles : 96
#
v 0.3525 7.3292 1.383
v 0.347 7.3272 1.4049
v 0.3106 7.3287 1.4077
v 0.4372 7.2938 1.3672
v 0.4391 7.2877 1.3628
v 0.4673 7.2873 1.3827
v 0.2766 7.3228 1.388
v 0.318 7.3296 1.39
v 0.4296 7.2985 1.3306
v 0.4336 7.2929 1.3351
v 0.2006 7.2858 1.3788
v 0.2166 7.2934 1.3721
v 0.2132 7.2947 1.3916
v 0.4354 7.2879 1.3368
v 0.3878 7.322 1.3684
v 0.3794 7.3216 1.3973
v 0.2374 7.3094 1.3777
v 0.2718 7.3215 1.4045
v 0.405 7.3144 1.3868
v 0.406 7.3303 1.4113
v 0.4121 7.3136 1.3469
v 0.1977 7.2854 1.3887
v 0.1868 7.2797 1.3865
v 0.2102 7.2998 1.4031
v 0.4216 7.3074 1.3785
v 0.4267 7.3227 1.4036
v 0.4243 7.3062 1.3365
v 0.2371 7.3088 1.3974
v 0.4308 7.2997 1.3724
v 0.234 7.3158 1.4102
v 0.3792 7.3365 1.4193
v 0.4586 7.3023 1.3895
v 0.2681 7.3309 1.4198
v 0.1951 7.2878 1.3982
v 0.185 7.281 1.3953
v 0.3461 7.3408 1.4249
v 0.3086 7.3402 1.426
v 0.4442 7.3134 1.3968
v 0.193 7.2919 1.4047
v 0.1915 7.2958 1.4097
v 0.1823 7.2862 1.406
v 0.4547 7.3266 1.4064
v 0.4751 7.3117 1.3982
v 0.4879 7.3191 1.404
v 0.346 7.3528 1.4347
v 0.38 7.3506 1.4295
v 0.3806 7.362 1.4363
v 0.4896 7.2924 1.3915
v 0.5048 7.2964 1.3973
v 0.3458 7.3624 1.4413
v 0.3069 7.3577 1.4413
v 0.4326 7.3373 1.4138
v 0.4632 7.337 1.4127
v 0.4087 7.3453 1.4217
v 0.411 7.3576 1.4287
v 0.2086 7.3059 1.4099
v 0.2321 7.3225 1.4176
v 0.2313 7.3279 1.4235
v 0.4378 7.3492 1.4206
v 0.2664 7.3389 1.4285
v 0.3077 7.3503 1.4352
v 0.2077 7.3109 1.4153
v 0.2657 7.345 1.4346
v 0.1829 7.2833 1.4015
v 0.1841 7.2785 1.3786
g patch0
f 1 2 3
f 4 5 6
f 7 8 3
f 9 10 4
f 11 12 13
f 10 14 5
f 1 15 16
f 17 7 18
f 16 19 20
f 15 21 19
f 11 22 23
f 22 13 24
f 19 25 26
f 21 27 25
f 12 17 28
f 27 9 29
f 13 28 30
f 2 16 31
f 29 4 32
f 28 18 33
f 22 34 35
f 2 36 37
f 25 29 38
f 18 3 37
f 39 40 41
f 42 43 44
f 45 46 47
f 43 48 49
f 45 50 51
f 52 42 53
f 46 54 55
f 56 57 58
f 54 52 59
f 60 61 51
f 39 56 62
f 57 60 63
f 34 24 56
f 33 37 61
f 20 26 52
f 24 30 57
f 31 20 54
f 26 38 42
f 36 45 61
f 32 6 48
f 36 31 46
f 38 32 43
f 34 39 64
f 30 33 60
f 1 3 8
f 4 6 32
f 7 3 18
f 9 4 29
f 11 13 22
f 10 5 4
f 1 16 2
f 17 18 28
f 16 20 31
f 15 19 16
f 11 23 65
f 22 24 34
f 19 26 20
f 21 25 19
f 12 28 13
f 27 29 25
f 13 30 24
f 2 31 36
f 29 32 38
f 28 33 30
f 22 35 23
f 2 37 3
f 25 38 26
f 18 37 33
f 39 41 64
f 42 44 53
f 45 47 50
f 43 49 44
f 45 51 61
f 52 53 59
f 46 55 47
f 56 58 62
f 54 59 55
f 60 51 63
f 39 62 40
f 57 63 58
f 34 56 39
f 33 61 60
f 20 52 54
f 24 57 56
f 31 54 46
f 26 42 52
f 36 61 37
f 32 48 43
f 36 46 45
f 38 43 42
f 34 64 35
f 30 60 57
