# Wavefront OBJ file
# Regions:
#     0    patch0
#
# points    : 18
# triangles : 16
#
v -0.0029 8.3334 1.1829
v -0.0491 8.3412 1.1838
v -0.1563 8.23 1.2667
v -0.2355 8.097 1.3448
v -0.0103 8.0993 1.3643
v -0.307 7.9463 1.3955
v -0.0161 7.9472 1.4555
v -0.367 7.7516 1.432
v -0.0177 7.7649 1.5247
v -0.4112 7.4472 1.4431
v -0.0133 7.4734 1.5798
v -0.4256 7.0717 1.4304
v -0.0963 7.1398 1.5978
v -0.3884 6.675 1.4039
v -0.1188 6.7108 1.5968
v -0.3731 6.196 1.3494
v -0.1265 6.1668 1.5264
v -0.0031 8.2243 1.2498
g patch0
f 1 2 3
f 3 4 5
f 4 6 7
f 6 8 9
f 8 10 11
f 10 12 13
f 12 14 15
f 14 16 17
f 1 3 18
f 3 5 18
f 4 7 5
f 6 9 7
f 8 11 9
f 10 13 11
f 12 15 13
f 14 17 15
