# Wavefront OBJ file
# Regions:
#     0    patch0
#
# points    : 32
# triangles : 30
#
v -0.0059 8.4809 0.4908
v -0.0075 8.4777 0.3596
v -0.2267 8.4518 0.0633
v -0.2645 8.3043 -0.1667
v -0.6112 8.2945 -0.0225
v -0.3036 8.0758 -0.3522
v -0.6717 8.0519 -0.1705
v -0.3011 7.776 -0.453
v -0.69 7.747 -0.2714
v -0.3082 7.386 -0.4839
v -0.6811 7.4011 -0.3215
v -0.3035 6.8695 -0.5189
v -0.6561 6.9665 -0.3572
v -0.3034 6.4974 -0.5393
v -0.6956 6.5457 -0.3867
v -0.3119 6.0563 -0.5476
v -0.7305 6.0764 -0.4436
v -0.3224 5.5629 -0.5776
v -0.7792 5.5663 -0.5742
v -0.2997 5.0347 -0.6055
v -0.7797 5.0598 -0.6443
v -0.305 4.4865 -0.5785
v -0.7876 4.4898 -0.6229
v -0.2943 3.7625 -0.5843
v -0.7911 3.7618 -0.595
v -0.2747 3.1559 -0.5918
v -0.7845 3.1436 -0.5682
v -0.2951 2.6327 -0.5842
v -0.7827 2.6047 -0.5629
v -0.3157 2.02 -0.5879
v -0.8018 2.0628 -0.5895
v -0.4506 8.4539 0.2299
g patch0
f 1 2 3
f 3 4 5
f 4 6 7
f 6 8 9
f 8 10 11
f 10 12 13
f 12 14 15
f 14 16 17
f 16 18 19
f 18 20 21
f 20 22 23
f 22 24 25
f 24 26 27
f 26 28 29
f 28 30 31
f 1 3 32
f 3 5 32
f 4 7 5
f 6 9 7
f 8 11 9
f 10 13 11
f 12 15 13
f 14 17 15
f 16 19 17
f 18 21 19
f 20 23 21
f 22 25 23
f 24 27 25
f 26 29 27
f 28 31 29
