# Wavefront OBJ file
# Regions:
#     0    patch0
#
# points    : 32
# triangles : 30
#
v 0.0082 8.4899 0.6224
v 0.5211 8.4004 0.4269
v 0.453 8.4553 0.2434
v 0.649 8.2058 0.2902
v 0.6215 8.2953 -0.0227
v 0.7324 8.0016 0.2206
v 0.688 8.0534 -0.1681
v 0.7449 7.7087 0.166
v 0.7064 7.7465 -0.2753
v 0.8009 7.3372 0.0637
v 0.6966 7.41 -0.3241
v 0.9321 6.9038 0.0353
v 0.683 6.9646 -0.3608
v 1.0235 6.4974 -0.0072
v 0.7253 6.5573 -0.4272
v 1.1321 6.0587 -0.1577
v 0.7609 6.0766 -0.4694
v 1.3005 5.6077 -0.4378
v 0.7993 5.5424 -0.5706
v 1.3384 5.0864 -0.5776
v 0.8092 5.0678 -0.6617
v 1.3013 4.4944 -0.5071
v 0.8247 4.4967 -0.6585
v 1.226 3.79 -0.3346
v 0.8011 3.7526 -0.5576
v 1.2459 3.1439 -0.2189
v 0.8055 3.1491 -0.5547
v 1.2678 2.5825 -0.1982
v 0.7943 2.5996 -0.552
v 1.2639 2.0685 -0.1927
v 0.0063 8.4846 0.4978
v 0.8328 2.0618 -0.583
g patch0
f 1 2 3
f 3 2 4
f 5 4 6
f 7 6 8
f 9 8 10
f 11 10 12
f 13 12 14
f 15 14 16
f 17 16 18
f 19 18 20
f 21 20 22
f 23 22 24
f 25 24 26
f 27 26 28
f 29 28 30
f 1 3 31
f 3 4 5
f 5 6 7
f 7 8 9
f 9 10 11
f 11 12 13
f 13 14 15
f 15 16 17
f 17 18 19
f 19 20 21
f 21 22 23
f 23 24 25
f 25 26 27
f 27 28 29
f 29 30 32
