# Wavefront OBJ file
# Regions:
#     0    patch0
#
# points    : 720
# triangles : 1368
#
v -0.152 1.8327 -0.4523
v 0 1.8385 -0.4363
v 0 1.5277 -0.7083
v -0.4991 1.7977 -0.4487
v -0.3254 1.8074 -0.4608
v -0.3394 1.5242 -0.6977
v -0.5016 1.5227 -0.689
v -0.684 1.5246 -0.6668
v -0.6799 1.7926 -0.444
v -0.892 1.495 -0.6115
v -1.0428 1.7661 -0.3601
v -0.8632 1.7786 -0.4249
v -1.32 1.4795 -0.4162
v -1.2418 1.7664 -0.2709
v -1.492 1.4615 -0.148
v -1.5499 1.7358 0.5956
v -1.5336 1.7601 0.2398
v -1.6326 1.4435 0.1774
v -1.428 1.6979 0.9106
v -1.528 1.4121 0.89
v -1.2517 1.359 1.0771
v -1.0142 1.3027 1.1868
v -0.992 1.6058 1.2269
v -1.2266 1.6484 1.1121
v -0.7998 1.2567 1.2754
v -0.7617 1.5737 1.3208
v -0.558 1.2275 1.381
v -0.5278 1.5417 1.4102
v -0.3458 1.2081 1.4453
v -0.3269 1.5204 1.4702
v -0.172 1.1988 1.4618
v 0 1.2037 1.4728
v 0 1.4899 1.4733
v -0.149 1.5394 -0.6948
v -0.1619 1.5031 1.4865
v -1.6565 1.4442 0.5645
v -1.4179 1.7604 -0.0576
v 0.4991 1.7977 -0.4487
v 0.5016 1.5227 -0.689
v 0.3394 1.5242 -0.6977
v 0.6799 1.7926 -0.444
v 0.684 1.5246 -0.6668
v 0.8632 1.7786 -0.4249
v 0.892 1.495 -0.6115
v 1.0428 1.7661 -0.3601
v 1.0849 1.4813 -0.5543
v 1.32 1.4795 -0.4162
v 1.2418 1.7664 -0.2709
v 1.4179 1.7604 -0.0576
v 1.492 1.4615 -0.148
v 1.5499 1.7358 0.5956
v 1.6565 1.4442 0.5645
v 1.6326 1.4435 0.1774
v 1.428 1.6979 0.9106
v 1.2266 1.6484 1.1121
v 1.2517 1.359 1.0771
v 1.0142 1.3027 1.1868
v 0.7998 1.2567 1.2754
v 0.992 1.6058 1.2269
v 0.558 1.2275 1.381
v 0.7617 1.5737 1.3208
v 0.3458 1.2081 1.4453
v 0.5278 1.5417 1.4102
v 0.3254 1.8074 -0.4608
v 0.149 1.5394 -0.6948
v 0.172 1.1988 1.4618
v 0.1619 1.5031 1.4865
v 0.3269 1.5204 1.4702
v 0.152 1.8327 -0.4523
v 1.528 1.4121 0.89
v 1.5336 1.7601 0.2398
v 0.8182 0.8491 1.2989
v -0.1708 0.7928 1.4645
v -1.0458 0.8936 1.1991
v 0.9444 1.1431 -0.8499
v 0 1.1207 -0.8137
v -0.5226 1.1395 -0.8594
v 1.7243 1.0689 0.103
v 0.3492 1.1268 -0.8288
v 1.0458 0.8936 1.1991
v -1.3075 0.9529 1.118
v 0.1708 1.1252 -0.8184
v 1.1807 1.1319 -0.7667
v -1.5595 1.077 -0.2232
v -1.0849 1.4813 -0.5543
v -0.9444 1.1431 -0.8499
v 0.3548 0.7999 1.4373
v -0.1708 1.1252 -0.8184
v -0.5719 0.8141 1.3911
v 0.1708 0.7928 1.4645
v -0.7237 1.1616 -0.9075
v 1.596 1.0247 0.8772
v 1.3075 0.9529 1.118
v -1.596 1.0247 0.8772
v 1.7439 1.0647 0.5288
v 1.5595 1.077 -0.2232
v -1.7243 1.0689 0.103
v 0.5719 0.8141 1.3911
v -0.8182 0.8491 1.2989
v 0.7237 1.1616 -0.9075
v -0.3548 0.7999 1.4373
v -1.7439 1.0647 0.5288
v 0 0.798 1.4971
v -0.3492 1.1268 -0.8288
v 1.3979 1.098 -0.5252
v -1.1807 1.1319 -0.7667
v -1.3979 1.098 -0.5252
v 0.5226 1.1395 -0.8594
v 1.779 0.6187 0.4976
v -1.7926 0.661 0.0863
v 0.1824 0.3636 1.4377
v -0.3776 0.3724 1.4131
v 0.76 0.7575 -1.092
v -0.5324 0.7404 -1.07
v 1.4964 0.7048 -0.6324
v -1.2613 0.7154 -0.8961
v 0 0.358 1.455
v -0.1824 0.3636 1.4377
v 1.7926 0.661 0.0863
v -1.6446 0.6789 -0.292
v 0.3776 0.3724 1.4131
v -0.5958 0.3906 1.3743
v 1.2613 0.7154 -0.8961
v -1.0284 0.7637 -1.0563
v 0.1702 0.7094 -0.9411
v 0 0.7026 -0.9078
v 1.0284 0.7637 -1.0563
v -0.76 0.7575 -1.092
v 0.5958 0.3906 1.3743
v -0.8347 0.4217 1.3274
v 0.3439 0.7281 -1.0255
v -0.1702 0.7094 -0.9411
v 1.7083 0.5752 0.9015
v -1.779 0.6187 0.4976
v 1.0916 0.4634 1.2672
v -1.3916 0.5176 1.1503
v 1.3916 0.5176 1.1503
v -1.7083 0.5752 0.9015
v 0.5324 0.7404 -1.07
v -0.3439 0.7281 -1.0255
v 1.6446 0.6789 -0.292
v -1.4964 0.7048 -0.6324
v 0.8347 0.4217 1.3274
v -1.0916 0.4634 1.2672
v 1.4822 0.096 1.1991
v -1.8644 0.1605 0.9615
v 0.5651 0.2746 -1.0911
v -0.3585 0.2672 -1.046
v 1.6917 0.2434 -0.3378
v -1.5199 0.2635 -0.6722
v 0.8603 -0.0018 1.3345
v -1.14 0.039 1.2962
v 1.8678 0.2003 0.5226
v -1.8103 0.2396 0.109
v 0.1937 -0.0569 1.4073
v -0.3969 -0.0482 1.3867
v 0.8002 0.2738 -1.1034
v -0.5651 0.2746 -1.0911
v 1.5199 0.2635 -0.6722
v -1.2693 0.2759 -0.9147
v 0 -0.0575 1.4226
v -0.1937 -0.0569 1.4073
v 1.8103 0.2396 0.109
v -1.6917 0.2434 -0.3378
v 0.3969 -0.0482 1.3867
v -0.6176 -0.0303 1.3619
v 1.2693 0.2759 -0.9147
v -1.0579 0.2755 -1.0478
v 0.1781 0.2718 -0.9961
v 0 0.2709 -0.9682
v 1.0579 0.2755 -1.0478
v -0.8002 0.2738 -1.1034
v 0.6176 -0.0303 1.3619
v -0.8603 -0.0018 1.3345
v 0.3585 0.2672 -1.046
v -0.1781 0.2718 -0.9961
v 1.8644 0.1605 0.9615
v -1.8678 0.2003 0.5226
v 1.14 0.039 1.2962
v -1.4822 0.096 1.1991
v 1.5528 -0.3188 1.2352
v -1.9353 -0.2198 0.9809
v 0.5862 -0.1709 -0.9858
v -0.3867 -0.1695 -0.9997
v 1.6893 -0.1604 -0.3456
v -1.5149 -0.163 -0.686
v 0.8941 -0.4292 1.3312
v -1.1919 -0.3857 1.3077
v 1.9832 -0.1402 0.5647
v -1.8756 -0.1152 0.072
v 0.2009 -0.485 1.4113
v -0.4107 -0.4762 1.3895
v 0.7911 -0.1702 -0.9668
v -0.5862 -0.1709 -0.9858
v 1.5149 -0.163 -0.686
v -1.2562 -0.1558 -0.8884
v 0 -0.4843 1.4168
v -0.2009 -0.485 1.4113
v 1.8756 -0.1152 0.072
v -1.6893 -0.1604 -0.3456
v 0.4107 -0.4762 1.3895
v -0.6389 -0.4581 1.3676
v 1.2562 -0.1558 -0.8884
v -1.0074 -0.1652 -0.9376
v 0.1924 -0.1706 -0.9887
v 0 -0.1718 -0.9784
v 1.0074 -0.1652 -0.9376
v -0.7911 -0.1702 -0.9668
v 0.6389 -0.4581 1.3676
v -0.8941 -0.4292 1.3312
v 0.3867 -0.1695 -0.9997
v -0.1924 -0.1706 -0.9887
v 1.9353 -0.2198 0.9809
v -1.9832 -0.1402 0.5647
v 1.1919 -0.3857 1.3077
v -1.5528 -0.3188 1.2352
v 0.5929 -0.6157 -0.9838
v -0.3938 -0.6178 -0.9953
v 1.7716 -0.5461 -0.3788
v -1.5085 -0.5833 -0.6707
v 0.9386 -0.8722 1.3271
v -1.2521 -0.8269 1.3215
v 2.1119 -0.543 0.5571
v -2.0268 -0.4825 0.0429
v 0.206 -0.9299 1.3773
v -0.4241 -0.9205 1.36
v 0.7956 -0.6126 -0.9658
v -0.5929 -0.6157 -0.9838
v 1.5085 -0.5833 -0.6707
v -1.2441 -0.5931 -0.8763
v 0 -0.9293 1.3841
v -0.206 -0.9299 1.3773
v 2.0268 -0.4825 0.0429
v -1.7716 -0.5461 -0.3788
v 0.4241 -0.9205 1.36
v -0.6664 -0.9017 1.3493
v 1.2441 -0.5931 -0.8763
v -1.0069 -0.6064 -0.9379
v 0.1965 -0.6227 -0.9852
v 0 -0.6249 -0.9801
v 1.0069 -0.6064 -0.9379
v -0.7956 -0.6126 -0.9658
v 0.6664 -0.9017 1.3493
v -0.9386 -0.8722 1.3271
v 0.3938 -0.6178 -0.9953
v -0.1965 -0.6227 -0.9852
v 2.0294 -0.6268 0.9716
v -2.1119 -0.543 0.5571
v 1.2521 -0.8269 1.3215
v -1.6247 -0.7535 1.2582
v 1.6247 -0.7535 1.2582
v -2.0294 -0.6268 0.9716
v -0.3953 -1.0825 -0.9892
v 1.8431 -0.9804 -0.3481
v -1.5774 -1.0213 -0.659
v 0.9691 -1.3381 1.3219
v -1.2957 -1.2888 1.3295
v 2.151 -0.9933 0.5166
v -2.0485 -0.9605 0.0667
v 0.2057 -1.3933 1.3384
v -0.427 -1.3846 1.3178
v 0.8018 -1.0791 -0.957
v -0.5944 -1.08 -0.9798
v 1.5774 -1.0213 -0.659
v -1.284 -1.0523 -0.8539
v 0 -1.3938 1.3372
v -0.2057 -1.3933 1.3384
v 2.0485 -0.9605 0.0667
v -1.8431 -0.9804 -0.3481
v 0.427 -1.3846 1.3178
v -0.6819 -1.3669 1.3109
v 1.284 -1.0523 -0.8539
v -1.0278 -1.0732 -0.9206
v 0.1975 -1.0875 -0.9878
v 0 -1.0898 -0.9863
v 1.0278 -1.0732 -0.9206
v -0.8018 -1.0791 -0.957
v 0.6819 -1.3669 1.3109
v -0.9691 -1.3381 1.3219
v 0.3953 -1.0825 -0.9892
v -0.1975 -1.0875 -0.9878
v 2.0954 -1.0801 0.9656
v -2.151 -0.9933 0.5166
v 1.2957 -1.2888 1.3295
v -1.6754 -1.2118 1.2628
v 1.6754 -1.2118 1.2628
v -2.0954 -1.0801 0.9656
v 0.5944 -1.08 -0.9798
v 1.8698 -1.4647 -0.3051
v -1.6048 -1.5044 -0.6126
v 0.9881 -1.8152 1.2794
v -1.33 -1.7617 1.289
v 2.1677 -1.4716 0.514
v -2.086 -1.4395 0.1053
v 0.205 -1.8687 1.2636
v -0.4277 -1.8601 1.2619
v 0.818 -1.5522 -0.9282
v -0.5989 -1.5532 -0.9538
v 1.6048 -1.5044 -0.6126
v -1.3181 -1.5351 -0.8092
v 0 -1.8701 1.2654
v -0.205 -1.8687 1.2636
v 2.086 -1.4395 0.1053
v -1.8698 -1.4647 -0.3051
v 0.4277 -1.8601 1.2619
v -0.6903 -1.8431 1.2657
v 1.3181 -1.5351 -0.8092
v -1.0574 -1.549 -0.8847
v 0.198 -1.5618 -0.9628
v 0 -1.5642 -0.9613
v 1.0574 -1.549 -0.8847
v -0.818 -1.5522 -0.9282
v 0.6903 -1.8431 1.2657
v -0.9881 -1.8152 1.2794
v 0.3963 -1.5564 -0.9638
v -0.198 -1.5618 -0.9628
v 2.1605 -1.5539 0.9543
v -2.1677 -1.4716 0.514
v 1.33 -1.7617 1.289
v -1.7195 -1.6801 1.2203
v 1.7195 -1.6801 1.2203
v -2.1605 -1.5539 0.9543
v 0.5989 -1.5532 -0.9538
v -0.3963 -1.5564 -0.9638
v -1.6456 -1.9733 -0.5994
v 1.0043 -2.2918 1.221
v -1.3612 -2.2324 1.2247
v 2.1868 -1.9346 0.5123
v -2.1495 -1.9014 0.1167
v 0.2056 -2.3519 1.2263
v -0.4297 -2.3429 1.2226
v 0.8137 -2.0368 -0.9216
v -0.595 -2.0354 -0.9522
v 1.6456 -1.9733 -0.5994
v -1.3422 -2.0163 -0.7713
v 0 -2.3539 1.2208
v -0.2056 -2.3519 1.2263
v 2.1495 -1.9014 0.1167
v -1.9452 -1.9219 -0.2974
v 0.4297 -2.3429 1.2226
v -0.6968 -2.3241 1.2174
v 1.3422 -2.0163 -0.7713
v -1.0622 -2.0348 -0.8633
v 0.1981 -2.0429 -0.9633
v 0 -2.0453 -0.962
v 1.0622 -2.0348 -0.8633
v -0.8137 -2.0368 -0.9216
v 0.6968 -2.3241 1.2174
v -1.0043 -2.2918 1.221
v 0.3957 -2.0377 -0.9639
v -0.1981 -2.0429 -0.9633
v 2.1418 -2.0101 0.908
v -2.1868 -1.9346 0.5123
v 1.3612 -2.2324 1.2247
v -1.7524 -2.1429 1.1543
v 1.7524 -2.1429 1.1543
v -2.1418 -2.0101 0.908
v 0.595 -2.0354 -0.9522
v -0.3957 -2.0377 -0.9639
v 1.9452 -1.9219 -0.2974
v 1.0218 -2.7774 1.1839
v -1.3939 -2.7156 1.1636
v 2.2743 -2.4202 0.5082
v -2.2332 -2.3887 0.1194
v 0.2074 -2.8404 1.2154
v -0.4323 -2.831 1.2083
v 0.8211 -2.5245 -0.9167
v -0.5961 -2.5225 -0.9507
v 1.6714 -2.4799 -0.5975
v -1.3533 -2.5143 -0.7514
v 0 -2.8444 1.2185
v -0.2074 -2.8404 1.2154
v 2.2332 -2.3887 0.1194
v -2.0122 -2.4217 -0.2975
v 0.4323 -2.831 1.2083
v -0.7021 -2.8121 1.1963
v 1.3533 -2.5143 -0.7514
v -1.0739 -2.5249 -0.8515
v 0.1982 -2.53 -0.9633
v 0 -2.5324 -0.9621
v 1.0739 -2.5249 -0.8515
v -0.8211 -2.5245 -0.9167
v 0.7021 -2.8121 1.1963
v -1.0218 -2.7774 1.1839
v 0.3959 -2.5249 -0.9636
v -0.1982 -2.53 -0.9633
v 2.1479 -2.5025 0.8547
v -2.2743 -2.4202 0.5082
v 1.3939 -2.7156 1.1636
v -1.7906 -2.6229 1.0822
v 1.7906 -2.6229 1.0822
v -2.1479 -2.5025 0.8547
v 0.5961 -2.5225 -0.9507
v -0.3959 -2.5249 -0.9636
v 2.0122 -2.4217 -0.2975
v -1.6714 -2.4799 -0.5975
v 2.3192 -2.9244 0.5008
v -2.2646 -2.8978 0.1214
v 0.2026 -3.3327 1.2151
v -0.4165 -3.3264 1.2065
v 0.8334 -3.0164 -0.9076
v -0.599 -3.0142 -0.9449
v 1.7027 -2.9795 -0.5639
v -1.3933 -3.006 -0.7345
v 0 -3.3348 1.2184
v -0.2026 -3.3327 1.2151
v 2.2646 -2.8978 0.1214
v -2.0306 -2.9301 -0.2697
v 0.4165 -3.3264 1.2065
v -0.6846 -3.3128 1.1934
v 1.3933 -3.006 -0.7345
v -1.0998 -3.0162 -0.8398
v 0.198 -3.0199 -0.9629
v 0 -3.0218 -0.9625
v 1.0998 -3.0162 -0.8398
v -0.8334 -3.0164 -0.9076
v 0.6846 -3.3128 1.1934
v -1.0174 -3.2819 1.1745
v 0.3959 -3.0159 -0.9604
v -0.198 -3.0199 -0.9629
v 2.2002 -2.9989 0.8303
v -2.3192 -2.9244 0.5008
v 1.4131 -3.2208 1.1379
v -1.8413 -3.1217 1.0538
v 1.8413 -3.1217 1.0538
v -2.2002 -2.9989 0.8303
v 0.599 -3.0142 -0.9449
v -0.3959 -3.0159 -0.9604
v 2.0306 -2.9301 -0.2697
v -1.7027 -2.9795 -0.5639
v 1.0174 -3.2819 1.1745
v -1.4131 -3.2208 1.1379
v 2.3731 -3.4112 0.4983
v -2.3195 -3.3833 0.1211
v 0.2027 -3.8214 1.2151
v -0.4211 -3.8148 1.2065
v 0.8416 -3.5093 -0.9064
v -0.6004 -3.5077 -0.9444
v 1.7732 -3.4545 -0.5721
v -1.4304 -3.4908 -0.7323
v 0 -3.8235 1.2184
v -0.2027 -3.8214 1.2151
v 2.3195 -3.3833 0.1211
v -2.1054 -3.4047 -0.2692
v 0.4211 -3.8148 1.2065
v -0.6981 -3.8025 1.1944
v 1.4304 -3.4908 -0.7323
v -1.1199 -3.5067 -0.8381
v 0.1981 -3.5134 -0.9629
v 0 -3.5154 -0.9626
v 1.1199 -3.5067 -0.8381
v -0.8416 -3.5093 -0.9064
v 0.6981 -3.8025 1.1944
v -1.0448 -3.7732 1.1742
v 0.396 -3.5094 -0.9601
v -0.1981 -3.5134 -0.9629
v 2.248 -3.4858 0.8237
v -2.3731 -3.4112 0.4983
v 1.4483 -3.7129 1.1361
v -1.8804 -3.6118 1.0387
v 1.8804 -3.6118 1.0387
v -2.248 -3.4858 0.8237
v 0.6004 -3.5077 -0.9444
v -0.396 -3.5094 -0.9601
v 2.1054 -3.4047 -0.2692
v -1.7732 -3.4545 -0.5721
v 1.0448 -3.7732 1.1742
v -1.4483 -3.7129 1.1361
v 0.2026 -4.3151 1.2151
v -0.4187 -4.3086 1.2066
v 0.8485 -4.0089 -0.9074
v -0.6012 -4.0081 -0.9448
v 1.8584 -3.929 -0.6396
v -1.4759 -3.9789 -0.7538
v 0 -4.3172 1.2184
v -0.2026 -4.3151 1.2151
v 2.3743 -3.8628 0.1199
v -2.1817 -3.875 -0.2918
v 0.4187 -4.3086 1.2066
v -0.6943 -4.297 1.1944
v 1.4759 -3.9789 -0.7538
v -1.1383 -4.0036 -0.8396
v 0.1981 -4.0138 -0.9629
v 0 -4.0157 -0.9626
v 1.1383 -4.0036 -0.8396
v -0.8485 -4.0089 -0.9074
v 0.6943 -4.297 1.1944
v -1.04 -4.2675 1.1773
v 0.3959 -4.0098 -0.9603
v -0.1981 -4.0138 -0.9629
v 2.2812 -3.9758 0.825
v -2.4144 -3.8972 0.4988
v 1.4528 -4.2056 1.1474
v -1.8928 -4.1053 1.0406
v 1.8928 -4.1053 1.0406
v -2.2812 -3.9758 0.825
v 0.6012 -4.0081 -0.9448
v -0.3959 -4.0098 -0.9603
v 2.1817 -3.875 -0.2918
v -1.8584 -3.929 -0.6396
v 1.04 -4.2675 1.1773
v -1.4528 -4.2056 1.1474
v 2.4144 -3.8972 0.4988
v -2.3743 -3.8628 0.1199
v 0.2026 -4.8242 1.2151
v -0.4155 -4.8173 1.2066
v 0.8533 -4.5192 -0.9139
v -0.6003 -4.5183 -0.9465
v 1.9695 -4.4197 -0.7402
v -1.5504 -4.4799 -0.8361
v 0 -4.8263 1.2184
v -0.2026 -4.8242 1.2151
v 2.4918 -4.3405 0.1034
v -2.3142 -4.3579 -0.3771
v 0.4155 -4.8173 1.2066
v -0.6906 -4.8053 1.1944
v 1.5504 -4.4799 -0.8361
v -1.1712 -4.5111 -0.8774
v 0.198 -4.524 -0.9631
v 0 -4.526 -0.9626
v 1.1712 -4.5111 -0.8774
v -0.8533 -4.5192 -0.9139
v 0.6906 -4.8053 1.1944
v -1.0393 -4.7768 1.1773
v 0.3958 -4.52 -0.9608
v -0.198 -4.524 -0.9631
v 2.3348 -4.4761 0.853
v -2.5075 -4.3836 0.5117
v 1.456 -4.7153 1.1476
v -1.9166 -4.6087 1.0702
v 1.9166 -4.6087 1.0702
v -2.3348 -4.4761 0.853
v 0.6003 -4.5183 -0.9465
v -0.3958 -4.52 -0.9608
v 2.3142 -4.3579 -0.3771
v -1.9695 -4.4197 -0.7402
v 1.0393 -4.7768 1.1773
v -1.456 -4.7153 1.1476
v 2.5075 -4.3836 0.5117
v -2.4918 -4.3405 0.1034
v 0.2026 -5.3526 1.2151
v -0.4161 -5.3457 1.2065
v 0.892 -5.0352 -0.9811
v -0.6148 -5.0353 -0.9756
v 2.0702 -4.9482 -0.8184
v -1.6351 -5.0035 -0.9525
v 0 -5.3547 1.2183
v -0.2026 -5.3526 1.2151
v 2.6752 -4.845 0.065
v -2.5151 -4.8766 -0.4369
v 0.4161 -5.3457 1.2065
v -0.6981 -5.3337 1.1944
v 1.6351 -5.0035 -0.9525
v -1.2361 -5.0291 -0.9821
v 0.198 -5.0431 -0.9634
v 0 -5.0453 -0.9627
v 1.2361 -5.0291 -0.9821
v -0.892 -5.0352 -0.9811
v 0.6981 -5.3337 1.1944
v -1.0602 -5.3051 1.1773
v 0.3994 -5.0384 -0.9685
v -0.198 -5.0431 -0.9634
v 2.3982 -5.0057 0.8572
v -2.6223 -4.9045 0.4877
v 1.4932 -5.2439 1.1477
v -1.9635 -5.14 1.0703
v 1.9635 -5.14 1.0703
v -2.3982 -5.0057 0.8572
v 0.6148 -5.0353 -0.9756
v -0.3994 -5.0384 -0.9685
v 2.5151 -4.8766 -0.4369
v -2.0702 -4.9482 -0.8184
v 1.0602 -5.3051 1.1773
v -1.4932 -5.2439 1.1477
v 2.6223 -4.9045 0.4877
v -2.6752 -4.845 0.065
v 2.5639 -5.4583 -0.405
v -2.1156 -5.5225 -0.7779
v 1.0845 -5.8445 1.1768
v -1.5377 -5.7959 1.1472
v 2.7071 -5.4838 0.5117
v -2.7354 -5.4358 0.0917
v 0.2025 -5.8871 1.2146
v -0.4174 -5.8807 1.2059
v 0.8511 -5.5679 -0.9375
v -0.5956 -5.5601 -0.9587
v 2.1156 -5.5225 -0.7779
v -1.6028 -5.5692 -0.8764
v 0 -5.8891 1.2179
v -0.2025 -5.8871 1.2146
v 2.7354 -5.4358 0.0917
v -2.5639 -5.4583 -0.405
v 0.4174 -5.8807 1.2059
v -0.7077 -5.8695 1.1937
v 1.6028 -5.5692 -0.8764
v -1.1867 -5.5758 -0.9138
v 0.1981 -5.5655 -0.9647
v 0 -5.5686 -0.9634
v 1.1867 -5.5758 -0.9138
v -0.8511 -5.5679 -0.9375
v 0.7077 -5.8695 1.1937
v -1.0845 -5.8445 1.1768
v 0.3949 -5.5609 -0.9658
v -0.1981 -5.5655 -0.9647
v 2.4768 -5.5848 0.855
v -2.7071 -5.4838 0.5117
v 1.5377 -5.7959 1.1472
v -2.0313 -5.7116 1.0691
v 2.0313 -5.7116 1.0691
v -2.4768 -5.5848 0.855
v 0.5956 -5.5601 -0.9587
v -0.3949 -5.5609 -0.9658
v 1.1016 -6.355 1.1742
v -1.5735 -6.3118 1.1451
v 2.8233 -6.009 0.4909
v -2.8402 -5.9654 0.087
v 0.2022 -6.3953 1.2124
v -0.4171 -6.3897 1.2033
v 0.8425 -6.0981 -0.9616
v -0.5909 -6.0861 -0.9769
v 2.1395 -6.0634 -0.683
v -1.6066 -6.1099 -0.8178
v 0 -6.3969 1.2158
v -0.2022 -6.3953 1.2124
v 2.8402 -5.9654 0.087
v -2.621 -5.9974 -0.3449
v 0.4171 -6.3897 1.2033
v -0.7133 -6.379 1.1908
v 1.6066 -6.1099 -0.8178
v -1.1765 -6.1118 -0.9109
v 0.1991 -6.0921 -0.9705
v 0 -6.0978 -0.9681
v 1.1765 -6.1118 -0.9109
v -0.8425 -6.0981 -0.9616
v 0.7133 -6.379 1.1908
v -1.1016 -6.355 1.1742
v 0.3944 -6.0858 -0.9758
v -0.1991 -6.0921 -0.9705
v 2.5727 -6.1095 0.8413
v -2.8233 -6.009 0.4909
v 1.5735 -6.3118 1.1451
v -2.1097 -6.2265 1.0644
v 2.1097 -6.2265 1.0644
v -2.5727 -6.1095 0.8413
v 0.5909 -6.0861 -0.9769
v -0.3944 -6.0858 -0.9758
v 2.621 -5.9974 -0.3449
v -2.1395 -6.0634 -0.683
v 1.131 -6.7942 1.1765
v -1.6269 -6.7434 1.1523
v 2.8782 -6.4567 0.4923
v -2.903 -6.4305 0.0862
v 0.201 -6.8474 1.2154
v -0.4128 -6.8442 1.2046
v 0.832 -6.6347 -0.9959
v -0.5849 -6.6254 -1.0031
v 2.1296 -6.5731 -0.6242
v -1.5956 -6.629 -0.8197
v 0 -6.8479 1.2193
v -0.201 -6.8474 1.2154
v 2.903 -6.4305 0.0862
v -2.6754 -6.4815 -0.3406
v 0.4128 -6.8442 1.2046
v -0.7084 -6.8332 1.1906
v 1.5956 -6.629 -0.8197
v -1.1689 -6.6403 -0.9398
v 0.2035 -6.6315 -0.9763
v 0 -6.6375 -0.9717
v 1.1689 -6.6403 -0.9398
v -0.832 -6.6347 -0.9959
v 0.7084 -6.8332 1.1906
v -1.131 -6.7942 1.1765
v 0.3953 -6.6243 -0.9889
v -0.2035 -6.6315 -0.9763
v 2.6338 -6.5383 0.8446
v -2.8782 -6.4567 0.4923
v 1.6269 -6.7434 1.1523
v -2.1893 -6.6344 1.0666
v 2.1893 -6.6344 1.0666
v -2.6338 -6.5383 0.8446
v 0.5849 -6.6254 -1.0031
v -0.3953 -6.6243 -0.9889
v 2.6754 -6.4815 -0.3406
v -2.1296 -6.5731 -0.6242
v 2.9967 -6.8847 0.5181
v -3.0025 -6.8732 0.1164
v 0.1979 -7.2806 1.2465
v -0.3962 -7.2846 1.2309
v 0.806 -7.148 -1.0031
v -0.5798 -7.1467 -1.0055
v 2.1405 -7.0664 -0.6276
v -1.594 -7.1284 -0.8395
v 0 -7.2786 1.2517
v -0.1979 -7.2806 1.2465
v 3.0025 -6.8732 0.1164
v -2.6872 -6.9654 -0.3419
v 0.3962 -7.2846 1.2309
v -0.7225 -7.2669 1.2118
v 1.594 -7.1284 -0.8395
v -1.1366 -7.1477 -0.9515
v 0.2196 -7.1467 -0.9485
v 0 -7.1412 -0.9411
v 1.1366 -7.1477 -0.9515
v -0.806 -7.148 -1.0031
v 0.7225 -7.2669 1.2118
v -1.1885 -7.1795 1.2054
v 0.4028 -7.1445 -0.9711
v -0.2196 -7.1467 -0.9485
v 2.783 -6.9377 0.8951
v -2.9967 -6.8847 0.5181
v 1.7068 -7.132 1.2084
v -2.2738 -7.0464 1.1246
v 2.2738 -7.0464 1.1246
v -2.783 -6.9377 0.8951
v 0.5798 -7.1467 -1.0055
v -0.4028 -7.1445 -0.9711
v 2.6872 -6.9654 -0.3419
v -2.1405 -7.0664 -0.6276
v 1.1885 -7.1795 1.2054
v -1.7068 -7.132 1.2084
g patch0
f 1 2 3
f 4 5 6
f 4 7 8
f 9 8 10
f 11 12 10
f 13 14 11
f 14 13 15
f 16 17 18
f 19 20 21
f 22 23 24
f 25 26 23
f 27 28 26
f 29 30 28
f 31 32 33
f 5 1 34
f 29 31 35
f 19 16 36
f 17 37 15
f 38 39 40
f 38 41 42
f 41 43 44
f 45 46 44
f 47 46 45
f 48 49 50
f 51 52 53
f 54 55 56
f 57 56 55
f 58 57 59
f 60 58 61
f 62 60 63
f 64 40 65
f 66 67 33
f 62 68 67
f 69 65 3
f 54 70 52
f 71 53 50
f 57 58 72
f 32 31 73
f 25 22 74
f 42 44 75
f 34 3 76
f 8 7 77
f 50 53 78
f 65 40 79
f 56 57 80
f 22 21 81
f 3 65 82
f 44 46 83
f 18 15 84
f 85 10 86
f 60 62 87
f 6 34 88
f 29 27 89
f 62 66 90
f 10 8 91
f 52 70 92
f 70 56 93
f 21 20 94
f 53 52 95
f 47 50 96
f 36 18 97
f 58 60 98
f 27 25 99
f 39 42 100
f 31 29 101
f 20 36 102
f 66 32 103
f 7 6 104
f 46 47 105
f 13 85 106
f 15 13 107
f 40 39 108
f 78 95 109
f 102 97 110
f 87 90 111
f 73 101 112
f 108 100 113
f 91 77 114
f 83 105 115
f 107 106 116
f 90 103 117
f 103 73 118
f 96 78 119
f 97 84 120
f 98 87 121
f 101 89 122
f 75 83 123
f 106 86 124
f 76 82 125
f 88 76 126
f 100 75 127
f 86 91 128
f 72 98 129
f 89 99 130
f 82 79 131
f 104 88 132
f 95 92 133
f 94 102 134
f 93 80 135
f 74 81 136
f 92 93 137
f 81 94 138
f 79 108 139
f 77 104 140
f 105 96 141
f 84 107 142
f 80 72 143
f 99 74 144
f 133 137 145
f 136 138 146
f 131 139 147
f 114 140 148
f 115 141 149
f 120 142 150
f 135 143 151
f 130 144 152
f 119 109 153
f 134 110 154
f 121 111 155
f 118 112 156
f 139 113 157
f 128 114 158
f 123 115 159
f 142 116 160
f 111 117 161
f 117 118 162
f 141 119 163
f 110 120 164
f 129 121 165
f 112 122 166
f 127 123 167
f 116 124 168
f 126 125 169
f 132 126 170
f 113 127 171
f 124 128 172
f 143 129 173
f 122 130 174
f 125 131 175
f 140 132 176
f 109 133 177
f 138 134 178
f 137 135 179
f 144 136 180
f 177 145 181
f 180 146 182
f 175 147 183
f 158 148 184
f 159 149 185
f 164 150 186
f 179 151 187
f 174 152 188
f 163 153 189
f 178 154 190
f 165 155 191
f 162 156 192
f 147 157 193
f 172 158 194
f 167 159 195
f 150 160 196
f 155 161 197
f 161 162 198
f 149 163 199
f 154 164 200
f 173 165 201
f 156 166 202
f 171 167 203
f 160 168 204
f 170 169 205
f 176 170 206
f 157 171 207
f 168 172 208
f 151 173 209
f 166 174 210
f 169 175 211
f 148 176 212
f 153 177 213
f 146 178 214
f 145 179 215
f 152 180 216
f 211 183 217
f 194 184 218
f 195 185 219
f 200 186 220
f 215 187 221
f 210 188 222
f 199 189 223
f 214 190 224
f 201 191 225
f 198 192 226
f 183 193 227
f 208 194 228
f 203 195 229
f 186 196 230
f 191 197 231
f 197 198 232
f 185 199 233
f 190 200 234
f 209 201 235
f 192 202 236
f 207 203 237
f 196 204 238
f 206 205 239
f 212 206 240
f 193 207 241
f 204 208 242
f 187 209 243
f 202 210 244
f 205 211 245
f 184 212 246
f 189 213 247
f 182 214 248
f 181 215 249
f 188 216 250
f 213 181 251
f 216 182 252
f 228 218 253
f 229 219 254
f 234 220 255
f 249 221 256
f 244 222 257
f 233 223 258
f 248 224 259
f 235 225 260
f 232 226 261
f 217 227 262
f 242 228 263
f 237 229 264
f 220 230 265
f 225 231 266
f 231 232 267
f 219 233 268
f 224 234 269
f 243 235 270
f 226 236 271
f 241 237 272
f 230 238 273
f 240 239 274
f 246 240 275
f 227 241 276
f 238 242 277
f 221 243 278
f 236 244 279
f 239 245 280
f 218 246 281
f 223 247 282
f 252 248 283
f 251 249 284
f 222 250 285
f 247 251 286
f 250 252 287
f 245 217 288
f 264 254 289
f 269 255 290
f 284 256 291
f 279 257 292
f 268 258 293
f 283 259 294
f 270 260 295
f 267 261 296
f 288 262 297
f 277 263 298
f 272 264 299
f 255 265 300
f 260 266 301
f 266 267 302
f 254 268 303
f 259 269 304
f 278 270 305
f 261 271 306
f 276 272 307
f 265 273 308
f 275 274 309
f 281 275 310
f 262 276 311
f 273 277 312
f 256 278 313
f 271 279 314
f 274 280 315
f 253 281 316
f 258 282 317
f 287 283 318
f 286 284 319
f 257 285 320
f 282 286 321
f 285 287 322
f 280 288 323
f 263 253 324
f 304 290 325
f 319 291 326
f 314 292 327
f 303 293 328
f 318 294 329
f 305 295 330
f 302 296 331
f 323 297 332
f 312 298 333
f 307 299 334
f 290 300 335
f 295 301 336
f 301 302 337
f 289 303 338
f 294 304 339
f 313 305 340
f 296 306 341
f 311 307 342
f 300 308 343
f 310 309 344
f 316 310 345
f 297 311 346
f 308 312 347
f 291 313 348
f 306 314 349
f 309 315 350
f 324 316 351
f 293 317 352
f 322 318 353
f 321 319 354
f 292 320 355
f 317 321 356
f 320 322 357
f 315 323 358
f 298 324 359
f 299 289 360
f 354 326 361
f 349 327 362
f 338 328 363
f 353 329 364
f 340 330 365
f 337 331 366
f 358 332 367
f 347 333 368
f 342 334 369
f 325 335 370
f 330 336 371
f 336 337 372
f 360 338 373
f 329 339 374
f 348 340 375
f 331 341 376
f 346 342 377
f 335 343 378
f 345 344 379
f 351 345 380
f 332 346 381
f 343 347 382
f 326 348 383
f 341 349 384
f 344 350 385
f 359 351 386
f 328 352 387
f 357 353 388
f 356 354 389
f 327 355 390
f 352 356 391
f 355 357 392
f 350 358 393
f 333 359 394
f 334 360 395
f 339 325 396
f 373 363 397
f 388 364 398
f 375 365 399
f 372 366 400
f 393 367 401
f 382 368 402
f 377 369 403
f 396 370 404
f 365 371 405
f 371 372 406
f 395 373 407
f 364 374 408
f 383 375 409
f 366 376 410
f 381 377 411
f 370 378 412
f 380 379 413
f 386 380 414
f 367 381 415
f 378 382 416
f 361 383 417
f 376 384 418
f 379 385 419
f 394 386 420
f 363 387 421
f 392 388 422
f 391 389 423
f 362 390 424
f 387 391 425
f 390 392 426
f 385 393 427
f 368 394 428
f 369 395 429
f 374 396 430
f 389 361 431
f 384 362 432
f 407 397 433
f 422 398 434
f 409 399 435
f 406 400 436
f 427 401 437
f 416 402 438
f 411 403 439
f 430 404 440
f 399 405 441
f 405 406 442
f 429 407 443
f 398 408 444
f 417 409 445
f 400 410 446
f 415 411 447
f 404 412 448
f 414 413 449
f 420 414 450
f 401 415 451
f 412 416 452
f 431 417 453
f 410 418 454
f 413 419 455
f 428 420 456
f 397 421 457
f 426 422 458
f 425 423 459
f 432 424 460
f 421 425 461
f 424 426 462
f 419 427 463
f 402 428 464
f 403 429 465
f 408 430 466
f 423 431 467
f 418 432 468
f 445 435 469
f 442 436 470
f 463 437 471
f 452 438 472
f 447 439 473
f 466 440 474
f 435 441 475
f 441 442 476
f 465 443 477
f 434 444 478
f 453 445 479
f 436 446 480
f 451 447 481
f 440 448 482
f 450 449 483
f 456 450 484
f 437 451 485
f 448 452 486
f 467 453 487
f 446 454 488
f 449 455 489
f 464 456 490
f 433 457 491
f 462 458 492
f 461 459 493
f 468 460 494
f 457 461 495
f 460 462 496
f 455 463 497
f 438 464 498
f 439 465 499
f 444 466 500
f 459 467 501
f 454 468 502
f 443 433 503
f 458 434 504
f 479 469 505
f 476 470 506
f 497 471 507
f 486 472 508
f 481 473 509
f 500 474 510
f 469 475 511
f 475 476 512
f 499 477 513
f 504 478 514
f 487 479 515
f 470 480 516
f 485 481 517
f 474 482 518
f 484 483 519
f 490 484 520
f 471 485 521
f 482 486 522
f 501 487 523
f 480 488 524
f 483 489 525
f 498 490 526
f 503 491 527
f 496 492 528
f 495 493 529
f 502 494 530
f 491 495 531
f 494 496 532
f 489 497 533
f 472 498 534
f 473 499 535
f 478 500 536
f 493 501 537
f 488 502 538
f 477 503 539
f 492 504 540
f 515 505 541
f 512 506 542
f 533 507 543
f 522 508 544
f 517 509 545
f 536 510 546
f 505 511 547
f 511 512 548
f 535 513 549
f 540 514 550
f 523 515 551
f 506 516 552
f 521 517 553
f 510 518 554
f 520 519 555
f 526 520 556
f 507 521 557
f 518 522 558
f 537 523 559
f 516 524 560
f 519 525 561
f 534 526 562
f 539 527 563
f 532 528 564
f 531 529 565
f 538 530 566
f 527 531 567
f 530 532 568
f 525 533 569
f 508 534 570
f 509 535 571
f 514 536 572
f 529 537 573
f 524 538 574
f 513 539 575
f 528 540 576
f 545 571 577
f 550 572 578
f 565 573 579
f 560 574 580
f 549 575 581
f 564 576 582
f 551 541 583
f 548 542 584
f 569 543 585
f 558 544 586
f 553 545 587
f 572 546 588
f 541 547 589
f 547 548 590
f 571 549 591
f 576 550 592
f 559 551 593
f 542 552 594
f 557 553 595
f 546 554 596
f 556 555 597
f 562 556 598
f 543 557 599
f 554 558 600
f 573 559 601
f 552 560 602
f 555 561 603
f 570 562 604
f 575 563 605
f 568 564 606
f 567 565 607
f 574 566 608
f 563 567 609
f 566 568 610
f 561 569 611
f 544 570 612
f 607 579 613
f 602 580 614
f 591 581 615
f 606 582 616
f 593 583 617
f 590 584 618
f 611 585 619
f 600 586 620
f 595 587 621
f 578 588 622
f 583 589 623
f 589 590 624
f 577 591 625
f 582 592 626
f 601 593 627
f 584 594 628
f 599 595 629
f 588 596 630
f 598 597 631
f 604 598 632
f 585 599 633
f 596 600 634
f 579 601 635
f 594 602 636
f 597 603 637
f 612 604 638
f 581 605 639
f 610 606 640
f 609 607 641
f 580 608 642
f 605 609 643
f 608 610 644
f 603 611 645
f 586 612 646
f 587 577 647
f 592 578 648
f 641 613 649
f 636 614 650
f 625 615 651
f 640 616 652
f 627 617 653
f 624 618 654
f 645 619 655
f 634 620 656
f 629 621 657
f 648 622 658
f 617 623 659
f 623 624 660
f 647 625 661
f 616 626 662
f 635 627 663
f 618 628 664
f 633 629 665
f 622 630 666
f 632 631 667
f 638 632 668
f 619 633 669
f 630 634 670
f 613 635 671
f 628 636 672
f 631 637 673
f 646 638 674
f 615 639 675
f 644 640 676
f 643 641 677
f 614 642 678
f 639 643 679
f 642 644 680
f 637 645 681
f 620 646 682
f 621 647 683
f 626 648 684
f 661 651 685
f 676 652 686
f 663 653 687
f 660 654 688
f 681 655 689
f 670 656 690
f 665 657 691
f 684 658 692
f 653 659 693
f 659 660 694
f 683 661 695
f 652 662 696
f 671 663 697
f 654 664 698
f 669 665 699
f 658 666 700
f 668 667 701
f 674 668 702
f 655 669 703
f 666 670 704
f 649 671 705
f 664 672 706
f 667 673 707
f 682 674 708
f 651 675 709
f 680 676 710
f 679 677 711
f 650 678 712
f 675 679 713
f 678 680 714
f 673 681 715
f 656 682 716
f 657 683 717
f 662 684 718
f 677 649 719
f 672 650 720
f 1 3 34
f 4 6 7
f 4 8 9
f 9 10 12
f 11 10 85
f 13 11 85
f 14 15 37
f 16 18 36
f 19 21 24
f 22 24 21
f 25 23 22
f 27 26 25
f 29 28 27
f 31 33 35
f 5 34 6
f 29 35 30
f 19 36 20
f 17 15 18
f 38 40 64
f 38 42 39
f 41 44 42
f 45 44 43
f 47 45 48
f 48 50 47
f 51 53 71
f 54 56 70
f 57 55 59
f 58 59 61
f 60 61 63
f 62 63 68
f 64 65 69
f 66 33 32
f 62 67 66
f 69 3 2
f 54 52 51
f 71 50 49
f 57 72 80
f 32 73 103
f 25 74 99
f 42 75 100
f 34 76 88
f 8 77 91
f 50 78 96
f 65 79 82
f 56 80 93
f 22 81 74
f 3 82 76
f 44 83 75
f 18 84 97
f 85 86 106
f 60 87 98
f 6 88 104
f 29 89 101
f 62 90 87
f 10 91 86
f 52 92 95
f 70 93 92
f 21 94 81
f 53 95 78
f 47 96 105
f 36 97 102
f 58 98 72
f 27 99 89
f 39 100 108
f 31 101 73
f 20 102 94
f 66 103 90
f 7 104 77
f 46 105 83
f 13 106 107
f 15 107 84
f 40 108 79
f 78 109 119
f 102 110 134
f 87 111 121
f 73 112 118
f 108 113 139
f 91 114 128
f 83 115 123
f 107 116 142
f 90 117 111
f 103 118 117
f 96 119 141
f 97 120 110
f 98 121 129
f 101 122 112
f 75 123 127
f 106 124 116
f 76 125 126
f 88 126 132
f 100 127 113
f 86 128 124
f 72 129 143
f 89 130 122
f 82 131 125
f 104 132 140
f 95 133 109
f 94 134 138
f 93 135 137
f 74 136 144
f 92 137 133
f 81 138 136
f 79 139 131
f 77 140 114
f 105 141 115
f 84 142 120
f 80 143 135
f 99 144 130
f 133 145 177
f 136 146 180
f 131 147 175
f 114 148 158
f 115 149 159
f 120 150 164
f 135 151 179
f 130 152 174
f 119 153 163
f 134 154 178
f 121 155 165
f 118 156 162
f 139 157 147
f 128 158 172
f 123 159 167
f 142 160 150
f 111 161 155
f 117 162 161
f 141 163 149
f 110 164 154
f 129 165 173
f 112 166 156
f 127 167 171
f 116 168 160
f 126 169 170
f 132 170 176
f 113 171 157
f 124 172 168
f 143 173 151
f 122 174 166
f 125 175 169
f 140 176 148
f 109 177 153
f 138 178 146
f 137 179 145
f 144 180 152
f 177 181 213
f 180 182 216
f 175 183 211
f 158 184 194
f 159 185 195
f 164 186 200
f 179 187 215
f 174 188 210
f 163 189 199
f 178 190 214
f 165 191 201
f 162 192 198
f 147 193 183
f 172 194 208
f 167 195 203
f 150 196 186
f 155 197 191
f 161 198 197
f 149 199 185
f 154 200 190
f 173 201 209
f 156 202 192
f 171 203 207
f 160 204 196
f 170 205 206
f 176 206 212
f 157 207 193
f 168 208 204
f 151 209 187
f 166 210 202
f 169 211 205
f 148 212 184
f 153 213 189
f 146 214 182
f 145 215 181
f 152 216 188
f 211 217 245
f 194 218 228
f 195 219 229
f 200 220 234
f 215 221 249
f 210 222 244
f 199 223 233
f 214 224 248
f 201 225 235
f 198 226 232
f 183 227 217
f 208 228 242
f 203 229 237
f 186 230 220
f 191 231 225
f 197 232 231
f 185 233 219
f 190 234 224
f 209 235 243
f 192 236 226
f 207 237 241
f 196 238 230
f 206 239 240
f 212 240 246
f 193 241 227
f 204 242 238
f 187 243 221
f 202 244 236
f 205 245 239
f 184 246 218
f 189 247 223
f 182 248 252
f 181 249 251
f 188 250 222
f 213 251 247
f 216 252 250
f 228 253 263
f 229 254 264
f 234 255 269
f 249 256 284
f 244 257 279
f 233 258 268
f 248 259 283
f 235 260 270
f 232 261 267
f 217 262 288
f 242 263 277
f 237 264 272
f 220 265 255
f 225 266 260
f 231 267 266
f 219 268 254
f 224 269 259
f 243 270 278
f 226 271 261
f 241 272 276
f 230 273 265
f 240 274 275
f 246 275 281
f 227 276 262
f 238 277 273
f 221 278 256
f 236 279 271
f 239 280 274
f 218 281 253
f 223 282 258
f 252 283 287
f 251 284 286
f 222 285 257
f 247 286 282
f 250 287 285
f 245 288 280
f 264 289 299
f 269 290 304
f 284 291 319
f 279 292 314
f 268 293 303
f 283 294 318
f 270 295 305
f 267 296 302
f 288 297 323
f 277 298 312
f 272 299 307
f 255 300 290
f 260 301 295
f 266 302 301
f 254 303 289
f 259 304 294
f 278 305 313
f 261 306 296
f 276 307 311
f 265 308 300
f 275 309 310
f 281 310 316
f 262 311 297
f 273 312 308
f 256 313 291
f 271 314 306
f 274 315 309
f 253 316 324
f 258 317 293
f 287 318 322
f 286 319 321
f 257 320 292
f 282 321 317
f 285 322 320
f 280 323 315
f 263 324 298
f 304 325 339
f 319 326 354
f 314 327 349
f 303 328 338
f 318 329 353
f 305 330 340
f 302 331 337
f 323 332 358
f 312 333 347
f 307 334 342
f 290 335 325
f 295 336 330
f 301 337 336
f 289 338 360
f 294 339 329
f 313 340 348
f 296 341 331
f 311 342 346
f 300 343 335
f 310 344 345
f 316 345 351
f 297 346 332
f 308 347 343
f 291 348 326
f 306 349 341
f 309 350 344
f 324 351 359
f 293 352 328
f 322 353 357
f 321 354 356
f 292 355 327
f 317 356 352
f 320 357 355
f 315 358 350
f 298 359 333
f 299 360 334
f 354 361 389
f 349 362 384
f 338 363 373
f 353 364 388
f 340 365 375
f 337 366 372
f 358 367 393
f 347 368 382
f 342 369 377
f 325 370 396
f 330 371 365
f 336 372 371
f 360 373 395
f 329 374 364
f 348 375 383
f 331 376 366
f 346 377 381
f 335 378 370
f 345 379 380
f 351 380 386
f 332 381 367
f 343 382 378
f 326 383 361
f 341 384 376
f 344 385 379
f 359 386 394
f 328 387 363
f 357 388 392
f 356 389 391
f 327 390 362
f 352 391 387
f 355 392 390
f 350 393 385
f 333 394 368
f 334 395 369
f 339 396 374
f 373 397 407
f 388 398 422
f 375 399 409
f 372 400 406
f 393 401 427
f 382 402 416
f 377 403 411
f 396 404 430
f 365 405 399
f 371 406 405
f 395 407 429
f 364 408 398
f 383 409 417
f 366 410 400
f 381 411 415
f 370 412 404
f 380 413 414
f 386 414 420
f 367 415 401
f 378 416 412
f 361 417 431
f 376 418 410
f 379 419 413
f 394 420 428
f 363 421 397
f 392 422 426
f 391 423 425
f 362 424 432
f 387 425 421
f 390 426 424
f 385 427 419
f 368 428 402
f 369 429 403
f 374 430 408
f 389 431 423
f 384 432 418
f 407 433 443
f 422 434 458
f 409 435 445
f 406 436 442
f 427 437 463
f 416 438 452
f 411 439 447
f 430 440 466
f 399 441 435
f 405 442 441
f 429 443 465
f 398 444 434
f 417 445 453
f 400 446 436
f 415 447 451
f 404 448 440
f 414 449 450
f 420 450 456
f 401 451 437
f 412 452 448
f 431 453 467
f 410 454 446
f 413 455 449
f 428 456 464
f 397 457 433
f 426 458 462
f 425 459 461
f 432 460 468
f 421 461 457
f 424 462 460
f 419 463 455
f 402 464 438
f 403 465 439
f 408 466 444
f 423 467 459
f 418 468 454
f 445 469 479
f 442 470 476
f 463 471 497
f 452 472 486
f 447 473 481
f 466 474 500
f 435 475 469
f 441 476 475
f 465 477 499
f 434 478 504
f 453 479 487
f 436 480 470
f 451 481 485
f 440 482 474
f 450 483 484
f 456 484 490
f 437 485 471
f 448 486 482
f 467 487 501
f 446 488 480
f 449 489 483
f 464 490 498
f 433 491 503
f 462 492 496
f 461 493 495
f 468 494 502
f 457 495 491
f 460 496 494
f 455 497 489
f 438 498 472
f 439 499 473
f 444 500 478
f 459 501 493
f 454 502 488
f 443 503 477
f 458 504 492
f 479 505 515
f 476 506 512
f 497 507 533
f 486 508 522
f 481 509 517
f 500 510 536
f 469 511 505
f 475 512 511
f 499 513 535
f 504 514 540
f 487 515 523
f 470 516 506
f 485 517 521
f 474 518 510
f 484 519 520
f 490 520 526
f 471 521 507
f 482 522 518
f 501 523 537
f 480 524 516
f 483 525 519
f 498 526 534
f 503 527 539
f 496 528 532
f 495 529 531
f 502 530 538
f 491 531 527
f 494 532 530
f 489 533 525
f 472 534 508
f 473 535 509
f 478 536 514
f 493 537 529
f 488 538 524
f 477 539 513
f 492 540 528
f 515 541 551
f 512 542 548
f 533 543 569
f 522 544 558
f 517 545 553
f 536 546 572
f 505 547 541
f 511 548 547
f 535 549 571
f 540 550 576
f 523 551 559
f 506 552 542
f 521 553 557
f 510 554 546
f 520 555 556
f 526 556 562
f 507 557 543
f 518 558 554
f 537 559 573
f 516 560 552
f 519 561 555
f 534 562 570
f 539 563 575
f 532 564 568
f 531 565 567
f 538 566 574
f 527 567 563
f 530 568 566
f 525 569 561
f 508 570 544
f 509 571 545
f 514 572 550
f 529 573 565
f 524 574 560
f 513 575 549
f 528 576 564
f 545 577 587
f 550 578 592
f 565 579 607
f 560 580 602
f 549 581 591
f 564 582 606
f 551 583 593
f 548 584 590
f 569 585 611
f 558 586 600
f 553 587 595
f 572 588 578
f 541 589 583
f 547 590 589
f 571 591 577
f 576 592 582
f 559 593 601
f 542 594 584
f 557 595 599
f 546 596 588
f 556 597 598
f 562 598 604
f 543 599 585
f 554 600 596
f 573 601 579
f 552 602 594
f 555 603 597
f 570 604 612
f 575 605 581
f 568 606 610
f 567 607 609
f 574 608 580
f 563 609 605
f 566 610 608
f 561 611 603
f 544 612 586
f 607 613 641
f 602 614 636
f 591 615 625
f 606 616 640
f 593 617 627
f 590 618 624
f 611 619 645
f 600 620 634
f 595 621 629
f 578 622 648
f 583 623 617
f 589 624 623
f 577 625 647
f 582 626 616
f 601 627 635
f 584 628 618
f 599 629 633
f 588 630 622
f 598 631 632
f 604 632 638
f 585 633 619
f 596 634 630
f 579 635 613
f 594 636 628
f 597 637 631
f 612 638 646
f 581 639 615
f 610 640 644
f 609 641 643
f 580 642 614
f 605 643 639
f 608 644 642
f 603 645 637
f 586 646 620
f 587 647 621
f 592 648 626
f 641 649 677
f 636 650 672
f 625 651 661
f 640 652 676
f 627 653 663
f 624 654 660
f 645 655 681
f 634 656 670
f 629 657 665
f 648 658 684
f 617 659 653
f 623 660 659
f 647 661 683
f 616 662 652
f 635 663 671
f 618 664 654
f 633 665 669
f 622 666 658
f 632 667 668
f 638 668 674
f 619 669 655
f 630 670 666
f 613 671 649
f 628 672 664
f 631 673 667
f 646 674 682
f 615 675 651
f 644 676 680
f 643 677 679
f 614 678 650
f 639 679 675
f 642 680 678
f 637 681 673
f 620 682 656
f 621 683 657
f 626 684 662
f 661 685 695
f 676 686 710
f 663 687 697
f 660 688 694
f 681 689 715
f 670 690 704
f 665 691 699
f 684 692 718
f 653 693 687
f 659 694 693
f 683 695 717
f 652 696 686
f 671 697 705
f 654 698 688
f 669 699 703
f 658 700 692
f 668 701 702
f 674 702 708
f 655 703 689
f 666 704 700
f 649 705 719
f 664 706 698
f 667 707 701
f 682 708 716
f 651 709 685
f 680 710 714
f 679 711 713
f 650 712 720
f 675 713 709
f 678 714 712
f 673 715 707
f 656 716 690
f 657 717 691
f 662 718 696
f 677 719 711
f 672 720 706
