# Wavefront OBJ file
# Regions:
#     0    patch0
#
# points    : 32
# triangles : 30
#
v -0.0031 8.4809 0.3479
v -0.0035 8.4616 0.2689
v -0.0052 8.4497 0.0523
v -0.008 8.3192 -0.2022
v -0.258 8.3051 -0.1735
v -0.0069 8.0662 -0.3688
v -0.2927 8.0635 -0.349
v -0.0069 7.7616 -0.4628
v -0.2915 7.7605 -0.4587
v -0.0098 7.349 -0.4885
v -0.2999 7.3674 -0.4852
v -0.0101 6.8245 -0.5239
v -0.2988 6.853 -0.5207
v -0.0084 6.4695 -0.5233
v -0.2918 6.4959 -0.5326
v -0.0038 6.0434 -0.5344
v -0.3039 6.0579 -0.5352
v -0.007 5.5474 -0.5491
v -0.3115 5.5644 -0.5647
v -0.0039 5.0322 -0.5654
v -0.2804 5.0383 -0.6014
v -0.0054 4.4703 -0.5732
v -0.2758 4.49 -0.5839
v -0.0166 3.7538 -0.5975
v -0.2754 3.7569 -0.597
v -0.0185 3.1542 -0.6059
v -0.2552 3.157 -0.605
v -0.0186 2.5985 -0.598
v -0.2709 2.6306 -0.597
v -0.0122 2.0286 -0.6057
v -0.295 2.0126 -0.605
v -0.223 8.4521 0.0589
g patch0
f 1 2 3
f 3 4 5
f 4 6 7
f 6 8 9
f 8 10 11
f 10 12 13
f 12 14 15
f 14 16 17
f 16 18 19
f 18 20 21
f 20 22 23
f 22 24 25
f 24 26 27
f 26 28 29
f 28 30 31
f 1 3 32
f 3 5 32
f 4 7 5
f 6 9 7
f 8 11 9
f 10 13 11
f 12 15 13
f 14 17 15
f 16 19 17
f 18 21 19
f 20 23 21
f 22 25 23
f 24 27 25
f 26 29 27
f 28 31 29
