# Wavefront OBJ file
# Regions:
#     0    patch0
#
# points    : 18
# triangles : 16
#
v -0.0093 8.3695 1.0723
v -0.0122 8.4157 0.9785
v -0.4658 8.3145 1.0034
v -0.6492 8.1509 1.0144
v -0.5112 8.1008 1.2024
v -0.7911 7.9558 1.003
v -0.6595 7.9457 1.2247
v -0.8127 7.7266 0.9488
v -0.7144 7.7239 1.2285
v -0.8383 7.341 0.9098
v -0.7659 7.3858 1.2364
v -0.8152 6.8847 0.8993
v -0.7523 6.9642 1.2224
v -0.7627 6.5055 0.9331
v -0.6429 6.5474 1.2262
v -0.6499 6.0759 0.9545
v -0.6198 6.1576 1.2677
v -0.3205 8.2409 1.1679
g patch0
f 1 2 3
f 3 4 5
f 4 6 7
f 6 8 9
f 8 10 11
f 10 12 13
f 12 14 15
f 14 16 17
f 1 3 18
f 3 5 18
f 4 7 5
f 6 9 7
f 8 11 9
f 10 13 11
f 12 15 13
f 14 17 15
