solid Visualization Toolkit generated SLA File
 facet normal 0.10525725493432163 -0.99399454336368254 -0.029929217278697805
  outer loop
   vertex 224.12075805664062 178.6517333984375 28.579689025878906
   vertex 220.15924072265625 178.4532470703125 21.239566802978516
   vertex 224.28526306152344 178.67149353027344 28.501968383789062
  endloop
 endfacet
 facet normal 0.10294505852130588 -0.99427558901018487 -0.028607132406007998
  outer loop
   vertex 224.28526306152344 178.67149353027344 28.501968383789062
   vertex 220.15924072265625 178.4532470703125 21.239566802978516
   vertex 224.56243896484375 178.70423889160156 28.361303329467773
  endloop
 endfacet
 facet normal 0.10488823759968656 -0.99403692398174026 -0.029816964536177527
  outer loop
   vertex 224.56243896484375 178.70423889160156 28.361303329467773
   vertex 220.15924072265625 178.4532470703125 21.239566802978516
   vertex 224.99966430664062 178.75662231445312 28.152990341186523
  endloop
 endfacet
 facet normal 0.090002080863116118 -0.99575418570384577 -0.019319086251174802
  outer loop
   vertex 224.99966430664062 178.75662231445312 28.152990341186523
   vertex 220.15924072265625 178.4532470703125 21.239566802978516
   vertex 225.37803649902344 178.79632568359375 27.869306564331055
  endloop
 endfacet
 facet normal 0.08959198099118848 -0.99579742111236758 -0.018994026640831163
  outer loop
   vertex 225.37803649902344 178.79632568359375 27.869306564331055
   vertex 220.15924072265625 178.4532470703125 21.239566802978516
   vertex 225.87857055664062 178.84860229492188 27.489551544189453
  endloop
 endfacet
 facet normal 0.081079341821935227 -0.9966452760270722 -0.011150520285742796
  outer loop
   vertex 225.87857055664062 178.84860229492188 27.489551544189453
   vertex 220.15924072265625 178.4532470703125 21.239566802978516
   vertex 226.15176391601562 178.87382507324219 27.221597671508789
  endloop
 endfacet
 facet normal 0.08010122145356352 -0.9967349094170187 -0.010164382474830182
  outer loop
   vertex 226.15176391601562 178.87382507324219 27.221597671508789
   vertex 220.15924072265625 178.4532470703125 21.239566802978516
   vertex 226.36935424804688 178.8935546875 27.001619338989258
  endloop
 endfacet
 facet normal 0.080106604074638377 -0.99673441727632317 -0.010170221259017877
  outer loop
   vertex 226.36935424804688 178.8935546875 27.001619338989258
   vertex 220.15924072265625 178.4532470703125 21.239566802978516
   vertex 226.62275695800781 178.91653442382812 26.745433807373047
  endloop
 endfacet
 facet normal 0.080877601997571796 -0.99666243862734905 -0.011081377374138571
  outer loop
   vertex 226.62275695800781 178.91653442382812 26.745433807373047
   vertex 220.15924072265625 178.4532470703125 21.239566802978516
   vertex 226.75747680664062 178.92893981933594 26.612943649291992
  endloop
 endfacet
 facet normal 0.071190482320821424 -0.99746234639555031 0.00088473160449067413
  outer loop
   vertex 226.75747680664062 178.92893981933594 26.612943649291992
   vertex 220.15924072265625 178.4532470703125 21.239566802978516
   vertex 227.09858703613281 178.95286560058594 26.139652252197266
  endloop
 endfacet
 facet normal 0.070004694535242273 -0.99754334552074742 0.0025722655971125823
  outer loop
   vertex 227.09858703613281 178.95286560058594 26.139652252197266
   vertex 220.15924072265625 178.4532470703125 21.239566802978516
   vertex 227.53689575195312 178.98197937011719 25.501529693603516
  endloop
 endfacet
 facet normal 0.068910528099429907 -0.99761280769017679 0.004474935706814437
  outer loop
   vertex 227.53689575195312 178.98197937011719 25.501529693603516
   vertex 220.15924072265625 178.4532470703125 21.239566802978516
   vertex 227.63380432128906 178.98800659179688 25.352882385253906
  endloop
 endfacet
 facet normal 0.069635259802928492 -0.99756753901124118 0.0031520950547919272
  outer loop
   vertex 227.63380432128906 178.98800659179688 25.352882385253906
   vertex 220.15924072265625 178.4532470703125 21.239566802978516
   vertex 227.63638305664062 178.98817443847656 25.349033355712891
  endloop
 endfacet
 facet normal 0.06543016861157723 -0.99779834300886672 0.010833269322806281
  outer loop
   vertex 227.63638305664062 178.98817443847656 25.349033355712891
   vertex 220.15924072265625 178.4532470703125 21.239566802978516
   vertex 227.9112548828125 179.00071716308594 24.844125747680664
  endloop
 endfacet
 facet normal 0.065668719082077665 -0.99778812581669585 0.010318687577624079
  outer loop
   vertex 227.9112548828125 179.00071716308594 24.844125747680664
   vertex 220.15924072265625 178.4532470703125 21.239566802978516
   vertex 228.3768310546875 179.02264404296875 24.001440048217773
  endloop
 endfacet
 facet normal 0.058622242159351558 -0.99778990103964282 0.031284918211655535
  outer loop
   vertex 228.3768310546875 179.02264404296875 24.001440048217773
   vertex 220.15924072265625 178.4532470703125 21.239566802978516
   vertex 228.49510192871094 179.01565551757812 23.55693244934082
  endloop
 endfacet
 facet normal 0.057870455400310918 -0.99774569626781417 0.033978463338047139
  outer loop
   vertex 228.49510192871094 179.01565551757812 23.55693244934082
   vertex 220.15924072265625 178.4532470703125 21.239566802978516
   vertex 228.51528930664062 179.01388549804688 23.470575332641602
  endloop
 endfacet
 facet normal 0.057885422791122104 -0.99774672675364406 0.033922663230973128
  outer loop
   vertex 228.51528930664062 179.01388549804688 23.470575332641602
   vertex 220.15924072265625 178.4532470703125 21.239566802978516
   vertex 228.60957336425781 179.00564575195312 23.067338943481445
  endloop
 endfacet
 facet normal 0.058452022976209446 -0.99779882281681842 0.031318847286576822
  outer loop
   vertex 228.60957336425781 179.00564575195312 23.067338943481445
   vertex 220.15924072265625 178.4532470703125 21.239566802978516
   vertex 228.75967407226562 178.99667358398438 22.501350402832031
  endloop
 endfacet
 facet normal 0.056164440686200794 -0.99732836229372068 0.04670860056703896
  outer loop
   vertex 228.75967407226562 178.99667358398438 22.501350402832031
   vertex 220.15924072265625 178.4532470703125 21.239566802978516
   vertex 228.83905029296875 178.95797729492188 21.579656600952148
  endloop
 endfacet
 facet normal 0.056019896253251628 -0.99716881981428407 0.050160901247513386
  outer loop
   vertex 228.83905029296875 178.95797729492188 21.579656600952148
   vertex 220.15924072265625 178.4532470703125 21.239566802978516
   vertex 228.86642456054688 178.930419921875 21.001260757446289
  endloop
 endfacet
 facet normal 0.056613464468989863 -0.99557164990517522 0.075046689106885445
  outer loop
   vertex 228.86642456054688 178.930419921875 21.001260757446289
   vertex 220.15924072265625 178.4532470703125 21.239566802978516
   vertex 228.69361877441406 178.86503601074219 20.264236450195312
  endloop
 endfacet
 facet normal 0.05694071778571004 -0.99532482168850578 0.078014447308126914
  outer loop
   vertex 228.69361877441406 178.86503601074219 20.264236450195312
   vertex 220.15924072265625 178.4532470703125 21.239566802978516
   vertex 228.68572998046875 178.8623046875 20.235147476196289
  endloop
 endfacet
 facet normal 0.056956146052497277 -0.9953132961675315 0.078150111317710602
  outer loop
   vertex 228.68572998046875 178.8623046875 20.235147476196289
   vertex 220.15924072265625 178.4532470703125 21.239566802978516
   vertex 228.51528930664062 178.80311584472656 19.605541229248047
  endloop
 endfacet
 facet normal 0.057071314652214565 -0.99525936679831872 0.078750605356894071
  outer loop
   vertex 228.51528930664062 178.80311584472656 19.605541229248047
   vertex 220.15924072265625 178.4532470703125 21.239566802978516
   vertex 228.48602294921875 178.7930908203125 19.500053405761719
  endloop
 endfacet
 facet normal 0.061900521675642445 -0.99282129012422948 0.10234359429072128
  outer loop
   vertex 228.48602294921875 178.7930908203125 19.500053405761719
   vertex 220.15924072265625 178.4532470703125 21.239566802978516
   vertex 228.20698547363281 178.72625732421875 19.020481109619141
  endloop
 endfacet
 facet normal 0.061771132463664044 -0.99287832765650741 0.10186733364613951
  outer loop
   vertex 228.20698547363281 178.72625732421875 19.020481109619141
   vertex 220.15924072265625 178.4532470703125 21.239566802978516
   vertex 227.63638305664062 178.58892822265625 18.027971267700195
  endloop
 endfacet
 facet normal 0.067974896593563913 -0.99087411810263604 0.11639542734754396
  outer loop
   vertex 227.63638305664062 178.58892822265625 18.027971267700195
   vertex 220.15924072265625 178.4532470703125 21.239566802978516
   vertex 227.61459350585938 178.58428955078125 18.00120735168457
  endloop
 endfacet
 facet normal 0.068260077035249292 -0.99077670308639909 0.11705591187286193
  outer loop
   vertex 227.61459350585938 178.58428955078125 18.00120735168457
   vertex 220.15924072265625 178.4532470703125 21.239566802978516
   vertex 226.82904052734375 178.41795349121094 17.05140495300293
  endloop
 endfacet
 facet normal 0.06940845347054346 -0.99047941932904859 0.1188822378339925
  outer loop
   vertex 226.82904052734375 178.41795349121094 17.05140495300293
   vertex 220.15924072265625 178.4532470703125 21.239566802978516
   vertex 226.75747680664062 178.40299987792969 16.968599319458008
  endloop
 endfacet
 facet normal 0.076453741182398782 -0.98859558155309879 0.12974437017807419
  outer loop
   vertex 226.75747680664062 178.40299987792969 16.968599319458008
   vertex 220.15924072265625 178.4532470703125 21.239566802978516
   vertex 226.30558776855469 178.31510925292969 16.565193176269531
  endloop
 endfacet
 facet normal 0.074979766689472926 -0.98895947915881532 0.12781699092498208
  outer loop
   vertex 226.30558776855469 178.31510925292969 16.565193176269531
   vertex 220.15924072265625 178.4532470703125 21.239566802978516
   vertex 226.23712158203125 178.30162048339844 16.50098991394043
  endloop
 endfacet
 facet normal 0.074868024627330526 -0.98898634687409681 0.12767452598318113
  outer loop
   vertex 226.23712158203125 178.30162048339844 16.50098991394043
   vertex 220.15924072265625 178.4532470703125 21.239566802978516
   vertex 226.19352722167969 178.29304504394531 16.460126876831055
  endloop
 endfacet
 facet normal 0.076204661969005175 -0.98866630983519133 0.12935137143090136
  outer loop
   vertex 226.19352722167969 178.29304504394531 16.460126876831055
   vertex 220.15924072265625 178.4532470703125 21.239566802978516
   vertex 225.87857055664062 178.23165893554688 16.176486968994141
  endloop
 endfacet
 facet normal 0.073855405480829986 -0.98918518901629071 0.12672032556802976
  outer loop
   vertex 225.87857055664062 178.23165893554688 16.176486968994141
   vertex 220.15924072265625 178.4532470703125 21.239566802978516
   vertex 225.64610290527344 178.18548583984375 15.951544761657715
  endloop
 endfacet
 facet normal 0.074431627704261635 -0.98906599464582468 0.12731217943527426
  outer loop
   vertex 225.64610290527344 178.18548583984375 15.951544761657715
   vertex 220.15924072265625 178.4532470703125 21.239566802978516
   vertex 224.99966430664062 178.05769348144531 15.336681365966797
  endloop
 endfacet
 facet normal 0.0886643163517601 -0.98634325295106284 0.13880067133767982
  outer loop
   vertex 224.99966430664062 178.05769348144531 15.336681365966797
   vertex 220.15924072265625 178.4532470703125 21.239566802978516
   vertex 224.73458862304688 178.00967407226562 15.164773941040039
  endloop
 endfacet
 facet normal 0.085848971121058409 -0.98688281715797632 0.13671963778401355
  outer loop
   vertex 224.73458862304688 178.00967407226562 15.164773941040039
   vertex 220.15924072265625 178.4532470703125 21.239566802978516
   vertex 224.50056457519531 177.96661376953125 15.000900268554688
  endloop
 endfacet
 facet normal 0.085830215798222337 -0.98688621973901991 0.13670685185921602
  outer loop
   vertex 224.50056457519531 177.96661376953125 15.000900268554688
   vertex 220.15924072265625 178.4532470703125 21.239566802978516
   vertex 224.29063415527344 177.92799377441406 14.85390567779541
  endloop
 endfacet
 facet normal 0.088369844735852451 -0.98643816877641466 0.1383130858682399
  outer loop
   vertex 224.29063415527344 177.92799377441406 14.85390567779541
   vertex 220.15924072265625 178.4532470703125 21.239566802978516
   vertex 224.12075805664062 177.89712524414062 14.742289543151855
  endloop
 endfacet
 facet normal 0.089168230424588296 -0.98629960607562894 0.13878801727096937
  outer loop
   vertex 224.12075805664062 177.89712524414062 14.742289543151855
   vertex 220.15924072265625 178.4532470703125 21.239566802978516
   vertex 223.48493957519531 177.78213500976562 14.333608627319336
  endloop
 endfacet
 facet normal 0.091007067986408882 -0.98601057785566848 0.13964545797571756
  outer loop
   vertex 223.48493957519531 177.78213500976562 14.333608627319336
   vertex 220.15924072265625 178.4532470703125 21.239566802978516
   vertex 223.24185180664062 177.73855590820312 14.184325218200684
  endloop
 endfacet
 facet normal 0.099967783259743773 -0.98460031915512058 0.14341775981295915
  outer loop
   vertex 223.24185180664062 177.73855590820312 14.184325218200684
   vertex 220.15924072265625 178.4532470703125 21.239566802978516
   vertex 222.42100524902344 177.59710693359375 13.785403251647949
  endloop
 endfacet
 facet normal 0.10014839408284625 -0.98457441417906788 0.14346958599846896
  outer loop
   vertex 222.42100524902344 177.59710693359375 13.785403251647949
   vertex 220.15924072265625 178.4532470703125 21.239566802978516
   vertex 222.36294555664062 177.58711242675781 13.757343292236328
  endloop
 endfacet
 facet normal 0.11808233423254841 -0.98184691250773037 0.14843585396133294
  outer loop
   vertex 222.36294555664062 177.58711242675781 13.757343292236328
   vertex 220.15924072265625 178.4532470703125 21.239566802978516
   vertex 222.06295776367188 177.53904724121094 13.678053855895996
  endloop
 endfacet
 facet normal 0.11673809684325899 -0.98205494728909215 0.14812257508709567
  outer loop
   vertex 222.06295776367188 177.53904724121094 13.678053855895996
   vertex 220.15924072265625 178.4532470703125 21.239566802978516
   vertex 221.56434631347656 177.45872497558594 13.538480758666992
  endloop
 endfacet
 facet normal 0.10962898836136574 -0.98304935629328882 0.14695389754005855
  outer loop
   vertex 221.56434631347656 177.45872497558594 13.538480758666992
   vertex 220.15924072265625 178.4532470703125 21.239566802978516
   vertex 221.48403930664062 177.44544982910156 13.509586334228516
  endloop
 endfacet
 facet normal 0.1300376467275042 -0.98008702825598071 0.15006541066459425
  outer loop
   vertex 221.48403930664062 177.44544982910156 13.509586334228516
   vertex 220.15924072265625 178.4532470703125 21.239566802978516
   vertex 221.41860961914062 177.4354248046875 13.500809669494629
  endloop
 endfacet
 facet normal 0.12991354136677458 -0.98010619272571065 0.15004773490544709
  outer loop
   vertex 221.41860961914062 177.4354248046875 13.500809669494629
   vertex 220.15924072265625 178.4532470703125 21.239566802978516
   vertex 221.2388916015625 177.40791320800781 13.476707458496094
  endloop
 endfacet
 facet normal 0.12994704831398649 -0.98010114147086791 0.15005171482520366
  outer loop
   vertex 221.2388916015625 177.40791320800781 13.476707458496094
   vertex 220.15924072265625 178.4532470703125 21.239566802978516
   vertex 220.80300903320312 177.34117126464844 13.418246269226074
  endloop
 endfacet
 facet normal 0.11772302881933165 -0.98176181763731052 0.14928168646919499
  outer loop
   vertex 220.80300903320312 177.34117126464844 13.418246269226074
   vertex 220.15924072265625 178.4532470703125 21.239566802978516
   vertex 220.60513305664062 177.30943298339844 13.365561485290527
  endloop
 endfacet
 facet normal 0.13183260329148849 -0.97988654667409347 0.14980827866479504
  outer loop
   vertex 220.60513305664062 177.30943298339844 13.365561485290527
   vertex 220.15924072265625 178.4532470703125 21.239566802978516
   vertex 220.3343505859375 177.26826477050781 13.334573745727539
  endloop
 endfacet
 facet normal 0.13533093620425019 -0.9794086295359119 0.14981413183230732
  outer loop
   vertex 220.3343505859375 177.26826477050781 13.334573745727539
   vertex 220.15924072265625 178.4532470703125 21.239566802978516
   vertex 219.72622680664062 177.17701721191406 13.28737735748291
  endloop
 endfacet
 facet normal 0.15109048960749646 -0.97728461193525651 0.14861511102415517
  outer loop
   vertex 219.72622680664062 177.17701721191406 13.28737735748291
   vertex 220.15924072265625 178.4532470703125 21.239566802978516
   vertex 219.30482482910156 177.11764526367188 13.325371742248535
  endloop
 endfacet
 facet normal 0.14946101532712336 -0.97750277597697688 0.14882784636851243
  outer loop
   vertex 219.30482482910156 177.11764526367188 13.325371742248535
   vertex 220.15924072265625 178.4532470703125 21.239566802978516
   vertex 218.84732055664062 177.05274963378906 13.358587265014648
  endloop
 endfacet
 facet normal 0.16820607281145072 -0.97499024603615558 0.14526092800097884
  outer loop
   vertex 218.84732055664062 177.05274963378906 13.358587265014648
   vertex 220.15924072265625 178.4532470703125 21.239566802978516
   vertex 218.34471130371094 176.98722839355469 13.500809669494629
  endloop
 endfacet
 facet normal 0.16823772216016653 -0.97498601047306566 0.14525270470519192
  outer loop
   vertex 218.34471130371094 176.98722839355469 13.500809669494629
   vertex 220.15924072265625 178.4532470703125 21.239566802978516
   vertex 218.30726623535156 176.98234558105469 13.511404991149902
  endloop
 endfacet
 facet normal 0.16848735221921832 -0.97495275610859 0.14518655412406961
  outer loop
   vertex 218.30726623535156 176.98234558105469 13.511404991149902
   vertex 220.15924072265625 178.4532470703125 21.239566802978516
   vertex 218.28811645507812 176.97984313964844 13.516823768615723
  endloop
 endfacet
 facet normal 0.1717163852045018 -0.97451776372400445 0.14432120855461381
  outer loop
   vertex 218.28811645507812 176.97984313964844 13.516823768615723
   vertex 220.15924072265625 178.4532470703125 21.239566802978516
   vertex 217.96841430664062 176.93888854980469 13.620669364929199
  endloop
 endfacet
 facet normal 0.19287223861196526 -0.97152194185835383 0.13764234835464961
  outer loop
   vertex 217.96841430664062 176.93888854980469 13.620669364929199
   vertex 220.15924072265625 178.4532470703125 21.239566802978516
   vertex 217.29194641113281 176.86257934570312 14.029960632324219
  endloop
 endfacet
 facet normal 0.19521767643133583 -0.97119527235089587 0.13663748304187717
  outer loop
   vertex 217.29194641113281 176.86257934570312 14.029960632324219
   vertex 220.15924072265625 178.4532470703125 21.239566802978516
   vertex 217.08950805664062 176.84013366699219 14.159649848937988
  endloop
 endfacet
 facet normal 0.21138909282734708 -0.96883984240057419 0.12908915992778711
  outer loop
   vertex 217.08950805664062 176.84013366699219 14.159649848937988
   vertex 220.15924072265625 178.4532470703125 21.239566802978516
   vertex 216.316650390625 176.76618957519531 14.870272636413574
  endloop
 endfacet
 facet normal 0.20626897925019391 -0.96950276101021093 0.13235371015827596
  outer loop
   vertex 216.316650390625 176.76618957519531 14.870272636413574
   vertex 220.15924072265625 178.4532470703125 21.239566802978516
   vertex 216.21060180664062 176.75546264648438 14.95697021484375
  endloop
 endfacet
 facet normal 0.22489203389318299 -0.96697054416972461 0.11996474398544815
  outer loop
   vertex 216.21060180664062 176.75546264648438 14.95697021484375
   vertex 220.15924072265625 178.4532470703125 21.239566802978516
   vertex 216.17529296875 176.75270080566406 15.000900268554688
  endloop
 endfacet
 facet normal 0.22449416458222704 -0.96702944376378153 0.12023487415238285
  outer loop
   vertex 216.17529296875 176.75270080566406 15.000900268554688
   vertex 220.15924072265625 178.4532470703125 21.239566802978516
   vertex 216.15756225585938 176.75132751464844 15.022960662841797
  endloop
 endfacet
 facet normal 0.22476345291394767 -0.96698977583453005 0.1200506712421263
  outer loop
   vertex 216.15756225585938 176.75132751464844 15.022960662841797
   vertex 220.15924072265625 178.4532470703125 21.239566802978516
   vertex 215.36076354980469 176.689208984375 16.014402389526367
  endloop
 endfacet
 facet normal 0.22373369740327831 -0.9671058050943715 0.12103550883532439
  outer loop
   vertex 215.36076354980469 176.689208984375 16.014402389526367
   vertex 220.15924072265625 178.4532470703125 21.239566802978516
   vertex 215.33169555664062 176.68687438964844 16.049480438232422
  endloop
 endfacet
 facet normal 0.23610223892236012 -0.96559369078285595 0.10901631573388922
  outer loop
   vertex 215.33169555664062 176.68687438964844 16.049480438232422
   vertex 220.15924072265625 178.4532470703125 21.239566802978516
   vertex 215.06561279296875 176.67262268066406 16.499517440795898
  endloop
 endfacet
 facet normal 0.23592409378967788 -0.9656147083140616 0.10921564474501323
  outer loop
   vertex 215.06561279296875 176.67262268066406 16.499517440795898
   vertex 220.15924072265625 178.4532470703125 21.239566802978516
   vertex 215.05441284179688 176.67202758789062 16.518449783325195
  endloop
 endfacet
 facet normal 0.23629332997978109 -0.96557134082427076 0.10880003669983827
  outer loop
   vertex 215.05441284179688 176.67202758789062 16.518449783325195
   vertex 220.15924072265625 178.4532470703125 21.239566802978516
   vertex 214.83042907714844 176.66014099121094 16.899410247802734
  endloop
 endfacet
 facet normal 0.23644760089998978 -0.96555562982947873 0.10860413313146873
  outer loop
   vertex 214.83042907714844 176.66014099121094 16.899410247802734
   vertex 220.15924072265625 178.4532470703125 21.239566802978516
   vertex 214.46495056152344 176.64094543457031 17.524452209472656
  endloop
 endfacet
 facet normal 0.23899425723467643 -0.96536961059926241 0.1046100374738189
  outer loop
   vertex 214.46495056152344 176.64094543457031 17.524452209472656
   vertex 220.15924072265625 178.4532470703125 21.239566802978516
   vertex 214.45278930664062 176.64039611816406 17.54716682434082
  endloop
 endfacet
 facet normal 0.23864861748897007 -0.96539569078637222 0.10515701394441698
  outer loop
   vertex 214.45278930664062 176.64039611816406 17.54716682434082
   vertex 220.15924072265625 178.4532470703125 21.239566802978516
   vertex 214.44718933105469 176.64015197753906 17.557634353637695
  endloop
 endfacet
 facet normal 0.23657726451580163 -0.96554203326413779 0.10844251894148761
  outer loop
   vertex 214.44718933105469 176.64015197753906 17.557634353637695
   vertex 220.15924072265625 178.4532470703125 21.239566802978516
   vertex 214.18899536132812 176.62669372558594 18.001079559326172
  endloop
 endfacet
 facet normal 0.25091879063589023 -0.9645747087647194 0.081457913779320434
  outer loop
   vertex 214.18899536132812 176.62669372558594 18.001079559326172
   vertex 220.15924072265625 178.4532470703125 21.239566802978516
   vertex 214.17442321777344 176.62759399414062 18.05662727355957
  endloop
 endfacet
 facet normal 0.24950558856906566 -0.96470662465659662 0.084190792943649909
  outer loop
   vertex 214.17442321777344 176.62759399414062 18.05662727355957
   vertex 220.15924072265625 178.4532470703125 21.239566802978516
   vertex 213.75531005859375 176.645263671875 19.501169204711914
  endloop
 endfacet
 facet normal 0.25411934060149266 -0.96482712886807187 0.067319923740715507
  outer loop
   vertex 213.75531005859375 176.645263671875 19.501169204711914
   vertex 220.15924072265625 178.4532470703125 21.239566802978516
   vertex 213.75221252441406 176.6461181640625 19.525108337402344
  endloop
 endfacet
 facet normal 0.25477291747745512 -0.9648224278738402 0.064872514916982774
  outer loop
   vertex 213.75221252441406 176.6461181640625 19.525108337402344
   vertex 220.15924072265625 178.4532470703125 21.239566802978516
   vertex 213.71340942382812 176.66014099121094 19.886054992675781
  endloop
 endfacet
 facet normal 0.2549164062628933 -0.96482959920243072 0.064198678497990921
  outer loop
   vertex 213.71340942382812 176.66014099121094 19.886054992675781
   vertex 220.15924072265625 178.4532470703125 21.239566802978516
   vertex 213.60748291015625 176.70164489746094 20.930416107177734
  endloop
 endfacet
 facet normal 0.2545510869872098 -0.96451219798724286 0.070142455385077698
  outer loop
   vertex 213.60748291015625 176.70164489746094 20.930416107177734
   vertex 220.15924072265625 178.4532470703125 21.239566802978516
   vertex 213.59663391113281 176.70393371582031 21.001260757446289
  endloop
 endfacet
 facet normal 0.25553910796924617 -0.96549662433553696 0.050160070723286959
  outer loop
   vertex 213.59663391113281 176.70393371582031 21.001260757446289
   vertex 220.15924072265625 178.4532470703125 21.239566802978516
   vertex 213.62483215332031 176.77880859375 22.298820495605469
  endloop
 endfacet
 facet normal 0.25576541574980183 -0.9653508157347569 0.05178662632929782
  outer loop
   vertex 213.62483215332031 176.77880859375 22.298820495605469
   vertex 220.15924072265625 178.4532470703125 21.239566802978516
   vertex 213.62632751464844 176.79006958007812 22.501350402832031
  endloop
 endfacet
 facet normal 0.25245449104870321 -0.96706675471723524 0.0323824315025125
  outer loop
   vertex 213.62632751464844 176.79006958007812 22.501350402832031
   vertex 220.15924072265625 178.4532470703125 21.239566802978516
   vertex 213.83143615722656 176.88121032714844 23.624137878417969
  endloop
 endfacet
 facet normal 0.25098920438773875 -0.96758032569024266 0.028155507773327086
  outer loop
   vertex 213.83143615722656 176.88121032714844 23.624137878417969
   vertex 220.15924072265625 178.4532470703125 21.239566802978516
   vertex 213.91581726074219 176.91407775878906 24.001440048217773
  endloop
 endfacet
 facet normal 0.24305631866443175 -0.96997143905738048 0.0088900714422543107
  outer loop
   vertex 213.91581726074219 176.91407775878906 24.001440048217773
   vertex 220.15924072265625 178.4532470703125 21.239566802978516
   vertex 214.26002502441406 177.00761413574219 24.796230316162109
  endloop
 endfacet
 facet normal 0.2426538420486091 -0.97007845906526013 0.0081790095133113926
  outer loop
   vertex 214.26002502441406 177.00761413574219 24.796230316162109
   vertex 220.15924072265625 178.4532470703125 21.239566802978516
   vertex 214.45278930664062 177.05950927734375 25.232391357421875
  endloop
 endfacet
 facet normal 0.23255164925400904 -0.97255795444145143 -0.0071243022044296719
  outer loop
   vertex 214.45278930664062 177.05950927734375 25.232391357421875
   vertex 220.15924072265625 178.4532470703125 21.239566802978516
   vertex 214.56773376464844 177.08572387695312 25.405784606933594
  endloop
 endfacet
 facet normal 0.23309900815928963 -0.97243228541708437 -0.0063484386790411997
  outer loop
   vertex 214.56773376464844 177.08572387695312 25.405784606933594
   vertex 220.15924072265625 178.4532470703125 21.239566802978516
   vertex 214.63005065917969 177.10003662109375 25.501529693603516
  endloop
 endfacet
 facet normal 0.22331028808570877 -0.97454792593624651 -0.019719413998340811
  outer loop
   vertex 214.63005065917969 177.10003662109375 25.501529693603516
   vertex 220.15924072265625 178.4532470703125 21.239566802978516
   vertex 214.96073913574219 177.16835021972656 25.870265960693359
  endloop
 endfacet
 facet normal 0.22325281360592206 -0.97455971987529655 -0.019787208333240887
  outer loop
   vertex 214.96073913574219 177.16835021972656 25.870265960693359
   vertex 220.15924072265625 178.4532470703125 21.239566802978516
   vertex 215.33169555664062 177.24494934082031 26.282989501953125
  endloop
 endfacet
 facet normal 0.21535474244931385 -0.97614219506163646 -0.027726339910632624
  outer loop
   vertex 215.33169555664062 177.24494934082031 26.282989501953125
   vertex 220.15924072265625 178.4532470703125 21.239566802978516
   vertex 215.99908447265625 177.37509155273438 26.88487434387207
  endloop
 endfacet
 facet normal 0.21359291176562853 -0.97648951935261252 -0.029091006135647666
  outer loop
   vertex 215.99908447265625 177.37509155273438 26.88487434387207
   vertex 220.15924072265625 178.4532470703125 21.239566802978516
   vertex 216.13406372070312 177.40113830566406 27.001619338989258
  endloop
 endfacet
 facet normal 0.21351971195122846 -0.97650392467686564 -0.029144771382569417
  outer loop
   vertex 216.13406372070312 177.40113830566406 27.001619338989258
   vertex 220.15924072265625 178.4532470703125 21.239566802978516
   vertex 216.16096496582031 177.40632629394531 27.024877548217773
  endloop
 endfacet
 facet normal 0.21584117960092716 -0.97604236891448504 -0.027456862025376599
  outer loop
   vertex 216.16096496582031 177.40632629394531 27.024877548217773
   vertex 220.15924072265625 178.4532470703125 21.239566802978516
   vertex 216.21060180664062 177.41603088378906 27.070096969604492
  endloop
 endfacet
 facet normal 0.20068413758618153 -0.9789097020122639 -0.038231822184554377
  outer loop
   vertex 216.21060180664062 177.41603088378906 27.070096969604492
   vertex 220.15924072265625 178.4532470703125 21.239566802978516
   vertex 216.89286804199219 177.53904724121094 27.501625061035156
  endloop
 endfacet
 facet normal 0.19927829770185454 -0.97916646000173424 -0.039002611101351489
  outer loop
   vertex 216.89286804199219 177.53904724121094 27.501625061035156
   vertex 220.15924072265625 178.4532470703125 21.239566802978516
   vertex 217.08950805664062 177.57427978515625 27.621810913085938
  endloop
 endfacet
 facet normal 0.19331732332348278 -0.98023618605210083 -0.0420170448398626
  outer loop
   vertex 217.08950805664062 177.57427978515625 27.621810913085938
   vertex 220.15924072265625 178.4532470703125 21.239566802978516
   vertex 217.13218688964844 177.58172607421875 27.644454956054688
  endloop
 endfacet
 facet normal 0.19817487456521737 -0.97936628891205468 -0.039602919509681707
  outer loop
   vertex 217.13218688964844 177.58172607421875 27.644454956054688
   vertex 220.15924072265625 178.4532470703125 21.239566802978516
   vertex 217.96841430664062 177.73080444335938 28.14232063293457
  endloop
 endfacet
 facet normal 0.17703462715411708 -0.98309591842026089 -0.046702847598690041
  outer loop
   vertex 217.96841430664062 177.73080444335938 28.14232063293457
   vertex 220.15924072265625 178.4532470703125 21.239566802978516
   vertex 218.19783020019531 177.76846313476562 28.219242095947266
  endloop
 endfacet
 facet normal 0.17542120031369821 -0.98336220490227744 -0.047182374359845874
  outer loop
   vertex 218.19783020019531 177.76846313476562 28.219242095947266
   vertex 220.15924072265625 178.4532470703125 21.239566802978516
   vertex 218.84732055664062 177.87442016601562 28.425680160522461
  endloop
 endfacet
 facet normal 0.17217714384331159 -0.98390469040365802 -0.047818315943175642
  outer loop
   vertex 218.84732055664062 177.87442016601562 28.425680160522461
   vertex 220.15924072265625 178.4532470703125 21.239566802978516
   vertex 219.11607360839844 177.91775512695312 28.501710891723633
  endloop
 endfacet
 facet normal 0.17206315670759151 -0.98392376635893108 -0.047836096181382751
  outer loop
   vertex 219.11607360839844 177.91775512695312 28.501710891723633
   vertex 220.15924072265625 178.4532470703125 21.239566802978516
   vertex 219.15916442871094 177.92469787597656 28.51390266418457
  endloop
 endfacet
 facet normal 0.17219182562235513 -0.98390219283886737 -0.047816839248414005
  outer loop
   vertex 219.15916442871094 177.92469787597656 28.51390266418457
   vertex 220.15924072265625 178.4532470703125 21.239566802978516
   vertex 219.24716186523438 177.93888854980469 28.538793563842773
  endloop
 endfacet
 facet normal 0.17596972162519817 -0.98325857348121892 -0.047299415924815985
  outer loop
   vertex 219.24716186523438 177.93888854980469 28.538793563842773
   vertex 220.15924072265625 178.4532470703125 21.239566802978516
   vertex 219.72622680664062 178.01718139648438 28.693527221679688
  endloop
 endfacet
 facet normal 0.16932371301461535 -0.9844029583756484 -0.047752442369117729
  outer loop
   vertex 219.72622680664062 178.01718139648438 28.693527221679688
   vertex 220.15924072265625 178.4532470703125 21.239566802978516
   vertex 220.29521179199219 178.1080322265625 28.838207244873047
  endloop
 endfacet
 facet normal 0.16494705812306215 -0.98514791660604373 -0.047707970228450365
  outer loop
   vertex 220.29521179199219 178.1080322265625 28.838207244873047
   vertex 220.15924072265625 178.4532470703125 21.239566802978516
   vertex 220.60513305664062 178.15676879882812 28.903350830078125
  endloop
 endfacet
 facet normal 0.15318031724504502 -0.98707526370346765 -0.047097921328199302
  outer loop
   vertex 220.60513305664062 178.15676879882812 28.903350830078125
   vertex 220.15924072265625 178.4532470703125 21.239566802978516
   vertex 221.33256530761719 178.2664794921875 28.969926834106445
  endloop
 endfacet
 facet normal 0.14971954774856097 -0.98763039477103209 -0.04658605313161554
  outer loop
   vertex 221.33256530761719 178.2664794921875 28.969926834106445
   vertex 220.15924072265625 178.4532470703125 21.239566802978516
   vertex 221.48403930664062 178.28903198242188 28.978622436523438
  endloop
 endfacet
 facet normal 0.14135709733700177 -0.98892707165009253 -0.045182053849181711
  outer loop
   vertex 221.48403930664062 178.28903198242188 28.978622436523438
   vertex 220.15924072265625 178.4532470703125 21.239566802978516
   vertex 222.3616943359375 178.41563415527344 28.953445434570312
  endloop
 endfacet
 facet normal 0.12760838615242717 -0.99096577990110979 -0.041266485779120059
  outer loop
   vertex 222.3616943359375 178.41563415527344 28.953445434570312
   vertex 220.15924072265625 178.4532470703125 21.239566802978516
   vertex 222.37873840332031 178.41795349121094 28.950454711914062
  endloop
 endfacet
 facet normal 0.12701726998832699 -0.99104877417989212 -0.041096719105613723
  outer loop
   vertex 222.37873840332031 178.41795349121094 28.950454711914062
   vertex 220.15924072265625 178.4532470703125 21.239566802978516
   vertex 223.24185180664062 178.53515625 28.791723251342773
  endloop
 endfacet
 facet normal 0.12282730120311292 -0.99164644424530535 -0.039379991046247405
  outer loop
   vertex 223.24185180664062 178.53515625 28.791723251342773
   vertex 220.15924072265625 178.4532470703125 21.239566802978516
   vertex 223.37704467773438 178.55314636230469 28.7603759765625
  endloop
 endfacet
 facet normal 0.12198885198031038 -0.99176417735602374 -0.039019693820625909
  outer loop
   vertex 223.37704467773438 178.55314636230469 28.7603759765625
   vertex 220.15924072265625 178.4532470703125 21.239566802978516
   vertex 224.12075805664062 178.6517333984375 28.579689025878906
  endloop
 endfacet
endsolid
