solid Visualization Toolkit generated SLA File
 facet normal -0.02231460019534252 0.9762680550736208 -0.21541295982575345
  outer loop
   vertex 237.47015380859375 101.99275970458984 33.001243591308594
   vertex 235.660888671875 101.11778259277344 29.223201751708984
   vertex 237.30435180664062 102.01673126220703 33.127059936523438
  endloop
 endfacet
 facet normal -0.0021705506002536188 0.97469442087261049 -0.22353092544410541
  outer loop
   vertex 237.30435180664062 102.01673126220703 33.127059936523438
   vertex 235.660888671875 101.11778259277344 29.223201751708984
   vertex 237.23318481445312 102.02430725097656 33.160785675048828
  endloop
 endfacet
 facet normal -0.0059789677868409725 0.97500949088671118 -0.2220827427447713
  outer loop
   vertex 237.23318481445312 102.02430725097656 33.160785675048828
   vertex 235.660888671875 101.11778259277344 29.223201751708984
   vertex 236.42544555664062 102.11553955078125 33.58306884765625
  endloop
 endfacet
 facet normal 0.024148092451962859 0.97358597523639145 -0.22704012520683708
  outer loop
   vertex 236.42544555664062 102.11553955078125 33.58306884765625
   vertex 235.660888671875 101.11778259277344 29.223201751708984
   vertex 235.75407409667969 102.16066741943359 33.705177307128906
  endloop
 endfacet
 facet normal 0.025923547831348627 0.97353450235158967 -0.22706506203922799
  outer loop
   vertex 235.75407409667969 102.16066741943359 33.705177307128906
   vertex 235.660888671875 101.11778259277344 29.223201751708984
   vertex 235.54653930664062 102.17412567138672 33.739185333251953
  endloop
 endfacet
 facet normal 0.064021172272757415 0.97207712695307436 -0.22575949316801408
  outer loop
   vertex 235.54653930664062 102.17412567138672 33.739185333251953
   vertex 235.660888671875 101.11778259277344 29.223201751708984
   vertex 234.89599609375 102.18149566650391 33.586437225341797
  endloop
 endfacet
 facet normal 0.058389787905342751 0.97219520310442975 -0.22677548308647849
  outer loop
   vertex 234.89599609375 102.18149566650391 33.586437225341797
   vertex 235.660888671875 101.11778259277344 29.223201751708984
   vertex 234.66763305664062 102.18594360351562 33.546707153320312
  endloop
 endfacet
 facet normal 0.081700467985187875 0.97177374673347627 -0.22131610580927588
  outer loop
   vertex 234.66763305664062 102.18594360351562 33.546707153320312
   vertex 235.660888671875 101.11778259277344 29.223201751708984
   vertex 234.0108642578125 102.17527770996094 33.257423400878906
  endloop
 endfacet
 facet normal 0.074186518566141862 0.97167746702003521 -0.22436412491430907
  outer loop
   vertex 234.0108642578125 102.17527770996094 33.257423400878906
   vertex 235.660888671875 101.11778259277344 29.223201751708984
   vertex 233.78872680664062 102.17445373535156 33.180404663085938
  endloop
 endfacet
 facet normal 0.087628577752156309 0.97198720871520705 -0.21808736427210698
  outer loop
   vertex 233.78872680664062 102.17445373535156 33.180404663085938
   vertex 235.660888671875 101.11778259277344 29.223201751708984
   vertex 233.73797607421875 102.17307281494141 33.153858184814453
  endloop
 endfacet
 facet normal 0.091801229599094841 0.97205395360551117 -0.21606398479151714
  outer loop
   vertex 233.73797607421875 102.17307281494141 33.153858184814453
   vertex 235.660888671875 101.11778259277344 29.223201751708984
   vertex 233.47866821289062 102.16380310058594 33.001979827880859
  endloop
 endfacet
 facet normal 0.091809085903515664 0.97205420462290371 -0.21605951731061235
  outer loop
   vertex 233.47866821289062 102.16380310058594 33.001979827880859
   vertex 235.660888671875 101.11778259277344 29.223201751708984
   vertex 233.06037902832031 102.14885711669922 32.756996154785156
  endloop
 endfacet
 facet normal 0.088054619996390388 0.97180016799766034 -0.21874829685510791
  outer loop
   vertex 233.06037902832031 102.14885711669922 32.756996154785156
   vertex 235.660888671875 101.11778259277344 29.223201751708984
   vertex 232.90982055664062 102.14471435546875 32.677986145019531
  endloop
 endfacet
 facet normal 0.11055916751348435 0.97327711745586898 -0.20126679585942614
  outer loop
   vertex 232.90982055664062 102.14471435546875 32.677986145019531
   vertex 235.660888671875 101.11778259277344 29.223201751708984
   vertex 232.15634155273438 102.07856750488281 31.944217681884766
  endloop
 endfacet
 facet normal 0.10706325405383889 0.97276455182341337 -0.2055883905944032
  outer loop
   vertex 232.15634155273438 102.07856750488281 31.944217681884766
   vertex 235.660888671875 101.11778259277344 29.223201751708984
   vertex 232.03091430664062 102.06928253173828 31.834966659545898
  endloop
 endfacet
 facet normal 0.11620788141669892 0.97421239387154657 -0.19340615275557546
  outer loop
   vertex 232.03091430664062 102.06928253173828 31.834966659545898
   vertex 235.660888671875 101.11778259277344 29.223201751708984
   vertex 231.98974609375 102.06449127197266 31.786096572875977
  endloop
 endfacet
 facet normal 0.12433457581539628 0.97537000792617867 -0.18219292218659769
  outer loop
   vertex 231.98974609375 102.06449127197266 31.786096572875977
   vertex 235.660888671875 101.11778259277344 29.223201751708984
   vertex 231.81292724609375 102.03394317626953 31.501890182495117
  endloop
 endfacet
 facet normal 0.12433468768587508 0.97537002748439683 -0.18219274113735331
  outer loop
   vertex 231.81292724609375 102.03394317626953 31.501890182495117
   vertex 235.660888671875 101.11778259277344 29.223201751708984
   vertex 231.3450927734375 101.95313262939453 30.750003814697266
  endloop
 endfacet
 facet normal 0.12484181635965289 0.97555335320246872 -0.18085954755954176
  outer loop
   vertex 231.3450927734375 101.95313262939453 30.750003814697266
   vertex 235.660888671875 101.11778259277344 29.223201751708984
   vertex 231.15200805664062 101.91840362548828 30.42939567565918
  endloop
 endfacet
 facet normal 0.12584211907701878 0.97605076293301041 -0.17745046983339788
  outer loop
   vertex 231.15200805664062 101.91840362548828 30.42939567565918
   vertex 235.660888671875 101.11778259277344 29.223201751708984
   vertex 230.91545104980469 101.87122344970703 30.002126693725586
  endloop
 endfacet
 facet normal 0.130572949377983 0.97969393864122589 -0.15215285564318723
  outer loop
   vertex 230.91545104980469 101.87122344970703 30.002126693725586
   vertex 235.660888671875 101.11778259277344 29.223201751708984
   vertex 230.65252685546875 101.73188781738281 28.879327774047852
  endloop
 endfacet
 facet normal 0.12993188315173199 0.98169784698869933 -0.13923736193420547
  outer loop
   vertex 230.65252685546875 101.73188781738281 28.879327774047852
   vertex 235.660888671875 101.11778259277344 29.223201751708984
   vertex 230.62007141113281 101.68262481689453 28.501710891723633
  endloop
 endfacet
 facet normal 0.12539950404532599 0.98667443907518559 -0.10367504840054
  outer loop
   vertex 230.62007141113281 101.68262481689453 28.501710891723633
   vertex 235.660888671875 101.11778259277344 29.223201751708984
   vertex 230.90548706054688 101.55934906005859 27.67371940612793
  endloop
 endfacet
 facet normal 0.12667371076314982 0.98607416956277671 -0.10775668481618192
  outer loop
   vertex 230.90548706054688 101.55934906005859 27.67371940612793
   vertex 235.660888671875 101.11778259277344 29.223201751708984
   vertex 231.10054016113281 101.46084594726562 27.001619338989258
  endloop
 endfacet
 facet normal 0.11572377190844549 0.98966137464561088 -0.084725274563389061
  outer loop
   vertex 231.10054016113281 101.46084594726562 27.001619338989258
   vertex 235.660888671875 101.11778259277344 29.223201751708984
   vertex 231.15200805664062 101.44809722900391 26.923002243041992
  endloop
 endfacet
 facet normal 0.11180147304868875 0.99075217999139842 -0.076880091483003649
  outer loop
   vertex 231.15200805664062 101.44809722900391 26.923002243041992
   vertex 235.660888671875 101.11778259277344 29.223201751708984
   vertex 231.23391723632812 101.43097686767578 26.821487426757812
  endloop
 endfacet
 facet normal 0.11181624670965291 0.9907483605913604 -0.076907821171176977
  outer loop
   vertex 231.23391723632812 101.43097686767578 26.821487426757812
   vertex 235.660888671875 101.11778259277344 29.223201751708984
   vertex 231.79054260253906 101.31459808349609 26.131540298461914
  endloop
 endfacet
 facet normal 0.10953598507679273 0.99122270818830227 -0.074023041987642466
  outer loop
   vertex 231.79054260253906 101.31459808349609 26.131540298461914
   vertex 235.660888671875 101.11778259277344 29.223201751708984
   vertex 232.0230712890625 101.26914215087891 25.866937637329102
  endloop
 endfacet
 facet normal 0.10914776823688442 0.99129711299224543 -0.073598902587925494
  outer loop
   vertex 232.0230712890625 101.26914215087891 25.866937637329102
   vertex 235.660888671875 101.11778259277344 29.223201751708984
   vertex 232.03091430664062 101.26761627197266 25.858016967773438
  endloop
 endfacet
 facet normal 0.090581685581673912 0.9944546485706518 -0.05343135945682246
  outer loop
   vertex 232.03091430664062 101.26761627197266 25.858016967773438
   vertex 235.660888671875 101.11778259277344 29.223201751708984
   vertex 232.62489318847656 101.19435882568359 25.501529693603516
  endloop
 endfacet
 facet normal 0.09042758083169769 0.99447544276342781 -0.053305218932209381
  outer loop
   vertex 232.62489318847656 101.19435882568359 25.501529693603516
   vertex 235.660888671875 101.11778259277344 29.223201751708984
   vertex 232.63487243652344 101.19313049316406 25.495542526245117
  endloop
 endfacet
 facet normal 0.090597035976864984 0.99445261184513911 -0.053443239671520155
  outer loop
   vertex 232.63487243652344 101.19313049316406 25.495542526245117
   vertex 235.660888671875 101.11778259277344 29.223201751708984
   vertex 232.8128662109375 101.17117309570312 25.388702392578125
  endloop
 endfacet
 facet normal 0.08390615389801781 0.99529452738977009 -0.048461955037084191
  outer loop
   vertex 232.8128662109375 101.17117309570312 25.388702392578125
   vertex 235.660888671875 101.11778259277344 29.223201751708984
   vertex 232.90982055664062 101.16070556640625 25.341588973999023
  endloop
 endfacet
 facet normal 0.067138567069457186 0.99707366778593698 -0.036558361830898778
  outer loop
   vertex 232.90982055664062 101.16070556640625 25.341588973999023
   vertex 235.660888671875 101.11778259277344 29.223201751708984
   vertex 232.99014282226562 101.15455627441406 25.321386337280273
  endloop
 endfacet
 facet normal 0.071761343494625596 0.99663036926517667 -0.039726774827615309
  outer loop
   vertex 232.99014282226562 101.15455627441406 25.321386337280273
   vertex 235.660888671875 101.11778259277344 29.223201751708984
   vertex 233.78872680664062 101.08720397949219 25.074251174926758
  endloop
 endfacet
 facet normal 0.046822220665632512 0.99849695379233983 -0.028487065825684794
  outer loop
   vertex 233.78872680664062 101.08720397949219 25.074251174926758
   vertex 235.660888671875 101.11778259277344 29.223201751708984
   vertex 233.80110168457031 101.08660888671875 25.073732376098633
  endloop
 endfacet
 facet normal 0.055930055499070402 0.99790348602291945 -0.03256472746970223
  outer loop
   vertex 233.80110168457031 101.08660888671875 25.073732376098633
   vertex 235.660888671875 101.11778259277344 29.223201751708984
   vertex 234.00648498535156 101.07422637939453 25.047033309936523
  endloop
 endfacet
 facet normal 0.055407997294453615 0.99793932438704069 -0.032358286075662789
  outer loop
   vertex 234.00648498535156 101.07422637939453 25.047033309936523
   vertex 235.660888671875 101.11778259277344 29.223201751708984
   vertex 234.63046264648438 101.03705596923828 24.969141006469727
  endloop
 endfacet
 facet normal 0.062158503970195518 0.99748751951064141 -0.033984831979792803
  outer loop
   vertex 234.63046264648438 101.03705596923828 24.969141006469727
   vertex 235.660888671875 101.11778259277344 29.223201751708984
   vertex 234.66763305664062 101.03449249267578 24.961885452270508
  endloop
 endfacet
 facet normal 0.037180918114764594 0.99891083841347483 -0.02819071173688309
  outer loop
   vertex 234.66763305664062 101.03449249267578 24.961885452270508
   vertex 235.660888671875 101.11778259277344 29.223201751708984
   vertex 235.47785949707031 101.00554656982422 25.004827499389648
  endloop
 endfacet
 facet normal 0.041844575604014868 0.99872075813807326 -0.028388003745106263
  outer loop
   vertex 235.47785949707031 101.00554656982422 25.004827499389648
   vertex 235.660888671875 101.11778259277344 29.223201751708984
   vertex 235.54653930664062 101.002685546875 25.005409240722656
  endloop
 endfacet
 facet normal 0.019768788861286531 0.99941777101277796 -0.027808523348220364
  outer loop
   vertex 235.54653930664062 101.002685546875 25.005409240722656
   vertex 235.660888671875 101.11778259277344 29.223201751708984
   vertex 236.34295654296875 100.99173736572266 25.178104400634766
  endloop
 endfacet
 facet normal 0.021130271381255929 0.99939629264305996 -0.027578286434474061
  outer loop
   vertex 236.34295654296875 100.99173736572266 25.178104400634766
   vertex 235.660888671875 101.11778259277344 29.223201751708984
   vertex 236.42544555664062 100.99045562744141 25.194858551025391
  endloop
 endfacet
 facet normal 0.015730302689839812 0.99946700214500139 -0.028605405093614433
  outer loop
   vertex 236.42544555664062 100.99045562744141 25.194858551025391
   vertex 235.660888671875 101.11778259277344 29.223201751708984
   vertex 237.21397399902344 100.98384094238281 25.397359848022461
  endloop
 endfacet
 facet normal 0.0024781696137148798 0.99941932545906187 -0.033983386739986743
  outer loop
   vertex 237.21397399902344 100.98384094238281 25.397359848022461
   vertex 235.660888671875 101.11778259277344 29.223201751708984
   vertex 237.30435180664062 100.98485565185547 25.433792114257812
  endloop
 endfacet
 facet normal -0.009487806312158658 0.99918771640571502 -0.039164893914260618
  outer loop
   vertex 237.30435180664062 100.98485565185547 25.433792114257812
   vertex 235.660888671875 101.11778259277344 29.223201751708984
   vertex 237.42727661132812 100.98867797851562 25.501529693603516
  endloop
 endfacet
 facet normal -0.0095463960045795368 0.99918607021866435 -0.039192644773044481
  outer loop
   vertex 237.42727661132812 100.98867797851562 25.501529693603516
   vertex 235.660888671875 101.11778259277344 29.223201751708984
   vertex 237.47279357910156 100.99009704589844 25.526620864868164
  endloop
 endfacet
 facet normal -0.009481427217029376 0.99918793489861812 -0.039160864277528414
  outer loop
   vertex 237.47279357910156 100.99009704589844 25.526620864868164
   vertex 235.660888671875 101.11778259277344 29.223201751708984
   vertex 238.11921691894531 101.01019287109375 25.882856369018555
  endloop
 endfacet
 facet normal -0.023880446237211295 0.99847692083950623 -0.049734925740070025
  outer loop
   vertex 238.11921691894531 101.01019287109375 25.882856369018555
   vertex 235.660888671875 101.11778259277344 29.223201751708984
   vertex 238.18325805664062 101.01425170898438 25.933591842651367
  endloop
 endfacet
 facet normal -0.034419106220249449 0.99773512317980739 -0.057792292741971452
  outer loop
   vertex 238.18325805664062 101.01425170898438 25.933591842651367
   vertex 235.660888671875 101.11778259277344 29.223201751708984
   vertex 238.82626342773438 101.07422637939453 26.586051940917969
  endloop
 endfacet
 facet normal -0.03571636380716206 0.99759824541642395 -0.059347132184013454
  outer loop
   vertex 238.82626342773438 101.07422637939453 26.586051940917969
   vertex 235.660888671875 101.11778259277344 29.223201751708984
   vertex 239.06216430664062 101.09745788574219 26.834592819213867
  endloop
 endfacet
 facet normal -0.049212105867945742 0.99569490055680299 -0.078548288595106999
  outer loop
   vertex 239.06216430664062 101.09745788574219 26.834592819213867
   vertex 235.660888671875 101.11778259277344 29.223201751708984
   vertex 239.06846618652344 101.09859466552734 26.845054626464844
  endloop
 endfacet
 facet normal -0.049051980466019017 0.99572085857708836 -0.07831905902695363
  outer loop
   vertex 239.06846618652344 101.09859466552734 26.845054626464844
   vertex 235.660888671875 101.11778259277344 29.223201751708984
   vertex 239.16276550292969 101.11555480957031 27.001619338989258
  endloop
 endfacet
 facet normal -0.056396501406585968 0.99435323281016552 -0.089894844285251893
  outer loop
   vertex 239.16276550292969 101.11555480957031 27.001619338989258
   vertex 235.660888671875 101.11778259277344 29.223201751708984
   vertex 239.68739318847656 101.2532958984375 28.196083068847656
  endloop
 endfacet
 facet normal -0.056389609500869596 0.99435610002661767 -0.089867448390362648
  outer loop
   vertex 239.68739318847656 101.2532958984375 28.196083068847656
   vertex 235.660888671875 101.11778259277344 29.223201751708984
   vertex 239.82173156738281 101.28853607177734 28.501710891723633
  endloop
 endfacet
 facet normal -0.065456991976278009 0.98744018926969046 -0.14379587899677529
  outer loop
   vertex 239.82173156738281 101.28853607177734 28.501710891723633
   vertex 235.660888671875 101.11778259277344 29.223201751708984
   vertex 239.72503662109375 101.41570281982422 29.418975830078125
  endloop
 endfacet
 facet normal -0.065310575497041515 0.98708315607013886 -0.1462920767877019
  outer loop
   vertex 239.72503662109375 101.41570281982422 29.418975830078125
   vertex 235.660888671875 101.11778259277344 29.223201751708984
   vertex 239.64976501464844 101.49710083007812 30.001800537109375
  endloop
 endfacet
 facet normal -0.058250850115340105 0.98194798078620427 -0.17995833265157873
  outer loop
   vertex 239.64976501464844 101.49710083007812 30.001800537109375
   vertex 235.660888671875 101.11778259277344 29.223201751708984
   vertex 239.26541137695312 101.6207275390625 30.800785064697266
  endloop
 endfacet
 facet normal -0.05814393156084971 0.98191164196340464 -0.18019103917614143
  outer loop
   vertex 239.26541137695312 101.6207275390625 30.800785064697266
   vertex 235.660888671875 101.11778259277344 29.223201751708984
   vertex 239.06216430664062 101.68577575683594 31.220834732055664
  endloop
 endfacet
 facet normal -0.051655082461133983 0.98027402298080268 -0.1907736677976454
  outer loop
   vertex 239.06216430664062 101.68577575683594 31.220834732055664
   vertex 235.660888671875 101.11778259277344 29.223201751708984
   vertex 238.98214721679688 101.70615386962891 31.347211837768555
  endloop
 endfacet
 facet normal -0.051494059810529819 0.98023553816222297 -0.19101479400309948
  outer loop
   vertex 238.98214721679688 101.70615386962891 31.347211837768555
   vertex 235.660888671875 101.11778259277344 29.223201751708984
   vertex 238.88357543945312 101.73111724853516 31.501890182495117
  endloop
 endfacet
 facet normal -0.04650104119750232 0.97914243539274048 -0.19778206283867361
  outer loop
   vertex 238.88357543945312 101.73111724853516 31.501890182495117
   vertex 235.660888671875 101.11778259277344 29.223201751708984
   vertex 238.23652648925781 101.87434387207031 32.363079071044922
  endloop
 endfacet
 facet normal -0.047001072439922333 0.97919859835009748 -0.19738542038028412
  outer loop
   vertex 238.23652648925781 101.87434387207031 32.363079071044922
   vertex 235.660888671875 101.11778259277344 29.223201751708984
   vertex 238.18325805664062 101.88623809814453 32.434768676757812
  endloop
 endfacet
 facet normal -0.03143475793159408 0.97737297291038761 -0.20917439570390248
  outer loop
   vertex 238.18325805664062 101.88623809814453 32.434768676757812
   vertex 235.660888671875 101.11778259277344 29.223201751708984
   vertex 238.13032531738281 101.89516448974609 32.484432220458984
  endloop
 endfacet
 facet normal -0.024665804325876416 0.97650196526878874 -0.21409229300269261
  outer loop
   vertex 238.13032531738281 101.89516448974609 32.484432220458984
   vertex 235.660888671875 101.11778259277344 29.223201751708984
   vertex 237.74418640136719 101.95313262939453 32.793319702148438
  endloop
 endfacet
 facet normal -0.022282221758534903 0.97626550355771857 -0.21542787460469845
  outer loop
   vertex 237.74418640136719 101.95313262939453 32.793319702148438
   vertex 235.660888671875 101.11778259277344 29.223201751708984
   vertex 237.47015380859375 101.99275970458984 33.001243591308594
  endloop
 endfacet
endsolid
