solid Visualization Toolkit generated SLA File
 facet normal -0.018353055582773198 0.97514442126748213 -0.22080879289938357
  outer loop
   vertex 212.06103515625 103.30712127685547 34.687168121337891
   vertex 210.60667419433594 102.41508483886719 30.86860466003418
   vertex 211.81608581542969 103.33955383300781 34.850757598876953
  endloop
 endfacet
 facet normal 0.0035400717056227435 0.97385153814301439 -0.22715776356709477
  outer loop
   vertex 211.81608581542969 103.33955383300781 34.850757598876953
   vertex 210.60667419433594 102.41508483886719 30.86860466003418
   vertex 211.47718811035156 103.37203216552734 34.984714508056641
  endloop
 endfacet
 facet normal 0.012399471145620596 0.97336657471577936 -0.22891868499836343
  outer loop
   vertex 211.47718811035156 103.37203216552734 34.984714508056641
   vertex 210.60667419433594 102.41508483886719 30.86860466003418
   vertex 210.93717956542969 103.41672515869141 35.145500183105469
  endloop
 endfacet
 facet normal 0.025237850029216833 0.97290969110117131 -0.22980379432752193
  outer loop
   vertex 210.93717956542969 103.41672515869141 35.145500183105469
   vertex 210.60667419433594 102.41508483886719 30.86860466003418
   vertex 210.66093444824219 103.43470001220703 35.191261291503906
  endloop
 endfacet
 facet normal 0.033946888159676114 0.97263427676516057 -0.22984815084265434
  outer loop
   vertex 210.66093444824219 103.43470001220703 35.191261291503906
   vertex 210.60667419433594 102.41508483886719 30.86860466003418
   vertex 210.05827331542969 103.46678161621094 35.238010406494141
  endloop
 endfacet
 facet normal 0.048813628291328889 0.97245124052926768 -0.22793818128195237
  outer loop
   vertex 210.05827331542969 103.46678161621094 35.238010406494141
   vertex 210.60667419433594 102.41508483886719 30.86860466003418
   vertex 209.8218994140625 103.47457122802734 35.220623016357422
  endloop
 endfacet
 facet normal 0.058363593497653445 0.97233374516357729 -0.22618748632542016
  outer loop
   vertex 209.8218994140625 103.47457122802734 35.220623016357422
   vertex 210.60667419433594 102.41508483886719 30.86860466003418
   vertex 209.17936706542969 103.48703002929688 35.108386993408203
  endloop
 endfacet
 facet normal 0.077743673552570461 0.97246559326014237 -0.21969658883958715
  outer loop
   vertex 209.17936706542969 103.48703002929688 35.108386993408203
   vertex 210.60667419433594 102.41508483886719 30.86860466003418
   vertex 208.95289611816406 103.48446655273438 35.016899108886719
  endloop
 endfacet
 facet normal 0.077393849797187622 0.97246217900418797 -0.21983517102592426
  outer loop
   vertex 208.95289611816406 103.48446655273438 35.016899108886719
   vertex 210.60667419433594 102.41508483886719 30.86860466003418
   vertex 208.30046081542969 103.47740173339844 34.755954742431641
  endloop
 endfacet
 facet normal 0.094291755912298159 0.97314460013919624 -0.20999679042047131
  outer loop
   vertex 208.30046081542969 103.47740173339844 34.755954742431641
   vertex 210.60667419433594 102.41508483886719 30.86860466003418
   vertex 208.10073852539062 103.46823120117188 34.623779296875
  endloop
 endfacet
 facet normal 0.093724546145238466 0.97311918059537716 -0.21036817679309491
  outer loop
   vertex 208.10073852539062 103.46823120117188 34.623779296875
   vertex 210.60667419433594 102.41508483886719 30.86860466003418
   vertex 207.9140625 103.45989990234375 34.502071380615234
  endloop
 endfacet
 facet normal 0.093783547807526485 0.97312272690925761 -0.21032547285890971
  outer loop
   vertex 207.9140625 103.45989990234375 34.502071380615234
   vertex 210.60667419433594 102.41508483886719 30.86860466003418
   vertex 207.85037231445312 103.45706176757812 34.460540771484375
  endloop
 endfacet
 facet normal 0.094234478309391231 0.97315205478863098 -0.20998795526987282
  outer loop
   vertex 207.85037231445312 103.45706176757812 34.460540771484375
   vertex 210.60667419433594 102.41508483886719 30.86860466003418
   vertex 207.42155456542969 103.43738555908203 34.176918029785156
  endloop
 endfacet
 facet normal 0.11171126345508199 0.97469223809111638 -0.193637895625313
  outer loop
   vertex 207.42155456542969 103.43738555908203 34.176918029785156
   vertex 210.60667419433594 102.41508483886719 30.86860466003418
   vertex 207.11544799804688 103.40483093261719 33.836456298828125
  endloop
 endfacet
 facet normal 0.11140557570844753 0.97465799245483042 -0.19398607023440925
  outer loop
   vertex 207.11544799804688 103.40483093261719 33.836456298828125
   vertex 210.60667419433594 102.41508483886719 30.86860466003418
   vertex 206.54264831542969 103.34474182128906 33.205589294433594
  endloop
 endfacet
 facet normal 0.12070181070056939 0.97649894033815199 -0.17855221200553745
  outer loop
   vertex 206.54264831542969 103.34474182128906 33.205589294433594
   vertex 210.60667419433594 102.41508483886719 30.86860466003418
   vertex 206.50936889648438 103.33878326416016 33.150505065917969
  endloop
 endfacet
 facet normal 0.12065381756477697 0.97648978828213207 -0.17863468220858564
  outer loop
   vertex 206.50936889648438 103.33878326416016 33.150505065917969
   vertex 210.60667419433594 102.41508483886719 30.86860466003418
   vertex 206.41963195800781 103.32270050048828 33.001979827880859
  endloop
 endfacet
 facet normal 0.12326906549887322 0.97704636831522396 -0.17373868784201871
  outer loop
   vertex 206.41963195800781 103.32270050048828 33.001979827880859
   vertex 210.60667419433594 102.41508483886719 30.86860466003418
   vertex 206.05079650878906 103.24415588378906 32.298580169677734
  endloop
 endfacet
 facet normal 0.12400065650903097 0.97733596939460377 -0.17157575619194915
  outer loop
   vertex 206.05079650878906 103.24415588378906 32.298580169677734
   vertex 210.60667419433594 102.41508483886719 30.86860466003418
   vertex 205.68721008300781 103.16078186035156 31.560892105102539
  endloop
 endfacet
 facet normal 0.12401227287637949 0.9773469146451258 -0.17150499878921088
  outer loop
   vertex 205.68721008300781 103.16078186035156 31.560892105102539
   vertex 210.60667419433594 102.41508483886719 30.86860466003418
   vertex 205.66374206542969 103.15540313720703 31.513271331787109
  endloop
 endfacet
 facet normal 0.12395550608859764 0.97728928024493555 -0.17187406793537924
  outer loop
   vertex 205.66374206542969 103.15540313720703 31.513271331787109
   vertex 210.60667419433594 102.41508483886719 30.86860466003418
   vertex 205.65812683105469 103.15411376953125 31.501890182495117
  endloop
 endfacet
 facet normal 0.13049237275703215 0.9831930350798227 -0.12768397089206723
  outer loop
   vertex 205.65812683105469 103.15411376953125 31.501890182495117
   vertex 210.60667419433594 102.41508483886719 30.86860466003418
   vertex 205.66374206542969 103.13797760009766 31.383377075195312
  endloop
 endfacet
 facet normal 0.13049087526600825 0.9831916237613646 -0.12769636814648422
  outer loop
   vertex 205.66374206542969 103.13797760009766 31.383377075195312
   vertex 210.60667419433594 102.41508483886719 30.86860466003418
   vertex 205.67796325683594 103.0970458984375 31.082757949829102
  endloop
 endfacet
 facet normal 0.13049117461038698 0.9831922286345014 -0.12769140496338729
  outer loop
   vertex 205.67796325683594 103.0970458984375 31.082757949829102
   vertex 210.60667419433594 102.41508483886719 30.86860466003418
   vertex 205.71672058105469 102.98554229736328 30.263814926147461
  endloop
 endfacet
 facet normal 0.13072348089769814 0.98287626238089532 -0.12986771881476375
  outer loop
   vertex 205.71672058105469 102.98554229736328 30.263814926147461
   vertex 210.60667419433594 102.41508483886719 30.86860466003418
   vertex 205.72247314453125 102.95015716552734 30.001800537109375
  endloop
 endfacet
 facet normal 0.124177087108262 0.98819771888543573 -0.08969570461805132
  outer loop
   vertex 205.72247314453125 102.95015716552734 30.001800537109375
   vertex 210.60667419433594 102.41508483886719 30.86860466003418
   vertex 205.80320739746094 102.92601776123047 29.847621917724609
  endloop
 endfacet
 facet normal 0.12337543113296179 0.98865294533024306 -0.085696304952963334
  outer loop
   vertex 205.80320739746094 102.92601776123047 29.847621917724609
   vertex 210.60667419433594 102.41508483886719 30.86860466003418
   vertex 206.14555358886719 102.83203125 29.256196975708008
  endloop
 endfacet
 facet normal 0.12294367576637406 0.98881307817814545 -0.084460339881588423
  outer loop
   vertex 206.14555358886719 102.83203125 29.256196975708008
   vertex 210.60667419433594 102.41508483886719 30.86860466003418
   vertex 206.47140502929688 102.74494934082031 28.711013793945312
  endloop
 endfacet
 facet normal 0.12225724076704589 0.98901222771576525 -0.083114261764919692
  outer loop
   vertex 206.47140502929688 102.74494934082031 28.711013793945312
   vertex 210.60667419433594 102.41508483886719 30.86860466003418
   vertex 206.54264831542969 102.72647857666016 28.596017837524414
  endloop
 endfacet
 facet normal 0.11182530100821804 0.99165858693519993 -0.064096404049710523
  outer loop
   vertex 206.54264831542969 102.72647857666016 28.596017837524414
   vertex 210.60667419433594 102.41508483886719 30.86860466003418
   vertex 206.57803344726562 102.72019195556641 28.560489654541016
  endloop
 endfacet
 facet normal 0.10975713936003879 0.99212001220226786 -0.060425588514078268
  outer loop
   vertex 206.57803344726562 102.72019195556641 28.560489654541016
   vertex 210.60667419433594 102.41508483886719 30.86860466003418
   vertex 206.64146423339844 102.7095947265625 28.501710891723633
  endloop
 endfacet
 facet normal 0.10943237768832144 0.99218939316269072 -0.059872888763881846
  outer loop
   vertex 206.64146423339844 102.7095947265625 28.501710891723633
   vertex 210.60667419433594 102.41508483886719 30.86860466003418
   vertex 207.26708984375 102.60607147216797 27.929649353027344
  endloop
 endfacet
 facet normal 0.11295988718076715 0.99154115651299413 -0.063923382490153086
  outer loop
   vertex 207.26708984375 102.60607147216797 27.929649353027344
   vertex 210.60667419433594 102.41508483886719 30.86860466003418
   vertex 207.42155456542969 102.57830810546875 27.771957397460938
  endloop
 endfacet
 facet normal 0.098950546379579951 0.99386583256202732 -0.049391256685479591
  outer loop
   vertex 207.42155456542969 102.57830810546875 27.771957397460938
   vertex 210.60667419433594 102.41508483886719 30.86860466003418
   vertex 207.97337341308594 102.50494384765625 27.401214599609375
  endloop
 endfacet
 facet normal 0.099147768943378609 0.99383868704914535 -0.049541740360843134
  outer loop
   vertex 207.97337341308594 102.50494384765625 27.401214599609375
   vertex 210.60667419433594 102.41508483886719 30.86860466003418
   vertex 208.30046081542969 102.46129608154297 27.180212020874023
  endloop
 endfacet
 facet normal 0.090761999474016877 0.99488746711042531 -0.044285293699837573
  outer loop
   vertex 208.30046081542969 102.46129608154297 27.180212020874023
   vertex 210.60667419433594 102.41508483886719 30.86860466003418
   vertex 208.50778198242188 102.43740081787109 27.068296432495117
  endloop
 endfacet
 facet normal 0.092727753732299925 0.99465718517495172 -0.045372322704524203
  outer loop
   vertex 208.50778198242188 102.43740081787109 27.068296432495117
   vertex 210.60667419433594 102.41508483886719 30.86860466003418
   vertex 208.624755859375 102.42345428466797 27.001619338989258
  endloop
 endfacet
 facet normal 0.092770266080560215 0.99465222636878503 -0.045394121986895408
  outer loop
   vertex 208.624755859375 102.42345428466797 27.001619338989258
   vertex 210.60667419433594 102.41508483886719 30.86860466003418
   vertex 208.96611022949219 102.38273620605469 26.807039260864258
  endloop
 endfacet
 facet normal 0.090368160737969341 0.99491704645823875 -0.044425963035723097
  outer loop
   vertex 208.96611022949219 102.38273620605469 26.807039260864258
   vertex 210.60667419433594 102.41508483886719 30.86860466003418
   vertex 209.17936706542969 102.35826110839844 26.692712783813477
  endloop
 endfacet
 facet normal 0.079154825905949217 0.9960348709052429 -0.040608490203094462
  outer loop
   vertex 209.17936706542969 102.35826110839844 26.692712783813477
   vertex 210.60667419433594 102.41508483886719 30.86860466003418
   vertex 209.5491943359375 102.32295227050781 26.547540664672852
  endloop
 endfacet
 facet normal 0.075345203153044091 0.99636757205670057 -0.039683267451937461
  outer loop
   vertex 209.5491943359375 102.32295227050781 26.547540664672852
   vertex 210.60667419433594 102.41508483886719 30.86860466003418
   vertex 210.05827331542969 102.27740478515625 26.370504379272461
  endloop
 endfacet
 facet normal 0.048617447325918599 0.99815109465951346 -0.036479255002353571
  outer loop
   vertex 210.05827331542969 102.27740478515625 26.370504379272461
   vertex 210.60667419433594 102.41508483886719 30.86860466003418
   vertex 210.36683654785156 102.26169586181641 26.351909637451172
  endloop
 endfacet
 facet normal 0.044084358044760609 0.99837007069896611 -0.036245983340543728
  outer loop
   vertex 210.36683654785156 102.26169586181641 26.351909637451172
   vertex 210.60667419433594 102.41508483886719 30.86860466003418
   vertex 210.93717956542969 102.23622894287109 26.344123840332031
  endloop
 endfacet
 facet normal 0.0092794556302461355 0.99920307971380895 -0.03882134971437675
  outer loop
   vertex 210.93717956542969 102.23622894287109 26.344123840332031
   vertex 210.60667419433594 102.41508483886719 30.86860466003418
   vertex 211.22152709960938 102.23748016357422 26.444295883178711
  endloop
 endfacet
 facet normal 0.0080050445231595723 0.99920719910845646 -0.038998621924570709
  outer loop
   vertex 211.22152709960938 102.23748016357422 26.444295883178711
   vertex 210.60667419433594 102.41508483886719 30.86860466003418
   vertex 211.81608581542969 102.2412109375 26.66192626953125
  endloop
 endfacet
 facet normal -0.004275721267877875 0.99908628278099809 -0.04252431970634097
  outer loop
   vertex 211.81608581542969 102.2412109375 26.66192626953125
   vertex 210.60667419433594 102.41508483886719 30.86860466003418
   vertex 212.11190795898438 102.24895477294922 26.814119338989258
  endloop
 endfacet
 facet normal -0.010435977915293066 0.99894122361665083 -0.044805380527562735
  outer loop
   vertex 212.11190795898438 102.24895477294922 26.814119338989258
   vertex 210.60667419433594 102.41508483886719 30.86860466003418
   vertex 212.16964721679688 102.25110626220703 26.848638534545898
  endloop
 endfacet
 facet normal -0.010513212549969753 0.99893907035841101 -0.044835321715727183
  outer loop
   vertex 212.16964721679688 102.25110626220703 26.848638534545898
   vertex 210.60667419433594 102.41508483886719 30.86860466003418
   vertex 212.42556762695312 102.26066589355469 27.001619338989258
  endloop
 endfacet
 facet normal -0.010509699117415556 0.99893918130202297 -0.044833673551311209
  outer loop
   vertex 212.42556762695312 102.26066589355469 27.001619338989258
   vertex 210.60667419433594 102.41508483886719 30.86860466003418
   vertex 212.69499206542969 102.27072906494141 27.162679672241211
  endloop
 endfacet
 facet normal -0.021576268653438781 0.9984629374254701 -0.051051221520117804
  outer loop
   vertex 212.69499206542969 102.27072906494141 27.162679672241211
   vertex 210.60667419433594 102.41508483886719 30.86860466003418
   vertex 212.71891784667969 102.27219390869141 27.181217193603516
  endloop
 endfacet
 facet normal -0.021476884155891749 0.99846797935074505 -0.050994486547024459
  outer loop
   vertex 212.71891784667969 102.27219390869141 27.181217193603516
   vertex 210.60667419433594 102.41508483886719 30.86860466003418
   vertex 213.03324890136719 102.29138946533203 27.424680709838867
  endloop
 endfacet
 facet normal -0.032281519725129985 0.99776051999266668 -0.058581978698226962
  outer loop
   vertex 213.03324890136719 102.29138946533203 27.424680709838867
   vertex 210.60667419433594 102.41508483886719 30.86860466003418
   vertex 213.57389831542969 102.34053039550781 27.963718414306641
  endloop
 endfacet
 facet normal -0.039979727322944442 0.99699009983792719 -0.066425614248894191
  outer loop
   vertex 213.57389831542969 102.34053039550781 27.963718414306641
   vertex 210.60667419433594 102.41508483886719 30.86860466003418
   vertex 213.88973999023438 102.37905120849609 28.351785659790039
  endloop
 endfacet
 facet normal -0.047149113072875767 0.9960104534109252 -0.07576369732665085
  outer loop
   vertex 213.88973999023438 102.37905120849609 28.351785659790039
   vertex 210.60667419433594 102.41508483886719 30.86860466003418
   vertex 213.98631286621094 102.39502716064453 28.501710891723633
  endloop
 endfacet
 facet normal -0.054877113541360614 0.99471425830085203 -0.08678736510780008
  outer loop
   vertex 213.98631286621094 102.39502716064453 28.501710891723633
   vertex 210.60667419433594 102.41508483886719 30.86860466003418
   vertex 214.28515625 102.46601867675781 29.12641716003418
  endloop
 endfacet
 facet normal -0.059109331223682254 0.99364841031859708 -0.09575449667568732
  outer loop
   vertex 214.28515625 102.46601867675781 29.12641716003418
   vertex 210.60667419433594 102.41508483886719 30.86860466003418
   vertex 214.34463500976562 102.48508453369141 29.287548065185547
  endloop
 endfacet
 facet normal -0.056771501745746626 0.99430441024331961 -0.090198316836940851
  outer loop
   vertex 214.34463500976562 102.48508453369141 29.287548065185547
   vertex 210.60667419433594 102.41508483886719 30.86860466003418
   vertex 214.45278930664062 102.51384735107422 29.536542892456055
  endloop
 endfacet
 facet normal -0.059799446725515341 0.99328735656630873 -0.099016430236789368
  outer loop
   vertex 214.45278930664062 102.51384735107422 29.536542892456055
   vertex 210.60667419433594 102.41508483886719 30.86860466003418
   vertex 214.6082763671875 102.56958770751953 30.001800537109375
  endloop
 endfacet
 facet normal -0.068435202824957658 0.98780339844261167 -0.13986089174438229
  outer loop
   vertex 214.6082763671875 102.56958770751953 30.001800537109375
   vertex 210.60667419433594 102.41508483886719 30.86860466003418
   vertex 214.54376220703125 102.70248413085938 30.971982955932617
  endloop
 endfacet
 facet normal -0.068415043199332171 0.98772628464249501 -0.14041427452494543
  outer loop
   vertex 214.54376220703125 102.70248413085938 30.971982955932617
   vertex 210.60667419433594 102.41508483886719 30.86860466003418
   vertex 214.50578308105469 102.77518463134766 31.501890182495117
  endloop
 endfacet
 facet normal -0.061193155366815424 0.98151356477460339 -0.18134640856577047
  outer loop
   vertex 214.50578308105469 102.77518463134766 31.501890182495117
   vertex 210.60667419433594 102.41508483886719 30.86860466003418
   vertex 214.45278930664062 102.79221343994141 31.6119384765625
  endloop
 endfacet
 facet normal -0.061695265651884365 0.98192095596455753 -0.17895510731407749
  outer loop
   vertex 214.45278930664062 102.79221343994141 31.6119384765625
   vertex 210.60667419433594 102.41508483886719 30.86860466003418
   vertex 214.41050720214844 102.80648040771484 31.704797744750977
  endloop
 endfacet
 facet normal -0.060820042829800768 0.98129612429050961 -0.18264402219236678
  outer loop
   vertex 214.41050720214844 102.80648040771484 31.704797744750977
   vertex 210.60667419433594 102.41508483886719 30.86860466003418
   vertex 214.32890319824219 102.83203125 31.86924934387207
  endloop
 endfacet
 facet normal -0.060980616133522625 0.98138989687013978 -0.18208578960806454
  outer loop
   vertex 214.32890319824219 102.83203125 31.86924934387207
   vertex 210.60667419433594 102.41508483886719 30.86860466003418
   vertex 213.84642028808594 102.98483276367188 32.854389190673828
  endloop
 endfacet
 facet normal -0.056160882475436769 0.98024970798942235 -0.1896219008085101
  outer loop
   vertex 213.84642028808594 102.98483276367188 32.854389190673828
   vertex 210.60667419433594 102.41508483886719 30.86860466003418
   vertex 213.7589111328125 103.00836944580078 33.001979827880859
  endloop
 endfacet
 facet normal -0.051417967507333892 0.97918787568203547 -0.19633465495097277
  outer loop
   vertex 213.7589111328125 103.00836944580078 33.001979827880859
   vertex 210.60667419433594 102.41508483886719 30.86860466003418
   vertex 213.68695068359375 103.02532958984375 33.105411529541016
  endloop
 endfacet
 facet normal -0.057939429505694508 0.98051307207918115 -0.18771557737812097
  outer loop
   vertex 213.68695068359375 103.02532958984375 33.105411529541016
   vertex 210.60667419433594 102.41508483886719 30.86860466003418
   vertex 213.57389831542969 103.05713653564453 33.306446075439453
  endloop
 endfacet
 facet normal -0.045034965321916948 0.97818229220085684 -0.20280841975404137
  outer loop
   vertex 213.57389831542969 103.05713653564453 33.306446075439453
   vertex 210.60667419433594 102.41508483886719 30.86860466003418
   vertex 213.0316162109375 103.16864776611328 33.964702606201172
  endloop
 endfacet
 facet normal -0.037715535164659329 0.97733032176752055 -0.20833382001258988
  outer loop
   vertex 213.0316162109375 103.16864776611328 33.964702606201172
   vertex 210.60667419433594 102.41508483886719 30.86860466003418
   vertex 212.69499206542969 103.22958374023438 34.311504364013672
  endloop
 endfacet
 facet normal -0.018800496460678391 0.97546174349621406 -0.21936482924151332
  outer loop
   vertex 212.69499206542969 103.22958374023438 34.311504364013672
   vertex 210.60667419433594 102.41508483886719 30.86860466003418
   vertex 212.51513671875 103.2537841796875 34.434532165527344
  endloop
 endfacet
 facet normal -0.010056911761211883 0.97457498574168577 -0.22383577840108604
  outer loop
   vertex 212.51513671875 103.2537841796875 34.434532165527344
   vertex 210.60667419433594 102.41508483886719 30.86860466003418
   vertex 212.39373779296875 103.26804351806641 34.502071380615234
  endloop
 endfacet
 facet normal -0.010059523924624203 0.97457524014110664 -0.22383455336992542
  outer loop
   vertex 212.39373779296875 103.26804351806641 34.502071380615234
   vertex 210.60667419433594 102.41508483886719 30.86860466003418
   vertex 212.06103515625 103.30712127685547 34.687168121337891
  endloop
 endfacet
endsolid
