# Blender v2.69 (sub 0) OBJ File: ''
# www.blender.org
o Cylinder.001_Cylinder.017
v 0.085136 -0.052458 0.659663
v 0.083575 -0.054911 0.654641
v 0.086626 -0.049960 0.654641
v 0.095705 -0.028994 0.624726
v 0.094793 -0.031849 0.620000
v 0.096565 -0.025984 0.629583
v 0.097307 -0.023051 0.634556
v 0.089383 -0.044840 0.654641
v 0.091839 -0.039568 0.654641
v 0.093984 -0.034162 0.654641
v 0.095811 -0.028641 0.654641
v 0.097941 -0.020187 0.639576
v 0.098487 -0.017327 0.644598
v 0.097942 -0.020183 0.649620
v 0.097314 -0.023023 0.654641
v 0.086626 -0.049960 0.664684
v 0.088042 -0.047420 0.669706
v 0.089383 -0.044840 0.674728
v 0.090650 -0.042221 0.679751
v 0.091839 -0.039566 0.684778
v 0.094935 -0.031422 0.689833
v 0.092954 -0.036873 0.689836
v 0.098950 -0.014455 0.679751
v 0.097942 -0.020184 0.679750
v 0.097313 -0.023025 0.684777
v 0.096598 -0.025861 0.689832
v 0.100000 0.000034 0.684777
v 0.099957 0.002934 0.689833
v 0.099832 0.005785 0.694971
v 0.099959 -0.002873 0.679751
v 0.099623 -0.008679 0.679751
v 0.099880 0.004990 0.697960
v 0.093141 -0.036397 0.617548
v 0.091762 -0.039746 0.613612
v 0.088909 -0.045773 0.600829
v 0.087239 -0.048881 0.594709
v 0.085459 -0.051930 0.588606
v 0.090451 -0.042645 0.606996
v 0.087158 0.049026 0.539872
v 0.090397 0.042759 0.539872
v 0.093187 0.036279 0.539872
v 0.095513 0.029619 0.539872
v 0.098107 0.019363 0.545963
v 0.097363 0.022812 0.539872
v 0.081491 0.057959 0.521596
v 0.079396 0.060797 0.515504
v 0.072529 0.068845 0.497229
v 0.070055 0.071360 0.491137
v 0.074912 0.066244 0.503321
v 0.077202 0.063560 0.509413
v 0.083484 0.055049 0.527688
v 0.085374 0.052070 0.533780
v 0.099604 0.008890 0.442403
v 0.098729 0.015890 0.442403
v 0.099983 0.001846 0.442403
v 0.099987 -0.001618 0.411812
v 0.099976 0.002170 0.405100
v 0.099969 0.002493 0.400000
v 0.099865 -0.005199 0.417999
v 0.099864 -0.005208 0.430220
v 0.099986 -0.001682 0.436311
v 0.099619 -0.008726 0.424121
v 0.097363 0.022812 0.442403
v 0.095513 0.029619 0.442403
v 0.093187 0.036279 0.442403
v 0.079396 0.060797 0.466770
v 0.083484 0.055049 0.466770
v 0.072529 0.068845 0.485046
v 0.074912 0.066244 0.478954
v 0.077202 0.063560 0.472862
v 0.087158 0.049026 0.466770
v 0.091849 0.039544 0.448495
v 0.090397 0.042759 0.454587
v 0.088833 0.045921 0.460679
v 0.094463 -0.032815 0.539872
v 0.091914 -0.039393 0.539872
v 0.096541 -0.026074 0.539872
v 0.098139 -0.019202 0.539872
v 0.099249 -0.012236 0.539872
v 0.090467 -0.042611 0.545963
v 0.088908 -0.045775 0.552055
v 0.087238 -0.048883 0.558147
v 0.085459 -0.051930 0.564238
v 0.083575 -0.054912 0.570330
v 0.081586 -0.057825 0.576422
v 0.083575 -0.054912 0.582514
v 0.098729 0.015890 0.552055
v 0.099228 0.012398 0.558147
v 0.099856 0.005371 0.558147
v 0.099986 -0.001682 0.558147
v 0.099864 -0.005208 0.552055
v 0.099618 -0.008727 0.545963
l 1 16
l 4 6
l 87 88
l 88 89
l 3 8
l 91 92
l 89 90
l 90 91
l 79 92
l 72 73
l 73 74
l 82 83
l 80 81
l 71 74
l 78 79
l 84 85
l 77 78
l 83 84
l 66 70
l 75 76
l 75 77
l 4 5
l 66 67
l 85 86
l 76 80
l 67 71
l 69 70
l 68 69
l 81 82
l 60 62
l 60 61
l 65 72
l 59 62
l 2 3
l 1 2
l 64 65
l 63 64
l 43 87
l 45 51
l 34 38
l 37 86
l 39 52
l 35 38
l 54 63
l 36 37
l 55 61
l 35 36
l 46 50
l 39 40
l 40 41
l 45 46
l 43 44
l 41 42
l 42 44
l 14 15
l 23 31
l 29 32
l 18 19
l 16 17
l 56 59
l 51 52
l 17 18
l 27 30
l 30 31
l 21 26
l 49 50
l 47 48
l 56 57
l 5 33
l 53 54
l 53 55
l 19 20
l 47 49
l 21 22
l 20 22
l 57 58
l 28 29
l 24 25
l 33 34
l 27 28
l 23 24
l 25 26
l 48 68
l 11 15
l 9 10
l 6 7
l 10 11
l 13 14
l 12 13
l 8 9
l 7 12
o test
v -0.062349 -0.078183 0.400000
v -0.066169 -0.074978 0.400000
v -0.012434 0.099224 0.400000
v -0.007473 0.099720 0.400000
v -0.027084 -0.096262 0.400000
v -0.031849 -0.094793 0.400000
v 0.002493 -0.099969 0.400000
v -0.002493 -0.099969 0.400000
v -0.050000 0.086603 0.400000
v -0.045621 0.088987 0.400000
v 0.098017 0.019815 0.400000
v 0.096908 0.024676 0.400000
v 0.085329 0.052144 0.400000
v 0.087822 0.047825 0.400000
v -0.099503 0.009957 0.400000
v -0.099876 0.004985 0.400000
v -0.073305 -0.068017 0.400000
v -0.076604 -0.064279 0.400000
v 0.096908 -0.024676 0.400000
v 0.095557 -0.029476 0.400000
v -0.041129 -0.091151 0.400000
v -0.045621 -0.088987 0.400000
v -0.022252 -0.097493 0.400000
v 0.093969 0.034202 0.400000
v 0.095557 0.029476 0.400000
v -0.054255 -0.084003 0.400000
v -0.058374 -0.081194 0.400000
v -0.036534 0.093087 0.400000
v -0.031849 0.094793 0.400000
v -0.069824 -0.071587 0.400000
v -0.036534 -0.093087 0.400000
v 0.099503 -0.009957 0.400000
v 0.098883 -0.014904 0.400000
v -0.017365 -0.098481 0.400000
v -0.012434 -0.099224 0.400000
v 0.092148 0.038843 0.400000
v 0.007473 -0.099720 0.400000
v 0.012434 -0.099224 0.400000
v 0.058374 -0.081194 0.400000
v 0.054255 -0.084003 0.400000
v -0.017365 0.098481 0.400000
v 0.041129 -0.091151 0.400000
v 0.036534 -0.093087 0.400000
v -0.076604 0.064279 0.400000
v -0.073305 0.068017 0.400000
v -0.041129 0.091151 0.400000
v 0.027084 0.096262 0.400000
v 0.022252 0.097493 0.400000
v -0.096908 0.024676 0.400000
v -0.095557 0.029476 0.400000
v -0.095557 -0.029476 0.400000
v -0.093969 -0.034202 0.400000
v 0.076604 -0.064279 0.400000
v 0.073305 -0.068017 0.400000
v -0.054255 0.084003 0.400000
v -0.058374 0.081194 0.400000
v 0.079713 0.060380 0.400000
v 0.076604 0.064279 0.400000
v -0.096908 -0.024676 0.400000
v 0.069824 -0.071587 0.400000
v -0.087822 -0.047825 0.400000
v -0.090097 -0.043388 0.400000
v -0.098017 0.019815 0.400000
v -0.098883 0.014904 0.400000
v -0.079713 -0.060380 0.400000
v 0.036534 0.093087 0.400000
v 0.041129 0.091151 0.400000
v 0.022252 -0.097493 0.400000
v 0.017365 -0.098481 0.400000
v -0.002493 0.099969 0.400000
v 0.073305 0.068017 0.400000
v -0.098883 -0.014904 0.400000
v -0.099503 -0.009957 0.400000
v -0.082624 0.056332 0.400000
v -0.079713 0.060380 0.400000
v -0.027084 0.096262 0.400000
v -0.022252 0.097493 0.400000
v -0.085329 -0.052144 0.400000
v -0.082624 -0.056332 0.400000
v -0.090097 0.043388 0.400000
v -0.087822 0.047825 0.400000
v 0.079713 -0.060380 0.400000
v 0.082624 -0.056332 0.400000
v 0.045621 0.088987 0.400000
v 0.007473 0.099720 0.400000
v 0.002493 0.099969 0.400000
v -0.093969 0.034202 0.400000
v 0.098017 -0.019815 0.400000
v 0.062349 -0.078183 0.400000
v 0.066169 -0.074978 0.400000
v 0.017365 0.098481 0.400000
v 0.012434 0.099224 0.400000
v -0.100000 0.000000 0.400000
v 0.099876 0.004985 0.400000
v 0.100000 0.000000 0.400000
v 0.099503 0.009957 0.400000
v 0.066169 0.074978 0.400000
v 0.069824 0.071587 0.400000
v 0.090097 0.043388 0.400000
v -0.085329 0.052144 0.400000
v -0.066169 0.074978 0.400000
v -0.062349 0.078183 0.400000
v -0.092148 0.038843 0.400000
v 0.099876 -0.004985 0.400000
v 0.050000 0.086603 0.400000
v 0.054255 0.084003 0.400000
v 0.090097 -0.043388 0.400000
v 0.092148 -0.038843 0.400000
v -0.099876 -0.004985 0.400000
v 0.085329 -0.052144 0.400000
v 0.027084 -0.096262 0.400000
v 0.031849 -0.094793 0.400000
v 0.087822 -0.047825 0.400000
v -0.050000 -0.086603 0.400000
v -0.069824 0.071587 0.400000
v 0.031849 0.094793 0.400000
v 0.050000 -0.086603 0.400000
v 0.045621 -0.088987 0.400000
v 0.098883 0.014904 0.400000
v 0.058374 0.081194 0.400000
v -0.092148 -0.038843 0.400000
v -0.007473 -0.099720 0.400000
v 0.082624 0.056332 0.400000
v 0.062349 0.078183 0.400000
v 0.093969 -0.034202 0.400000
v -0.098017 -0.019815 0.400000
v -0.062349 -0.078183 0.697961
v -0.066169 -0.074978 0.697961
v -0.012434 0.099224 0.697961
v -0.007473 0.099720 0.697961
v -0.027084 -0.096262 0.697961
v -0.031849 -0.094793 0.697961
v 0.002493 -0.099969 0.697961
v -0.002493 -0.099969 0.697961
v -0.050000 0.086603 0.697961
v -0.045621 0.088987 0.697961
v 0.098017 0.019815 0.697961
v 0.096908 0.024676 0.697961
v 0.085329 0.052144 0.697961
v 0.087822 0.047825 0.697961
v -0.099503 0.009957 0.697961
v -0.099876 0.004985 0.697961
v -0.073305 -0.068017 0.697961
v -0.076604 -0.064279 0.697961
v 0.096908 -0.024676 0.697961
v 0.095557 -0.029476 0.697961
v -0.041129 -0.091151 0.697961
v -0.045621 -0.088987 0.697961
v -0.022252 -0.097493 0.697961
v 0.093969 0.034202 0.697961
v 0.095557 0.029476 0.697961
v -0.054255 -0.084003 0.697961
v -0.058374 -0.081194 0.697961
v -0.036534 0.093087 0.697961
v -0.031849 0.094793 0.697961
v -0.069824 -0.071587 0.697961
v -0.036534 -0.093087 0.697961
v 0.099503 -0.009957 0.697961
v 0.098883 -0.014904 0.697961
v -0.017365 -0.098481 0.697961
v -0.012434 -0.099224 0.697961
v 0.092148 0.038843 0.697961
v 0.007473 -0.099720 0.697961
v 0.012434 -0.099224 0.697961
v 0.058374 -0.081194 0.697961
v 0.054255 -0.084003 0.697961
v -0.017365 0.098481 0.697961
v 0.041129 -0.091151 0.697961
v 0.036534 -0.093087 0.697961
v -0.076604 0.064279 0.697961
v -0.073305 0.068017 0.697961
v -0.041129 0.091151 0.697961
v 0.027084 0.096262 0.697961
v 0.022252 0.097493 0.697961
v -0.096908 0.024676 0.697961
v -0.095557 0.029476 0.697961
v -0.095557 -0.029476 0.697961
v -0.093969 -0.034202 0.697961
v 0.076604 -0.064279 0.697961
v 0.073305 -0.068017 0.697961
v -0.054255 0.084003 0.697961
v -0.058374 0.081194 0.697961
v 0.079713 0.060380 0.697961
v 0.076604 0.064279 0.697961
v -0.096908 -0.024676 0.697961
v 0.069824 -0.071587 0.697961
v -0.087822 -0.047825 0.697961
v -0.090097 -0.043388 0.697961
v -0.098017 0.019815 0.697961
v -0.098883 0.014904 0.697961
v -0.079713 -0.060380 0.697961
v 0.036534 0.093087 0.697961
v 0.041129 0.091151 0.697961
v 0.022252 -0.097493 0.697961
v 0.017365 -0.098481 0.697961
v -0.002493 0.099969 0.697961
v 0.073305 0.068017 0.697961
v -0.098883 -0.014904 0.697961
v -0.099503 -0.009957 0.697961
v -0.082624 0.056332 0.697961
v -0.079713 0.060380 0.697961
v -0.027084 0.096262 0.697961
v -0.022252 0.097493 0.697961
v -0.085329 -0.052144 0.697961
v -0.082624 -0.056332 0.697961
v -0.090097 0.043388 0.697961
v -0.087822 0.047825 0.697961
v 0.079713 -0.060380 0.697961
v 0.082624 -0.056332 0.697961
v 0.045621 0.088987 0.697961
v 0.007473 0.099720 0.697961
v 0.002493 0.099969 0.697961
v -0.093969 0.034202 0.697961
v 0.098017 -0.019815 0.697961
v 0.062349 -0.078183 0.697961
v 0.066169 -0.074978 0.697961
v 0.017365 0.098481 0.697961
v 0.012434 0.099224 0.697961
v -0.100000 0.000000 0.697961
v 0.099876 0.004985 0.697961
v 0.100000 0.000000 0.697961
v 0.099503 0.009957 0.697961
v 0.066169 0.074978 0.697961
v 0.069824 0.071587 0.697961
v 0.090097 0.043388 0.697961
v -0.085329 0.052144 0.697961
v -0.066169 0.074978 0.697961
v -0.062349 0.078183 0.697961
v -0.092148 0.038843 0.697961
v 0.099876 -0.004985 0.697961
v 0.050000 0.086603 0.697961
v 0.054255 0.084003 0.697961
v 0.090097 -0.043388 0.697961
v 0.092148 -0.038843 0.697961
v -0.099876 -0.004985 0.697961
v 0.085329 -0.052144 0.697961
v 0.027084 -0.096262 0.697961
v 0.031849 -0.094793 0.697961
v 0.087822 -0.047825 0.697961
v -0.050000 -0.086603 0.697961
v -0.069824 0.071587 0.697961
v 0.031849 0.094793 0.697961
v 0.050000 -0.086603 0.697961
v 0.045621 -0.088987 0.697961
v 0.098883 0.014904 0.697961
v 0.058374 0.081194 0.697961
v -0.092148 -0.038843 0.697961
v -0.007473 -0.099720 0.697961
v 0.082624 0.056332 0.697961
v 0.062349 0.078183 0.697961
v 0.093969 -0.034202 0.697961
v -0.098017 -0.019815 0.697961
v -0.087822 -0.047825 1.000000
v -0.090097 -0.043388 1.000000
v 0.066169 0.074978 1.000000
v 0.062349 0.078183 1.000000
v 0.082624 0.056332 0.000000
v 0.085329 0.052144 0.000000
v -0.098883 -0.014904 -0.000000
v -0.099503 -0.009957 -0.000000
v 0.087822 -0.047825 0.000000
v 0.085329 -0.052144 0.000000
v -0.099876 -0.004985 -0.000000
v 0.093969 0.034202 0.000000
v 0.095557 0.029476 0.000000
v -0.096908 0.024676 1.000000
v -0.095557 0.029476 1.000000
v -0.058374 -0.081194 -0.000000
v -0.062349 -0.078183 -0.000000
v 0.007473 -0.099720 1.000000
v 0.002493 -0.099969 1.000000
v 0.050000 0.086603 0.000000
v 0.054255 0.084003 0.000000
v -0.066169 -0.074978 -0.000000
v -0.027084 0.096262 1.000000
v -0.031849 0.094793 1.000000
v 0.017365 -0.098481 1.000000
v 0.012434 -0.099224 1.000000
v -0.098017 0.019815 1.000000
v -0.041129 -0.091151 -0.000000
v -0.045621 -0.088987 -0.000000
v -0.099876 0.004985 1.000000
v -0.100000 0.000000 1.000000
v -0.012434 0.099224 1.000000
v -0.007473 0.099720 1.000000
v -0.082624 -0.056332 1.000000
v -0.085329 -0.052144 1.000000
v -0.050000 0.086603 -0.000000
v -0.054255 0.084003 -0.000000
v -0.036534 -0.093087 1.000000
v -0.031849 -0.094793 1.000000
v -0.022252 0.097493 1.000000
v -0.073305 -0.068017 -0.000000
v -0.076604 -0.064279 -0.000000
v 0.082624 -0.056332 0.000000
v -0.002493 0.099969 1.000000
v -0.093969 0.034202 1.000000
v -0.092148 0.038843 1.000000
v 0.041129 -0.091151 0.000000
v 0.036534 -0.093087 0.000000
v -0.022252 -0.097493 1.000000
v -0.017365 -0.098481 1.000000
v -0.082624 0.056332 -0.000000
v -0.079713 0.060380 -0.000000
v 0.002493 0.099969 0.000000
v 0.007473 0.099720 0.000000
v 0.090097 -0.043388 1.000000
v 0.092148 -0.038843 1.000000
v 0.069824 0.071587 0.000000
v 0.073305 0.068017 0.000000
v -0.007473 0.099720 -0.000000
v -0.002493 0.099969 -0.000000
v -0.045621 0.088987 1.000000
v -0.050000 0.086603 1.000000
v -0.002493 -0.099969 1.000000
v 0.027084 0.096262 0.000000
v 0.031849 0.094793 0.000000
v -0.098017 0.019815 -0.000000
v -0.096908 0.024676 -0.000000
v 0.076604 0.064279 1.000000
v 0.079713 0.060380 1.000000
v -0.041129 -0.091151 1.000000
v -0.045621 -0.088987 1.000000
v -0.087822 -0.047825 -0.000000
v -0.090097 -0.043388 -0.000000
v -0.027084 -0.096262 1.000000
v -0.017365 0.098481 -0.000000
v -0.012434 0.099224 -0.000000
v 0.022252 0.097493 0.000000
v 0.017365 0.098481 0.000000
v 0.045621 0.088987 1.000000
v 0.041129 0.091151 1.000000
v 0.090097 0.043388 1.000000
v 0.092148 0.038843 1.000000
v 0.098017 -0.019815 0.000000
v 0.098883 -0.014904 0.000000
v 0.066169 -0.074978 1.000000
v 0.069824 -0.071587 1.000000
v -0.007473 -0.099720 -0.000000
v -0.012434 -0.099224 -0.000000
v 0.007473 0.099720 1.000000
v 0.002493 0.099969 1.000000
v 0.036534 0.093087 0.000000
v -0.022252 0.097493 -0.000000
v -0.027084 0.096262 -0.000000
v -0.073305 -0.068017 1.000000
v -0.076604 -0.064279 1.000000
v 0.027084 -0.096262 0.000000
v 0.022252 -0.097493 0.000000
v -0.054255 0.084003 1.000000
v 0.054255 -0.084003 1.000000
v 0.058374 -0.081194 1.000000
v 0.045621 0.088987 0.000000
v -0.022252 -0.097493 -0.000000
v -0.027084 -0.096262 -0.000000
v 0.092148 0.038843 0.000000
v 0.090097 0.043388 0.000000
v 0.098883 0.014904 0.000000
v 0.099503 0.009957 0.000000
v -0.092148 -0.038843 -0.000000
v -0.099503 0.009957 1.000000
v -0.098883 0.014904 1.000000
v -0.066169 0.074978 -0.000000
v -0.062349 0.078183 -0.000000
v 0.085329 -0.052144 1.000000
v 0.087822 -0.047825 1.000000
v -0.069824 -0.071587 1.000000
v -0.066169 -0.074978 1.000000
v -0.099876 0.004985 -0.000000
v -0.100000 0.000000 -0.000000
v -0.036534 0.093087 1.000000
v 0.082624 -0.056332 1.000000
v 0.076604 -0.064279 1.000000
v 0.079713 -0.060380 1.000000
v 0.007473 -0.099720 0.000000
v 0.002493 -0.099969 0.000000
v 0.022252 -0.097493 1.000000
v 0.062349 -0.078183 0.000000
v 0.058374 -0.081194 0.000000
v 0.027084 0.096262 1.000000
v 0.031849 0.094793 1.000000
v -0.087822 0.047825 1.000000
v -0.085329 0.052144 1.000000
v -0.098017 -0.019815 1.000000
v -0.096908 -0.024676 1.000000
v -0.017365 -0.098481 -0.000000
v 0.099503 0.009957 1.000000
v 0.099876 0.004985 1.000000
v 0.096908 -0.024676 1.000000
v 0.095557 -0.029476 1.000000
v 0.079713 -0.060380 0.000000
v 0.054255 -0.084003 0.000000
v 0.050000 -0.086603 0.000000
v -0.012434 -0.099224 1.000000
v -0.085329 -0.052144 -0.000000
v 0.073305 -0.068017 1.000000
v 0.036534 0.093087 1.000000
v 0.099876 -0.004985 1.000000
v 0.100000 0.000000 1.000000
v 0.069824 0.071587 1.000000
v -0.036534 0.093087 -0.000000
v -0.041129 0.091151 -0.000000
v 0.062349 -0.078183 1.000000
v 0.050000 -0.086603 1.000000
v 0.093969 -0.034202 0.000000
v 0.095557 -0.029476 0.000000
v 0.079713 0.060380 0.000000
v -0.002493 -0.099969 -0.000000
v 0.098017 0.019815 0.000000
v -0.079713 -0.060380 -0.000000
v -0.092148 0.038843 -0.000000
v -0.090097 0.043388 -0.000000
v 0.066169 0.074978 0.000000
v -0.045621 0.088987 -0.000000
v 0.099503 -0.009957 0.000000
v 0.076604 0.064279 0.000000
v -0.090097 0.043388 1.000000
v -0.082624 -0.056332 -0.000000
v 0.092148 -0.038843 0.000000
v 0.090097 -0.043388 0.000000
v 0.098017 -0.019815 1.000000
v 0.098883 -0.014904 1.000000
v 0.099503 -0.009957 1.000000
v 0.096908 0.024676 0.000000
v 0.017365 -0.098481 0.000000
v 0.050000 0.086603 1.000000
v 0.054255 0.084003 1.000000
v 0.058374 0.081194 1.000000
v 0.098883 0.014904 1.000000
v 0.031849 -0.094793 0.000000
v 0.093969 -0.034202 1.000000
v 0.099876 -0.004985 0.000000
v 0.100000 0.000000 0.000000
v -0.017365 0.098481 1.000000
v -0.041129 0.091151 1.000000
v 0.087822 0.047825 0.000000
v -0.098883 0.014904 -0.000000
v 0.073305 0.068017 1.000000
v -0.050000 -0.086603 -0.000000
v -0.054255 -0.084003 -0.000000
v -0.093969 -0.034202 -0.000000
v -0.050000 -0.086603 1.000000
v -0.054255 -0.084003 1.000000
v -0.058374 -0.081194 1.000000
v 0.096908 0.024676 1.000000
v 0.095557 0.029476 1.000000
v 0.096908 -0.024676 0.000000
v 0.017365 0.098481 1.000000
v 0.012434 0.099224 1.000000
v -0.098883 -0.014904 1.000000
v -0.099503 0.009957 -0.000000
v -0.031849 -0.094793 -0.000000
v -0.036534 -0.093087 -0.000000
v -0.095557 -0.029476 -0.000000
v 0.069824 -0.071587 0.000000
v 0.073305 -0.068017 0.000000
v 0.062349 0.078183 0.000000
v -0.073305 0.068017 -0.000000
v -0.069824 0.071587 -0.000000
v -0.076604 0.064279 -0.000000
v -0.095557 -0.029476 1.000000
v -0.098017 -0.019815 -0.000000
v -0.085329 0.052144 -0.000000
v -0.058374 0.081194 -0.000000
v -0.099503 -0.009957 1.000000
v -0.099876 -0.004985 1.000000
v 0.058374 0.081194 0.000000
v -0.092148 -0.038843 1.000000
v -0.062349 -0.078183 1.000000
v 0.085329 0.052144 1.000000
v 0.082624 0.056332 1.000000
v 0.012434 0.099224 0.000000
v 0.045621 -0.088987 0.000000
v 0.045621 -0.088987 1.000000
v -0.093969 -0.034202 1.000000
v 0.098017 0.019815 1.000000
v 0.041129 -0.091151 1.000000
v 0.022252 0.097493 1.000000
v -0.095557 0.029476 -0.000000
v 0.031849 -0.094793 1.000000
v 0.036534 -0.093087 1.000000
v -0.069824 -0.071587 -0.000000
v -0.093969 0.034202 -0.000000
v 0.027084 -0.096262 1.000000
v 0.012434 -0.099224 0.000000
v -0.007473 -0.099720 1.000000
v -0.096908 -0.024676 -0.000000
v -0.079713 -0.060380 1.000000
v -0.069824 0.071587 1.000000
v -0.066169 0.074978 1.000000
v -0.087822 0.047825 -0.000000
v -0.079713 0.060380 1.000000
v -0.076604 0.064279 1.000000
v -0.031849 0.094793 -0.000000
v 0.087822 0.047825 1.000000
v 0.066169 -0.074978 0.000000
v 0.076604 -0.064279 0.000000
v -0.082624 0.056332 1.000000
v -0.062349 0.078183 1.000000
v -0.058374 0.081194 1.000000
v 0.041129 0.091151 0.000000
v 0.093969 0.034202 1.000000
v 0.099876 0.004985 0.000000
v -0.073305 0.068017 1.000000
l 350 528
l 305 268
l 176 159
l 215 105
l 221 222
l 225 226
l 341 231
l 193 194
l 382 383
l 429 495
l 322 313
l 129 130
l 208 158
l 97 98
l 160 161
l 255 256
l 329 330
l 302 323
l 403 404
l 503 504
l 158 159
l 302 285
l 455 456
l 204 135
l 134 210
l 438 439
l 440 441
l 476 477
l 544 545
l 185 201
l 271 300
l 234 311
l 286 287
l 179 142
l 224 249
l 574 385
l 247 294
l 550 551
l 95 96
l 510 487
l 190 163
l 334 265
l 145 174
l 272 278
l 307 257
l 380 381
l 420 403
l 382 414
l 126 127
l 260 336
l 495 444
l 528 449
l 410 411
l 553 567
l 189 190
l 385 386
l 191 106
l 347 348
l 260 261
l 262 263
l 436 437
l 169 133
l 408 409
l 551 455
l 93 94
l 461 462
l 241 223
l 278 308
l 400 523
l 584 585
l 119 93
l 311 327
l 228 264
l 477 553
l 134 135
l 96 162
l 330 261
l 146 152
l 532 360
l 413 563
l 102 138
l 196 187
l 200 217
l 555 583
l 229 230
l 337 229
l 577 467
l 101 102
l 180 111
l 227 228
l 306 237
l 376 526
l 325 326
l 354 387
l 399 400
l 461 543
l 375 558
l 99 100
l 211 188
l 364 445
l 115 97
l 288 304
l 427 539
l 575 503
l 222 288
l 334 284
l 339 270
l 219 220
l 152 182
l 153 154
l 338 342
l 412 413
l 281 267
l 295 259
l 518 519
l 176 197
l 281 282
l 478 446
l 179 195
l 333 319
l 453 454
l 362 363
l 104 117
l 283 297
l 415 534
l 233 234
l 186 187
l 121 168
l 213 144
l 322 250
l 581 582
l 216 189
l 105 106
l 533 452
l 149 215
l 370 362
l 238 343
l 378 379
l 484 485
l 325 331
l 202 175
l 427 428
l 474 475
l 252 253
l 284 285
l 289 276
l 486 578
l 124 125
l 110 157
l 118 206
l 195 172
l 181 131
l 296 297
l 436 419
l 481 482
l 194 148
l 168 169
l 537 538
l 504 583
l 520 348
l 245 219
l 307 308
l 299 318
l 416 417
l 472 473
l 565 391
l 180 125
l 324 338
l 533 546
l 98 123
l 490 491
l 203 160
l 235 248
l 443 496
l 149 150
l 358 359
l 514 515
l 292 293
l 314 312
l 108 185
l 244 245
l 395 396
l 290 344
l 540 541
l 164 165
l 116 117
l 209 210
l 512 353
l 318 292
l 335 258
l 384 526
l 344 277
l 197 198
l 167 136
l 120 138
l 303 304
l 207 137
l 421 422
l 394 486
l 571 575
l 120 121
l 131 132
l 309 266
l 467 468
l 310 309
l 170 153
l 497 498
l 552 550
l 395 555
l 273 274
l 291 327
l 335 336
l 237 238
l 225 255
l 391 392
l 470 471
l 128 191
l 107 156
l 214 127
l 448 449
l 109 110
l 423 424
l 378 580
l 524 507
l 572 573
l 177 178
l 367 368
l 369 469
l 340 253
l 147 148
l 570 472
l 113 114
l 145 146
l 275 276
l 293 262
l 393 394
l 332 240
l 481 513
l 591 592
l 269 277
l 371 358
l 590 584
l 206 114
l 369 370
l 586 437
l 345 346
l 421 408
l 346 560
l 133 95
l 161 130
l 576 572
l 259 221
l 198 212
l 242 243
l 305 321
l 203 204
l 566 496
l 352 355
l 143 151
l 493 494
l 199 205
l 315 316
l 248 220
l 287 256
l 419 420
l 579 554
l 122 94
l 226 340
l 345 379
l 321 298
l 267 268
l 254 317
l 499 349
l 188 186
l 126 115
l 271 272
l 227 273
l 543 529
l 373 531
l 100 214
l 372 373
l 181 182
l 212 216
l 502 510
l 101 147
l 374 375
l 446 447
l 398 564
l 184 183
l 275 341
l 414 415
l 113 123
l 443 444
l 384 367
l 269 270
l 364 365
l 453 374
l 139 140
l 505 401
l 143 144
l 99 129
l 157 171
l 356 357
l 300 301
l 172 173
l 174 175
l 303 310
l 233 282
l 128 116
l 493 586
l 280 339
l 342 315
l 480 491
l 199 200
l 557 558
l 196 124
l 265 266
l 511 512
l 514 513
l 431 432
l 500 468
l 323 324
l 506 494
l 154 213
l 141 142
l 211 103
l 401 402
l 312 313
l 376 377
l 389 390
l 296 279
l 489 473
l 183 140
l 177 184
l 298 299
l 328 301
l 155 156
l 250 251
l 540 570
l 173 192
l 359 389
l 170 171
l 254 242
l 162 178
l 252 241
l 236 283
l 562 563
l 425 426
l 231 232
l 588 470
l 353 354
l 360 361
l 155 141
l 103 104
l 457 464
l 112 217
l 163 150
l 136 137
l 239 249
l 316 289
l 306 251
l 531 532
l 319 320
l 429 430
l 450 451
l 351 352
l 454 371
l 539 498
l 426 594
l 331 328
l 418 383
l 479 480
l 192 166
l 294 295
l 535 536
l 246 247
l 524 525
l 549 505
l 165 201
l 208 139
l 244 332
l 166 167
l 465 466
l 349 350
l 497 511
l 118 119
l 279 280
l 397 398
l 239 240
l 337 314
l 164 218
l 218 151
l 320 274
l 205 202
l 235 236
l 230 243
l 107 108
l 207 193
l 290 291
l 595 525
l 530 412
l 109 122
l 209 132
l 333 263
l 329 286
l 111 112
l 560 567
l 459 460
l 469 576
l 425 587
l 246 264
l 582 591
l 223 224
l 538 594
l 380 506
l 547 548
l 433 434
l 257 258
l 326 343
l 405 406
l 317 232
l 457 458
l 441 517
l 562 587
l 509 390
l 545 372
l 388 434
l 488 430
l 561 536
l 492 530
l 554 351
l 402 508
l 569 573
l 377 388
l 460 561
l 492 347
l 519 520
l 405 527
l 474 509
l 404 397
l 593 445
l 542 557
l 361 366
l 521 479
l 392 522
l 357 516
l 423 518
l 549 559
l 488 465
l 462 355
l 517 577
l 568 537
l 516 501
l 556 381
l 440 522
l 501 450
l 406 442
l 387 483
l 458 399
l 507 428
l 363 407
l 417 452
l 547 588
l 411 571
l 459 438
l 500 431
l 451 595
l 365 559
l 565 485
l 564 422
l 580 439
l 463 527
l 574 366
l 548 589
l 523 482
l 393 418
l 424 489
l 409 435
l 478 432
l 566 569
l 487 416
l 464 466
l 542 476
l 578 407
l 596 585
l 483 589
l 471 484
l 581 596
l 534 535
l 475 590
l 396 552
l 447 544
l 448 356
l 521 568
l 592 442
l 456 556
l 529 410
l 515 490
l 546 579
l 435 593
l 541 433
l 463 368
l 508 499
l 386 502
