ISO-10303-21;
HEADER;
FILE_DESCRIPTION(('Open CASCADE Model'),'2;1');
FILE_NAME('Open CASCADE Shape Model','2026-08-16T16:04:20',('Author'),(
    'Open CASCADE'),'Open CASCADE STEP processor 7.9','build123d',
  'Unknown');
FILE_SCHEMA(('AUTOMOTIVE_DESIGN { 1 0 10303 214 1 1 1 1 }'));
ENDSEC;
DATA;
#1 = APPLICATION_PROTOCOL_DEFINITION('international standard',
  'automotive_design',2000,#2);
#2 = APPLICATION_CONTEXT(
  'core data for automotive mechanical design processes');
#3 = SHAPE_DEFINITION_REPRESENTATION(#4,#10);
#4 = PRODUCT_DEFINITION_SHAPE('','',#5);
#5 = PRODUCT_DEFINITION('design','',#6,#9);
#6 = PRODUCT_DEFINITION_FORMATION('','',#7);
#7 = PRODUCT('COMPOUND','COMPOUND','',(#8));
#8 = PRODUCT_CONTEXT('',#2,'mechanical');
#9 = PRODUCT_DEFINITION_CONTEXT('part definition',#2,'design');
#10 = ADVANCED_BREP_SHAPE_REPRESENTATION('',(#11,#15),#172);
#11 = AXIS2_PLACEMENT_3D('',#12,#13,#14);
#12 = CARTESIAN_POINT('',(0.,0.,0.));
#13 = DIRECTION('',(0.,0.,1.));
#14 = DIRECTION('',(1.,0.,-0.));
#15 = MANIFOLD_SOLID_BREP('',#16);
#16 = CLOSED_SHELL('',(#17,#164,#168));
#17 = ADVANCED_FACE('',(#18),#38,.F.);
#18 = FACE_BOUND('',#19,.F.);
#19 = EDGE_LOOP('',(#20,#98,#121,#163));
#20 = ORIENTED_EDGE('',*,*,#21,.T.);
#21 = EDGE_CURVE('',#22,#22,#24,.T.);
#22 = VERTEX_POINT('',#23);
#23 = CARTESIAN_POINT('',(0.284703510511,0.316634268795,
    4.402926172887E-02));
#24 = SURFACE_CURVE('',#25,(#37,#78),.PCURVE_S1.);
#25 = B_SPLINE_CURVE_WITH_KNOTS('',10,(#26,#27,#28,#29,#30,#31,#32,#33,
    #34,#35,#36),.UNSPECIFIED.,.T.,.F.,(11,11),(0.,1.),
  .PIECEWISE_BEZIER_KNOTS.);
#26 = CARTESIAN_POINT('',(0.284703510511,0.316634268795,
    4.402926172887E-02));
#27 = CARTESIAN_POINT('',(0.284159843173,0.316932588353,
    4.224923677051E-02));
#28 = CARTESIAN_POINT('',(0.282430101255,0.317610617597,
    4.08935021152E-02));
#29 = CARTESIAN_POINT('',(0.279813567193,0.318503502396,
    4.095199405169E-02));
#30 = CARTESIAN_POINT('',(0.277442317345,0.319184753056,
    4.303769053627E-02));
#31 = CARTESIAN_POINT('',(0.276996829758,0.319100834451,
    4.679646752319E-02));
#32 = CARTESIAN_POINT('',(0.279423405452,0.318097696161,
    4.952398469715E-02));
#33 = CARTESIAN_POINT('',(0.282474095431,0.317043625092,
    4.966284780581E-02));
#34 = CARTESIAN_POINT('',(0.284605645081,0.316416859527,4.8016465078E-02
    ));
#35 = CARTESIAN_POINT('',(0.285247177848,0.316335949238,
    4.580928668724E-02));
#36 = CARTESIAN_POINT('',(0.284703510511,0.316634268795,
    4.402926172887E-02));
#37 = PCURVE('',#38,#72);
#38 = B_SPLINE_SURFACE_WITH_KNOTS('',10,2,(
    (#39,#40,#41)
    ,(#42,#43,#44)
    ,(#45,#46,#47)
    ,(#48,#49,#50)
    ,(#51,#52,#53)
    ,(#54,#55,#56)
    ,(#57,#58,#59)
    ,(#60,#61,#62)
    ,(#63,#64,#65)
    ,(#66,#67,#68)
    ,(#69,#70,#71
    )),.UNSPECIFIED.,.T.,.F.,.F.,(11,11),(3,3),(0.,1.),(0.,1.),
  .PIECEWISE_BEZIER_KNOTS.);
#39 = CARTESIAN_POINT('',(0.284703510511,0.316634268795,
    4.402926172887E-02));
#40 = CARTESIAN_POINT('',(0.261183498203,0.247994504545,
    4.834924656119E-02));
#41 = CARTESIAN_POINT('',(0.237663508898,0.179354747281,
    5.266924774812E-02));
#42 = CARTESIAN_POINT('',(0.284159843173,0.316932588353,
    4.224923677051E-02));
#43 = CARTESIAN_POINT('',(0.260639823766,0.24829283064,
    4.656922486692E-02));
#44 = CARTESIAN_POINT('',(0.237119834639,0.179653070997,
    5.088922560081E-02));
#45 = CARTESIAN_POINT('',(0.282430101255,0.317610617597,
    4.08935021152E-02));
#46 = CARTESIAN_POINT('',(0.258910078675,0.248970871382,
    4.521350001113E-02));
#47 = CARTESIAN_POINT('',(0.235390089445,0.180331109234,
    4.953349962247E-02));
#48 = CARTESIAN_POINT('',(0.279813567193,0.318503502396,
    4.095199405169E-02));
#49 = CARTESIAN_POINT('',(0.256293549318,0.24986376902,
    4.527200648434E-02));
#50 = CARTESIAN_POINT('',(0.232773559607,0.181224005562,
    4.959200455377E-02));
#51 = CARTESIAN_POINT('',(0.277442317345,0.319184753056,
    4.303769053627E-02));
#52 = CARTESIAN_POINT('',(0.253922312897,0.250545026925,
    4.73577158666E-02));
#53 = CARTESIAN_POINT('',(0.230402322434,0.18190526467,
    5.167771268911E-02));
#54 = CARTESIAN_POINT('',(0.276996829758,0.319100834451,
    4.679646752319E-02));
#55 = CARTESIAN_POINT('',(0.253476843007,0.25046110241,
    5.111649481891E-02));
#56 = CARTESIAN_POINT('',(0.229956851882,0.18182134434,
    5.543649165638E-02));
#57 = CARTESIAN_POINT('',(0.279423405452,0.318097696161,
    4.952398469715E-02));
#58 = CARTESIAN_POINT('',(0.255903426874,0.249457946208,
    5.384399813333E-02));
#59 = CARTESIAN_POINT('',(0.232383435764,0.180818192622,
    5.816399660669E-02));
#60 = CARTESIAN_POINT('',(0.282474095431,0.317043625092,
    4.966284780581E-02));
#61 = CARTESIAN_POINT('',(0.258954112299,0.248403859723,
    5.398284426507E-02));
#62 = CARTESIAN_POINT('',(0.235434121718,0.179764107908,
    5.830284455152E-02));
#63 = CARTESIAN_POINT('',(0.284605645081,0.316416859527,4.8016465078E-02
    ));
#64 = CARTESIAN_POINT('',(0.26108565091,0.247777087152,5.23364499123E-02
    ));
#65 = CARTESIAN_POINT('',(0.237565660969,0.179137334524,
    5.665645133653E-02));
#66 = CARTESIAN_POINT('',(0.285247177848,0.316335949238,
    4.580928668724E-02));
#67 = CARTESIAN_POINT('',(0.26172717264,0.24769617845,5.012926825546E-02
    ));
#68 = CARTESIAN_POINT('',(0.238207183157,0.179056423565,
    5.444926989543E-02));
#69 = CARTESIAN_POINT('',(0.284703510511,0.316634268795,
    4.402926172887E-02));
#70 = CARTESIAN_POINT('',(0.261183498203,0.247994504545,
    4.834924656119E-02));
#71 = CARTESIAN_POINT('',(0.237663508898,0.179354747281,
    5.266924774812E-02));
#72 = DEFINITIONAL_REPRESENTATION('',(#73),#77);
#73 = LINE('',#74,#75);
#74 = CARTESIAN_POINT('',(0.,0.));
#75 = VECTOR('',#76,1.);
#76 = DIRECTION('',(1.,0.));
#77 = ( GEOMETRIC_REPRESENTATION_CONTEXT(2) 
PARAMETRIC_REPRESENTATION_CONTEXT() REPRESENTATION_CONTEXT('2D SPACE',''
  ) );
#78 = PCURVE('',#79,#84);
#79 = PLANE('',#80);
#80 = AXIS2_PLACEMENT_3D('',#81,#82,#83);
#81 = CARTESIAN_POINT('',(0.284703510511,0.316634268795,
    4.402926172887E-02));
#82 = DIRECTION('',(-0.323579423708,-0.944332569835,-5.943361086742E-02)
  );
#83 = DIRECTION('',(-0.901170170199,0.288424480404,0.323579423708));
#84 = DEFINITIONAL_REPRESENTATION('',(#85),#97);
#85 = B_SPLINE_CURVE_WITH_KNOTS('',10,(#86,#87,#88,#89,#90,#91,#92,#93,
    #94,#95,#96),.UNSPECIFIED.,.T.,.F.,(11,11),(0.,1.),
  .PIECEWISE_BEZIER_KNOTS.);
#86 = CARTESIAN_POINT('',(0.,0.));
#87 = CARTESIAN_POINT('',(1.110223024625E-16,1.884955592154E-03));
#88 = CARTESIAN_POINT('',(1.315664212662E-03,3.77142713824E-03));
#89 = CARTESIAN_POINT('',(3.95006328038E-03,4.612174795394E-03));
#90 = CARTESIAN_POINT('',(6.958340743761E-03,3.434327252952E-03));
#91 = CARTESIAN_POINT('',(8.551859579344E-03,1.096345236817E-15));
#92 = CARTESIAN_POINT('',(6.958340743761E-03,-3.434327252954E-03));
#93 = CARTESIAN_POINT('',(3.95006328038E-03,-4.612174795393E-03));
#94 = CARTESIAN_POINT('',(1.315664212662E-03,-3.77142713824E-03));
#95 = CARTESIAN_POINT('',(1.387778780781E-16,-1.884955592154E-03));
#96 = CARTESIAN_POINT('',(0.,0.));
#97 = ( GEOMETRIC_REPRESENTATION_CONTEXT(2) 
PARAMETRIC_REPRESENTATION_CONTEXT() REPRESENTATION_CONTEXT('2D SPACE',''
  ) );
#98 = ORIENTED_EDGE('',*,*,#99,.T.);
#99 = EDGE_CURVE('',#22,#100,#102,.T.);
#100 = VERTEX_POINT('',#101);
#101 = CARTESIAN_POINT('',(0.237663508898,0.179354747281,
    5.266924774812E-02));
#102 = SEAM_CURVE('',#103,(#107,#114),.PCURVE_S1.);
#103 = B_SPLINE_CURVE_WITH_KNOTS('',2,(#104,#105,#106),.UNSPECIFIED.,.F.
  ,.F.,(3,3),(0.,1.),.PIECEWISE_BEZIER_KNOTS.);
#104 = CARTESIAN_POINT('',(0.284703510511,0.316634268795,
    4.402926172887E-02));
#105 = CARTESIAN_POINT('',(0.261183498203,0.247994504545,
    4.834924656119E-02));
#106 = CARTESIAN_POINT('',(0.237663508898,0.179354747281,
    5.266924774812E-02));
#107 = PCURVE('',#38,#108);
#108 = DEFINITIONAL_REPRESENTATION('',(#109),#113);
#109 = LINE('',#110,#111);
#110 = CARTESIAN_POINT('',(1.,0.));
#111 = VECTOR('',#112,1.);
#112 = DIRECTION('',(0.,1.));
#113 = ( GEOMETRIC_REPRESENTATION_CONTEXT(2) 
PARAMETRIC_REPRESENTATION_CONTEXT() REPRESENTATION_CONTEXT('2D SPACE',''
  ) );
#114 = PCURVE('',#38,#115);
#115 = DEFINITIONAL_REPRESENTATION('',(#116),#120);
#116 = LINE('',#117,#118);
#117 = CARTESIAN_POINT('',(0.,0.));
#118 = VECTOR('',#119,1.);
#119 = DIRECTION('',(0.,1.));
#120 = ( GEOMETRIC_REPRESENTATION_CONTEXT(2) 
PARAMETRIC_REPRESENTATION_CONTEXT() REPRESENTATION_CONTEXT('2D SPACE',''
  ) );
#121 = ORIENTED_EDGE('',*,*,#122,.F.);
#122 = EDGE_CURVE('',#100,#100,#123,.T.);
#123 = SURFACE_CURVE('',#124,(#136,#143),.PCURVE_S1.);
#124 = B_SPLINE_CURVE_WITH_KNOTS('',10,(#125,#126,#127,#128,#129,#130,
    #131,#132,#133,#134,#135),.UNSPECIFIED.,.T.,.F.,(11,11),(0.,1.),
  .PIECEWISE_BEZIER_KNOTS.);
#125 = CARTESIAN_POINT('',(0.237663508898,0.179354747281,
    5.266924774812E-02));
#126 = CARTESIAN_POINT('',(0.237119834639,0.179653070997,
    5.088922560081E-02));
#127 = CARTESIAN_POINT('',(0.235390089445,0.180331109234,
    4.953349962247E-02));
#128 = CARTESIAN_POINT('',(0.232773559607,0.181224005562,
    4.959200455377E-02));
#129 = CARTESIAN_POINT('',(0.230402322434,0.18190526467,
    5.167771268911E-02));
#130 = CARTESIAN_POINT('',(0.229956851882,0.18182134434,
    5.543649165638E-02));
#131 = CARTESIAN_POINT('',(0.232383435764,0.180818192622,
    5.816399660669E-02));
#132 = CARTESIAN_POINT('',(0.235434121718,0.179764107908,
    5.830284455152E-02));
#133 = CARTESIAN_POINT('',(0.237565660969,0.179137334524,
    5.665645133653E-02));
#134 = CARTESIAN_POINT('',(0.238207183157,0.179056423565,
    5.444926989543E-02));
#135 = CARTESIAN_POINT('',(0.237663508898,0.179354747281,
    5.266924774812E-02));
#136 = PCURVE('',#38,#137);
#137 = DEFINITIONAL_REPRESENTATION('',(#138),#142);
#138 = LINE('',#139,#140);
#139 = CARTESIAN_POINT('',(0.,1.));
#140 = VECTOR('',#141,1.);
#141 = DIRECTION('',(1.,0.));
#142 = ( GEOMETRIC_REPRESENTATION_CONTEXT(2) 
PARAMETRIC_REPRESENTATION_CONTEXT() REPRESENTATION_CONTEXT('2D SPACE',''
  ) );
#143 = PCURVE('',#144,#149);
#144 = PLANE('',#145);
#145 = AXIS2_PLACEMENT_3D('',#146,#147,#148);
#146 = CARTESIAN_POINT('',(0.237663508898,0.179354747281,
    5.266924774812E-02));
#147 = DIRECTION('',(-0.32358388051,-0.944331078525,-5.943304136921E-02)
  );
#148 = DIRECTION('',(-0.901167394599,0.288428152553,0.32358388051));
#149 = DEFINITIONAL_REPRESENTATION('',(#150),#162);
#150 = B_SPLINE_CURVE_WITH_KNOTS('',10,(#151,#152,#153,#154,#155,#156,
    #157,#158,#159,#160,#161),.UNSPECIFIED.,.T.,.F.,(11,11),(0.,1.),
  .PIECEWISE_BEZIER_KNOTS.);
#151 = CARTESIAN_POINT('',(0.,0.));
#152 = CARTESIAN_POINT('',(1.110223024625E-16,1.884955592154E-03));
#153 = CARTESIAN_POINT('',(1.315664212662E-03,3.77142713824E-03));
#154 = CARTESIAN_POINT('',(3.95006328038E-03,4.612174795394E-03));
#155 = CARTESIAN_POINT('',(6.958340743761E-03,3.434327252952E-03));
#156 = CARTESIAN_POINT('',(8.551859579344E-03,1.08246744901E-15));
#157 = CARTESIAN_POINT('',(6.958340743761E-03,-3.434327252954E-03));
#158 = CARTESIAN_POINT('',(3.95006328038E-03,-4.612174795393E-03));
#159 = CARTESIAN_POINT('',(1.315664212662E-03,-3.77142713824E-03));
#160 = CARTESIAN_POINT('',(8.326672684689E-17,-1.884955592154E-03));
#161 = CARTESIAN_POINT('',(0.,0.));
#162 = ( GEOMETRIC_REPRESENTATION_CONTEXT(2) 
PARAMETRIC_REPRESENTATION_CONTEXT() REPRESENTATION_CONTEXT('2D SPACE',''
  ) );
#163 = ORIENTED_EDGE('',*,*,#99,.F.);
#164 = ADVANCED_FACE('',(#165),#79,.F.);
#165 = FACE_BOUND('',#166,.F.);
#166 = EDGE_LOOP('',(#167));
#167 = ORIENTED_EDGE('',*,*,#21,.F.);
#168 = ADVANCED_FACE('',(#169),#144,.T.);
#169 = FACE_BOUND('',#170,.F.);
#170 = EDGE_LOOP('',(#171));
#171 = ORIENTED_EDGE('',*,*,#122,.T.);
#172 = ( GEOMETRIC_REPRESENTATION_CONTEXT(3) 
GLOBAL_UNCERTAINTY_ASSIGNED_CONTEXT((#176)) GLOBAL_UNIT_ASSIGNED_CONTEXT
((#173,#174,#175)) REPRESENTATION_CONTEXT('Context #1',
  '3D Context with UNIT and UNCERTAINTY') );
#173 = ( LENGTH_UNIT() NAMED_UNIT(*) SI_UNIT(.MILLI.,.METRE.) );
#174 = ( NAMED_UNIT(*) PLANE_ANGLE_UNIT() SI_UNIT($,.RADIAN.) );
#175 = ( NAMED_UNIT(*) SI_UNIT($,.STERADIAN.) SOLID_ANGLE_UNIT() );
#176 = UNCERTAINTY_MEASURE_WITH_UNIT(LENGTH_MEASURE(1.E-07),#173,
  'distance_accuracy_value','confusion accuracy');
#177 = PRODUCT_RELATED_PRODUCT_CATEGORY('part',$,(#7));
ENDSEC;
END-ISO-10303-21;
